<svg width="35" height="37" viewBox="0 0 35 37" fill="none" xmlns="http://www.w3.org/2000/svg">
<g clip-path="url(#clip0_5930_803)">
<path d="M34.4414 26.27C34.2552 25.826 34.069 25.345 33.8829 24.938C33.585 24.272 33.2871 23.643 33.0265 23.051L32.9893 23.014C30.4201 17.464 27.6648 11.84 24.7605 6.29L24.6488 6.068C24.351 5.513 24.0531 4.921 23.7552 4.329C23.3829 3.663 23.0105 2.96 22.4148 2.294C21.2233 0.814 19.5105 0 17.6861 0C15.8244 0 14.1488 0.814 12.9201 2.22C12.3616 2.886 11.952 3.589 11.5797 4.255C11.2818 4.847 10.9839 5.439 10.6861 5.994L10.5744 6.216C7.70734 11.766 4.91479 17.39 2.34565 22.94L2.30841 23.014C2.04778 23.606 1.7499 24.235 1.45203 24.901C1.26586 25.308 1.07969 25.752 0.89352 26.233C0.409477 27.602 0.260542 28.897 0.446711 30.229C0.856286 33.004 2.71799 35.335 5.28713 36.371C6.25521 36.778 7.26053 36.963 8.30308 36.963C8.60096 36.963 8.9733 36.926 9.27117 36.889C10.4999 36.741 11.7659 36.334 12.9946 35.631C14.5212 34.78 15.9733 33.559 17.6116 31.783C19.2499 33.559 20.7393 34.78 22.2286 35.631C23.4573 36.334 24.7233 36.741 25.952 36.889C26.2499 36.926 26.6222 36.963 26.9201 36.963C27.9627 36.963 29.0052 36.778 29.9361 36.371C32.5424 35.335 34.3669 32.967 34.7765 30.229C35.0744 28.934 34.9254 27.639 34.4414 26.27ZM17.6488 28.194C15.6382 25.678 14.335 23.31 13.8882 21.312C13.702 20.461 13.6648 19.721 13.7765 19.055C13.851 18.463 14.0744 17.945 14.3722 17.501C15.0797 16.502 16.2712 15.873 17.6488 15.873C19.0265 15.873 20.2552 16.465 20.9254 17.501C21.2233 17.945 21.4467 18.463 21.5212 19.055C21.6329 19.721 21.5956 20.498 21.4095 21.312C20.9627 23.273 19.6595 25.641 17.6488 28.194ZM32.5052 29.933C32.2446 31.857 30.9414 33.522 29.1169 34.262C28.2233 34.632 27.2552 34.743 26.2871 34.632C25.3563 34.521 24.4254 34.225 23.4573 33.67C22.1169 32.93 20.7765 31.783 19.2127 30.081C21.6701 27.084 23.1595 24.346 23.718 21.904C23.9786 20.757 24.0159 19.721 23.9041 18.759C23.7552 17.834 23.4201 16.983 22.8988 16.243C21.7446 14.578 19.8084 13.616 17.6488 13.616C15.4893 13.616 13.5531 14.615 12.3988 16.243C11.8776 16.983 11.5424 17.834 11.3935 18.759C11.2446 19.721 11.2818 20.794 11.5797 21.904C12.1382 24.346 13.6648 27.121 16.085 30.118C14.5584 31.82 13.1807 32.967 11.8403 33.707C10.8722 34.262 9.94138 34.558 9.01053 34.669C8.00521 34.78 7.03713 34.632 6.18074 34.299C4.35627 33.559 3.05309 31.894 2.79246 29.97C2.68075 29.045 2.75522 28.12 3.12756 27.084C3.23926 26.714 3.42543 26.344 3.61161 25.9C3.87223 25.308 4.1701 24.679 4.46798 24.05L4.50521 23.976C7.07436 18.463 9.82968 12.839 12.6967 7.363L12.8084 7.141C13.1063 6.586 13.4041 5.994 13.702 5.439C13.9999 4.847 14.335 4.292 14.7446 3.811C15.5265 2.923 16.569 2.442 17.7233 2.442C18.8776 2.442 19.9201 2.923 20.702 3.811C21.1116 4.292 21.4467 4.847 21.7446 5.439C22.0424 5.994 22.3403 6.586 22.6382 7.141L22.7499 7.363C25.5797 12.876 28.335 18.5 30.9042 24.013V24.05C31.202 24.642 31.4627 25.308 31.7605 25.9C31.9467 26.344 32.1329 26.714 32.2446 27.084C32.5424 28.046 32.6542 28.971 32.5052 29.933Z" fill="#FF5A5F"/>
</g>
<defs>
<clipPath id="clip0_5930_803">
<rect width="35" height="37" fill="white"/>
</clipPath>
</defs>
</svg>
