<svg width="38" height="17" viewBox="0 0 38 17" fill="none" xmlns="http://www.w3.org/2000/svg">
<g clip-path="url(#clip0_5930_858)">
<path d="M25.9481 16.6324L26.1415 15.9723C26.372 15.1872 26.2863 14.4614 25.8996 13.9282C25.5436 13.437 24.9506 13.1477 24.2303 13.1141L10.589 12.9438C10.5467 12.943 10.5051 12.9323 10.4678 12.9127C10.4303 12.8931 10.3982 12.8651 10.3738 12.831C10.35 12.7957 10.3347 12.7554 10.3293 12.7133C10.3241 12.6712 10.3288 12.6285 10.3431 12.5885C10.3665 12.5225 10.409 12.4648 10.4653 12.4224C10.5217 12.38 10.5893 12.3548 10.66 12.3499L24.4277 12.1777C26.0609 12.1037 27.8292 10.7968 28.4482 9.20307L29.2333 7.17977C29.2655 7.09422 29.2729 7.00152 29.2546 6.91208C28.3631 2.95734 24.7843 0 20.5053 0C16.5628 0 13.2152 2.50958 12.0145 5.99774C11.203 5.39711 10.1914 5.121 9.18234 5.22468C7.29089 5.40992 5.7701 6.91177 5.58286 8.77744C5.53487 9.24329 5.56997 9.71385 5.68687 10.1677C2.59703 10.2566 0.119141 12.7531 0.119141 15.8219C0.119535 16.0959 0.140045 16.3694 0.180543 16.6405C0.189484 16.7031 0.220911 16.7604 0.269167 16.8021C0.317423 16.8438 0.379355 16.8669 0.44339 16.8672L25.6278 16.8704C25.6302 16.8705 25.6325 16.8705 25.6349 16.8704C25.7062 16.8691 25.7751 16.8453 25.8315 16.8025C25.8879 16.7595 25.9288 16.7 25.9481 16.6324Z" fill="#F6821F"/>
<path d="M30.491 7.32617C30.3646 7.32617 30.2386 7.32931 30.1132 7.33557C30.093 7.33699 30.0731 7.34129 30.0542 7.34831C30.0213 7.35939 29.9916 7.37817 29.9677 7.40304C29.9437 7.4279 29.9262 7.45812 29.9168 7.4911L29.3804 9.31825C29.1498 10.1034 29.2355 10.8286 29.6226 11.3619C29.9783 11.8536 30.5713 12.1422 31.2915 12.1758L34.1996 12.348C34.2405 12.3494 34.2805 12.3601 34.3165 12.3794C34.3524 12.3986 34.3833 12.4259 34.4067 12.459C34.4309 12.4945 34.4463 12.535 34.4515 12.5774C34.4569 12.6198 34.452 12.6628 34.4374 12.703C34.414 12.7689 34.3716 12.8265 34.3154 12.8689C34.2593 12.9113 34.1917 12.9365 34.1212 12.9416L31.0996 13.1138C29.4591 13.1884 27.6912 14.4947 27.0727 16.0884L26.8544 16.6511C26.8453 16.6746 26.8419 16.6999 26.8447 16.725C26.8474 16.75 26.8561 16.7741 26.8702 16.7952C26.8843 16.8162 26.9031 16.8337 26.9253 16.8462C26.9475 16.8585 26.9725 16.8656 26.998 16.8667C27.0008 16.8667 27.0033 16.8667 27.006 16.8667H37.403C37.4635 16.8672 37.5224 16.8482 37.5709 16.8126C37.6193 16.7769 37.6547 16.7267 37.6714 16.6693C37.8556 16.0211 37.9487 15.3511 37.948 14.6778C37.9469 10.6179 34.6086 7.32617 30.491 7.32617Z" fill="#FBAD41"/>
</g>
<defs>
<clipPath id="clip0_5930_858">
<rect width="38" height="17" fill="white"/>
</clipPath>
</defs>
</svg>
