<svg width="35" height="27" viewBox="0 0 35 27" fill="none" xmlns="http://www.w3.org/2000/svg">
<g clip-path="url(#clip0_5930_879)">
<path d="M29.6282 2.26122C27.364 1.20486 24.9431 0.437111 22.4123 0C22.1014 0.560398 21.7383 1.31414 21.488 1.91376C18.7975 1.51028 16.1317 1.51028 13.4908 1.91376C13.2405 1.31414 12.869 0.560398 12.5555 0C10.0218 0.437111 7.59821 1.20766 5.33415 2.26682C0.767499 9.14851 -0.470446 15.8594 0.148527 22.4748C3.17737 24.7304 6.11267 26.1006 8.99846 26.9972C9.71097 26.0193 10.3464 24.9798 10.8939 23.8842C9.85127 23.4891 8.85266 23.0016 7.90906 22.4355C8.1594 22.2507 8.40425 22.0573 8.64083 21.8584C14.396 24.5427 20.6489 24.5427 26.3352 21.8584C26.5745 22.0573 26.8194 22.2507 27.067 22.4355C26.1206 23.0043 25.1193 23.4919 24.0766 23.887C24.6241 24.9798 25.2568 26.0222 25.972 27C28.8605 26.1034 31.7986 24.7332 34.8275 22.4748C35.5538 14.8058 33.5868 8.1566 29.6282 2.26122ZM11.6779 18.4064C9.95031 18.4064 8.53354 16.7979 8.53354 14.8394C8.53354 12.8808 9.92004 11.2697 11.6779 11.2697C13.4358 11.2697 14.8525 12.878 14.8223 14.8394C14.8251 16.7979 13.4358 18.4064 11.6779 18.4064ZM23.2981 18.4064C21.5705 18.4064 20.1537 16.7979 20.1537 14.8394C20.1537 12.8808 21.5402 11.2697 23.2981 11.2697C25.0559 11.2697 26.4728 12.878 26.4425 14.8394C26.4425 16.7979 25.0559 18.4064 23.2981 18.4064Z" fill="#5865F2"/>
</g>
<defs>
<clipPath id="clip0_5930_879">
<rect width="35" height="27" fill="white"/>
</clipPath>
</defs>
</svg>
