<svg width="34" height="34" viewBox="0 0 34 34" fill="none" xmlns="http://www.w3.org/2000/svg">
<g clip-path="url(#clip0_5930_1131)">
<path d="M17.0004 1.12891C25.766 1.12891 32.8582 8.22109 32.8582 16.9734C32.8582 25.7258 25.766 32.8312 17.0004 32.8312C8.23477 32.8312 1.14258 25.7391 1.14258 16.9867C1.14258 8.23438 8.23477 1.12891 17.0004 1.12891Z" fill="#E74D89"/>
<path d="M17 33.9602C7.62344 33.9602 0 26.35 0 16.9867C0 7.61016 7.62344 0 17 0C26.3766 0 34 7.61016 34 16.9734C34 26.3367 26.3766 33.9602 17 33.9602ZM31.3305 19.2977C30.8391 19.1383 26.8414 17.9563 22.2859 18.6734C24.1852 23.8797 24.9555 28.1297 25.1016 29.0062C28.3687 26.8148 30.693 23.3352 31.3305 19.2977ZM22.6711 30.3477C22.4586 29.0727 21.6086 24.6367 19.5766 19.3508C19.55 19.3641 19.5102 19.3773 19.4836 19.3773C11.2891 22.2328 8.35391 27.9039 8.08828 28.4352C10.5453 30.3477 13.6398 31.4898 17 31.4898C19.0055 31.5031 20.9312 31.0914 22.6711 30.3477ZM6.21562 26.6953C6.54766 26.1375 10.532 19.55 18.0227 17.1195C18.2086 17.0531 18.4078 17 18.5938 16.9469C18.2352 16.1234 17.8367 15.3 17.4117 14.4898C10.1602 16.6547 3.12109 16.5617 2.48359 16.5484C2.48359 16.6945 2.47031 16.8406 2.47031 16.9867C2.48359 20.7188 3.89141 24.1187 6.21562 26.6953ZM2.78906 14.025C3.43984 14.0383 9.41641 14.0648 16.2164 12.2586C13.8125 7.98203 11.2094 4.39609 10.8375 3.87813C6.76016 5.79063 3.73203 9.53594 2.78906 14.025ZM13.6 2.89531C13.9984 3.42656 16.6414 7.0125 19.0187 11.382C24.1852 9.44297 26.3633 6.52109 26.6289 6.14922C24.0656 3.87812 20.6922 2.49687 17 2.49687C15.8313 2.49687 14.6891 2.64297 13.6 2.89531ZM28.2359 7.82266C27.9305 8.23438 25.5 11.3555 20.1344 13.5469C20.4664 14.2375 20.7984 14.9414 21.1039 15.6453C21.2102 15.8977 21.3164 16.15 21.4227 16.3891C26.257 15.7781 31.0516 16.7609 31.5297 16.8539C31.4898 13.4406 30.268 10.293 28.2359 7.82266Z" fill="#B2215A"/>
</g>
<defs>
<clipPath id="clip0_5930_1131">
<rect width="34" height="34" fill="white"/>
</clipPath>
</defs>
</svg>
