<svg width="34" height="32" viewBox="0 0 34 32" fill="none" xmlns="http://www.w3.org/2000/svg">
<g clip-path="url(#clip0_5930_897)">
<path d="M9.88372 0L0 6.48L6.87907 12.08L16.7628 5.84L9.88372 0ZM0 17.52L9.88372 24.08L16.7628 18.24L6.87907 12.08L0 17.52ZM16.7628 18.24L23.7209 24.08L33.5256 17.6L26.7256 12.08L16.7628 18.24ZM33.5256 6.48L23.7209 0L16.7628 5.84L26.7256 12.08L33.5256 6.48ZM16.8419 19.52L9.88372 25.36L6.95814 23.36V25.6L16.8419 31.6L26.7256 25.6V23.36L23.7209 25.36L16.8419 19.52Z" fill="#0056FE"/>
</g>
<defs>
<clipPath id="clip0_5930_897">
<rect width="34" height="32" fill="white"/>
</clipPath>
</defs>
</svg>
