<svg width="23" height="35" viewBox="0 0 23 35" fill="none" xmlns="http://www.w3.org/2000/svg">
<g clip-path="url(#clip0_5930_1018)">
<path d="M5.7508 34.9997C8.92417 34.9997 11.4997 32.3863 11.4997 29.1663V23.333H5.7508C2.57744 23.333 0.00195312 25.9463 0.00195312 29.1663C0.00195312 32.3863 2.57744 34.9997 5.7508 34.9997Z" fill="#0ACF83"/>
<path d="M0.00195312 17.5003C0.00195312 14.2803 2.57744 11.667 5.7508 11.667H11.4997V23.3337H5.7508C2.57744 23.3337 0.00195312 20.7203 0.00195312 17.5003Z" fill="#A259FF"/>
<path d="M0.00195312 5.83333C0.00195312 2.61333 2.57744 0 5.7508 0H11.4997V11.6667H5.7508C2.57744 11.6667 0.00195312 9.05333 0.00195312 5.83333Z" fill="#F24E1E"/>
<path d="M11.5 0H17.2488C20.4222 0 22.9977 2.61333 22.9977 5.83333C22.9977 9.05333 20.4222 11.6667 17.2488 11.6667H11.5V0Z" fill="#FF7262"/>
<path d="M22.9977 17.5003C22.9977 20.7203 20.4222 23.3337 17.2488 23.3337C14.0755 23.3337 11.5 20.7203 11.5 17.5003C11.5 14.2803 14.0755 11.667 17.2488 11.667C20.4222 11.667 22.9977 14.2803 22.9977 17.5003Z" fill="#1ABCFE"/>
</g>
<defs>
<clipPath id="clip0_5930_1018">
<rect width="23" height="35" fill="white"/>
</clipPath>
</defs>
</svg>
