<svg width="35" height="34" viewBox="0 0 35 34" fill="none" xmlns="http://www.w3.org/2000/svg">
<g clip-path="url(#clip0_5930_1021)">
<path d="M34.3315 13.5935L34.2847 13.4674L29.5586 1.01575C29.463 0.771261 29.2927 0.563859 29.0726 0.423567C28.9083 0.317372 28.7217 0.251518 28.5278 0.231282C28.3338 0.211045 28.1379 0.23699 27.9555 0.307037C27.7734 0.377086 27.6098 0.489286 27.4782 0.634649C27.3467 0.780009 27.2506 0.954487 27.1978 1.1441L24.0077 11.0086H11.0889L7.89872 1.1441C7.84551 0.954771 7.74925 0.780621 7.61758 0.635538C7.48592 0.490455 7.32251 0.378453 7.14038 0.308462C6.95827 0.238472 6.76249 0.212431 6.56863 0.232415C6.37479 0.252401 6.18825 0.317856 6.02388 0.423567C5.80378 0.563859 5.63355 0.771261 5.53789 1.01575L0.814015 13.4697L0.76497 13.5935C0.0848689 15.3888 0.00108297 17.3587 0.526244 19.2063C1.0514 21.0538 2.15704 22.6789 3.67645 23.8362L3.69428 23.8497L3.73439 23.8813L10.9239 29.3235L14.4908 32.0458L16.6576 33.7007C16.9119 33.8948 17.2218 33.9998 17.5404 33.9998C17.8591 33.9998 18.169 33.8948 18.4232 33.7007L20.5901 32.0458L24.157 29.3235L31.3978 23.8497L31.4179 23.834C32.9371 22.6771 34.0429 21.0525 34.5685 19.2054C35.094 17.3583 35.0108 15.3887 34.3315 13.5935Z" fill="#E24329"/>
<path d="M34.3304 13.5929L34.2836 13.4668C31.981 13.944 29.8112 14.9298 27.9301 16.3534L17.5527 24.2792L24.1604 29.3229L31.4011 23.8492L31.4212 23.8334C32.9398 22.6758 34.0446 21.051 34.5694 19.204C35.094 17.3569 35.0102 15.3876 34.3304 13.5929Z" fill="#FC6D26"/>
<path d="M10.9238 29.323L14.4907 32.0453L16.6576 33.7002C16.9118 33.8943 17.2218 33.9992 17.5404 33.9992C17.859 33.9992 18.1689 33.8943 18.4232 33.7002L20.5901 32.0453L24.1569 29.323L17.5493 24.2793L10.9238 29.323Z" fill="#FCA326"/>
<path d="M7.16528 16.3541C5.28478 14.9312 3.11585 13.9462 0.814015 13.4697L0.76497 13.5936C0.0848689 15.3888 0.001083 17.3588 0.526244 19.2063C1.0514 21.0539 2.15704 22.6789 3.67645 23.8363L3.69428 23.8498L3.73439 23.8813L10.9239 29.3236L17.536 24.2799L7.16528 16.3541Z" fill="#FC6D26"/>
</g>
<defs>
<clipPath id="clip0_5930_1021">
<rect width="35" height="34" fill="white"/>
</clipPath>
</defs>
</svg>
