<svg width="36" height="32" viewBox="0 0 36 32" fill="none" xmlns="http://www.w3.org/2000/svg">
<g clip-path="url(#clip0_5930_1022)">
<mask id="mask0_5930_1022" style="mask-type:alpha" maskUnits="userSpaceOnUse" x="0" y="0" width="36" height="32">
<path d="M0 0H36V32H0V0Z" fill="white"/>
</mask>
<g mask="url(#mask0_5930_1022)">
<path fill-rule="evenodd" clip-rule="evenodd" d="M32.2571 15.6801C31.7756 17.5088 30.9952 19.2925 29.938 20.9816C29.2629 22.0603 28.5026 23.0534 27.6681 23.9526C28.6207 20.0761 27.9759 15.3274 25.639 10.8741C25.4747 10.5609 25.0951 10.4572 24.7947 10.6446L17.5171 15.1845C17.2385 15.3584 17.1537 15.7248 17.3277 16.003L18.3948 17.7078C18.5689 17.986 18.936 18.0706 19.2147 17.8968L23.9315 14.9542C24.0895 15.4064 24.2313 15.8617 24.3519 16.3202C24.8058 18.0432 24.9749 19.7246 24.8543 21.3178C24.6302 24.2837 23.4208 26.5946 21.4487 27.8249C20.4638 28.4393 19.3196 28.7647 18.076 28.8001C18.049 28.7996 18.0215 28.8005 17.9945 28.8001C17.9713 28.8001 17.9478 28.7996 17.9246 28.8001C16.6809 28.7648 15.5364 28.4393 14.5513 27.8247C12.5793 26.5946 11.3697 24.2837 11.1456 21.3178C11.0252 19.7246 11.1943 18.0432 11.648 16.3202C12.1297 14.4915 12.9098 12.7078 13.9672 11.0187C15.0244 9.32948 16.2881 7.84744 17.7235 6.61368C19.0757 5.45121 20.5154 4.56244 22.0025 3.97207C24.771 2.87296 27.3817 2.94531 29.3538 4.17556C31.3258 5.40566 32.5354 7.7166 32.7595 10.6825C32.88 12.2757 32.711 13.9571 32.2571 15.6801ZM6.06211 20.9816C5.0048 19.2925 4.22455 17.5088 3.74289 15.6801C3.28914 13.9571 3.1201 12.2757 3.24047 10.6825C3.46475 7.7166 4.67418 5.40566 6.6463 4.17556C8.61827 2.94531 11.2291 2.87296 13.9974 3.97207C14.4143 4.13748 14.8267 4.32986 15.2351 4.54234C13.7594 5.87723 12.4037 7.48143 11.2504 9.32399C8.19641 14.2031 7.26757 19.6227 8.33236 23.953C7.4978 23.0539 6.73739 22.0605 6.06211 20.9816ZM31.0513 1.46327C27.3098 -0.870818 22.3847 -0.316084 17.9988 2.44114C13.6136 -0.31517 8.68968 -0.870361 4.94865 1.46342C-0.961923 5.15054 -1.67977 14.648 3.34529 22.6765C7.05061 28.5961 12.8432 32.0637 18.0003 31.9991C23.157 32.0634 28.9495 28.5959 32.6547 22.6765C37.6797 14.648 36.962 5.15054 31.0513 1.46327Z" fill="#1BDBDB"/>
</g>
</g>
<defs>
<clipPath id="clip0_5930_1022">
<rect width="36" height="32" fill="white"/>
</clipPath>
</defs>
</svg>
