<svg width="33" height="34" viewBox="0 0 33 34" fill="none" xmlns="http://www.w3.org/2000/svg">
<g clip-path="url(#clip0_5930_1019)">
<path d="M33.0001 17.4067C33.0001 16.261 32.8901 15.0784 32.7067 13.9697H16.8301V20.511H25.9234C25.5567 22.6176 24.3467 24.4654 22.5501 25.648L27.9767 29.898C31.1667 26.9045 33.0001 22.5436 33.0001 17.4067Z" fill="#4280EF"/>
<path d="M16.8302 33.963C21.3769 33.963 25.1902 32.4478 27.9769 29.8608L22.5502 25.6478C21.0469 26.6825 19.1035 27.2738 16.8302 27.2738C12.4302 27.2738 8.72687 24.2804 7.37021 20.2891L1.79688 24.613C4.65687 30.3412 10.4502 33.963 16.8302 33.963Z" fill="#34A353"/>
<path d="M7.3706 20.2519C6.67393 18.1454 6.67393 15.8541 7.3706 13.7476L1.79727 9.38672C-0.586068 14.1911 -0.586068 19.8454 1.79727 24.6128L7.3706 20.2519Z" fill="#F6B704"/>
<path d="M16.8302 6.76287C19.2135 6.72591 21.5602 7.64982 23.2835 9.31287L28.0869 4.43461C25.0435 1.552 21.0102 -0.000178702 16.8302 0.0367778C10.4502 0.0367778 4.65688 3.65852 1.79688 9.38678L7.37021 13.7477C8.72688 9.71939 12.4302 6.76287 16.8302 6.76287Z" fill="#E54335"/>
</g>
<defs>
<clipPath id="clip0_5930_1019">
<rect width="33" height="34" fill="white"/>
</clipPath>
</defs>
</svg>
