<svg width="32" height="37" viewBox="0 0 32 37" fill="none" xmlns="http://www.w3.org/2000/svg">
<g clip-path="url(#clip0_5930_1023)">
<path d="M23.0176 4.4123V32.1467C23.0176 35.2525 25.1492 36.9793 27.4118 36.9793C29.5044 36.9793 31.806 35.5086 31.806 32.1467V4.6224C31.806 1.77936 29.7136 0 27.4118 0C25.11 0 23.0176 1.96321 23.0176 4.4123Z" fill="#F8AB00"/>
<path d="M11.5078 18.4894V32.1465C11.5078 35.2523 13.6395 36.9791 15.902 36.9791C17.9946 36.9791 20.2963 35.5084 20.2963 32.1465V18.6995C20.2963 15.8565 18.2038 14.0771 15.902 14.0771C13.6003 14.0771 11.5078 16.0404 11.5078 18.4894Z" fill="#E37300"/>
<path d="M8.78846 32.5675C8.78846 35.0034 6.82022 36.9798 4.39423 36.9798C1.96825 36.9798 0 35.0034 0 32.5675C0 30.1316 1.96825 28.1553 4.39423 28.1553C6.82022 28.1553 8.78846 30.1316 8.78846 32.5675Z" fill="#E37300"/>
</g>
<defs>
<clipPath id="clip0_5930_1023">
<rect width="32" height="37" fill="white"/>
</clipPath>
</defs>
</svg>
