<svg width="33" height="30" viewBox="0 0 33 30" fill="none" xmlns="http://www.w3.org/2000/svg">
<g clip-path="url(#clip0_5930_1086)">
<path d="M11.2509 3.77929C11.5689 2.94669 12.0063 2.18017 12.6557 1.55902C15.2533 -0.965202 19.5472 -0.330841 21.3099 2.84096C22.6352 5.24625 24.04 7.59867 25.4051 9.97752C27.6846 13.9291 29.9906 17.8806 32.2436 21.8454C34.1388 25.1625 32.0846 29.352 28.3207 29.9203C26.0147 30.2639 23.8545 29.2066 22.6617 27.1449C20.6605 23.6692 18.646 20.1934 16.6448 16.7308C16.6051 16.6515 16.5521 16.5855 16.499 16.5194C16.287 16.3476 16.1942 16.0965 16.0617 15.8718C15.1737 14.3123 14.2593 12.7661 13.3713 11.2198C12.8015 10.2154 12.2051 9.22422 11.6352 8.21982C11.1183 7.32114 10.8798 6.34316 10.9063 5.31233C10.946 4.78369 11.0123 4.25506 11.2509 3.77929Z" fill="#3C8BD9"/>
<path d="M11.2524 3.7793C11.1331 4.25507 11.0271 4.73084 11.0006 5.23304C10.9608 6.34317 11.2391 7.37401 11.7958 8.33877C13.2536 10.8366 14.7114 13.3476 16.156 15.8586C16.2885 16.0832 16.3945 16.3079 16.527 16.5194C15.7319 17.8938 14.9367 19.2551 14.1283 20.6295C13.0151 22.5458 11.9018 24.4753 10.7753 26.3916C10.7223 26.3916 10.709 26.3652 10.6958 26.3255C10.6825 26.2198 10.7223 26.1273 10.7488 26.0216C11.2922 24.0392 10.8416 22.2815 9.4765 20.7749C8.64156 19.863 7.58132 19.3476 6.36204 19.1758C4.77168 18.9511 3.36686 19.3608 2.10782 20.352C1.88252 20.5238 1.73674 20.7749 1.47168 20.907C1.41867 20.907 1.39216 20.8806 1.37891 20.841C2.01505 19.744 2.63794 18.6471 3.27409 17.5502C5.89818 13.004 8.52228 8.45771 11.1596 3.92467C11.1861 3.87181 11.2259 3.83216 11.2524 3.7793Z" fill="#FABC04"/>
<path d="M1.43075 20.8813C1.68256 20.6566 1.92111 20.4187 2.18617 20.2073C5.40665 17.6698 10.244 19.5068 10.9464 23.5244C11.1187 24.4892 11.0259 25.4143 10.7344 26.3394C10.7211 26.4187 10.7079 26.4848 10.6814 26.5641C10.5621 26.7755 10.4561 27.0002 10.3235 27.2117C9.144 29.1544 7.40786 30.1192 5.12834 29.9738C2.5175 29.7888 0.463284 27.8328 0.105453 25.2425C-0.0668361 23.987 0.184971 22.8108 0.834369 21.7271C0.966899 21.4892 1.12593 21.2777 1.27172 21.0399C1.33798 20.987 1.31148 20.8813 1.43075 20.8813Z" fill="#34A852"/>
<path d="M1.43104 20.881C1.37803 20.9339 1.37803 21.0264 1.28526 21.0396C1.27201 20.9471 1.32502 20.8942 1.37803 20.8281L1.43104 20.881Z" fill="#FABC04"/>
<path d="M10.6821 26.5635C10.6291 26.471 10.6821 26.4049 10.7351 26.3389C10.7484 26.3521 10.7749 26.3785 10.7881 26.3917L10.6821 26.5635Z" fill="#E1C025"/>
</g>
<defs>
<clipPath id="clip0_5930_1086">
<rect width="33" height="30" fill="white"/>
</clipPath>
</defs>
</svg>
