<svg width="34" height="34" viewBox="0 0 34 34" fill="none" xmlns="http://www.w3.org/2000/svg">
<path d="M0 16.9998C0 23.9608 4.18587 29.941 10.1757 32.5702C10.1279 31.3831 10.1672 29.9581 10.4716 28.6665C10.7984 27.2865 12.6589 19.4034 12.6589 19.4034C12.6589 19.4034 12.1159 18.3179 12.1159 16.7137C12.1159 14.1945 13.576 12.313 15.3944 12.313C16.9407 12.313 17.6878 13.4744 17.6878 14.8652C17.6878 16.4196 16.6963 18.7446 16.1865 20.8981C15.7606 22.7014 17.0906 24.1723 18.8696 24.1723C22.0905 24.1723 24.2598 20.0354 24.2598 15.134C24.2598 11.4081 21.7504 8.61943 17.1861 8.61943C12.0294 8.61943 8.81692 12.465 8.81692 16.7606C8.81692 18.2417 9.25359 19.2861 9.93756 20.0949C10.252 20.4664 10.2957 20.6158 10.1819 21.0424C10.1004 21.3551 9.91312 22.1082 9.83556 22.4066C9.72241 22.8372 9.37352 22.9911 8.98439 22.8321C6.60923 21.8625 5.50307 19.2614 5.50307 16.3375C5.50307 11.5084 9.57579 5.71795 17.6527 5.71795C24.1431 5.71795 28.4149 10.4146 28.4149 15.4562C28.4149 22.1249 24.7074 27.107 19.2423 27.107C17.407 27.107 15.6806 26.1149 15.0892 24.988C15.0892 24.988 14.1023 28.9048 13.8933 29.6611C13.5328 30.9718 12.8273 32.2819 12.1823 33.3029C13.7112 33.7542 15.3263 34 17.0002 34C26.3877 34 33.9992 26.3889 33.9992 16.9998C33.9992 7.61114 26.3877 0 17.0002 0C7.61181 0 0 7.61114 0 16.9998Z" fill="#CB1F27"/>
</svg>
