<svg width="34" height="34" viewBox="0 0 34 34" fill="none" xmlns="http://www.w3.org/2000/svg">
<g clip-path="url(#clip0_5930_1191)">
<path d="M19.1653 0.138475C15.8303 -0.289793 12.4433 0.280519 9.43237 1.7773C6.42153 3.27408 3.92216 5.63006 2.25033 8.54736C0.578516 11.4647 -0.190657 14.8122 0.0400858 18.1666C0.270828 21.521 1.49112 24.7318 3.54665 27.3925C5.60217 30.0536 8.40061 32.0452 11.5881 33.1156C14.7755 34.186 18.2087 34.287 21.4536 33.4062C24.6986 32.5253 27.6096 30.702 29.8182 28.1668C32.0268 25.6315 33.4339 22.4983 33.8618 19.1632C34.4355 14.6915 33.2093 10.1751 30.4533 6.60737C27.6972 3.0396 23.6369 0.712705 19.1653 0.138475Z" fill="#FF6C37"/>
<path d="M12.2905 18.0742C12.2971 18.0877 12.3082 18.0984 12.3218 18.1046C12.3354 18.1109 12.3508 18.1121 12.3653 18.1082L15.0853 17.5217L13.9412 16.3623L12.3109 17.9926C12.298 18.0013 12.2889 18.0144 12.2851 18.0295C12.2813 18.0446 12.2833 18.0605 12.2905 18.0742Z" fill="white"/>
<path d="M25.0263 6.39552C24.6472 6.3959 24.2732 6.48131 23.9314 6.64542C23.5896 6.80955 23.2892 7.04822 23.052 7.34386C22.8147 7.63951 22.6469 7.98461 22.5607 8.35372C22.4743 8.72284 22.472 9.10661 22.5538 9.47675C22.6356 9.8469 22.7993 10.194 23.0328 10.4925C23.2664 10.791 23.5641 11.0332 23.9037 11.2015C24.2435 11.3698 24.6165 11.4597 24.9957 11.4647C25.3746 11.4697 25.7498 11.3896 26.094 11.2303L24.37 9.50652C24.3503 9.48677 24.3347 9.46333 24.324 9.43751C24.3131 9.4117 24.3076 9.38402 24.3076 9.35607C24.3076 9.32812 24.3131 9.30043 24.324 9.27461C24.3347 9.24881 24.3503 9.22535 24.37 9.20562L26.6225 6.95482C26.1703 6.5911 25.6067 6.39366 25.0263 6.39552Z" fill="white"/>
<path d="M26.9317 7.24707L24.8203 9.34997L26.476 11.0058C26.598 10.9201 26.7119 10.8233 26.816 10.7168C27.2699 10.2599 27.534 9.64824 27.5555 9.00463C27.5769 8.36102 27.3541 7.73315 26.9317 7.24707Z" fill="white"/>
<path d="M22.7072 11.128H22.6699C22.626 11.1275 22.5821 11.1316 22.539 11.1399H22.5238C22.4764 11.1501 22.4299 11.1637 22.3842 11.1807L22.3487 11.1977C22.3145 11.2119 22.2814 11.2289 22.25 11.2487L22.2127 11.2725C22.1715 11.3008 22.1328 11.3327 22.097 11.3677L15.8359 17.6303L16.6111 18.4055L23.2412 12.5866C23.2787 12.5536 23.3127 12.5172 23.3432 12.4778L23.372 12.4404C23.3948 12.4071 23.4151 12.3725 23.4333 12.3367C23.4434 12.3163 23.4519 12.2959 23.4604 12.2755C23.4718 12.2483 23.4815 12.2204 23.4892 12.1922C23.4892 12.1718 23.5013 12.1514 23.5062 12.131C23.5147 12.0888 23.5205 12.0463 23.5232 12.0035V11.9474C23.5232 11.9168 23.5232 11.8862 23.5232 11.8556C23.5232 11.825 23.5232 11.8148 23.5147 11.7944C23.4833 11.6339 23.405 11.4863 23.2898 11.3704C23.1745 11.2546 23.0275 11.1754 22.8672 11.1433H22.8347C22.7928 11.1351 22.7501 11.13 22.7072 11.128Z" fill="white"/>
<path d="M14.2344 16.0616L15.5196 17.34L21.7977 11.0619C22.0021 10.8622 22.2683 10.7381 22.5524 10.71C21.4425 9.86001 20.2319 10.0827 14.2344 16.0616Z" fill="white"/>
<path d="M23.5951 12.832L23.5186 12.9068L16.8887 18.7242L18.0158 19.8497C20.8105 17.2061 23.2909 14.6884 23.5951 12.832Z" fill="white"/>
<path d="M7.05709 26.461C7.06053 26.473 7.06761 26.4837 7.07733 26.4916C7.08706 26.4995 7.09898 26.5043 7.11149 26.5051L10.0015 26.7039L8.38139 25.084L7.07069 26.393C7.06219 26.4019 7.0564 26.4129 7.05399 26.4248C7.05158 26.4371 7.05266 26.4495 7.05709 26.461Z" fill="white"/>
<path d="M8.68555 24.7827L10.394 26.4912C10.4143 26.5127 10.4415 26.5268 10.4709 26.5309C10.5003 26.5349 10.5302 26.5286 10.5555 26.5131C10.582 26.5001 10.6031 26.4782 10.6152 26.4513C10.6273 26.4242 10.6297 26.3937 10.6218 26.3653L10.3345 25.1379C10.3159 25.0583 10.3244 24.9748 10.3586 24.9007C10.3927 24.8266 10.4507 24.7659 10.5232 24.7281C13.5186 23.2272 15.9343 21.6818 17.7074 20.1381L16.5174 18.9482L13.9674 19.4973L8.68555 24.7827Z" fill="white"/>
<path d="M16.1522 18.5874L15.513 17.9482L14.629 18.8305C14.6227 18.8382 14.6191 18.8479 14.6191 18.8577C14.6191 18.8677 14.6227 18.8773 14.629 18.8849C14.6331 18.894 14.6404 18.9013 14.6494 18.9053C14.6586 18.9094 14.6688 18.91 14.6783 18.907L16.1522 18.5874Z" fill="white"/>
<path d="M26.9918 8.61756C26.9831 8.59079 26.9686 8.56622 26.9497 8.54547C26.9307 8.52471 26.9076 8.50826 26.8817 8.49725C26.8558 8.48622 26.8279 8.48085 26.7996 8.4815C26.7716 8.48217 26.7439 8.48885 26.7186 8.50109C26.6933 8.51332 26.6707 8.53086 26.6527 8.55246C26.6348 8.57411 26.6215 8.59933 26.6142 8.62647C26.6067 8.65359 26.6051 8.68202 26.6097 8.70979C26.614 8.73759 26.6243 8.76409 26.6399 8.78756C26.6907 8.8898 26.7109 9.00454 26.6978 9.11795C26.685 9.23138 26.6393 9.33863 26.5668 9.42676C26.543 9.45554 26.5278 9.49053 26.5231 9.52761C26.5183 9.56468 26.5243 9.60235 26.5401 9.63619C26.5559 9.67006 26.5812 9.6987 26.6126 9.7188C26.6441 9.73891 26.6808 9.74964 26.718 9.74976C26.747 9.74944 26.7755 9.7429 26.8016 9.73058C26.8277 9.71825 26.8508 9.70044 26.8694 9.67836C26.9898 9.53206 27.0653 9.35415 27.087 9.16599C27.1086 8.97784 27.0756 8.7874 26.9918 8.61756Z" fill="#FF6C37"/>
</g>
<defs>
<clipPath id="clip0_5930_1191">
<rect width="34" height="34" fill="white"/>
</clipPath>
</defs>
</svg>
