<svg width="34" height="34" viewBox="0 0 34 34" fill="none" xmlns="http://www.w3.org/2000/svg">
<g clip-path="url(#clip0_5930_1223)">
<path d="M17 34C26.3888 34 34 26.3888 34 17C34 7.61116 26.3888 0 17 0C7.61116 0 0 7.61116 0 17C0 26.3888 7.61116 34 17 34Z" fill="#FF4500"/>
<path d="M28.3383 17.0003C28.3417 17.2332 28.3128 17.4657 28.2516 17.6905C28.1904 17.9153 28.0977 18.1308 27.9762 18.3297C27.8551 18.5286 27.7063 18.7096 27.5346 18.8673C27.3629 19.025 27.17 19.1576 26.9613 19.2613C26.966 19.3233 26.9698 19.3858 26.9719 19.4483C26.977 19.5729 26.977 19.6977 26.9719 19.8223C26.9698 19.8848 26.966 19.9472 26.9613 20.0093C26.9613 23.8173 22.5243 26.9113 17.0503 26.9113C11.5763 26.9113 7.13928 23.8173 7.13928 20.0093C7.1346 19.9472 7.13078 19.8848 7.12865 19.8223C7.12354 19.6977 7.12354 19.5729 7.12865 19.4483C7.13078 19.3858 7.1346 19.3233 7.13928 19.2613C6.81235 19.111 6.52198 18.8915 6.28825 18.6179C6.05453 18.3444 5.88304 18.0233 5.78565 17.6769C5.68843 17.3304 5.66771 16.9668 5.72496 16.6115C5.7822 16.2561 5.91602 15.9175 6.11715 15.619C6.31811 15.3206 6.58159 15.0695 6.88931 14.8831C7.19703 14.6967 7.54162 14.5794 7.89918 14.5395C8.25678 14.4995 8.61882 14.5376 8.96021 14.6514C9.30161 14.7651 9.61418 14.9517 9.87628 15.1983C10.3628 14.8685 10.8726 14.5743 11.4016 14.3181C11.9307 14.0623 12.4777 13.8447 13.0383 13.6679C13.5989 13.4911 14.1718 13.3555 14.7519 13.2616C15.332 13.1676 15.9185 13.1162 16.5063 13.1073L17.7643 7.20829C17.7783 7.13986 17.8059 7.07526 17.8455 7.01746C17.8846 6.96009 17.9351 6.91079 17.9934 6.87296C18.052 6.83514 18.1175 6.80921 18.1863 6.79646C18.2547 6.78414 18.3253 6.78541 18.3933 6.80029L22.5583 7.63329C22.9786 6.91121 23.8609 6.60181 24.6399 6.90271C25.419 7.20361 25.8644 8.02599 25.6901 8.84284C25.5163 9.65969 24.7742 10.2292 23.9404 10.1863C23.1061 10.1433 22.4265 9.50074 22.3373 8.67029L18.6993 7.90529L17.5943 13.2093C18.1748 13.2216 18.7541 13.276 19.327 13.3716C20.4743 13.5629 21.5879 13.9187 22.6335 14.4282C23.1557 14.6823 23.659 14.9738 24.1393 15.3003C24.4846 14.9687 24.9186 14.7442 25.3888 14.6539C25.859 14.5632 26.3453 14.6106 26.7892 14.7903C27.233 14.9699 27.6155 15.2741 27.8903 15.6662C28.1653 16.0584 28.3208 16.5217 28.3383 17.0003ZM11.4675 19.351C11.5533 19.5571 11.6783 19.7445 11.8364 19.9022C11.9941 20.0603 12.1815 20.1852 12.3876 20.2711C12.5939 20.3564 12.815 20.4003 13.0383 20.4003C13.7259 20.4003 14.3456 19.9859 14.6091 19.351C14.8722 18.7156 14.7264 17.9846 14.2402 17.4984C13.754 17.0122 13.023 16.8664 12.3876 17.1295C11.7527 17.393 11.3383 18.0126 11.3383 18.7003C11.3383 18.9234 11.3821 19.1444 11.4675 19.351ZM21.2042 23.4318C21.2914 23.3468 21.3411 23.2308 21.3428 23.1092C21.3445 22.9873 21.2973 22.87 21.2123 22.7828C21.1273 22.6957 21.0113 22.646 20.8897 22.6443C20.7678 22.6426 20.6505 22.6898 20.5523 22.7633C20.2966 22.9466 20.0259 23.108 19.7431 23.2457C19.4602 23.3834 19.1662 23.497 18.8642 23.5852C18.5624 23.6732 18.2535 23.7357 17.9411 23.7718C17.6283 23.8079 17.3134 23.8173 16.9993 23.8003C16.6856 23.8143 16.3711 23.8016 16.0596 23.7625C15.748 23.7238 15.4403 23.6583 15.1399 23.567C14.839 23.476 14.547 23.3596 14.2661 23.2193C13.9852 23.0791 13.7166 22.915 13.4633 22.7293C13.3753 22.657 13.2635 22.6201 13.1496 22.6256C13.0357 22.6311 12.9282 22.6791 12.8475 22.7595C12.7671 22.8402 12.7191 22.9477 12.7136 23.0616C12.7081 23.1755 12.745 23.2873 12.8173 23.3753C13.1161 23.6005 13.4335 23.7994 13.7663 23.9703C14.0991 24.1411 14.4463 24.2827 14.8033 24.394C15.1603 24.5054 15.5262 24.5857 15.8973 24.6346C16.2683 24.683 16.6427 24.6996 17.0163 24.6843C17.3899 24.6996 17.7643 24.683 18.1353 24.6346C18.8784 24.5368 19.5992 24.3121 20.2663 23.9703C20.599 23.7994 20.9165 23.6005 21.2153 23.3753L21.2042 23.4318ZM20.8923 20.5363C21.1226 20.5388 21.3513 20.4942 21.5642 20.4058C21.7771 20.317 21.9697 20.1861 22.1303 20.0208C22.291 19.8554 22.4159 19.6591 22.4984 19.4436C22.5809 19.2284 22.6186 18.9986 22.6093 18.7683C22.6093 18.0806 22.1949 17.461 21.56 17.1975C20.9246 16.9344 20.1936 17.0802 19.7074 17.5664C19.2212 18.0526 19.0754 18.7836 19.3385 19.419C19.602 20.0539 20.2216 20.4683 20.9093 20.4683L20.8923 20.5363Z" fill="white"/>
</g>
<defs>
<clipPath id="clip0_5930_1223">
<rect width="34" height="34" fill="white"/>
</clipPath>
</defs>
</svg>
