<svg width="34" height="34" viewBox="0 0 34 34" fill="none" xmlns="http://www.w3.org/2000/svg">
<g clip-path="url(#clip0_5930_1388)">
<path d="M17 34C26.3888 34 34 26.3888 34 17C34 7.61116 26.3888 0 17 0C7.61116 0 0 7.61116 0 17C0 26.3888 7.61116 34 17 34Z" fill="#4581FE"/>
<mask id="mask0_5930_1388" style="mask-type:alpha" maskUnits="userSpaceOnUse" x="0" y="0" width="34" height="34">
<path d="M17 34C26.3888 34 34 26.3888 34 17C34 7.61116 26.3888 0 17 0C7.61116 0 0 7.61116 0 17C0 26.3888 7.61116 34 17 34Z" fill="#D9D9D9"/>
</mask>
<g mask="url(#mask0_5930_1388)">
<g filter="url(#filter0_f_5930_1388)">
<path d="M23.7706 18.3255C24.4045 14.312 24.8434 5.11171 27.1564 3.56592C28.9257 3.49376 34.6948 4.58772 34.9072 4.57907C35.1726 4.56824 40.6538 8.59824 40.6863 9.39448C40.7123 10.0314 39.6063 17.6797 39.0501 21.4243L41.8985 39.1197L24.9508 34.2281C24.3171 33.8995 18.6937 34.6428 20.1193 33.0959C21.9014 31.1623 23.0201 23.0773 23.7706 18.3255Z" fill="#FF3AF3"/>
</g>
<g filter="url(#filter1_f_5930_1388)">
<path d="M23.7706 18.3255C24.4045 14.312 24.8434 5.11171 27.1564 3.56592C28.9257 3.49376 34.6948 4.58772 34.9072 4.57907C35.1726 4.56824 40.6538 8.59824 40.6863 9.39448C40.7123 10.0314 39.6063 17.6797 39.0501 21.4243L41.8985 39.1197L24.9508 34.2281C24.3171 33.8995 18.6937 34.6428 20.1193 33.0959C21.9014 31.1623 23.0201 23.0773 23.7706 18.3255Z" fill="#FF3AF3"/>
</g>
<g filter="url(#filter2_f_5930_1388)">
<path d="M13.0148 7.17142C13.6523 3.98392 20.0982 -3.01087 20.9836 -4.25045C19.3084 -4.85356 11.5646 0.186774 9.29615 10.6246C6.88895 21.7005 3.80656 19.5673 1.85863 16.9996C-0.797616 13.7235 -4.99449 9.1371 -0.53199 16.9996C5.04613 26.8277 6.63985 23.3745 8.49922 23.1089C10.3586 22.8433 12.218 11.1558 13.0148 7.17142Z" fill="#39FEC4"/>
</g>
<g filter="url(#filter3_f_5930_1388)">
<path d="M13.0148 7.17142C13.6523 3.98392 20.0982 -3.01087 20.9836 -4.25045C19.3084 -4.85356 11.5646 0.186774 9.29615 10.6246C6.88895 21.7005 3.80656 19.5673 1.85863 16.9996C-0.797616 13.7235 -4.99449 9.1371 -0.53199 16.9996C5.04613 26.8277 6.63985 23.3745 8.49922 23.1089C10.3586 22.8433 12.218 11.1558 13.0148 7.17142Z" fill="#39FEC4"/>
</g>
<g filter="url(#filter4_f_5930_1388)">
<path d="M5.84312 15.9367C10.983 3.24775 13.8264 -0.074522 16.7337 0.264805C13.0151 -0.532071 7.70245 6.10854 5.31182 10.6242C3.39932 14.2367 1.68165 13.1919 1.06187 12.2179C-0.531879 10.6242 -2.97563 8.60542 -0.000629544 13.2804C2.97437 17.9554 5.13479 16.9992 5.84312 15.9367Z" fill="#FB44F4"/>
</g>
<g filter="url(#filter5_f_5930_1388)">
<path d="M5.84312 15.9367C10.983 3.24775 13.8264 -0.074522 16.7337 0.264805C13.0151 -0.532071 7.70245 6.10854 5.31182 10.6242C3.39932 14.2367 1.68165 13.1919 1.06187 12.2179C-0.531879 10.6242 -2.97563 8.60542 -0.000629544 13.2804C2.97437 17.9554 5.13479 16.9992 5.84312 15.9367Z" fill="#FB44F4"/>
</g>
<g filter="url(#filter6_f_5930_1388)">
<path d="M5.84312 15.9367C10.983 3.24775 13.8264 -0.074522 16.7337 0.264805C13.0151 -0.532071 7.70245 6.10854 5.31182 10.6242C3.39932 14.2367 1.68165 13.1919 1.06187 12.2179C-0.531879 10.6242 -2.97563 8.60542 -0.000629544 13.2804C2.97437 17.9554 5.13479 16.9992 5.84312 15.9367Z" fill="#FB44F4"/>
</g>
<g filter="url(#filter7_f_5930_1388)">
<path d="M5.84312 15.9367C10.983 3.24775 13.8264 -0.074522 16.7337 0.264805C13.0151 -0.532071 7.70245 6.10854 5.31182 10.6242C3.39932 14.2367 1.68165 13.1919 1.06187 12.2179C-0.531879 10.6242 -2.97563 8.60542 -0.000629544 13.2804C2.97437 17.9554 5.13479 16.9992 5.84312 15.9367Z" fill="#FB44F4"/>
</g>
<g filter="url(#filter8_f_5930_1388)">
<path d="M3.32625 12.4996C5.42065 8.40734 9.79374 2.1268 11.7185 -0.50195C11.9721 -0.620376 12.2096 -0.87953 11.1298 -0.968759C9.77993 -1.08029 -3.5551 8.48113 -0.550769 11.3429C1.8527 13.6323 3.03536 13.068 3.32625 12.4996Z" fill="#FFC21E"/>
</g>
<g filter="url(#filter9_f_5930_1388)">
<path d="M3.32625 12.4996C5.42065 8.40734 9.79374 2.1268 11.7185 -0.50195C11.9721 -0.620376 12.2096 -0.87953 11.1298 -0.968759C9.77993 -1.08029 -3.5551 8.48113 -0.550769 11.3429C1.8527 13.6323 3.03536 13.068 3.32625 12.4996Z" fill="#FFC21E"/>
</g>
<g filter="url(#filter10_f_5930_1388)">
<path d="M3.32625 12.4996C5.42065 8.40734 9.79374 2.1268 11.7185 -0.50195C11.9721 -0.620376 12.2096 -0.87953 11.1298 -0.968759C9.77993 -1.08029 -3.5551 8.48113 -0.550769 11.3429C1.8527 13.6323 3.03536 13.068 3.32625 12.4996Z" fill="#FFC21E"/>
</g>
<g filter="url(#filter11_f_5930_1388)">
<path d="M3.32625 12.4996C5.42065 8.40734 9.79374 2.1268 11.7185 -0.50195C11.9721 -0.620376 12.2096 -0.87953 11.1298 -0.968759C9.77993 -1.08029 -3.5551 8.48113 -0.550769 11.3429C1.8527 13.6323 3.03536 13.068 3.32625 12.4996Z" fill="#FFC21E"/>
</g>
<g filter="url(#filter12_f_5930_1388)">
<path d="M3.32625 12.4996C5.42065 8.40734 9.79374 2.1268 11.7185 -0.50195C11.9721 -0.620376 12.2096 -0.87953 11.1298 -0.968759C9.77993 -1.08029 -3.5551 8.48113 -0.550769 11.3429C1.8527 13.6323 3.03536 13.068 3.32625 12.4996Z" fill="#FFC21E"/>
</g>
<g filter="url(#filter13_f_5930_1388)">
<path d="M3.32625 12.4996C5.42065 8.40734 9.79374 2.1268 11.7185 -0.50195C11.9721 -0.620376 12.2096 -0.87953 11.1298 -0.968759C9.77993 -1.08029 -3.5551 8.48113 -0.550769 11.3429C1.8527 13.6323 3.03536 13.068 3.32625 12.4996Z" fill="#FFC21E"/>
</g>
<g filter="url(#filter14_f_5930_1388)">
<path d="M3.32625 12.4996C5.42065 8.40734 9.79374 2.1268 11.7185 -0.50195C11.9721 -0.620376 12.2096 -0.87953 11.1298 -0.968759C9.77993 -1.08029 -3.5551 8.48113 -0.550769 11.3429C1.8527 13.6323 3.03536 13.068 3.32625 12.4996Z" fill="#FFC21E"/>
</g>
<g filter="url(#filter15_f_5930_1388)">
<path d="M3.32625 12.4996C5.42065 8.40734 9.79374 2.1268 11.7185 -0.50195C11.9721 -0.620376 12.2096 -0.87953 11.1298 -0.968759C9.77993 -1.08029 -3.5551 8.48113 -0.550769 11.3429C1.8527 13.6323 3.03536 13.068 3.32625 12.4996Z" fill="#FFC21E"/>
</g>
</g>
</g>
<defs>
<filter id="filter0_f_5930_1388" x="7.88867" y="-8.4375" width="46.0098" height="59.5576" filterUnits="userSpaceOnUse" color-interpolation-filters="sRGB">
<feFlood flood-opacity="0" result="BackgroundImageFix"/>
<feBlend mode="normal" in="SourceGraphic" in2="BackgroundImageFix" result="shape"/>
<feGaussianBlur stdDeviation="6" result="effect1_foregroundBlur_5930_1388"/>
</filter>
<filter id="filter1_f_5930_1388" x="7.88867" y="-8.4375" width="46.0098" height="59.5576" filterUnits="userSpaceOnUse" color-interpolation-filters="sRGB">
<feFlood flood-opacity="0" result="BackgroundImageFix"/>
<feBlend mode="normal" in="SourceGraphic" in2="BackgroundImageFix" result="shape"/>
<feGaussianBlur stdDeviation="6" result="effect1_foregroundBlur_5930_1388"/>
</filter>
<filter id="filter2_f_5930_1388" x="-9.49023" y="-11.2988" width="37.4746" height="42.209" filterUnits="userSpaceOnUse" color-interpolation-filters="sRGB">
<feFlood flood-opacity="0" result="BackgroundImageFix"/>
<feBlend mode="normal" in="SourceGraphic" in2="BackgroundImageFix" result="shape"/>
<feGaussianBlur stdDeviation="3.5" result="effect1_foregroundBlur_5930_1388"/>
</filter>
<filter id="filter3_f_5930_1388" x="-9.49023" y="-11.2988" width="37.4746" height="42.209" filterUnits="userSpaceOnUse" color-interpolation-filters="sRGB">
<feFlood flood-opacity="0" result="BackgroundImageFix"/>
<feBlend mode="normal" in="SourceGraphic" in2="BackgroundImageFix" result="shape"/>
<feGaussianBlur stdDeviation="3.5" result="effect1_foregroundBlur_5930_1388"/>
</filter>
<filter id="filter4_f_5930_1388" x="-6.40234" y="-4.80078" width="28.1367" height="26.6104" filterUnits="userSpaceOnUse" color-interpolation-filters="sRGB">
<feFlood flood-opacity="0" result="BackgroundImageFix"/>
<feBlend mode="normal" in="SourceGraphic" in2="BackgroundImageFix" result="shape"/>
<feGaussianBlur stdDeviation="2.5" result="effect1_foregroundBlur_5930_1388"/>
</filter>
<filter id="filter5_f_5930_1388" x="-6.40234" y="-4.80078" width="28.1367" height="26.6104" filterUnits="userSpaceOnUse" color-interpolation-filters="sRGB">
<feFlood flood-opacity="0" result="BackgroundImageFix"/>
<feBlend mode="normal" in="SourceGraphic" in2="BackgroundImageFix" result="shape"/>
<feGaussianBlur stdDeviation="2.5" result="effect1_foregroundBlur_5930_1388"/>
</filter>
<filter id="filter6_f_5930_1388" x="-6.40234" y="-4.80078" width="28.1367" height="26.6104" filterUnits="userSpaceOnUse" color-interpolation-filters="sRGB">
<feFlood flood-opacity="0" result="BackgroundImageFix"/>
<feBlend mode="normal" in="SourceGraphic" in2="BackgroundImageFix" result="shape"/>
<feGaussianBlur stdDeviation="2.5" result="effect1_foregroundBlur_5930_1388"/>
</filter>
<filter id="filter7_f_5930_1388" x="-6.40234" y="-4.80078" width="28.1367" height="26.6104" filterUnits="userSpaceOnUse" color-interpolation-filters="sRGB">
<feFlood flood-opacity="0" result="BackgroundImageFix"/>
<feBlend mode="normal" in="SourceGraphic" in2="BackgroundImageFix" result="shape"/>
<feGaussianBlur stdDeviation="2.5" result="effect1_foregroundBlur_5930_1388"/>
</filter>
<filter id="filter8_f_5930_1388" x="-5.99023" y="-5.96973" width="22.9238" height="23.9746" filterUnits="userSpaceOnUse" color-interpolation-filters="sRGB">
<feFlood flood-opacity="0" result="BackgroundImageFix"/>
<feBlend mode="normal" in="SourceGraphic" in2="BackgroundImageFix" result="shape"/>
<feGaussianBlur stdDeviation="2.5" result="effect1_foregroundBlur_5930_1388"/>
</filter>
<filter id="filter9_f_5930_1388" x="-5.99023" y="-5.96973" width="22.9238" height="23.9746" filterUnits="userSpaceOnUse" color-interpolation-filters="sRGB">
<feFlood flood-opacity="0" result="BackgroundImageFix"/>
<feBlend mode="normal" in="SourceGraphic" in2="BackgroundImageFix" result="shape"/>
<feGaussianBlur stdDeviation="2.5" result="effect1_foregroundBlur_5930_1388"/>
</filter>
<filter id="filter10_f_5930_1388" x="-5.99023" y="-5.96973" width="22.9238" height="23.9746" filterUnits="userSpaceOnUse" color-interpolation-filters="sRGB">
<feFlood flood-opacity="0" result="BackgroundImageFix"/>
<feBlend mode="normal" in="SourceGraphic" in2="BackgroundImageFix" result="shape"/>
<feGaussianBlur stdDeviation="2.5" result="effect1_foregroundBlur_5930_1388"/>
</filter>
<filter id="filter11_f_5930_1388" x="-5.99023" y="-5.96973" width="22.9238" height="23.9746" filterUnits="userSpaceOnUse" color-interpolation-filters="sRGB">
<feFlood flood-opacity="0" result="BackgroundImageFix"/>
<feBlend mode="normal" in="SourceGraphic" in2="BackgroundImageFix" result="shape"/>
<feGaussianBlur stdDeviation="2.5" result="effect1_foregroundBlur_5930_1388"/>
</filter>
<filter id="filter12_f_5930_1388" x="-5.99023" y="-5.96973" width="22.9238" height="23.9746" filterUnits="userSpaceOnUse" color-interpolation-filters="sRGB">
<feFlood flood-opacity="0" result="BackgroundImageFix"/>
<feBlend mode="normal" in="SourceGraphic" in2="BackgroundImageFix" result="shape"/>
<feGaussianBlur stdDeviation="2.5" result="effect1_foregroundBlur_5930_1388"/>
</filter>
<filter id="filter13_f_5930_1388" x="-5.99023" y="-5.96973" width="22.9238" height="23.9746" filterUnits="userSpaceOnUse" color-interpolation-filters="sRGB">
<feFlood flood-opacity="0" result="BackgroundImageFix"/>
<feBlend mode="normal" in="SourceGraphic" in2="BackgroundImageFix" result="shape"/>
<feGaussianBlur stdDeviation="2.5" result="effect1_foregroundBlur_5930_1388"/>
</filter>
<filter id="filter14_f_5930_1388" x="-5.99023" y="-5.96973" width="22.9238" height="23.9746" filterUnits="userSpaceOnUse" color-interpolation-filters="sRGB">
<feFlood flood-opacity="0" result="BackgroundImageFix"/>
<feBlend mode="normal" in="SourceGraphic" in2="BackgroundImageFix" result="shape"/>
<feGaussianBlur stdDeviation="2.5" result="effect1_foregroundBlur_5930_1388"/>
</filter>
<filter id="filter15_f_5930_1388" x="-5.99023" y="-5.96973" width="22.9238" height="23.9746" filterUnits="userSpaceOnUse" color-interpolation-filters="sRGB">
<feFlood flood-opacity="0" result="BackgroundImageFix"/>
<feBlend mode="normal" in="SourceGraphic" in2="BackgroundImageFix" result="shape"/>
<feGaussianBlur stdDeviation="2.5" result="effect1_foregroundBlur_5930_1388"/>
</filter>
<clipPath id="clip0_5930_1388">
<rect width="34" height="34" fill="white"/>
</clipPath>
</defs>
</svg>
