<svg width="34" height="34" viewBox="0 0 34 34" fill="none" xmlns="http://www.w3.org/2000/svg">
<g clip-path="url(#clip0_5930_1385)">
<path d="M16.9988 0.0556641C7.63885 0.0556641 0.0507812 7.64353 0.0507812 17.0034C0.0507812 26.3638 7.63885 33.951 16.9988 33.951C26.3597 33.951 33.947 26.3638 33.947 17.0034C33.947 7.64414 26.3597 0.0564736 16.9986 0.0564736L16.9988 0.0556641ZM24.771 24.4992C24.4674 24.9971 23.8158 25.1549 23.3179 24.8494C19.3387 22.4188 14.3294 21.8683 8.42996 23.2161C7.86147 23.3457 7.29481 22.9895 7.16528 22.4208C7.03515 21.8521 7.38992 21.2854 7.95983 21.1559C14.4158 19.6803 19.9535 20.316 24.4209 23.0461C24.9187 23.3517 25.0766 24.0014 24.771 24.4992ZM26.8454 19.8839C26.4629 20.5063 25.6493 20.7026 25.028 20.3201C20.4724 17.5193 13.5281 16.7084 8.13975 18.344C7.44092 18.5551 6.70284 18.1613 6.49075 17.4637C6.28027 16.7648 6.67431 16.0282 7.37191 15.8157C13.5269 13.9481 21.1787 14.8527 26.4103 18.0676C27.0316 18.4501 27.2279 19.2636 26.8454 19.8841V19.8839ZM27.0235 15.0786C21.5612 11.8342 12.5492 11.5359 7.33407 13.1187C6.49662 13.3727 5.611 12.9 5.35721 12.0625C5.10342 11.2247 5.57578 10.3397 6.41384 10.0851C12.4005 8.26768 22.3526 8.61881 28.6413 12.3521C29.3962 12.7992 29.6431 13.772 29.1959 14.5243C28.7506 15.2775 27.7751 15.5259 27.0243 15.0786H27.0235Z" fill="#1ED760"/>
</g>
<defs>
<clipPath id="clip0_5930_1385">
<rect width="34" height="34" fill="white"/>
</clipPath>
</defs>
</svg>
