<svg width="50" height="51" viewBox="0 0 50 51" fill="none" xmlns="http://www.w3.org/2000/svg">
  <path d="M1.174 25.743a23.901 23.901 0 1 0 47.802 0 23.901 23.901 0 0 0-47.802 0" fill="#FDDF6D"/>
  <path d="M30.197 46.114c-13.2 0-23.901-10.701-23.901-23.901 0-7.053 3.055-13.39 7.913-17.765C6.47 8.404 1.174 16.454 1.174 25.74c0 13.2 10.7 23.901 23.9 23.901a23.8 23.8 0 0 0 15.989-6.135 23.8 23.8 0 0 1-10.866 2.607" fill="#FCC56B"/>
  <path d="M28.552 41.79c-5.343 0-9.675-4.33-9.675-9.674h19.35c0 5.343-4.332 9.675-9.675 9.675" fill="#7F184C"/>
  <path d="M17.994 18.344a2.917 2.917 0 1 0 5.835 0 2.917 2.917 0 0 0-5.835 0m16.424 0a2.917 2.917 0 1 0 5.834 0 2.917 2.917 0 0 0-5.834 0" fill="#fff"/>
  <path d="M28.744 37.777a8.79 8.79 0 0 0-7.871.221 9.66 9.66 0 0 0 7.679 3.792 9.6 9.6 0 0 0 3.877-.81 8.77 8.77 0 0 0-3.685-3.203" fill="#FC4C59"/>
  <path d="M14.804 24.262a3.214 3.214 0 0 0-3.214 3.214h6.428a3.214 3.214 0 0 0-3.214-3.214m28.033-.43a3.214 3.214 0 0 0-3.213 3.213h6.427a3.214 3.214 0 0 0-3.214-3.214" fill="#F9A880"/>
  <path d="M21.42 32.116v1.51c0 .637.516 1.153 1.153 1.153h12.322c.637 0 1.153-.516 1.153-1.153v-1.51z" fill="#F2F2F2"/>
  <path d="M29.285 11.167c1.274.36 2.575.423 3.618.175s1.742-.787 1.943-1.498-.111-1.537-.87-2.294c-.758-.758-1.9-1.387-3.173-1.747s-2.575-.424-3.618-.176c-1.043.249-1.742.788-1.944 1.499s.112 1.536.87 2.294c.759.758 1.9 1.386 3.174 1.747" fill="#FCEB88"/>
  <path d="M45.646 11.755a24.86 24.86 0 0 0-11.068-9.006.973.973 0 0 0-.744 1.797 22.93 22.93 0 0 1 10.204 8.304 22.8 22.8 0 0 1 3.965 12.892c0 12.643-10.286 22.928-22.928 22.928S2.145 38.384 2.145 25.741 12.432 2.813 25.076 2.813a.972.972 0 0 0 0-1.945C11.358.868.2 12.026.2 25.741s11.16 24.875 24.874 24.875S49.948 39.457 49.948 25.74a24.74 24.74 0 0 0-4.303-13.986" fill="#000"/>
  <path d="M24.802 18.343a3.894 3.894 0 0 0-3.89-3.89 3.894 3.894 0 0 0-3.889 3.89 3.894 3.894 0 0 0 3.89 3.889 3.894 3.894 0 0 0 3.889-3.89m-5.834 0a1.946 1.946 0 0 1 3.889 0 1.947 1.947 0 0 1-1.944 1.944 1.947 1.947 0 0 1-1.945-1.944m22.256 0a3.894 3.894 0 0 0-3.889-3.89 3.894 3.894 0 0 0-3.89 3.89 3.894 3.894 0 0 0 3.89 3.889 3.894 3.894 0 0 0 3.89-3.89m-5.834 0c0-1.073.873-1.945 1.945-1.945s1.945.872 1.945 1.945a1.947 1.947 0 0 1-1.945 1.944 1.947 1.947 0 0 1-1.945-1.944M17.905 32.115c0 5.87 4.776 10.647 10.647 10.647S39.2 37.986 39.2 32.115a.97.97 0 0 0-.972-.972h-19.35a.97.97 0 0 0-.972.972m19.296.972c-.485 4.343-4.179 7.73-8.649 7.73s-8.163-3.387-8.648-7.73zM29.78 2.507a.972.972 0 1 0 1.943 0 .972.972 0 0 0-1.944 0" fill="#000"/>
</svg>
