<svg width="57" height="19" viewBox="0 0 57 19" fill="none" xmlns="http://www.w3.org/2000/svg">
<path d="M24.71 18.1838H20.059L22.9658 0.319215H27.6174L24.71 18.1838ZM16.1462 0.319215L11.712 12.6066L11.1874 9.96066L11.1878 9.96162L9.62281 1.92772C9.62281 1.92772 9.43358 0.319215 7.4165 0.319215H0.0860162L0 0.621705C0 0.621705 2.24168 1.0881 4.86517 2.66363L8.90601 18.1843H13.7521L21.1518 0.319215H16.1462ZM52.7293 18.1838H57L53.2765 0.318737H49.5376C47.8111 0.318737 47.3906 1.65008 47.3906 1.65008L40.4538 18.1838H45.3023L46.2719 15.5302H52.1845L52.7293 18.1838ZM47.6113 11.8645L50.0552 5.17912L51.43 11.8645H47.6113ZM40.8175 4.61524L41.4813 0.778922C41.4813 0.778922 39.4331 0 37.298 0C34.9899 0 29.5088 1.00878 29.5088 5.91408C29.5088 10.5293 35.9418 10.5867 35.9418 13.0109C35.9418 15.4351 30.1716 15.0007 28.2673 13.472L27.5758 17.4833C27.5758 17.4833 29.6526 18.492 32.8257 18.492C35.9996 18.492 40.7879 16.8486 40.7879 12.3758C40.7879 7.73094 34.297 7.29847 34.297 5.279C34.2975 3.25905 38.8272 3.51853 40.8175 4.61524Z" fill="white"/>
<path d="M11.1878 9.96113L9.62281 1.92723C9.62281 1.92723 9.43358 0.318726 7.4165 0.318726H0.0860163L0 0.621215C0 0.621215 3.52331 1.3514 6.90279 4.08719C10.1341 6.70207 11.1878 9.96113 11.1878 9.96113Z" fill="#E6A540"/>
</svg>
