<svg width="15" height="15" viewBox="0 0 15 15" fill="none" xmlns="http://www.w3.org/2000/svg">
                    <path d="M9.59302 15H5.40698C1.6186 15 0 13.3814 0 9.59302V5.40698C0 1.6186 1.6186 0 5.40698 0H9.59302C13.3814 0 15 1.6186 15 5.40698V9.59302C15 13.3814 13.3814 15 9.59302 15ZM5.40698 1.04651C2.1907 1.04651 1.04651 2.1907 1.04651 5.40698V9.59302C1.04651 12.8093 2.1907 13.9535 5.40698 13.9535H9.59302C12.8093 13.9535 13.9535 12.8093 13.9535 9.59302V5.40698C13.9535 2.1907 12.8093 1.04651 9.59302 1.04651H5.40698Z" fill="#8497BB"/>
                    <path d="M6.50964 9.99773C6.3701 9.99773 6.23754 9.94191 6.13987 9.84424L4.16542 7.86982C3.96309 7.6675 3.96309 7.33261 4.16542 7.13029C4.36774 6.92796 4.70263 6.92796 4.90495 7.13029L6.50964 8.73494L10.0957 5.14889C10.298 4.94657 10.6329 4.94657 10.8352 5.14889C11.0375 5.35122 11.0375 5.6861 10.8352 5.88843L6.8794 9.84424C6.78173 9.94191 6.64917 9.99773 6.50964 9.99773Z" fill="#8497BB"/>
                </svg>   