<svg width="16" height="18" viewBox="0 0 16 18" fill="none" xmlns="http://www.w3.org/2000/svg">
                    <path d="M13.8921 3.30973C13.5516 2.94287 13.1473 2.65184 12.7023 2.45328C12.2574 2.25472 11.7804 2.15253 11.2988 2.15253C10.8171 2.15253 10.3402 2.25472 9.89521 2.45328C9.45023 2.65184 9.04595 2.94287 8.70544 3.30973L7.99878 4.07076L7.29211 3.30973C6.60432 2.56903 5.67147 2.15291 4.69878 2.15291C3.72609 2.15291 2.79324 2.56903 2.10544 3.30973C1.41765 4.05044 1.03125 5.05504 1.03125 6.10256C1.03125 7.15007 1.41765 8.15467 2.10544 8.89538L7.99878 15.242L13.8921 8.89538C14.2328 8.52868 14.503 8.09329 14.6874 7.61409C14.8718 7.13489 14.9667 6.62126 14.9667 6.10256C14.9667 5.58385 14.8718 5.07022 14.6874 4.59102C14.503 4.11182 14.2328 3.67643 13.8921 3.30973Z" stroke="#F3F3F3" stroke-width="1.4" stroke-linecap="round" stroke-linejoin="round"/>
                </svg>