<svg width="92" height="20" viewBox="0 0 92 20" fill="none" xmlns="http://www.w3.org/2000/svg">
<path d="M36.8278 11.5105L35.2302 7.19967C35.165 7.02336 34.9159 7.02336 34.8505 7.19967L33.2532 11.5108C33.2418 11.5414 33.2381 11.5744 33.2422 11.6068C33.2463 11.6392 33.2582 11.6701 33.2769 11.697C33.2955 11.7238 33.3204 11.7457 33.3493 11.7608C33.3783 11.7759 33.4104 11.7838 33.4431 11.7838H36.6379C36.6706 11.7838 36.7027 11.7759 36.7317 11.7608C36.7606 11.7456 36.7855 11.7237 36.8041 11.6969C36.8228 11.67 36.8346 11.6391 36.8387 11.6066C36.8428 11.5742 36.8391 11.5413 36.8277 11.5106M37.5658 13.9336H32.5153C32.474 13.9336 32.4337 13.9462 32.3997 13.9699C32.3658 13.9935 32.3399 14.0269 32.3255 14.0657L31.3312 16.748C31.3168 16.7868 31.291 16.8202 31.257 16.8439C31.2231 16.8675 31.1828 16.8801 31.1415 16.8801H28.9524C28.9193 16.8801 28.8867 16.872 28.8575 16.8565C28.8283 16.8409 28.8033 16.8185 28.7848 16.791C28.7662 16.7636 28.7547 16.732 28.7512 16.6991C28.7476 16.6661 28.7522 16.6328 28.7645 16.6021L33.8044 4.03463C33.8195 3.99709 33.8455 3.96493 33.879 3.9423C33.9125 3.91967 33.952 3.90759 33.9924 3.90763H36.0885C36.1711 3.90763 36.2454 3.95789 36.2763 4.03463L41.3161 16.602C41.3284 16.6327 41.3331 16.6661 41.3296 16.699C41.3261 16.732 41.3146 16.7636 41.296 16.7911C41.2775 16.8186 41.2525 16.8411 41.2232 16.8566C41.1939 16.8722 41.1613 16.8803 41.1282 16.8803H38.9395C38.8982 16.8803 38.8579 16.8676 38.8239 16.8439C38.79 16.8203 38.7641 16.7868 38.7498 16.748L37.7553 14.0657C37.7409 14.0269 37.7151 13.9935 37.6811 13.9699C37.6472 13.9462 37.6069 13.9336 37.5656 13.9336M42.3417 8.31818H44.214C44.2677 8.31818 44.3192 8.33953 44.3571 8.37753C44.3951 8.41554 44.4164 8.46708 44.4164 8.52083V16.6775C44.4164 16.7312 44.3951 16.7828 44.3571 16.8208C44.3192 16.8588 44.2677 16.8801 44.214 16.8801H42.3417C42.288 16.8801 42.2365 16.8588 42.1985 16.8208C42.1606 16.7828 42.1392 16.7312 42.1392 16.6775V8.52069C42.1392 8.46695 42.1606 8.4154 42.1985 8.3774C42.2365 8.33939 42.288 8.31804 42.3417 8.31804M51.2448 10.3023C51.2448 10.356 51.2234 10.4076 51.1855 10.4456C51.1475 10.4836 51.096 10.5049 51.0423 10.5049H50.9856C50.0599 10.5049 49.3809 10.7273 48.949 11.1721C48.5168 11.6168 48.3011 12.3521 48.3011 13.3775V16.6775C48.3011 16.7312 48.2798 16.7828 48.2418 16.8208C48.2038 16.8588 48.1523 16.8801 48.0987 16.8801H46.2447C46.191 16.8801 46.1395 16.8588 46.1016 16.8208C46.0636 16.7828 46.0423 16.7312 46.0423 16.6775V8.52069C46.0423 8.46695 46.0636 8.4154 46.1016 8.3774C46.1395 8.33939 46.191 8.31804 46.2447 8.31804H48.08C48.1337 8.31804 48.1852 8.33939 48.2232 8.3774C48.2612 8.4154 48.2825 8.46695 48.2825 8.52069V10.1341H48.3196C48.5418 9.46695 48.8935 8.95451 49.375 8.59595C49.8562 8.23779 50.4487 8.05851 51.1522 8.05851H51.2448V10.3022V10.3023ZM56.3641 10.2269C56.3104 10.2269 56.2589 10.2483 56.221 10.2863C56.183 10.3243 56.1617 10.3758 56.1617 10.4296V13.8222C56.1617 14.1682 56.2292 14.4153 56.3652 14.5635C56.5009 14.7118 56.7354 14.7859 57.0687 14.7859H57.2551C57.3088 14.7859 57.3602 14.8073 57.3982 14.8453C57.4362 14.8833 57.4575 14.9348 57.4575 14.9886V16.6959C57.4575 16.7496 57.4362 16.8012 57.3982 16.8392C57.3602 16.8772 57.3088 16.8985 57.2551 16.8985H56.4577C55.6307 16.8985 54.9951 16.6855 54.5508 16.2592C54.1064 15.833 53.8842 15.2 53.8842 14.3597V10.4296C53.8842 10.3758 53.8629 10.3243 53.8249 10.2863C53.787 10.2483 53.7355 10.2269 53.6818 10.2269H52.5131C52.4594 10.2269 52.4079 10.2055 52.3699 10.1675C52.3319 10.1295 52.3106 10.078 52.3106 10.0242V8.52069C52.3106 8.46695 52.3319 8.4154 52.3699 8.3774C52.4079 8.33939 52.4594 8.31804 52.5131 8.31804H53.6819C53.7356 8.31804 53.7871 8.29669 53.8251 8.25869C53.863 8.22068 53.8844 8.16914 53.8844 8.11539V5.09221C53.8844 5.03846 53.9057 4.98691 53.9436 4.94891C53.9816 4.91091 54.0331 4.88955 54.0868 4.88955H55.9591C56.0128 4.88955 56.0643 4.91091 56.1022 4.94891C56.1402 4.98691 56.1615 5.03846 56.1615 5.09221V8.11539C56.1615 8.16914 56.1829 8.22068 56.2208 8.25869C56.2588 8.29669 56.3103 8.31804 56.364 8.31804H57.7179C57.7716 8.31804 57.8231 8.33939 57.861 8.3774C57.899 8.4154 57.9203 8.46695 57.9203 8.52069V10.0244C57.9203 10.0781 57.899 10.1297 57.861 10.1677C57.8231 10.2057 57.7716 10.227 57.7179 10.227H56.3641V10.2269ZM64.9375 14.3412C65.3633 13.8964 65.5761 13.3157 65.5761 12.599C65.5761 11.8827 65.3633 11.3018 64.9375 10.857C64.5116 10.4123 63.953 10.1899 63.2618 10.1899C62.5705 10.1899 62.0123 10.4123 61.5863 10.857C61.1606 11.3018 60.9477 11.8827 60.9477 12.599C60.9477 13.3157 61.1606 13.8964 61.5863 14.3412C62.0123 14.7859 62.5705 15.0083 63.2618 15.0083C63.953 15.0083 64.5116 14.7859 64.9375 14.3412ZM60.6144 16.6206C59.9849 16.2625 59.488 15.7403 59.1241 15.0546C58.7598 14.369 58.5779 13.5505 58.5779 12.599C58.5779 11.6479 58.7598 10.8292 59.1241 10.1435C59.488 9.4579 59.9849 8.93613 60.6144 8.57757C61.2439 8.21928 61.935 8.04014 62.688 8.04014C63.3544 8.04014 63.9252 8.16983 64.4007 8.42923C64.8755 8.68863 65.2551 9.05327 65.5392 9.52275H65.5761V8.52069C65.5761 8.46695 65.5975 8.4154 65.6354 8.3774C65.6734 8.33939 65.7249 8.31804 65.7786 8.31804H67.6324C67.6861 8.31804 67.7376 8.33939 67.7755 8.3774C67.8135 8.4154 67.8348 8.46695 67.8348 8.52069V16.6774C67.8348 16.7311 67.8135 16.7826 67.7755 16.8206C67.7376 16.8587 67.6861 16.88 67.6324 16.88H65.7786C65.7249 16.88 65.6734 16.8587 65.6354 16.8206C65.5975 16.7826 65.5761 16.7311 65.5761 16.6774V15.6754H65.5392C65.2551 16.1452 64.8755 16.5094 64.4006 16.7688C63.9252 17.0282 63.3546 17.1579 62.688 17.1579C61.935 17.1579 61.2439 16.9788 60.6144 16.6206ZM75.5447 14.3412C75.9705 13.8964 76.1833 13.3157 76.1833 12.599C76.1833 11.8827 75.9705 11.3018 75.5447 10.857C75.119 10.4123 74.5603 10.1899 73.8692 10.1899C73.1778 10.1899 72.6195 10.4123 72.1937 10.857C71.768 11.3018 71.5548 11.8827 71.5548 12.599C71.5548 13.3157 71.768 13.8964 72.1937 14.3412C72.6195 14.7859 73.1778 15.0083 73.8692 15.0083C74.5603 15.0083 75.119 14.7859 75.5447 14.3412ZM72.7306 16.7688C72.2553 16.5094 71.8757 16.1452 71.592 15.6754H71.5548V16.6774C71.5548 16.7311 71.5335 16.7826 71.4955 16.8206C71.4576 16.8587 71.4061 16.88 71.3524 16.88H69.4801C69.4264 16.88 69.3749 16.8587 69.337 16.8206C69.299 16.7826 69.2777 16.7311 69.2777 16.6774V4.10988C69.2777 4.05613 69.299 4.00459 69.337 3.96658C69.3749 3.92858 69.4264 3.90723 69.4801 3.90723H71.3524C71.4061 3.90723 71.4576 3.92858 71.4955 3.96658C71.5335 4.00459 71.5548 4.05613 71.5548 4.10988V9.52261H71.592C71.8757 9.05313 72.2553 8.68863 72.7306 8.42923C73.2056 8.1697 73.7766 8.04 74.4432 8.04C75.1959 8.04 75.8872 8.21915 76.5167 8.57744C77.1462 8.936 77.6429 9.45776 78.007 10.1433C78.371 10.8293 78.5534 11.648 78.5534 12.5992C78.5534 13.5507 78.371 14.369 78.0072 15.0548C77.643 15.7404 77.1463 16.2626 76.5168 16.6206C75.8873 16.9789 75.196 17.1582 74.4433 17.1582C73.7767 17.1582 73.2058 17.0285 72.7307 16.769M81.7079 16.8801H79.8356C79.7819 16.8801 79.7304 16.8588 79.6924 16.8208C79.6545 16.7828 79.6331 16.7312 79.6331 16.6775V4.11029C79.6331 4.05654 79.6545 4.00499 79.6924 3.96699C79.7304 3.92898 79.7819 3.90763 79.8356 3.90763H81.7079C81.7616 3.90763 81.8131 3.92898 81.851 3.96699C81.889 4.00499 81.9103 4.05654 81.9103 4.11029V16.6775C81.9103 16.7312 81.889 16.7828 81.851 16.8208C81.8131 16.8588 81.7616 16.8801 81.7079 16.8801ZM86.1243 10.3012C85.8139 10.5436 85.6043 10.8935 85.4958 11.3512C85.4659 11.4774 85.5643 11.5985 85.6939 11.5985H89.2571C89.3807 11.5985 89.4779 11.4877 89.4579 11.3655C89.3866 10.9325 89.2012 10.5874 88.9014 10.329C88.5497 10.0264 88.0897 9.87509 87.522 9.87509C86.9542 9.87509 86.4882 10.0171 86.1243 10.3012ZM90.688 9.23552C91.4162 10.0326 91.7803 11.16 91.7803 12.6177V12.8598C91.7803 12.9135 91.759 12.9651 91.721 13.0031C91.683 13.0411 91.6315 13.0624 91.5779 13.0624H85.6252C85.5955 13.0625 85.5663 13.069 85.5394 13.0816C85.5125 13.0941 85.4887 13.1124 85.4696 13.1351C85.4505 13.1578 85.4366 13.1845 85.4289 13.2131C85.4211 13.2418 85.4197 13.2718 85.4248 13.301C85.5199 13.8425 85.7592 14.2727 86.1428 14.5914C86.5808 14.9562 87.1333 15.1381 87.7998 15.1381C88.6602 15.1381 89.4567 14.802 90.189 14.1296C90.2785 14.0475 90.4204 14.0649 90.4897 14.1647L91.4 15.4725C91.4285 15.5132 91.4411 15.5629 91.4354 15.6123C91.4296 15.6617 91.406 15.7072 91.3689 15.7403C90.9222 16.1318 90.4255 16.4621 89.8918 16.7226C89.2993 17.0128 88.6019 17.1582 87.7998 17.1582C86.8742 17.1582 86.0655 16.9696 85.3744 16.5929C84.683 16.2162 84.1462 15.685 83.7638 14.9991C83.3811 14.3135 83.1898 13.5197 83.1898 12.6177C83.1898 11.716 83.375 10.9192 83.7452 10.227C84.1154 9.53531 84.6339 8.99788 85.3005 8.61473C85.9669 8.23198 86.7445 8.04027 87.6333 8.04027C88.9411 8.04027 89.9596 8.43882 90.688 9.23552ZM44.661 5.3027C44.661 6.0671 44.0419 6.68682 43.2781 6.68682C42.5142 6.68682 41.8951 6.0671 41.8951 5.30256C41.8951 4.53802 42.5143 3.91831 43.2781 3.91831C44.0419 3.91831 44.661 4.53802 44.661 5.30256" fill="#333333"/>
<path d="M10.6635 0.252443L1.76094 3.93979C1.26588 4.14487 1.27101 4.84889 1.76917 5.04654L10.7088 8.59514C11.4943 8.90696 12.369 8.90696 13.1545 8.59514L22.0942 5.04641C22.5923 4.84889 22.5977 4.14501 22.1023 3.93992L13.2001 0.252308C12.3879 -0.0841028 11.4755 -0.0841028 10.6633 0.252308" fill="#FCB400"/>
<path d="M12.7246 10.5323V19.3973C12.7246 19.8188 13.1494 20.1077 13.5409 19.9523L23.5024 16.0819C23.6135 16.0378 23.7088 15.9614 23.7759 15.8624C23.8431 15.7634 23.879 15.6466 23.879 15.5269V6.66206C23.879 6.24041 23.4542 5.95169 23.0627 6.10706L13.1012 9.97747C12.9901 10.0216 12.8948 10.0981 12.8277 10.197C12.7605 10.296 12.7246 10.4128 12.7246 10.5325" fill="#18BFFF"/>
<path d="M10.3977 10.9894L7.44136 12.4182L7.14119 12.5635L0.900511 15.5567C0.505053 15.7477 0 15.4591 0 15.0192V6.69882C0 6.53967 0.0815211 6.40227 0.190846 6.29892C0.235696 6.25421 0.286578 6.21601 0.342011 6.18543C0.491016 6.09586 0.703726 6.07195 0.884584 6.14355L10.348 9.89696C10.8291 10.088 10.8669 10.7627 10.3977 10.9895" fill="#F82B60"/>
<path d="M10.3983 10.9894L7.44192 12.4182L0.191406 6.29878C0.236265 6.25412 0.287147 6.21597 0.342571 6.18543C0.491577 6.09586 0.704287 6.07195 0.885145 6.14355L10.3486 9.89696C10.8296 10.088 10.8674 10.7627 10.3983 10.9895" fill="black" fill-opacity="0.25"/>
</svg>
