<svg width="178" height="51" viewBox="0 0 178 51" fill="none" xmlns="http://www.w3.org/2000/svg">
<path fill-rule="evenodd" clip-rule="evenodd" d="M101.342 34.4199C95.3373 38.8599 86.6029 41.2254 79.0695 41.2254C68.5154 41.2254 59.0531 37.3313 51.8472 30.8533C51.3013 30.3438 51.7744 29.6523 52.4659 30.0527C60.2177 34.5654 69.7891 37.2586 79.6881 37.2586C86.3481 37.2586 93.6996 35.8756 100.469 33.0005C101.488 32.6002 102.325 33.692 101.342 34.4199Z" fill="#A6A6A6"/>
<path fill-rule="evenodd" clip-rule="evenodd" d="M103.855 31.545C103.091 30.5624 98.7601 31.0719 96.8313 31.3266C96.249 31.3994 96.1398 30.8899 96.6857 30.526C100.143 28.0876 105.784 28.8155 106.439 29.6161C107.094 30.4168 106.257 36.0942 103.018 38.7873C102.509 39.1876 102.036 38.9692 102.254 38.4233C102.982 36.6037 104.619 32.564 103.855 31.545Z" fill="#A6A6A6"/>
<path fill-rule="evenodd" clip-rule="evenodd" d="M96.9399 13.421V11.0554C96.9399 10.6915 97.1946 10.4731 97.5222 10.4731L108.076 10.4731C108.404 10.4731 108.695 10.7279 108.695 11.0554V13.057C108.695 13.3846 108.404 13.8213 107.894 14.5492L102.435 22.3373C104.473 22.301 106.621 22.5921 108.44 23.6111C108.84 23.8295 108.95 24.1934 108.986 24.521V27.0321C108.986 27.396 108.622 27.7964 108.222 27.578C104.983 25.8675 100.652 25.6855 97.0854 27.6144C96.7215 27.7964 96.3212 27.4324 96.3212 27.0685V24.6665C96.3212 24.3026 96.3212 23.6475 96.7215 23.0652L103.054 14.0033H97.5586C97.231 14.0033 96.9399 13.7485 96.9399 13.421V13.421ZM58.4721 28.0875H55.2695C54.9783 28.0511 54.7236 27.8327 54.6872 27.5416V11.0918C54.6872 10.7643 54.9783 10.5095 55.3059 10.5095H58.2901C58.6177 10.5095 58.836 10.7643 58.8724 11.0554V13.2026H58.9452C59.7095 11.1282 61.2016 10.1456 63.1668 10.1456C65.1685 10.1456 66.4422 11.1282 67.3157 13.2026C68.0799 11.1282 69.8632 10.1456 71.7557 10.1456C73.1022 10.1456 74.558 10.6915 75.4678 11.9652C76.4868 13.3482 76.2684 15.3498 76.2684 17.1331V27.5416C76.2684 27.8691 75.9773 28.1239 75.6498 28.1239H72.4835C72.156 28.0875 71.9012 27.8327 71.9012 27.5416V18.8072C71.9012 18.1157 71.974 16.3688 71.8285 15.7138C71.5737 14.622 70.8822 14.2944 69.936 14.2944C69.1717 14.2944 68.3347 14.8039 68.0071 15.641C67.6796 16.478 67.716 17.861 67.716 18.8072V27.5416C67.716 27.8691 67.4249 28.1239 67.0973 28.1239H63.8947C63.5672 28.0875 63.3124 27.8327 63.3124 27.5416V18.8072C63.3124 16.9875 63.6035 14.258 61.3472 14.258C59.0544 14.258 59.1272 16.8783 59.1272 18.8072V27.5416C59.0908 27.8327 58.836 28.0875 58.4721 28.0875V28.0875ZM117.793 10.1456C122.561 10.1456 125.145 14.2216 125.145 19.4259C125.145 24.4482 122.306 28.4514 117.793 28.4514C113.135 28.4514 110.587 24.3754 110.587 19.2803C110.551 14.1488 113.135 10.1456 117.793 10.1456ZM117.793 13.5301C115.428 13.5301 115.282 16.7692 115.282 18.7708C115.282 20.7724 115.246 25.0669 117.757 25.0669C120.232 25.0669 120.377 21.6095 120.377 19.4987C120.377 18.1157 120.304 16.4416 119.904 15.1315C119.54 13.9669 118.812 13.5301 117.793 13.5301ZM131.295 28.0875H128.093C127.765 28.0511 127.51 27.7964 127.51 27.5052V11.019C127.547 10.7279 127.801 10.4731 128.129 10.4731H131.113C131.404 10.4731 131.623 10.6915 131.696 10.9462V13.4574H131.768C132.678 11.201 133.916 10.1456 136.136 10.1456C137.555 10.1456 138.974 10.6551 139.884 12.0744C140.721 13.3846 140.721 15.6046 140.721 17.2059V27.578C140.685 27.8691 140.43 28.0875 140.102 28.0875L136.9 28.0875C136.609 28.0511 136.354 27.8327 136.317 27.578V18.6252C136.317 16.8056 136.536 14.1852 134.316 14.1852C133.552 14.1852 132.824 14.6947 132.46 15.4954C132.023 16.5144 131.95 17.497 131.95 18.6252V27.5052C131.914 27.8328 131.623 28.0875 131.295 28.0875V28.0875ZM88.533 20.2265C88.533 21.4639 88.5694 22.5193 87.9507 23.6475C87.4412 24.5573 86.6405 25.1032 85.7307 25.1032C84.4933 25.1032 83.7655 24.157 83.7655 22.7741C83.7655 20.0446 86.2038 19.5351 88.533 19.5351V20.2265ZM91.772 28.0511C91.5537 28.2331 91.2625 28.2695 91.0078 28.1239C89.9523 27.2505 89.734 26.8137 89.1517 25.9767C87.4048 27.76 86.131 28.3059 83.8747 28.3059C81.1815 28.3059 79.0707 26.6318 79.0707 23.32C79.0707 20.6997 80.4901 18.9528 82.4917 18.0793C84.2386 17.3151 86.6769 17.1695 88.533 16.9511V16.5508C88.533 15.7865 88.6058 14.8767 88.1327 14.2216C87.7324 13.6393 87.0045 13.3846 86.3494 13.3846C85.112 13.3846 84.0202 14.0033 83.7655 15.3134C83.6927 15.6046 83.5107 15.8957 83.2196 15.8957L80.1261 15.5682C79.8714 15.4954 79.5802 15.3134 79.653 14.9131C80.3809 11.1282 83.7655 10 86.8225 10C88.3874 10 90.4255 10.4003 91.6628 11.6013C93.2278 13.057 93.0822 15.0223 93.0822 17.1331V22.119C93.0822 23.6111 93.7009 24.2662 94.2832 25.1032C94.5015 25.3944 94.5379 25.7583 94.2832 25.9403C93.5917 26.4862 92.4271 27.5052 91.772 28.0511V28.0511ZM46.4987 20.2265C46.4987 21.4639 46.5351 22.5193 45.9164 23.6475C45.4069 24.5573 44.6062 25.1032 43.6964 25.1032C42.459 25.1032 41.7311 24.157 41.7311 22.7741C41.7311 20.0446 44.1695 19.5351 46.4987 19.5351V20.2265ZM49.7013 28.0511C49.4829 28.2331 49.1918 28.2695 48.937 28.1239C47.8816 27.2505 47.6633 26.8137 47.081 25.9767C45.3341 27.76 44.0603 28.3059 41.8039 28.3059C39.1108 28.3059 37 26.6318 37 23.32C37 20.6997 38.4193 18.9528 40.421 18.0793C42.1679 17.3151 44.6062 17.1695 46.4623 16.9511V16.5508C46.4623 15.7865 46.5351 14.8767 46.0619 14.2216C45.6616 13.6393 44.9338 13.3846 44.2787 13.3846C43.0413 13.3846 41.9495 14.0033 41.6947 15.3134C41.622 15.6046 41.44 15.8957 41.1488 15.8957L38.0554 15.5682C37.8007 15.4954 37.5095 15.3134 37.5823 14.9131C38.3102 11.1282 41.6947 10 44.7518 10C46.3167 10 48.3547 10.4003 49.5921 11.6013C51.157 13.057 51.0114 15.0223 51.0114 17.1331V22.119C51.0114 23.6111 51.6301 24.2662 52.2124 25.1032C52.4308 25.3944 52.4672 25.7583 52.2124 25.9403C51.521 26.4862 50.3564 27.5052 49.7013 28.0511V28.0511Z" fill="#A6A6A6"/>
</svg>
