<svg width="86" height="21" viewBox="0 0 86 21" fill="none" xmlns="http://www.w3.org/2000/svg">
<path d="M33.2713 15.9044C31.3537 15.9044 29.7993 14.3141 29.7993 12.352C29.7993 10.3902 31.3537 8.79966 33.2716 8.79966C35.1892 8.79966 36.7434 10.3902 36.7434 12.352C36.7434 14.3141 35.1892 15.9044 33.2716 15.9044H33.2713ZM36.7545 16.3549C36.7545 16.6803 37.3114 17.5941 37.9938 17.5941H38.4357C38.6071 17.5941 38.7472 17.4537 38.7472 17.2824V7.5607H38.7456C38.7413 7.48125 38.7068 7.40645 38.6492 7.35162C38.5916 7.2968 38.5152 7.26609 38.4357 7.2658H37.0664C36.9007 7.2658 36.7654 7.39709 36.7561 7.5607H36.7547V8.35072C35.9155 7.31632 34.5927 6.88695 33.2661 6.88695C30.2507 6.88695 27.8066 9.3337 27.8066 12.3523C27.8066 15.3708 30.2507 17.8176 33.2661 17.8176C34.5927 17.8176 36.0385 17.3024 36.7545 16.3538V16.3549ZM42.0192 14.9628C42.9332 15.5966 43.9311 15.9044 44.8899 15.9044C45.8038 15.9044 46.7478 15.4302 46.7478 14.6052C46.7478 13.5039 44.6899 13.3323 43.3972 12.8924C42.1037 12.4526 40.9899 11.5431 40.9899 10.0705C40.9899 7.81736 42.9957 6.88672 44.8679 6.88672C46.054 6.88672 47.2777 7.27832 48.0712 7.83921C48.3447 8.04627 48.1781 8.28451 48.1781 8.28451L47.4207 9.36715C47.3356 9.48911 47.1592 9.5865 46.9731 9.46249C46.4627 9.12482 45.8945 8.79943 44.8677 8.79943C43.5967 8.79943 43.0378 9.32756 43.0378 9.98197C43.0378 10.767 43.9318 11.0136 44.9791 11.2812C46.8044 11.7734 48.7957 12.3657 48.7957 14.6054C48.7957 16.5907 46.9403 17.8176 44.8899 17.8176C43.3362 17.8176 42.0133 17.3741 40.9037 16.5593C40.6728 16.3276 40.8342 16.1126 40.8342 16.1126L41.5877 15.0354C41.7412 14.8338 41.9344 14.9044 42.0192 14.9628ZM59.0656 16.3552C59.0656 16.6803 59.6223 17.5941 60.3045 17.5941H60.7467C60.918 17.5941 61.0583 17.4537 61.0583 17.2824V7.5607H61.0565C61.0521 7.48129 61.0176 7.40655 60.96 7.35175C60.9024 7.29694 60.8261 7.2662 60.7467 7.2658H59.3773C59.2114 7.2658 59.0763 7.39709 59.0672 7.5607H59.0656V8.35072C58.2266 7.31632 56.9036 6.88695 55.5772 6.88695C52.5619 6.88695 50.1175 9.3337 50.1175 12.352C50.1175 15.3704 52.5619 17.8174 55.5772 17.8174C56.9036 17.8174 58.3494 17.3022 59.0654 16.3536L59.0656 16.3552ZM55.5825 15.9046C53.6646 15.9046 52.1102 14.3141 52.1102 12.352C52.1102 10.3902 53.6646 8.79966 55.5825 8.79966C57.4999 8.79966 59.0545 10.3902 59.0545 12.352C59.0545 14.3141 57.4999 15.9044 55.5825 15.9044V15.9046ZM73.3275 16.6892L73.3268 11.6589C73.3268 8.82333 71.5399 6.91015 68.6895 6.91015C67.3295 6.91015 66.2163 7.69768 65.8224 8.37416V8.3646L65.8201 8.37234C65.8192 7.68789 65.2648 7.28924 64.581 7.28924H64.1414C63.9698 7.28924 63.8295 7.42986 63.8295 7.60143V17.3236H63.8313C63.8404 17.4872 63.9759 17.6185 64.1414 17.6185H65.5107C65.5317 17.6185 65.5523 17.6162 65.5721 17.6123C65.5812 17.6105 65.5896 17.6069 65.5983 17.6044C65.6087 17.6012 65.6194 17.5987 65.629 17.5946C65.6412 17.5898 65.6521 17.5828 65.6637 17.5764C65.6692 17.5732 65.6751 17.5707 65.6803 17.5673C65.6938 17.5581 65.7067 17.548 65.7187 17.537C65.7208 17.5348 65.7233 17.5336 65.7249 17.5316C65.7385 17.5186 65.751 17.5043 65.7622 17.489V17.4888C65.7965 17.4417 65.8172 17.3848 65.8206 17.3236H65.8224V11.5809C65.8224 10.058 67.0558 8.82333 68.5775 8.82333C70.0991 8.82333 71.3326 10.058 71.3326 11.5811L71.3337 16.3811L71.3341 16.3795C71.3341 16.3836 71.3348 16.3882 71.3348 16.3927V17.3234H71.3367C71.3457 17.4872 71.481 17.6187 71.6467 17.6187H73.0161C73.0372 17.6187 73.0574 17.6162 73.0774 17.6123C73.0856 17.6105 73.0931 17.6073 73.1009 17.6055C73.1122 17.6021 73.1236 17.5991 73.1345 17.5948C73.1454 17.59 73.1559 17.5837 73.1663 17.5778C73.1727 17.5741 73.1795 17.5714 73.1856 17.5675C73.1986 17.5589 73.2102 17.5489 73.2216 17.5391C73.2243 17.5366 73.2277 17.5343 73.2304 17.5316C73.2434 17.5191 73.2547 17.5056 73.2654 17.4915L73.2679 17.4883C73.3027 17.4401 73.3229 17.383 73.3261 17.3236H73.3277V16.6894L73.3275 16.6892ZM84.0071 16.3552C84.0071 16.6803 84.5633 17.5941 85.2459 17.5941H85.6881C85.8592 17.5941 85.9997 17.4537 85.9997 17.2824V7.5607H85.9981C85.9937 7.48127 85.9591 7.40653 85.9015 7.35173C85.8439 7.29693 85.7675 7.2662 85.6881 7.2658H84.3189C84.2394 7.26604 84.163 7.29671 84.1053 7.35154C84.0477 7.40638 84.0132 7.48121 84.0089 7.5607H84.0073V8.35072C83.1676 7.31632 81.845 6.88695 80.5184 6.88695C77.5033 6.88695 75.059 9.3337 75.059 12.352C75.059 15.3704 77.5033 17.8174 80.5184 17.8174C81.845 17.8174 83.2908 17.3022 84.0064 16.3536L84.0071 16.3552ZM80.5241 15.9046C78.6062 15.9046 77.0518 14.3141 77.0518 12.352C77.0518 10.3902 78.6062 8.79966 80.5241 8.79966C82.4411 8.79966 83.9955 10.3902 83.9955 12.352C83.9955 14.3141 82.4411 15.9044 80.5241 15.9044V15.9046Z" fill="#283343"/>
<path d="M17.2154 10.7759C14.5726 10.7759 12.4306 12.92 12.4306 15.565C12.4306 18.2102 14.5726 20.3547 17.2154 20.3547C19.8577 20.3547 21.9997 18.2102 21.9997 15.565C21.9997 12.92 19.8577 10.7759 17.2154 10.7759ZM4.78456 10.7761C2.14223 10.7764 0 12.92 0 15.5652C0 18.2102 2.14223 20.3545 4.78456 20.3545C7.42712 20.3545 9.56935 18.2102 9.56935 15.5652C9.56935 12.92 7.42712 10.7761 4.78433 10.7761H4.78456ZM15.7844 4.78929C15.7844 7.43424 13.6424 9.57904 11.0001 9.57904C8.3573 9.57904 6.21529 7.43424 6.21529 4.78929C6.21529 2.14435 8.3573 0 11.0001 0C13.6424 0 15.7842 2.14435 15.7842 4.78929H15.7844Z" fill="url(#paint0_radial_7962_1085)"/>
<defs>
<radialGradient id="paint0_radial_7962_1085" cx="0" cy="0" r="1" gradientUnits="userSpaceOnUse" gradientTransform="translate(10.9998 11.1241) scale(14.5778 13.4876)">
<stop stop-color="#FFB900"/>
<stop offset="0.6" stop-color="#F95D8F"/>
<stop offset="0.9991" stop-color="#F95353"/>
</radialGradient>
</defs>
</svg>
