<svg width="80" height="20" viewBox="0 0 80 20" fill="none" xmlns="http://www.w3.org/2000/svg">
<path fill-rule="evenodd" clip-rule="evenodd" d="M0 14.3096L2.86209 12.1152C4.38194 14.1015 5.99596 15.0168 7.79449 15.0168C9.58308 15.0168 11.1527 14.112 12.6045 12.1415L15.506 14.2834C13.4129 17.1245 10.8087 18.6255 7.79449 18.6255C4.79028 18.6255 2.16199 17.135 0 14.3096Z" fill="url(#paint0_linear_7962_1075)"/>
<path fill-rule="evenodd" clip-rule="evenodd" d="M7.78528 4.7724L2.69124 9.16621L0.337891 6.4324L7.7954 0L15.195 6.43741L12.83 9.1612L7.78528 4.7724Z" fill="url(#paint1_linear_7962_1075)"/>
<path d="M35.0423 3.70898H32.1582V15.7381H35.0423V3.70898Z" fill="black"/>
<path fill-rule="evenodd" clip-rule="evenodd" d="M26.3299 15.791C24.6297 15.791 23.2128 15.2395 22.0636 14.1365C20.9144 13.0176 20.3477 11.5836 20.3477 9.83445C20.3477 8.06955 20.9302 6.61979 22.0794 5.48522C23.2443 4.33486 24.6611 3.76758 26.3456 3.76758C28.4236 3.76758 30.2655 4.66578 31.3359 6.06827L29.4626 8.03805C28.5652 7.07679 27.5893 6.58829 26.5345 6.58829C25.6372 6.58829 24.8973 6.88769 24.2833 7.50226C23.6851 8.11684 23.386 8.88899 23.386 9.81872C23.386 10.7169 23.6851 11.4733 24.2833 12.0879C24.8973 12.6867 25.6372 12.9861 26.5188 12.9861C27.668 12.9861 28.6755 12.4818 29.5098 11.4891L31.462 13.3643C30.9268 14.0734 30.2025 14.6564 29.3051 15.1134C28.408 15.5704 27.4161 15.791 26.3299 15.791Z" fill="black"/>
<path fill-rule="evenodd" clip-rule="evenodd" d="M39.3685 4.6712C39.3685 5.53487 38.6694 6.235 37.8065 6.235C36.9436 6.235 36.2441 5.53487 36.2441 4.6712C36.2441 3.80755 36.9436 3.10742 37.8065 3.10742C38.6694 3.10742 39.3685 3.80755 39.3685 4.6712ZM39.2484 6.95672H36.3643V15.738H39.2484V6.95672Z" fill="black"/>
<path fill-rule="evenodd" clip-rule="evenodd" d="M44.8217 15.8064C43.4521 15.8064 42.3501 15.381 41.4844 14.53C40.6342 13.6791 40.209 12.5918 40.209 11.2523C40.209 9.9129 40.6342 8.82557 41.4999 7.97465C42.3659 7.12371 43.4835 6.69824 44.8689 6.69824C46.6795 6.69824 48.2692 7.58068 49.0091 9.2353L46.7894 10.4014C46.3487 9.66077 45.7349 9.28256 44.9319 9.28256C44.3495 9.28256 43.8771 9.47167 43.4993 9.84985C43.1372 10.2281 42.9483 10.7008 42.9483 11.2523C42.9483 12.4027 43.7826 13.2536 44.9005 13.2536C45.7032 13.2536 46.4431 12.8124 46.758 12.1348L48.9777 13.4585C48.222 14.9082 46.6636 15.8064 44.8217 15.8064Z" fill="black"/>
<path fill-rule="evenodd" clip-rule="evenodd" d="M52.5872 3.70898H49.7031V15.7381H52.5872V12.6758L52.9251 12.3603L55.5615 15.7381H58.9166L54.866 10.5486L58.7139 6.95681H55.1897L52.5872 9.38625V3.70898Z" fill="black"/>
<path fill-rule="evenodd" clip-rule="evenodd" d="M59.4375 11.1925V3.70898H62.442V11.025C62.442 12.3329 63.2034 12.9632 64.3046 12.9632C65.3897 12.9632 66.1672 12.3014 66.1672 11.025V3.70898H69.1715V11.1925C69.1715 14.6278 66.7621 15.92 64.3046 15.92C61.863 15.92 59.4375 14.6278 59.4375 11.1925Z" fill="black"/>
<path fill-rule="evenodd" clip-rule="evenodd" d="M75.6606 15.9781C77.9835 15.9781 79.8667 13.9315 79.8667 11.407C79.8667 8.88246 77.9835 6.83594 75.6606 6.83594C74.7137 6.83594 73.8401 7.17597 73.137 7.74976V6.95624H70.373V19.3462H73.137V15.0642C73.8401 15.638 74.7137 15.9781 75.6606 15.9781ZM73.137 11.4117V11.4023C73.1395 10.275 74.0261 9.36205 75.1197 9.36205C76.215 9.36205 77.1028 10.2776 77.1028 11.407C77.1028 12.5364 76.215 13.4519 75.1197 13.4519C74.0261 13.4519 73.1395 12.5389 73.137 11.4117Z" fill="black"/>
<defs>
<linearGradient id="paint0_linear_7962_1075" x1="0" y1="19.7978" x2="15.506" y2="19.7978" gradientUnits="userSpaceOnUse">
<stop stop-color="#8930FD"/>
<stop offset="1" stop-color="#49CCF9"/>
</linearGradient>
<linearGradient id="paint1_linear_7962_1075" x1="0.337891" y1="10.8167" x2="15.195" y2="10.8167" gradientUnits="userSpaceOnUse">
<stop stop-color="#FF02F0"/>
<stop offset="1" stop-color="#FFC800"/>
</linearGradient>
</defs>
</svg>
