<svg width="97" height="22" viewBox="0 0 97 22" fill="none" xmlns="http://www.w3.org/2000/svg">
<path d="M52.7617 7.00373H54.9308V13.0375C54.9308 16.1003 53.2428 17.8569 50.3023 17.8569C47.3923 17.8569 45.7197 16.1308 45.7197 13.1216V7.01137H47.8888V13.0528C47.8888 14.84 48.7671 15.7948 50.3329 15.7948C51.8986 15.7948 52.7617 14.863 52.7617 13.1292V7.00373ZM40.5413 11.3114H35.6379V7.00373H33.4688V17.6966H35.6379V13.3507H40.5336V17.6966H42.7028V7.00373H40.5336V11.3114H40.5413ZM94.8608 7.00373V17.6813H96.9994V7.00373H94.8608ZM86.3448 13.091H90.2935V11.1434H86.3448V8.95135H92.0731V7.01137H84.2062V17.6889H92.2793V15.7413H86.3448V13.091ZM77.8363 14.3512L75.4075 6.99609H73.6356L71.2068 14.3512L68.8467 7.00373H66.5401L70.2673 17.6889H72.0622L74.491 10.6698L76.9198 17.6889H78.7299L82.4495 7.00373H80.1964L77.8363 14.3512ZM62.6831 7.06483L67.3497 17.6889H65.0737L64.1113 15.4663H59.2155L59.1468 15.6191L58.2456 17.6889H56.0306L60.7431 7.00373H62.6372L62.6831 7.06483ZM63.2024 13.2819L61.6596 9.69985L60.1244 13.2819L60.0175 13.5264H63.3017L63.2024 13.2819Z" fill="#24272A"/>
<path d="M12.1138 16.5586C12.1443 16.5357 12.152 16.4899 12.1367 16.4517C10.0306 11.925 7.40329 7.65977 4.30801 3.74249C4.30801 3.74249 1.84866 6.07964 2.02433 8.42442C2.06547 8.96501 2.2128 9.49217 2.45788 9.97577C2.70295 10.4594 3.04096 10.8899 3.45258 11.2427C5.59878 13.3355 10.7924 15.9781 11.9992 16.5815C12.0374 16.5968 12.0832 16.5892 12.1138 16.5586ZM11.3118 18.3458C11.2965 18.3 11.2507 18.2695 11.1972 18.2695L2.55133 18.5673C3.49077 20.24 5.07178 21.5384 6.71389 21.1412C7.85192 20.8586 10.4182 19.0638 11.266 18.4528C11.3347 18.3993 11.3118 18.3535 11.3118 18.3458ZM11.4416 17.5744C11.4875 17.5057 11.4111 17.4446 11.4111 17.4446C7.61515 14.8783 0.252372 10.9372 0.252372 10.9372C0.00833035 11.6852 -0.0599389 12.4794 0.0528703 13.2581C0.16568 14.0368 0.456529 14.779 0.902813 15.427C1.3491 16.075 1.93879 16.6114 2.62607 16.9944C3.31335 17.3774 4.0797 17.5968 4.86556 17.6355C4.9954 17.6584 10.0058 17.6355 11.35 17.6279C11.3882 17.6202 11.4187 17.605 11.4416 17.5744ZM12.0145 0.00763773C11.6402 0.0381887 10.6244 0.274958 10.6244 0.274958C8.33309 0.863064 7.79081 2.94816 7.79081 2.94816C7.37074 4.25422 7.79845 5.69775 7.79845 5.69775C8.56223 9.0889 12.32 14.6721 13.1296 15.8407C13.1831 15.9018 13.2289 15.8788 13.2289 15.8788C13.2747 15.8636 13.3129 15.8254 13.3129 15.7719C14.5655 3.30714 12.0145 0.00763773 12.0145 0.00763773ZM14.8786 15.8636C14.9245 15.8788 14.9779 15.8636 15.0008 15.8177C15.8333 14.6186 19.5682 9.06599 20.332 5.69011C20.332 5.69011 20.7444 4.05564 20.3472 2.94053C20.3472 2.94053 19.7821 0.824875 17.4907 0.267321C17.4907 0.267321 16.8339 0.0992905 16.1312 0C16.1312 0 13.5649 3.2995 14.8175 15.7643C14.8099 15.8101 14.8404 15.8483 14.8786 15.8636ZM16.9255 18.2771C16.9052 18.2812 16.8859 18.2894 16.8688 18.3012C16.8517 18.3131 16.8373 18.3282 16.8263 18.3458C16.8186 18.3917 16.8263 18.4298 16.8568 18.4604C17.6817 19.0561 20.1945 20.8128 21.4013 21.1489C21.4013 21.1489 23.6391 21.9127 25.5791 18.575L16.9255 18.2771ZM27.8857 10.922C27.8857 10.922 20.5382 14.8707 16.7346 17.4369C16.6964 17.4675 16.6735 17.5133 16.6888 17.5591C16.6888 17.5591 16.727 17.6279 16.7804 17.6279C18.1399 17.6279 23.2878 17.6355 23.4253 17.6126C23.937 17.5744 24.4411 17.4599 24.9146 17.2689C24.9146 17.2689 26.7477 16.6884 27.6947 14.6033C27.6947 14.6033 28.5425 12.9078 27.8857 10.922ZM16.0396 16.5586C16.0701 16.5815 16.1159 16.5892 16.1541 16.5662C17.3914 15.9476 22.5469 13.3278 24.6778 11.2427C24.6778 11.2427 26.0297 10.1582 26.0985 8.40914C26.2512 5.98798 23.8148 3.74249 23.8148 3.74249C23.8148 3.74249 19.3085 9.20347 16.0014 16.4211C15.9961 16.4454 15.9968 16.4706 16.0034 16.4946C16.0101 16.5186 16.0225 16.5405 16.0396 16.5586Z" fill="#CE0E2D"/>
</svg>
