<svg width="178" height="51" viewBox="0 0 178 51" fill="none" xmlns="http://www.w3.org/2000/svg">
<path d="M95.6244 20.3042H98.8157V29.1813C98.8157 33.6873 96.3323 36.2717 92.0062 36.2717C87.7249 36.2717 85.2641 33.7322 85.2641 29.3049V20.3154H88.4553V29.2038C88.4553 31.8332 89.7476 33.2378 92.0511 33.2378C94.3547 33.2378 95.6244 31.8669 95.6244 29.3161V20.3042ZM77.6455 26.6418H70.4315V20.3042H67.2402V36.0357H70.4315V29.642H77.6343V36.0357H80.8255V20.3042H77.6343V26.6418H77.6455ZM157.562 20.3042V36.0133H160.708V20.3042H157.562ZM145.033 29.2599H150.842V26.3946H145.033V23.1696H153.46V20.3154H141.886V36.0245H153.764V33.1591H145.033V29.2599ZM132.515 31.114L128.942 20.293H126.335L122.761 31.114L119.289 20.3042H115.896L121.379 36.0245H124.02L127.593 25.6979L131.166 36.0245H133.83L139.302 20.3042H135.987L132.515 31.114ZM110.221 20.3941L117.087 36.0245H113.738L112.322 32.7546H105.12L105.018 32.9793L103.692 36.0245H100.434L107.367 20.3042H110.154L110.221 20.3941ZM110.985 29.5409L108.715 24.2708L106.457 29.5409L106.299 29.9004H111.131L110.985 29.5409Z" fill="#24272A"/>
<path d="M35.8221 34.3614C35.867 34.3277 35.8783 34.2603 35.8558 34.2041C32.7573 27.5444 28.8919 21.2692 24.338 15.506C24.338 15.506 20.7198 18.9445 20.9782 22.3942C21.0388 23.1895 21.2555 23.9651 21.6161 24.6766C21.9766 25.3881 22.4739 26.0215 23.0795 26.5406C26.2371 29.6195 33.8781 33.5074 35.6535 34.3951C35.7097 34.4176 35.7771 34.4064 35.8221 34.3614M34.6422 36.9908C34.6197 36.9234 34.5523 36.8785 34.4737 36.8785L21.7536 37.3167C23.1357 39.7776 25.4617 41.6878 27.8776 41.1035C29.5519 40.6877 33.3275 38.0471 34.5748 37.1481C34.6759 37.0695 34.6422 37.0021 34.6422 36.9908M34.8332 35.8559C34.9007 35.7548 34.7883 35.6649 34.7883 35.6649C29.2036 31.8893 18.3713 26.0911 18.3713 26.0911C18.0123 27.1916 17.9118 28.3601 18.0778 29.5057C18.2438 30.6513 18.6717 31.7432 19.3282 32.6966C19.9848 33.6499 20.8524 34.439 21.8635 35.0026C22.8747 35.5661 24.0022 35.8889 25.1583 35.9458C25.3494 35.9795 32.7207 35.9458 34.6984 35.9346C34.7546 35.9233 34.7995 35.9009 34.8332 35.8559M35.676 10.0112C35.1254 10.0562 33.6309 10.4045 33.6309 10.4045C30.2598 11.2698 29.462 14.3374 29.462 14.3374C28.844 16.2589 29.4733 18.3827 29.4733 18.3827C30.597 23.3718 36.1255 31.5859 37.3166 33.3052C37.3952 33.395 37.4626 33.3613 37.4626 33.3613C37.5301 33.3389 37.5862 33.2827 37.5862 33.204C39.4291 14.8655 35.676 10.0112 35.676 10.0112M39.8898 33.3389C39.9572 33.3613 40.0359 33.3389 40.0696 33.2714C41.2944 31.5073 46.7892 23.3381 47.9129 18.3714C47.9129 18.3714 48.5197 15.9667 47.9354 14.3262C47.9354 14.3262 47.1038 11.2136 43.7328 10.3933C43.7328 10.3933 42.7664 10.1461 41.7326 10C41.7326 10 37.9571 14.8543 39.7999 33.1928C39.7887 33.2602 39.8336 33.3164 39.8898 33.3389M42.9013 36.8897C42.8713 36.8957 42.8429 36.9078 42.8178 36.9252C42.7927 36.9426 42.7714 36.9649 42.7552 36.9908C42.7439 37.0583 42.7552 37.1144 42.8001 37.1594C44.0137 38.0359 47.7106 40.6203 49.486 41.1147C49.486 41.1147 52.7784 42.2384 55.6326 37.3279L42.9013 36.8897ZM59.0261 26.0686C59.0261 26.0686 48.2163 31.8781 42.6203 35.6536C42.5642 35.6986 42.5304 35.766 42.5529 35.8334C42.5529 35.8334 42.6091 35.9346 42.6878 35.9346C44.6879 35.9346 52.2615 35.9458 52.4638 35.9121C53.2167 35.8559 53.9583 35.6874 54.655 35.4064C54.655 35.4064 57.3518 34.5524 58.7452 31.4848C58.7452 31.4848 59.9925 28.9902 59.0261 26.0686ZM41.5978 34.3614C41.6427 34.3951 41.7102 34.4064 41.7663 34.3727C43.5867 33.4625 51.1716 29.6082 54.3066 26.5406C54.3066 26.5406 56.2955 24.945 56.3967 22.3717C56.6214 18.8097 53.0369 15.506 53.0369 15.506C53.0369 15.506 46.4071 23.5404 41.5416 34.1592C41.5338 34.1949 41.5348 34.232 41.5446 34.2672C41.5544 34.3025 41.5727 34.3348 41.5978 34.3614" fill="#CE0E2D"/>
</svg>
