<svg width="178" height="51" viewBox="0 0 178 51" fill="none" xmlns="http://www.w3.org/2000/svg">
<path d="M30.6392 8.12623C27.9989 9.21347 25.0964 12.2851 24.1796 16.1406C23.0187 21.0257 27.85 23.0914 28.2462 22.4141C28.7126 21.6182 27.3805 21.3491 27.1063 18.8145C26.7519 15.5408 28.299 11.8829 30.246 10.2778C30.6079 9.97966 30.5907 10.3947 30.5907 11.1624C30.5907 12.5352 30.5136 24.859 30.5136 27.431C30.5136 30.9112 30.3675 32.0102 30.105 33.0962C29.8391 34.1967 29.4117 34.9403 29.7356 35.2267C30.0975 35.5471 31.6427 34.785 32.5372 33.5568C33.6098 32.0837 33.9853 30.3147 34.0527 28.3936C34.1342 26.0777 34.1307 22.4029 34.1342 20.3068C34.1374 18.3843 34.1671 12.7551 34.0999 9.37095C34.0834 8.54089 31.7434 7.67004 30.6391 8.12522M124.396 24.4134C124.311 26.2227 123.904 27.6369 123.399 28.6344C122.421 30.5656 120.391 31.1652 119.529 28.3891C119.059 26.8759 119.037 24.3486 119.375 22.237C119.719 20.0858 120.678 18.4611 122.268 18.6076C123.835 18.7525 124.569 20.7394 124.396 24.4134V24.4134ZM97.9716 35.6387C97.9503 38.6449 97.4694 41.2808 96.438 42.0463C94.9752 43.1319 93.0091 42.3176 93.4162 40.1239C93.7764 38.1827 95.48 36.2002 97.9757 33.778C97.9757 33.778 97.9809 34.3304 97.9716 35.6387H97.9716ZM97.5721 24.3959C97.4826 26.0438 97.0483 27.6993 96.5746 28.6347C95.5966 30.5658 93.5521 31.1695 92.7049 28.3894C92.1256 26.4899 92.2643 24.0314 92.551 22.4824C92.9229 20.4726 93.8244 18.6081 95.4435 18.6081C97.0177 18.6081 97.794 20.307 97.5721 24.396V24.3959ZM82.2642 24.3707C82.1683 26.116 81.8222 27.575 81.2668 28.6347C80.2619 30.5525 78.2739 31.1607 77.3971 28.3894C76.765 26.391 76.9802 23.6662 77.2431 22.1942C77.6333 20.0099 78.6104 18.4613 80.1357 18.6081C81.7025 18.7586 82.4642 20.7396 82.2642 24.3708V24.3707ZM152.416 26.4093C152.033 26.4093 151.859 26.7977 151.714 27.4514C151.212 29.7246 150.685 30.2379 150.005 30.2379C149.246 30.2379 148.563 29.1123 148.388 26.8591C148.25 25.0874 148.272 21.8256 148.449 18.5809C148.485 17.9143 148.298 17.2547 146.48 16.6051C145.698 16.3257 144.561 15.9143 143.995 17.2585C142.396 21.0562 141.77 24.0712 141.623 25.296C141.615 25.3594 141.536 25.3723 141.522 25.2242C141.428 24.2432 141.219 22.4606 141.193 18.7153C141.188 17.9846 141.03 17.3626 140.21 16.8533C139.678 16.5229 138.063 15.9385 137.481 16.6337C136.977 17.2024 136.394 18.7326 135.787 20.5465C135.294 22.0208 134.951 23.0181 134.951 23.0181C134.951 23.0181 134.958 19.0402 134.963 17.5313C134.966 16.9621 134.569 16.7724 134.449 16.738C133.911 16.5842 132.849 16.3272 132.399 16.3272C131.843 16.3272 131.707 16.6329 131.707 17.0783C131.707 17.1366 131.619 22.3156 131.619 25.937C131.619 26.0943 131.619 26.2659 131.621 26.4482C131.313 28.1127 130.316 30.3721 129.232 30.3721C128.146 30.3721 127.634 29.4275 127.634 25.1102C127.634 22.5916 127.711 21.4965 127.749 19.6749C127.771 18.6257 127.813 17.82 127.811 17.6371C127.803 17.0764 126.817 16.7938 126.358 16.6894C125.898 16.5841 125.497 16.5433 125.185 16.5608C124.742 16.5853 124.429 16.8709 124.429 17.2637C124.429 17.4744 124.432 17.8749 124.432 17.8749C123.862 16.9938 122.945 16.3805 122.335 16.2028C120.692 15.7228 118.978 16.1481 117.685 17.9281C116.657 19.3423 116.038 20.9441 115.794 23.2455C115.616 24.9279 115.674 26.6341 115.991 28.0769C115.608 29.7051 114.897 30.3721 114.119 30.3721C112.989 30.3721 112.17 28.5581 112.265 25.4208C112.328 23.3573 112.748 21.9092 113.207 19.8142C113.402 18.9211 113.243 18.4535 112.845 18.0054C112.479 17.5944 111.7 17.3844 110.58 17.6427C109.782 17.8268 108.642 18.0248 107.598 18.1769C107.598 18.1769 107.661 17.9298 107.713 17.494C107.984 15.2089 105.46 15.3943 104.655 16.1242C104.174 16.5599 103.847 17.0739 103.723 17.9979C103.526 19.4643 104.741 20.1559 104.741 20.1559C104.343 21.9521 103.365 24.2985 102.355 25.995C101.815 26.9039 101.401 27.5774 100.867 28.2933C100.865 28.0267 100.864 27.7602 100.863 27.4948C100.851 23.7185 100.902 20.7465 100.924 19.6752C100.946 18.626 100.989 17.8417 100.987 17.6588C100.98 17.2487 100.737 17.0939 100.231 16.8978C99.783 16.7243 99.2536 16.6043 98.7045 16.5624C98.0114 16.5092 97.5939 16.8709 97.6047 17.2985C97.6069 17.3792 97.6069 17.875 97.6069 17.875C97.0369 16.9939 96.1202 16.3807 95.5102 16.2029C93.8674 15.7232 92.1532 16.1485 90.8602 17.9282C89.8328 19.3425 89.1599 21.327 88.9692 23.2281C88.7916 24.9999 88.8244 26.5056 89.0665 27.774C88.8053 29.0441 88.0543 30.3723 87.2051 30.3723C86.1194 30.3723 85.5017 29.4276 85.5017 25.1104C85.5017 22.5918 85.5785 21.4966 85.6163 19.6752C85.6383 18.626 85.6806 17.8201 85.6782 17.6375C85.6702 17.0768 84.6846 16.7942 84.2261 16.6895C83.7462 16.5804 83.3319 16.5402 83.0138 16.5633C82.5941 16.594 82.299 16.9638 82.299 17.2395V17.875C81.7291 16.9939 80.8124 16.3807 80.2024 16.2029C78.5596 15.7232 76.855 16.1553 75.5524 17.9282C74.703 19.0842 74.0153 20.3658 73.6614 23.2029C73.5592 24.0228 73.514 24.7905 73.5199 25.5081C73.1811 27.5459 71.6851 29.8946 70.4614 29.8946C69.7453 29.8946 69.0633 28.5283 69.0633 25.6162C69.0633 21.7372 69.3073 16.2143 69.3486 15.682C69.3486 15.682 70.8948 15.6561 71.1942 15.6527C71.9654 15.6444 72.6639 15.6623 73.6912 15.6106C74.2064 15.5848 74.7028 13.7657 74.171 13.5406C73.93 13.4387 72.2266 13.3494 71.5514 13.3353C70.9836 13.3227 69.4029 13.2076 69.4029 13.2076C69.4029 13.2076 69.5447 9.54172 69.5777 9.15447C69.6057 8.83171 69.1812 8.66554 68.9378 8.5647C68.3459 8.31842 67.8163 8.20051 67.1886 8.0732C66.3214 7.8972 65.9279 8.06936 65.8511 8.78941C65.7354 9.88222 65.6754 13.083 65.6754 13.083C65.039 13.083 62.8651 12.9607 62.2285 12.9607C61.637 12.9607 60.9987 15.463 61.8164 15.4938C62.7572 15.5297 64.3968 15.5606 65.4837 15.5929C65.4837 15.5929 65.4353 21.2068 65.4353 22.94C65.4353 23.1244 65.4369 23.3019 65.4372 23.4742C64.839 26.5416 62.732 28.1985 62.732 28.1985C63.1845 26.1692 62.2602 24.6454 60.5953 23.3555C59.9819 22.8801 58.7709 21.9802 57.416 20.9941C57.416 20.9941 58.2008 20.2332 58.8967 18.7026C59.3898 17.6183 59.411 16.3775 58.2008 16.1039C56.201 15.6514 54.5521 17.0963 54.0603 18.6387C53.6793 19.8336 53.8825 20.7202 54.629 21.6413C54.6835 21.7086 54.7425 21.7774 54.8036 21.8466C54.3521 22.7025 53.732 23.8549 53.2068 24.7486C51.749 27.2298 50.6477 29.1924 49.8155 29.1924C49.1502 29.1924 49.1591 27.1998 49.1591 25.3343C49.1591 23.726 49.2798 21.3081 49.3762 18.8047C49.4081 17.9767 48.9873 17.5051 48.2819 17.0779C47.8533 16.8184 46.9385 16.3081 46.4087 16.3081C45.6157 16.3081 43.3279 16.4142 41.1661 22.5658C40.8937 23.3411 40.3585 24.7539 40.3585 24.7539L40.4046 17.3564C40.4046 17.183 40.3107 17.0153 40.0957 16.9006C39.7314 16.706 38.7584 16.3081 37.8933 16.3081C37.4811 16.3081 37.2754 16.4967 37.2754 16.8726L37.2 28.446C37.2 29.3254 37.2233 30.3513 37.3116 30.7999C37.3997 31.2492 37.5423 31.6146 37.719 31.8321C37.8954 32.0491 38.0995 32.2147 38.436 32.283C38.7491 32.3464 40.4638 32.563 40.553 31.9184C40.6597 31.1458 40.6638 30.3102 41.5642 27.1937C42.966 22.3417 44.7936 19.9743 45.6528 19.1336C45.803 18.9866 45.9745 18.9779 45.9663 19.2184C45.9296 20.2821 45.8006 22.9402 45.7138 25.1984C45.481 31.2417 46.5986 32.3618 48.1956 32.3618C49.4173 32.3618 51.1396 31.1675 52.9859 28.1444C54.1369 26.2605 55.2544 24.4132 56.0574 23.0818C56.6169 23.5914 57.2448 24.1399 57.8723 24.7257C59.3306 26.0873 59.8094 27.381 59.4917 28.6084C59.2487 29.5467 58.3337 30.5136 56.7053 29.5738C56.2306 29.2996 56.028 29.0877 55.5508 28.7786C55.2944 28.6126 54.9029 28.5629 54.6682 28.7369C54.0585 29.1891 53.7098 29.7643 53.5107 30.4765C53.317 31.1695 54.0224 31.5358 54.7537 31.8562C55.3834 32.1319 56.7368 32.3818 57.5999 32.4103C60.9627 32.5209 63.6567 30.8129 65.532 26.4072C65.8677 30.2121 67.2964 32.3652 69.7786 32.3652C71.4381 32.3652 73.102 30.255 73.8296 28.179C74.0385 29.0252 74.3477 29.7611 74.747 30.3834C76.6597 33.3646 80.3702 32.723 82.234 30.1914C82.8103 29.4092 82.898 29.1281 82.898 29.1281C83.1698 31.5185 85.1266 32.3537 86.247 32.3537C87.5018 32.3537 88.7974 31.7701 89.7054 29.7591C89.8118 29.9773 89.928 30.1857 90.0548 30.3833C91.9675 33.3646 95.678 32.7229 97.5418 30.1913C97.6297 30.0726 97.706 29.9649 97.7726 29.8682L97.8273 31.4383C97.8273 31.4383 96.7641 32.3979 96.1114 32.9865C93.2388 35.5792 91.0544 37.5463 90.8938 39.837C90.6875 42.7578 93.0955 43.8433 94.9172 43.9856C96.8518 44.1366 98.5085 43.0853 99.5268 41.6139C100.422 40.3189 101.009 37.5316 100.966 34.7787C100.949 33.6763 100.92 32.2746 100.898 30.7721C101.908 29.6187 103.045 28.1608 104.093 26.4544C105.234 24.5947 106.458 22.0973 107.084 20.1537C107.084 20.1537 108.147 20.1627 109.281 20.0896C109.644 20.0663 109.748 20.1392 109.681 20.4008C109.6 20.717 108.248 25.8473 109.482 29.2649C110.327 31.6045 112.231 32.3572 113.359 32.3572C114.681 32.3572 115.945 31.3755 116.622 29.9177C116.704 30.0802 116.789 30.2375 116.883 30.3827C118.795 33.3639 122.493 32.7184 124.37 30.1907C124.793 29.6204 125.034 29.1274 125.034 29.1274C125.436 31.6013 127.392 32.3656 128.512 32.3656C129.679 32.3656 130.786 31.895 131.685 29.8036C131.722 30.7245 131.782 31.4774 131.875 31.7148C131.932 31.86 132.263 32.0422 132.505 32.1302C133.572 32.5196 134.661 32.3355 135.063 32.2554C135.342 32.1998 135.56 31.9796 135.59 31.411C135.668 29.9179 135.62 27.4094 136.08 25.545C136.852 22.4162 137.573 21.2025 137.915 20.6016C138.106 20.265 138.322 20.2095 138.329 20.5657C138.346 21.2866 138.382 23.4037 138.681 26.248C138.901 28.3399 139.195 29.5764 139.42 29.9677C140.064 31.0867 140.859 31.1397 141.507 31.1397C141.918 31.1397 142.78 31.0278 142.703 30.3156C142.665 29.9685 142.731 27.8233 143.492 24.7408C143.99 22.7278 144.819 20.909 145.118 20.244C145.228 19.9988 145.279 20.1921 145.277 20.2298C145.214 21.6161 145.073 26.1504 145.647 28.6304C146.425 31.9899 148.677 32.3658 149.461 32.3658C151.136 32.3658 152.505 31.1126 152.967 27.815C153.078 27.0215 152.913 26.4087 152.42 26.4087" fill="#A6A6A6"/>
</svg>
