<svg width="178" height="51" viewBox="0 0 178 51" fill="none" xmlns="http://www.w3.org/2000/svg">
<path d="M55.6282 11.4204H50V17.0486H55.6282V11.4204Z" fill="#A6A6A6"/>
<path d="M55.4879 40.7433V20.4738H50.1602V40.7433H55.4879ZM90.8995 40.9436V35.9764C90.1184 35.9764 89.4574 35.9363 88.9767 35.8562C88.4159 35.7761 87.9953 35.5758 87.7149 35.2954C87.4345 35.015 87.2542 34.6144 87.1541 34.0937C87.074 33.5929 87.0339 32.932 87.0339 32.1308V25.0405H90.8995V20.4738H87.0339V12.5623H81.6861V32.1709C81.6861 33.8333 81.8263 35.2353 82.1067 36.357C82.3871 37.4586 82.8678 38.3599 83.5288 39.0409C84.1898 39.7219 85.071 40.2026 86.1326 40.503C87.2142 40.8034 88.5761 40.9436 90.1985 40.9436H90.8995ZM121.504 40.7433V11H116.156V40.7433H121.504ZM76.5386 22.4567C75.0564 20.8544 72.9734 20.0532 70.3296 20.0532C69.0477 20.0532 67.886 20.3136 66.8244 20.8343C65.7829 21.3551 64.8816 22.0761 64.1806 22.9975L63.8802 23.378V23.0375V20.4738H58.6125V40.7433H63.9202V29.9476V30.6887C63.9202 30.5685 63.9202 30.4483 63.9202 30.3282C63.9803 28.4254 64.441 27.0234 65.3223 26.122C66.2636 25.1606 67.4053 24.6799 68.7072 24.6799C70.2494 24.6799 71.4312 25.1606 72.2123 26.082C72.9734 27.0033 73.374 28.3052 73.374 29.9676V30.0077V40.7233H78.7618V29.2266C78.7819 26.3424 78.0208 24.059 76.5386 22.4567ZM113.392 30.5685C113.392 29.1064 113.132 27.7444 112.631 26.4625C112.11 25.2007 111.389 24.0791 110.488 23.1177C109.567 22.1563 108.465 21.4152 107.183 20.8744C105.901 20.3336 104.479 20.0732 102.937 20.0732C101.475 20.0732 100.093 20.3536 98.8111 20.8944C97.5292 21.4552 96.4076 22.1963 95.4662 23.1377C94.5248 24.0791 93.7637 25.2007 93.2229 26.4826C92.6621 27.7644 92.4017 29.1464 92.4017 30.6086C92.4017 32.0707 92.6621 33.4527 93.1829 34.7346C93.7036 36.0165 94.4447 37.1381 95.366 38.0795C96.2874 39.0208 97.4291 39.7819 98.751 40.3227C100.073 40.8836 101.535 41.164 103.097 41.164C107.624 41.164 110.428 39.101 112.11 37.1782L108.265 34.2539C107.464 35.2153 105.541 36.5172 103.137 36.5172C101.635 36.5172 100.393 36.1767 99.452 35.4757C98.5106 34.7947 97.8697 33.8333 97.5292 32.6516L97.4691 32.4713H113.392V30.5685ZM97.5092 28.7058C97.5092 27.2236 99.2117 24.6399 102.877 24.6199C106.542 24.6199 108.265 27.2036 108.265 28.6858L97.5092 28.7058Z" fill="#A6A6A6"/>
<path d="M127.594 38.0992C127.493 37.8589 127.353 37.6586 127.173 37.4783C126.993 37.298 126.792 37.1578 126.552 37.0577C126.312 36.9575 126.051 36.8975 125.791 36.8975C125.511 36.8975 125.27 36.9575 125.03 37.0577C124.79 37.1578 124.589 37.298 124.409 37.4783C124.229 37.6586 124.089 37.8589 123.988 38.0992C123.888 38.3396 123.828 38.5999 123.828 38.8603C123.828 39.1407 123.888 39.3811 123.988 39.6214C124.089 39.8618 124.229 40.0621 124.409 40.2423C124.589 40.4226 124.79 40.5628 125.03 40.6629C125.27 40.7631 125.531 40.8232 125.791 40.8232C126.071 40.8232 126.312 40.7631 126.552 40.6629C126.792 40.5628 126.993 40.4226 127.173 40.2423C127.353 40.0621 127.493 39.8618 127.594 39.6214C127.694 39.3811 127.754 39.1207 127.754 38.8603C127.754 38.5999 127.694 38.3396 127.594 38.0992ZM127.273 39.5013C127.193 39.7015 127.073 39.8818 126.933 40.022C126.792 40.1622 126.612 40.2824 126.412 40.3625C126.212 40.4426 126.011 40.4827 125.771 40.4827C125.551 40.4827 125.33 40.4426 125.13 40.3625C124.93 40.2824 124.749 40.1622 124.609 40.022C124.469 39.8818 124.349 39.7015 124.269 39.5013C124.189 39.301 124.149 39.1007 124.149 38.8603C124.149 38.64 124.189 38.4197 124.269 38.2194C124.349 38.0191 124.469 37.8388 124.609 37.6986C124.749 37.5584 124.93 37.4382 125.13 37.3581C125.33 37.278 125.531 37.238 125.771 37.238C125.991 37.238 126.212 37.278 126.412 37.3581C126.612 37.4382 126.792 37.5584 126.933 37.6986C127.073 37.8388 127.193 38.0191 127.273 38.2194C127.353 38.4197 127.393 38.62 127.393 38.8603C127.413 39.1007 127.353 39.301 127.273 39.5013ZM126.152 39.0206C126.312 39.0005 126.432 38.9404 126.532 38.8403C126.632 38.7401 126.692 38.5999 126.692 38.3997C126.692 38.1793 126.632 38.0191 126.492 37.8989C126.372 37.7787 126.152 37.7187 125.891 37.7187H125.01V39.982H125.43V39.0606H125.731L126.292 39.982H126.732L126.152 39.0206ZM125.931 38.7001C125.871 38.7001 125.811 38.7001 125.731 38.7001H125.43V38.0592H125.731C125.791 38.0592 125.851 38.0592 125.931 38.0592C125.991 38.0592 126.051 38.0792 126.111 38.0992C126.172 38.1192 126.212 38.1593 126.232 38.1994C126.252 38.2394 126.272 38.2995 126.272 38.3796C126.272 38.4597 126.252 38.5198 126.232 38.5599C126.192 38.5999 126.152 38.64 126.111 38.66C126.051 38.6801 125.991 38.7001 125.931 38.7001Z" fill="#A6A6A6"/>
</svg>
