<svg width="84" height="26" viewBox="0 0 84 26" fill="none" xmlns="http://www.w3.org/2000/svg">
<path fill-rule="evenodd" clip-rule="evenodd" d="M56.9513 21.3389L54.0311 20.5771V7.7195L56.9513 7.11163V21.3389ZM77.379 18.3072C75.261 18.3149 73.544 16.4452 73.5299 14.1291C73.5299 14.1214 73.5299 14.1137 73.5299 14.106C73.5299 11.8284 75.2398 9.95862 77.372 9.95862C79.5041 9.95862 81.214 11.8284 81.214 14.106C81.2211 16.4221 79.5041 18.2996 77.3931 18.3072C77.3931 18.3072 77.3861 18.3072 77.379 18.3072ZM84.0006 14.106C84.0006 18.1072 81.0381 21.3466 77.379 21.3466C73.7199 21.3466 70.7574 18.1072 70.7574 14.106C70.7574 10.1587 73.7269 6.91926 77.3861 6.91926C81.0452 6.91926 84.0006 10.1587 84.0006 14.106ZM46.4314 20.5848L49.3024 21.2389V12.5825C49.3024 8.4274 46.3399 6.96543 44.2992 6.96543C42.9552 6.96543 41.8434 7.31938 40.8723 8.38123C39.852 7.31938 38.6487 6.91157 37.6777 6.91157C36.2422 6.91157 35.0389 7.56561 34.2015 8.68132V7.21166L31.2812 7.81953V20.5771L34.2015 21.2312V12.4824C34.2015 11.0666 35.1304 10.1048 36.5588 10.1048C37.9028 10.1048 38.8739 11.0666 38.8739 12.4824V20.5848L41.7449 21.2389V12.4824C41.7449 11.0666 42.716 10.1048 44.1093 10.1048C45.4533 10.1048 46.4243 11.0666 46.4243 12.4824L46.4314 20.5848ZM68.576 6.91926L66.8591 7.17318C63.6644 7.98111 61.5815 9.09683 61.5815 12.9441V20.5848L64.5018 21.1927V13.3981C64.5018 11.6283 65.4306 10.8127 66.8661 10.5126L68.5831 10.2125L68.576 6.91926ZM54.1718 1.64847C53.4752 2.42562 53.4752 3.65676 54.1718 4.43391C54.8825 5.23415 56.0577 5.24184 56.7824 4.46469C56.7895 4.457 56.8036 4.44161 56.8106 4.43391C57.5072 3.66445 57.5072 2.41793 56.8106 1.64847C56.0647 0.886707 54.9107 0.886707 54.1718 1.64847Z" fill="#050038"/>
<path d="M5.1509 0H18.6263C21.4691 0 23.7772 2.52382 23.7772 5.63244V20.3676C23.7772 23.4762 21.4691 26 18.6263 26H5.1509C2.30806 26 0 23.4762 0 20.3676V5.63244C0 2.52382 2.30806 0 5.1509 0Z" fill="#FFD02F"/>
<path d="M16.5239 3.45898H13.9132L16.0876 7.63714L11.3026 3.45898H8.69198L11.0845 8.56819L6.08134 3.45898H3.4707L6.08134 9.96091L3.4707 22.9648H6.08134L11.0845 9.02986L8.69198 22.9648H11.3026L16.0876 8.10651L13.9132 22.9648H16.5239L21.3089 6.7061L16.5239 3.45898Z" fill="#050038"/>
</svg>
