<svg width="178" height="51" viewBox="0 0 178 51" fill="none" xmlns="http://www.w3.org/2000/svg">
<path d="M49.1757 32.3009C49.5558 33.3096 50.0821 34.1721 50.7547 34.8884C51.4273 35.6047 52.2241 36.1529 53.1451 36.533C54.0663 36.9131 55.0678 37.1031 56.1497 37.1031C57.2024 37.1031 58.1893 36.9057 59.1104 36.511C60.0315 36.1162 60.8356 35.5607 61.5228 34.8445C62.2099 34.1281 62.7436 33.273 63.1238 32.2789C63.5039 31.2848 63.6939 30.1739 63.6939 28.9459V10H68.2994V40.6993H63.7378V37.8486C62.7144 38.9303 61.5081 39.7636 60.1192 40.3485C58.7302 40.9331 57.2317 41.2255 55.6234 41.2255C53.9858 41.2255 52.458 40.9404 51.0398 40.3703C49.6216 39.8002 48.3934 38.9889 47.3554 37.9363C46.3174 36.8837 45.4986 35.6194 44.8992 34.1428C44.2997 32.6663 44 31.0218 44 29.2089V10H48.6055V28.9459C48.6055 30.1739 48.7955 31.2921 49.1757 32.3009Z" fill="#A6A6A6"/>
<path d="M76.2366 10V21.1833C77.2601 20.16 78.4444 19.3487 79.7895 18.7493C81.1345 18.1499 82.5966 17.8502 84.1756 17.8502C85.8132 17.8502 87.3482 18.1572 88.7811 18.7711C90.2138 19.3851 91.4565 20.2184 92.5093 21.271C93.562 22.3236 94.3954 23.5661 95.0094 24.9987C95.6235 26.4314 95.9305 27.9518 95.9305 29.5598C95.9305 31.1678 95.6235 32.6809 95.0094 34.0988C94.3954 35.5169 93.562 36.7522 92.5093 37.8046C91.4565 38.8572 90.2138 39.6905 88.7811 40.3045C87.3482 40.9185 85.8131 41.2254 84.1756 41.2254C82.5965 41.2254 81.1272 40.9257 79.7675 40.3263C78.4078 39.727 77.2162 38.9156 76.1928 37.8924V40.6992H71.8066V10H76.2366ZM76.741 32.5859C77.1357 33.5215 77.6841 34.3402 78.3859 35.0419C79.0877 35.7436 79.9064 36.2991 80.8421 36.7085C81.7779 37.1178 82.7867 37.3224 83.8686 37.3224C84.9213 37.3224 85.9155 37.1178 86.8511 36.7085C87.7868 36.2991 88.5982 35.7437 89.2855 35.0419C89.9727 34.3403 90.5209 33.5215 90.9303 32.5859C91.3397 31.6503 91.5444 30.6417 91.5444 29.5598C91.5444 28.478 91.3397 27.462 90.9303 26.5118C90.5209 25.5616 89.9727 24.7357 89.2855 24.0339C88.5983 23.3323 87.7869 22.7841 86.8511 22.3894C85.9154 21.9947 84.9212 21.7973 83.8686 21.7973C82.816 21.7973 81.8218 21.9946 80.8861 22.3894C79.9504 22.7842 79.1316 23.3323 78.4297 24.0339C77.7281 24.7357 77.1724 25.5616 76.7631 26.5118C76.3537 27.462 76.149 28.478 76.149 29.5598C76.1489 30.6417 76.3463 31.6503 76.741 32.5859Z" fill="#A6A6A6"/>
<path d="M98.4298 25.0429C99.0145 23.6395 99.8188 22.4043 100.842 21.3372C101.865 20.27 103.079 19.4294 104.483 18.8154C105.886 18.2015 107.407 17.8945 109.044 17.8945C110.653 17.8945 112.144 18.1869 113.518 18.7716C114.893 19.3564 116.077 20.1677 117.071 21.2057C118.065 22.2435 118.84 23.4716 119.396 24.8895C119.951 26.3076 120.229 27.8499 120.229 29.5164V30.9637H102.027C102.173 31.8701 102.465 32.7106 102.904 33.4853C103.342 34.2601 103.891 34.9326 104.549 35.5027C105.206 36.0729 105.952 36.5188 106.786 36.8403C107.619 37.1619 108.503 37.3228 109.439 37.3228C112.1 37.3228 114.249 36.2263 115.887 34.0335L119.089 36.4017C117.978 37.8928 116.603 39.0623 114.966 39.9102C113.328 40.758 111.486 41.182 109.439 41.182C107.772 41.182 106.215 40.8895 104.768 40.3048C103.321 39.7202 102.063 38.9014 100.996 37.8488C99.9286 36.7962 99.0879 35.561 98.4739 34.143C97.8598 32.7251 97.5527 31.1827 97.5527 29.5162C97.5525 27.9375 97.8451 26.4464 98.4298 25.0429ZM104.592 23.3106C103.35 24.3485 102.524 25.73 102.114 27.455H115.755C115.375 25.73 114.564 24.3485 113.321 23.3106C112.078 22.2727 110.623 21.7537 108.957 21.7537C107.29 21.7537 105.835 22.2727 104.592 23.3106Z" fill="#A6A6A6"/>
<path d="M128.519 23.8147C127.584 24.838 127.116 26.2268 127.116 27.9811V40.6994H122.686V18.3328H127.072V21.0957C127.627 20.1894 128.351 19.473 129.243 18.9468C130.135 18.4204 131.195 18.1572 132.423 18.1572H133.958V22.2797H132.116C130.654 22.2798 129.455 22.7914 128.519 23.8147Z" fill="#A6A6A6"/>
</svg>
