<svg width="178" height="51" viewBox="0 0 178 51" fill="none" xmlns="http://www.w3.org/2000/svg">
<path d="M139.396 20.5118C140.127 20.5118 140.73 20.1314 140.811 19.6399L141.533 11.4704C141.533 10.6629 140.587 10 139.398 10C138.21 10 137.265 10.6629 137.265 11.4705L137.987 19.6399C138.066 20.1312 138.668 20.5118 139.398 20.5118H139.396M134.98 23.0635C135.347 22.4307 135.32 21.7194 134.933 21.4034L128.218 16.693C127.52 16.2887 126.473 16.7754 125.879 17.8057C125.283 18.8347 125.389 19.984 126.085 20.3885L133.52 23.8504C133.985 24.0227 134.619 23.6911 134.983 23.0587L134.98 23.0635M143.815 23.0591C144.182 23.6916 144.812 24.0233 145.277 23.8509L152.713 20.3889C153.413 19.9846 153.513 18.8352 152.922 17.8062C152.325 16.7768 151.277 16.2892 150.58 16.6935L143.865 21.4038C143.481 21.7194 143.452 22.4312 143.817 23.064L143.815 23.0591M139.396 30.7168C140.127 30.7168 140.73 31.094 140.811 31.5859L141.533 39.7543C141.533 40.5642 140.587 41.2257 139.398 41.2257C138.21 41.2257 137.265 40.5642 137.265 39.7543L137.987 31.5859C138.066 31.094 138.668 30.7168 139.398 30.7168H139.396M143.815 28.1645C144.182 27.5303 144.812 27.2015 145.277 27.3758L152.713 30.8354C153.413 31.2402 153.513 32.3906 152.922 33.4205C152.325 34.4465 151.277 34.9355 150.58 34.5317L143.865 29.8258C143.481 29.5077 143.452 28.7954 143.817 28.1632H143.814M134.98 28.1636C135.347 28.7954 135.32 29.5077 134.933 29.8264L128.218 34.5322C127.52 34.9359 126.473 34.4469 125.879 33.421C125.283 32.3911 125.389 31.2406 126.085 30.8359L133.52 27.3762C133.985 27.2019 134.619 27.5307 134.983 28.1651H134.98" fill="#FDBB30"/>
<path d="M97.0406 29.8106C97.0406 30.0613 97.0183 30.3198 96.9497 30.5469C96.6649 31.4901 95.6883 32.2877 94.4666 32.2877C93.448 32.2877 92.6389 31.709 92.6389 30.4869C92.6389 28.6164 94.6976 28.0999 97.0412 28.1128L97.0406 29.8104V29.8106ZM100.717 26.5509C100.717 23.4666 99.3987 20.7527 94.9456 20.7527C92.6597 20.7527 90.8455 21.3947 89.8553 21.967L90.5805 24.4465C91.4855 23.8752 92.9279 23.4022 94.2929 23.4022C96.5516 23.3959 96.9216 24.6813 96.9216 25.504V25.6987C91.9978 25.6914 88.8854 27.3963 88.8854 30.8693C88.8854 32.9915 90.4706 34.9792 93.2263 34.9792C94.9195 34.9792 96.3377 34.3033 97.1864 33.2196H97.2702C97.2702 33.2196 97.8318 35.5724 100.932 34.6722C100.77 33.6938 100.717 32.6493 100.717 31.3933L100.717 26.5509M24 16.5523C24 16.5523 27.2175 29.7364 27.7313 31.8761C28.3307 34.3736 29.4108 35.293 32.5237 34.6722L34.5326 26.4986C35.042 24.4674 35.383 23.0192 35.7112 20.955H35.7683C35.9988 23.041 36.3257 24.4736 36.7449 26.5053C36.7449 26.5053 37.5623 30.2162 37.9816 32.1647C38.4014 34.1125 39.5698 35.3409 42.6192 34.6722L47.4064 16.5518H43.5424L41.9074 24.3865C41.4678 26.6661 41.0693 28.4494 40.7617 30.5344H40.7071C40.4277 28.4677 40.0719 26.7572 39.6254 24.5356L37.9245 16.5518H33.8979L32.0774 24.3343C31.5622 26.6999 31.079 28.6093 30.7729 30.6249H30.7172C30.403 28.7269 29.9847 26.3262 29.532 24.0374C29.532 24.0374 28.4512 18.4706 28.0711 16.5518L24 16.5523M54.7154 29.8106C54.7154 30.0613 54.6931 30.3198 54.6234 30.5469C54.3392 31.4901 53.362 32.2877 52.1403 32.2877C51.1215 32.2877 50.3136 31.709 50.3136 30.4869C50.3136 28.6164 52.3718 28.0999 54.7158 28.1128L54.7154 29.8104V29.8106ZM58.3909 26.5509C58.3909 23.4666 57.0729 20.7527 52.6207 20.7527C50.3343 20.7527 48.5186 21.3947 47.529 21.967L48.2534 24.4465C49.1582 23.8752 50.6006 23.4022 51.966 23.4022C54.2264 23.3959 54.5963 24.6813 54.5963 25.504V25.6987C49.6705 25.6914 46.5595 27.3963 46.5595 30.8693C46.5595 32.9915 48.1439 34.9792 50.8975 34.9792C52.593 34.9792 54.0104 34.3033 54.8601 33.2196H54.9429C54.9429 33.2196 55.5061 35.5724 58.6057 34.6722C58.4436 33.6938 58.3909 32.6493 58.3909 31.3933V26.5509M64.5251 30.8258V16.5523H60.8448V34.6728H64.5251V30.8258ZM112.67 16.5523V29.9195C112.67 31.7633 113.018 33.0536 113.759 33.8433C114.408 34.5338 115.475 34.9806 116.755 34.9806C117.844 34.9806 118.914 34.7729 119.419 34.5856L119.371 31.7105C118.995 31.8023 118.564 31.8766 117.973 31.8766C116.719 31.8766 116.3 31.0733 116.3 29.4188V24.3043H119.505V20.8368H116.3V16.5523H112.67M103.171 21.0601V34.6728H106.967V27.7028C106.967 27.3261 106.99 26.9978 107.049 26.6976C107.33 25.2368 108.447 24.3043 110.051 24.3043C110.49 24.3043 110.805 24.3521 111.146 24.4005V20.8368C110.86 20.7798 110.665 20.7531 110.31 20.7531C108.893 20.7531 107.281 21.6673 106.604 23.6283H106.502V21.0601H103.171ZM67.102 21.0601V34.6728H70.8008V26.6903C70.8008 26.3157 70.8448 25.9195 70.9745 25.5761C71.2811 24.7724 72.0291 23.8312 73.2227 23.8312C74.7159 23.8312 75.4132 25.093 75.4132 26.914V34.6718H79.1091V26.592C79.1091 26.2347 79.1579 25.8038 79.2636 25.4887C79.567 24.5739 80.3728 23.8301 81.4825 23.8301C82.9956 23.8301 83.7219 25.0698 83.7219 27.2132V34.6713H87.4203V26.6534C87.4203 22.4255 85.2733 20.7518 82.8494 20.7518C81.777 20.7518 80.9296 21.0204 80.1632 21.4901C79.5197 21.8865 78.9425 22.4482 78.4389 23.1866H78.3842C77.7998 21.7196 76.4246 20.7525 74.6325 20.7525C72.3303 20.7525 71.2956 21.9196 70.668 22.9093H70.6129V21.0596H67.102" fill="#1A75CF"/>
</svg>
