<svg width="174" height="52" viewBox="0 0 174 52" fill="none" xmlns="http://www.w3.org/2000/svg">
<rect width="174" height="52" rx="8" fill="black"/>
<path d="M70.26 15.06C70.028 14.572 69.692 14.196 69.252 13.932C68.812 13.66 68.3 13.524 67.716 13.524C67.132 13.524 66.604 13.66 66.132 13.932C65.668 14.196 65.3 14.58 65.028 15.084C64.764 15.58 64.632 16.156 64.632 16.812C64.632 17.468 64.764 18.044 65.028 18.54C65.3 19.036 65.668 19.42 66.132 19.692C66.604 19.956 67.132 20.088 67.716 20.088C68.532 20.088 69.204 19.844 69.732 19.356C70.26 18.868 70.568 18.208 70.656 17.376H67.32V16.488H71.82V17.328C71.756 18.016 71.54 18.648 71.172 19.224C70.804 19.792 70.32 20.244 69.72 20.58C69.12 20.908 68.452 21.072 67.716 21.072C66.94 21.072 66.232 20.892 65.592 20.532C64.952 20.164 64.444 19.656 64.068 19.008C63.7 18.36 63.516 17.628 63.516 16.812C63.516 15.996 63.7 15.264 64.068 14.616C64.444 13.96 64.952 13.452 65.592 13.092C66.232 12.724 66.94 12.54 67.716 12.54C68.604 12.54 69.388 12.76 70.068 13.2C70.756 13.64 71.256 14.26 71.568 15.06H70.26ZM79.2638 17.46C79.2638 17.668 79.2518 17.888 79.2278 18.12H73.9718C74.0118 18.768 74.2318 19.276 74.6318 19.644C75.0398 20.004 75.5318 20.184 76.1078 20.184C76.5798 20.184 76.9718 20.076 77.2838 19.86C77.6038 19.636 77.8278 19.34 77.9558 18.972H79.1318C78.9558 19.604 78.6038 20.12 78.0758 20.52C77.5478 20.912 76.8918 21.108 76.1078 21.108C75.4838 21.108 74.9238 20.968 74.4278 20.688C73.9398 20.408 73.5558 20.012 73.2758 19.5C72.9958 18.98 72.8558 18.38 72.8558 17.7C72.8558 17.02 72.9918 16.424 73.2638 15.912C73.5358 15.4 73.9158 15.008 74.4038 14.736C74.8998 14.456 75.4678 14.316 76.1078 14.316C76.7318 14.316 77.2838 14.452 77.7638 14.724C78.2438 14.996 78.6118 15.372 78.8678 15.852C79.1318 16.324 79.2638 16.86 79.2638 17.46ZM78.1358 17.232C78.1358 16.816 78.0438 16.46 77.8598 16.164C77.6758 15.86 77.4238 15.632 77.1038 15.48C76.7918 15.32 76.4438 15.24 76.0598 15.24C75.5078 15.24 75.0358 15.416 74.6438 15.768C74.2598 16.12 74.0398 16.608 73.9838 17.232H78.1358ZM82.0373 15.324V19.2C82.0373 19.52 82.1053 19.748 82.2413 19.884C82.3773 20.012 82.6133 20.076 82.9492 20.076H83.7533V21H82.7693C82.1613 21 81.7053 20.86 81.4013 20.58C81.0973 20.3 80.9453 19.84 80.9453 19.2V15.324H80.0933V14.424H80.9453V12.768H82.0373V14.424H83.7533V15.324H82.0373ZM88.8396 13.356C88.6316 13.356 88.4556 13.284 88.3116 13.14C88.1676 12.996 88.0956 12.82 88.0956 12.612C88.0956 12.404 88.1676 12.228 88.3116 12.084C88.4556 11.94 88.6316 11.868 88.8396 11.868C89.0396 11.868 89.2076 11.94 89.3436 12.084C89.4876 12.228 89.5596 12.404 89.5596 12.612C89.5596 12.82 89.4876 12.996 89.3436 13.14C89.2076 13.284 89.0396 13.356 88.8396 13.356ZM89.3676 14.424V21H88.2756V14.424H89.3676ZM92.5607 15.324V19.2C92.5607 19.52 92.6287 19.748 92.7647 19.884C92.9007 20.012 93.1367 20.076 93.4727 20.076H94.2767V21H93.2927C92.6847 21 92.2287 20.86 91.9247 20.58C91.6207 20.3 91.4687 19.84 91.4687 19.2V15.324H90.6167V14.424H91.4687V12.768H92.5607V14.424H94.2767V15.324H92.5607ZM101.667 21.108C101.051 21.108 100.491 20.968 99.987 20.688C99.491 20.408 99.099 20.012 98.811 19.5C98.531 18.98 98.391 18.38 98.391 17.7C98.391 17.028 98.535 16.436 98.823 15.924C99.119 15.404 99.519 15.008 100.023 14.736C100.527 14.456 101.091 14.316 101.715 14.316C102.339 14.316 102.903 14.456 103.407 14.736C103.911 15.008 104.307 15.4 104.595 15.912C104.891 16.424 105.039 17.02 105.039 17.7C105.039 18.38 104.887 18.98 104.583 19.5C104.287 20.012 103.883 20.408 103.371 20.688C102.859 20.968 102.291 21.108 101.667 21.108ZM101.667 20.148C102.059 20.148 102.427 20.056 102.771 19.872C103.115 19.688 103.391 19.412 103.599 19.044C103.815 18.676 103.923 18.228 103.923 17.7C103.923 17.172 103.819 16.724 103.611 16.356C103.403 15.988 103.131 15.716 102.795 15.54C102.459 15.356 102.095 15.264 101.703 15.264C101.303 15.264 100.935 15.356 100.599 15.54C100.271 15.716 100.007 15.988 99.807 16.356C99.607 16.724 99.507 17.172 99.507 17.7C99.507 18.236 99.603 18.688 99.795 19.056C99.995 19.424 100.259 19.7 100.587 19.884C100.915 20.06 101.275 20.148 101.667 20.148ZM109.679 14.304C110.479 14.304 111.127 14.548 111.623 15.036C112.119 15.516 112.367 16.212 112.367 17.124V21H111.287V17.28C111.287 16.624 111.123 16.124 110.795 15.78C110.467 15.428 110.019 15.252 109.451 15.252C108.875 15.252 108.415 15.432 108.071 15.792C107.735 16.152 107.567 16.676 107.567 17.364V21H106.475V14.424H107.567V15.36C107.783 15.024 108.075 14.764 108.443 14.58C108.819 14.396 109.231 14.304 109.679 14.304Z" fill="white" fill-opacity="0.9"/>
<path d="M71.092 32.07C70.84 31.5847 70.49 31.2207 70.042 30.978C69.594 30.726 69.076 30.6 68.488 30.6C67.844 30.6 67.27 30.7447 66.766 31.034C66.262 31.3233 65.8653 31.734 65.576 32.266C65.296 32.798 65.156 33.414 65.156 34.114C65.156 34.814 65.296 35.4347 65.576 35.976C65.8653 36.508 66.262 36.9187 66.766 37.208C67.27 37.4973 67.844 37.642 68.488 37.642C69.356 37.642 70.0607 37.3993 70.602 36.914C71.1433 36.4287 71.4747 35.7707 71.596 34.94H67.942V33.666H73.304V34.912C73.2013 35.668 72.9307 36.3633 72.492 36.998C72.0627 37.6327 71.498 38.1413 70.798 38.524C70.1073 38.8973 69.3373 39.084 68.488 39.084C67.5733 39.084 66.738 38.874 65.982 38.454C65.226 38.0247 64.624 37.432 64.176 36.676C63.7373 35.92 63.518 35.066 63.518 34.114C63.518 33.162 63.7373 32.308 64.176 31.552C64.624 30.796 65.226 30.208 65.982 29.788C66.7473 29.3587 67.5827 29.144 68.488 29.144C69.524 29.144 70.4433 29.4007 71.246 29.914C72.058 30.418 72.646 31.1367 73.01 32.07H71.092ZM78.2241 39.126C77.4961 39.126 76.8381 38.9627 76.2501 38.636C75.6621 38.3 75.2001 37.8333 74.8641 37.236C74.5281 36.6293 74.3601 35.9293 74.3601 35.136C74.3601 34.352 74.5328 33.6567 74.8781 33.05C75.2235 32.4433 75.6948 31.9767 76.2921 31.65C76.8895 31.3233 77.5568 31.16 78.2941 31.16C79.0315 31.16 79.6988 31.3233 80.2961 31.65C80.8935 31.9767 81.3648 32.4433 81.7101 33.05C82.0555 33.6567 82.2281 34.352 82.2281 35.136C82.2281 35.92 82.0508 36.6153 81.6961 37.222C81.3415 37.8287 80.8561 38.3 80.2401 38.636C79.6335 38.9627 78.9615 39.126 78.2241 39.126ZM78.2241 37.74C78.6348 37.74 79.0175 37.642 79.3721 37.446C79.7361 37.25 80.0301 36.956 80.2541 36.564C80.4781 36.172 80.5901 35.696 80.5901 35.136C80.5901 34.576 80.4828 34.1047 80.2681 33.722C80.0535 33.33 79.7688 33.036 79.4141 32.84C79.0595 32.644 78.6768 32.546 78.2661 32.546C77.8555 32.546 77.4728 32.644 77.1181 32.84C76.7728 33.036 76.4975 33.33 76.2921 33.722C76.0868 34.1047 75.9841 34.576 75.9841 35.136C75.9841 35.9667 76.1941 36.6107 76.6141 37.068C77.0435 37.516 77.5801 37.74 78.2241 37.74ZM87.1519 39.126C86.4239 39.126 85.7659 38.9627 85.1779 38.636C84.5899 38.3 84.1279 37.8333 83.7919 37.236C83.4559 36.6293 83.2879 35.9293 83.2879 35.136C83.2879 34.352 83.4605 33.6567 83.8059 33.05C84.1512 32.4433 84.6225 31.9767 85.2199 31.65C85.8172 31.3233 86.4845 31.16 87.2219 31.16C87.9592 31.16 88.6265 31.3233 89.2239 31.65C89.8212 31.9767 90.2925 32.4433 90.6379 33.05C90.9832 33.6567 91.1559 34.352 91.1559 35.136C91.1559 35.92 90.9785 36.6153 90.6239 37.222C90.2692 37.8287 89.7839 38.3 89.1679 38.636C88.5612 38.9627 87.8892 39.126 87.1519 39.126ZM87.1519 37.74C87.5625 37.74 87.9452 37.642 88.2999 37.446C88.6639 37.25 88.9579 36.956 89.1819 36.564C89.4059 36.172 89.5179 35.696 89.5179 35.136C89.5179 34.576 89.4105 34.1047 89.1959 33.722C88.9812 33.33 88.6965 33.036 88.3419 32.84C87.9872 32.644 87.6045 32.546 87.1939 32.546C86.7832 32.546 86.4005 32.644 86.0459 32.84C85.7005 33.036 85.4252 33.33 85.2199 33.722C85.0145 34.1047 84.9119 34.576 84.9119 35.136C84.9119 35.9667 85.1219 36.6107 85.5419 37.068C85.9712 37.516 86.5079 37.74 87.1519 37.74ZM95.8416 31.16C96.4389 31.16 96.9663 31.2813 97.4236 31.524C97.8903 31.7573 98.2543 32.0513 98.5156 32.406V31.286H100.126V39.126C100.126 39.8353 99.9763 40.4653 99.6776 41.016C99.3789 41.576 98.9449 42.0147 98.3756 42.332C97.8156 42.6493 97.1436 42.808 96.3596 42.808C95.3143 42.808 94.4463 42.5607 93.7556 42.066C93.0649 41.5807 92.6729 40.918 92.5796 40.078H94.1616C94.2829 40.4793 94.5396 40.8013 94.9316 41.044C95.3329 41.296 95.8089 41.422 96.3596 41.422C97.0036 41.422 97.5216 41.226 97.9136 40.834C98.3149 40.442 98.5156 39.8727 98.5156 39.126V37.838C98.2449 38.202 97.8763 38.51 97.4096 38.762C96.9523 39.0047 96.4296 39.126 95.8416 39.126C95.1696 39.126 94.5536 38.958 93.9936 38.622C93.4429 38.2767 93.0043 37.8007 92.6776 37.194C92.3603 36.578 92.2016 35.8827 92.2016 35.108C92.2016 34.3333 92.3603 33.6473 92.6776 33.05C93.0043 32.4527 93.4429 31.9907 93.9936 31.664C94.5536 31.328 95.1696 31.16 95.8416 31.16ZM98.5156 35.136C98.5156 34.604 98.4036 34.142 98.1796 33.75C97.9649 33.358 97.6803 33.0593 97.3256 32.854C96.9709 32.6487 96.5883 32.546 96.1776 32.546C95.7669 32.546 95.3843 32.6487 95.0296 32.854C94.6749 33.05 94.3856 33.344 94.1616 33.736C93.9469 34.1187 93.8396 34.576 93.8396 35.108C93.8396 35.64 93.9469 36.1067 94.1616 36.508C94.3856 36.9093 94.6749 37.2173 95.0296 37.432C95.3936 37.6373 95.7763 37.74 96.1776 37.74C96.5883 37.74 96.9709 37.6373 97.3256 37.432C97.6803 37.2267 97.9649 36.928 98.1796 36.536C98.4036 36.1347 98.5156 35.668 98.5156 35.136ZM103.818 28.64V39H102.222V28.64H103.818ZM112.983 34.954C112.983 35.2433 112.965 35.5047 112.927 35.738H107.033C107.08 36.354 107.309 36.8487 107.719 37.222C108.13 37.5953 108.634 37.782 109.231 37.782C110.09 37.782 110.697 37.4227 111.051 36.704H112.773C112.54 37.4133 112.115 37.9967 111.499 38.454C110.893 38.902 110.137 39.126 109.231 39.126C108.494 39.126 107.831 38.9627 107.243 38.636C106.665 38.3 106.207 37.8333 105.871 37.236C105.545 36.6293 105.381 35.9293 105.381 35.136C105.381 34.3427 105.54 33.6473 105.857 33.05C106.184 32.4433 106.637 31.9767 107.215 31.65C107.803 31.3233 108.475 31.16 109.231 31.16C109.959 31.16 110.608 31.3187 111.177 31.636C111.747 31.9533 112.19 32.4013 112.507 32.98C112.825 33.5493 112.983 34.2073 112.983 34.954ZM111.317 34.45C111.308 33.862 111.098 33.3907 110.687 33.036C110.277 32.6813 109.768 32.504 109.161 32.504C108.611 32.504 108.139 32.6813 107.747 33.036C107.355 33.3813 107.122 33.8527 107.047 34.45H111.317ZM124.995 32.168C124.995 32.6627 124.878 33.1293 124.645 33.568C124.411 34.0067 124.038 34.366 123.525 34.646C123.011 34.9167 122.353 35.052 121.551 35.052H119.787V39H118.191V29.27H121.551C122.297 29.27 122.927 29.4007 123.441 29.662C123.963 29.914 124.351 30.2593 124.603 30.698C124.864 31.1367 124.995 31.6267 124.995 32.168ZM121.551 33.75C122.157 33.75 122.61 33.6147 122.909 33.344C123.207 33.064 123.357 32.672 123.357 32.168C123.357 31.104 122.755 30.572 121.551 30.572H119.787V33.75H121.551ZM128.113 28.64V39H126.517V28.64H128.113ZM129.676 35.108C129.676 34.3333 129.835 33.6473 130.152 33.05C130.479 32.4527 130.918 31.9907 131.468 31.664C132.028 31.328 132.644 31.16 133.316 31.16C133.923 31.16 134.45 31.2813 134.898 31.524C135.356 31.7573 135.72 32.0513 135.99 32.406V31.286H137.6V39H135.99V37.852C135.72 38.216 135.351 38.5193 134.884 38.762C134.418 39.0047 133.886 39.126 133.288 39.126C132.626 39.126 132.019 38.958 131.468 38.622C130.918 38.2767 130.479 37.8007 130.152 37.194C129.835 36.578 129.676 35.8827 129.676 35.108ZM135.99 35.136C135.99 34.604 135.878 34.142 135.654 33.75C135.44 33.358 135.155 33.0593 134.8 32.854C134.446 32.6487 134.063 32.546 133.652 32.546C133.242 32.546 132.859 32.6487 132.504 32.854C132.15 33.05 131.86 33.344 131.636 33.736C131.422 34.1187 131.314 34.576 131.314 35.108C131.314 35.64 131.422 36.1067 131.636 36.508C131.86 36.9093 132.15 37.2173 132.504 37.432C132.868 37.6373 133.251 37.74 133.652 37.74C134.063 37.74 134.446 37.6373 134.8 37.432C135.155 37.2267 135.44 36.928 135.654 36.536C135.878 36.1347 135.99 35.668 135.99 35.136ZM146.64 31.286L141.908 42.626H140.256L141.824 38.874L138.786 31.286H140.564L142.734 37.166L144.988 31.286H146.64Z" fill="white" fill-opacity="0.9"/>
<path d="M37.9983 24.5267L41.9607 20.5643L29.1624 13.3712C28.3142 12.9129 27.5196 12.8486 26.8228 13.3498L37.9983 24.5267ZM42.636 29.1657L46.7551 26.8489C47.5591 26.3986 48 25.7608 48 25.0533C48 24.3471 47.5591 23.7079 46.7565 23.2577L43.0273 21.1633L38.8291 25.3601L42.636 29.1657ZM26.134 14.324C26.0482 14.5879 26 14.8827 26 15.2057V34.9103C26 35.4208 26.1126 35.8603 26.3162 36.2101L37.1662 25.3588L26.134 14.324ZM37.9983 26.1896L27.2087 36.9806C27.415 37.0596 27.6375 37.1012 27.872 37.1012C28.29 37.1012 28.7255 36.9779 29.1691 36.7313L41.5707 29.7674L37.9983 26.1896Z" fill="white"/>
</svg>
