<svg width="55" height="55" viewBox="0 0 55 55" fill="none" xmlns="http://www.w3.org/2000/svg">
<g clip-path="url(#clip0_1_6343)">
<path d="M22.7528 0.877441C31.2403 0.877441 38.5986 5.71046 42.2251 12.775C39.2341 11.2397 35.8416 10.3725 32.2479 10.3725C20.1666 10.3725 10.3732 20.166 10.3732 32.2472C10.3732 35.8409 11.2403 39.2334 12.7757 42.2244C5.71095 38.5981 0.87793 31.2398 0.87793 22.7523C0.87793 10.671 10.6715 0.877441 22.7528 0.877441ZM11.0073 17.9123C11.9212 16.9983 11.9212 15.5169 11.0073 14.6018C10.0933 13.6878 8.61188 13.6878 7.69793 14.6018C6.78398 15.5169 6.78398 16.9983 7.69793 17.9123C8.61188 18.8262 10.0933 18.8262 11.0073 17.9123Z" fill="#DC774E"/>
<path d="M42.2251 12.7754C49.2897 16.4031 54.1226 23.7602 54.1226 32.2478C54.1226 44.3291 44.3291 54.1225 32.2479 54.1225C23.7604 54.1225 16.4032 49.2895 12.7755 42.225C11.2403 39.234 10.373 35.8415 10.373 32.2478C10.373 20.1665 20.1666 10.373 32.2478 10.373C35.8417 10.3729 39.2341 11.24 42.2251 12.7754ZM47.9967 33.4882C47.9967 32.1952 46.9482 31.1478 45.6563 31.1478C44.3633 31.1478 43.3159 32.1952 43.3159 33.4882C43.3159 34.7812 44.3633 35.8286 45.6563 35.8286C46.9482 35.8286 47.9967 34.7812 47.9967 33.4882ZM42.6137 41.8329C42.6137 40.5399 41.5651 39.4925 40.2733 39.4925C38.9802 39.4925 37.9329 40.5399 37.9329 41.8329C37.9329 43.126 38.9802 44.1733 40.2733 44.1733C41.5651 44.1733 42.6137 43.126 42.6137 41.8329ZM41.0024 23.7766C41.0024 21.1916 38.9066 19.0958 36.3216 19.0958C33.7354 19.0958 31.6408 21.1916 31.6408 23.7766C31.6408 26.3616 33.7355 28.4574 36.3216 28.4574C38.9064 28.4574 41.0024 26.3616 41.0024 23.7766ZM30.4914 40.7177C30.4914 38.1327 28.3956 36.0369 25.8106 36.0369C23.2256 36.0369 21.1298 38.1327 21.1298 40.7177C21.1298 43.3027 23.2256 45.3985 25.8106 45.3985C28.3956 45.3985 30.4914 43.3027 30.4914 40.7177ZM21.1801 27.2053C21.1801 25.9123 20.1328 24.8649 18.8397 24.8649C17.5467 24.8649 16.4993 25.9123 16.4993 27.2053C16.4993 28.4983 17.5467 29.5457 18.8397 29.5457C20.1328 29.5457 21.1801 28.4983 21.1801 27.2053Z" fill="#F7CD95"/>
<path d="M11.0065 14.602C11.9205 15.5171 11.9205 16.9985 11.0065 17.9125C10.0926 18.8264 8.61112 18.8264 7.69718 17.9125C6.78323 16.9985 6.78323 15.5171 7.69718 14.602C8.61112 13.688 10.0926 13.688 11.0065 14.602Z" fill="#8E4238"/>
<path d="M40.272 39.4922C41.564 39.4922 42.6124 40.5395 42.6124 41.8326C42.6124 43.1256 41.5639 44.173 40.272 44.173C38.979 44.173 37.9316 43.1256 37.9316 41.8326C37.9316 40.5395 38.9789 39.4922 40.272 39.4922Z" fill="#8E4238"/>
<path d="M36.3204 19.0957C38.9054 19.0957 41.0013 21.1915 41.0013 23.7765C41.0013 26.3615 38.9054 28.4573 36.3204 28.4573C33.7343 28.4573 31.6396 26.3615 31.6396 23.7765C31.6396 21.1915 33.7343 19.0957 36.3204 19.0957Z" fill="#8E4238"/>
<path d="M18.8394 24.8647C20.1325 24.8647 21.1798 25.9121 21.1798 27.2051C21.1798 28.4982 20.1325 29.5455 18.8394 29.5455C17.5464 29.5455 16.499 28.4982 16.499 27.2051C16.499 25.9121 17.5464 24.8647 18.8394 24.8647Z" fill="#B75548"/>
<path d="M25.8107 45.3982C28.3958 45.3982 30.4915 43.3026 30.4915 40.7174C30.4915 38.1323 28.3958 36.0366 25.8107 36.0366C23.2255 36.0366 21.1299 38.1323 21.1299 40.7174C21.1299 43.3026 23.2255 45.3982 25.8107 45.3982Z" fill="#8E4238"/>
<path d="M45.6558 31.1475C46.9478 31.1475 47.9962 32.1948 47.9962 33.4879C47.9962 34.7809 46.9477 35.8283 45.6558 35.8283C44.3628 35.8283 43.3154 34.7809 43.3154 33.4879C43.3154 32.1948 44.3628 31.1475 45.6558 31.1475Z" fill="#B75548"/>
<path d="M22.3356 8.13906C22.8203 8.13906 23.2133 7.74613 23.2133 7.26143C23.2133 6.77672 22.8203 6.38379 22.3356 6.38379C21.8509 6.38379 21.458 6.77672 21.458 7.26143C21.458 7.74613 21.8509 8.13906 22.3356 8.13906Z" fill="#700D00"/>
<path d="M26.9733 24.6542C27.458 24.6542 27.851 24.2613 27.851 23.7766C27.851 23.2919 27.458 22.8989 26.9733 22.8989C26.4886 22.8989 26.0957 23.2919 26.0957 23.7766C26.0957 24.2613 26.4886 24.6542 26.9733 24.6542Z" fill="#700D00"/>
<path d="M34.2731 35.6913C34.7579 35.6913 35.1508 35.2984 35.1508 34.8137C35.1508 34.329 34.7579 33.936 34.2731 33.936C33.7884 33.936 33.3955 34.329 33.3955 34.8137C33.3955 35.2984 33.7884 35.6913 34.2731 35.6913Z" fill="#700D00"/>
<path d="M11.6279 13.9816C11.0201 13.3739 10.2119 13.0391 9.35236 13.0391C8.49277 13.0391 7.68474 13.3738 7.07684 13.9816C5.82204 15.2364 5.82204 17.278 7.07684 18.5329C7.68463 19.1406 8.49277 19.4755 9.35236 19.4755C10.2119 19.4755 11.02 19.1407 11.6279 18.5329C12.8827 17.278 12.8827 15.2364 11.6279 13.9816ZM10.3867 17.2917C10.1104 17.568 9.74316 17.7201 9.35236 17.7201C8.96156 17.7201 8.59428 17.568 8.31799 17.2917C7.74758 16.7213 7.74758 15.7934 8.31799 15.2229C8.59428 14.9468 8.96156 14.7946 9.35236 14.7946C9.74316 14.7946 10.1104 14.9468 10.3867 15.2229C10.957 15.7933 10.957 16.7213 10.3867 17.2917Z" fill="#700D00"/>
<path d="M1.75527 22.7527C1.75527 11.1748 11.1747 1.75538 22.7526 1.75538C28.5489 1.75538 33.9452 4.06581 37.9475 8.26128C38.2821 8.61212 38.8377 8.62523 39.1885 8.2905C39.5392 7.95599 39.5523 7.4004 39.2177 7.04956C37.115 4.84548 34.6397 3.1118 31.8605 1.89643C28.9829 0.637978 25.9185 0 22.7527 0C10.2068 0 0 10.2068 0 22.7527C0 25.9186 0.638086 28.983 1.89643 31.8606C3.1118 34.6398 4.84559 37.1152 7.04967 39.2178C7.21961 39.38 7.43757 39.4604 7.65542 39.4604C7.88702 39.4604 8.11809 39.3693 8.29061 39.1885C8.62512 38.8377 8.61201 38.2823 8.26139 37.9475C4.06592 33.9453 1.75527 28.549 1.75527 22.7527Z" fill="#700D00"/>
<path d="M41.8788 23.7768C41.8788 20.712 39.3852 18.2183 36.3203 18.2183C33.2553 18.2183 30.7617 20.7118 30.7617 23.7768C30.7617 26.8418 33.2553 29.3354 36.3203 29.3354C39.3852 29.3354 41.8788 26.8417 41.8788 23.7768ZM36.3204 27.58C34.2233 27.58 32.5172 25.8739 32.5172 23.7768C32.5172 21.6797 34.2233 19.9736 36.3204 19.9736C38.4175 19.9736 40.1235 21.6797 40.1235 23.7768C40.1235 25.8739 38.4175 27.58 36.3204 27.58Z" fill="#700D00"/>
<path d="M25.8095 35.1592C22.7447 35.1592 20.251 37.6528 20.251 40.7177C20.251 43.7827 22.7446 46.2763 25.8095 46.2763C28.8745 46.2763 31.3681 43.7827 31.3681 40.7177C31.3681 37.6528 28.8745 35.1592 25.8095 35.1592ZM25.8095 44.5209C23.7125 44.5209 22.0064 42.8148 22.0064 40.7177C22.0064 38.6206 23.7125 36.9146 25.8095 36.9146C27.9066 36.9146 29.6127 38.6206 29.6127 40.7177C29.6127 42.8148 27.9067 44.5209 25.8095 44.5209Z" fill="#700D00"/>
<path d="M40.2727 38.6147C38.4983 38.6147 37.0547 40.0584 37.0547 41.8328C37.0547 43.6072 38.4983 45.0508 40.2727 45.0508C42.0471 45.0508 43.4908 43.6072 43.4908 41.8328C43.4908 40.0584 42.0471 38.6147 40.2727 38.6147ZM40.2727 43.2957C39.4661 43.2957 38.81 42.6395 38.81 41.8329C38.81 41.0263 39.4661 40.3701 40.2727 40.3701C41.0794 40.3701 41.7355 41.0263 41.7355 41.8329C41.7355 42.6395 41.0792 43.2957 40.2727 43.2957Z" fill="#700D00"/>
<path d="M45.6555 30.27C43.8811 30.27 42.4375 31.7137 42.4375 33.4881C42.4375 35.2625 43.8811 36.7062 45.6555 36.7062C47.4299 36.7062 48.8736 35.2626 48.8736 33.4882C48.8736 31.7138 47.4299 30.27 45.6555 30.27ZM45.6555 34.9509C44.8489 34.9509 44.1928 34.2948 44.1928 33.4882C44.1928 32.6815 44.8489 32.0254 45.6555 32.0254C46.4622 32.0254 47.1183 32.6815 47.1183 33.4882C47.1183 34.2948 46.4621 34.9509 45.6555 34.9509Z" fill="#700D00"/>
<path d="M22.0572 27.2049C22.0572 25.4305 20.6136 23.9868 18.8391 23.9868C17.0646 23.9868 15.6211 25.4305 15.6211 27.2049C15.6211 28.9792 17.0646 30.4229 18.8391 30.4229C20.6136 30.4229 22.0572 28.9794 22.0572 27.2049ZM18.839 28.6676C18.0324 28.6676 17.3763 28.0115 17.3763 27.2049C17.3763 26.3982 18.0324 25.7421 18.839 25.7421C19.6457 25.7421 20.3018 26.3982 20.3018 27.2049C20.3018 28.0115 19.6455 28.6676 18.839 28.6676Z" fill="#700D00"/>
<path d="M32.2468 9.49463C19.701 9.49463 9.49414 19.7014 9.49414 32.2473C9.49425 44.7932 19.701 55 32.2468 55C44.7929 55 54.9997 44.7932 54.9997 32.2472C54.9997 19.7014 44.7929 9.49463 32.2468 9.49463ZM32.2468 53.2448C20.6689 53.2448 11.2495 43.8254 11.2495 32.2473C11.2495 20.6695 20.6689 11.25 32.2468 11.25C43.8249 11.2501 53.2443 20.6695 53.2443 32.2473C53.2444 43.8254 43.825 53.2448 32.2468 53.2448Z" fill="#700D00"/>
</g>
<defs>
<clipPath id="clip0_1_6343">
<rect width="55" height="55" fill="white"/>
</clipPath>
</defs>
</svg>
