<svg width="50" height="50" viewBox="0 0 50 50" fill="none" xmlns="http://www.w3.org/2000/svg">
<path d="M28.8281 17.7344L30.7813 3.20312C28.9063 2.73437 27.0312 1.5625 25 1.5625C22.9688 1.5625 21.0938 2.73437 19.1406 3.28125C17.1875 3.75 15 3.67188 13.2812 4.6875C11.5625 5.70312 10.4688 7.65625 9.0625 9.0625C7.65625 10.4688 5.70312 11.5625 4.6875 13.2812C3.67188 15 3.75 17.1875 3.20312 19.1406C2.73437 21.0938 1.5625 22.9688 1.5625 25C1.5625 27.0312 2.73437 28.9062 3.28125 30.8594C3.75 32.8125 3.67188 35 4.6875 36.7188C5.70312 38.4375 7.65625 39.5312 9.0625 40.9375C10.4688 42.3438 11.4844 44.2969 13.2812 45.3125C15 46.3281 17.1875 46.25 19.1406 46.7969C21.0938 47.2656 22.9688 48.4375 25 48.4375C27.0312 48.4375 28.9062 47.2656 30.8594 46.7188C32.8125 46.1719 35 46.25 36.7188 45.2344C38.4375 44.2188 39.5312 42.2656 40.9375 40.8594C42.3438 39.4531 44.2969 38.4375 45.3125 36.6406C46.3281 34.9219 46.25 32.7344 46.7969 30.7813C47.2656 28.9063 48.4375 27.0312 48.4375 25C48.4375 22.9688 46.7969 18.6719 46.7969 18.6719L28.8281 17.7344Z" fill="#DDA85F"/>
<path d="M46.4063 17.5C45.625 17.7344 44.5312 17.6562 43.3594 17.1875C41.7188 16.5625 40.7031 15.2344 40.3906 13.6719C39.6094 13.9062 37.7344 13.6719 36.4844 12.8906C34.6094 11.7188 34.2188 8.4375 34.2188 8.4375C32.1094 7.8125 30.5469 5.3125 30.7813 3.20313C29.0625 2.73438 26.875 2.8125 25 2.8125C23.125 2.8125 21.4062 3.90625 19.6875 4.375C17.8906 4.84375 15.8594 4.76563 14.2969 5.70313C12.7344 6.64063 11.7187 8.4375 10.4687 9.6875C9.14062 11.0156 7.34375 11.9531 6.48438 13.5156C5.54688 15.0781 5.625 17.1094 5.15625 18.9062C4.6875 20.625 3.59375 22.3438 3.59375 24.2188C3.59375 26.0938 4.6875 27.8125 5.15625 29.5312C5.625 31.3281 5.54688 33.3594 6.48438 34.9219C7.42188 36.4844 9.21875 37.5 10.4687 38.75C11.7969 40.0781 12.7344 41.875 14.2969 42.7344C15.8594 43.6719 17.8906 43.5938 19.6875 44.0625C21.4062 44.5312 23.125 45.625 25 45.625C26.875 45.625 28.5938 44.5312 30.3125 44.0625C32.1094 43.5938 34.1406 43.6719 35.7031 42.7344C37.2656 41.7969 38.2812 40 39.5312 38.75C40.8594 37.4219 42.6562 36.4844 43.5156 34.9219C44.4531 33.3594 44.375 31.3281 44.8438 29.5312C45.3125 27.8125 47.1875 26.4062 47.4219 24.5312C48.0469 21.4844 46.4844 18.0469 46.4063 17.5Z" fill="#F2CB7D"/>
<path d="M39.1406 8.4375L38.0469 9.53125L37.0312 8.4375L38.0469 7.42188L39.1406 8.4375Z" fill="#DDA85F"/>
<path d="M43.5937 13.9062L43.125 14.4531L42.5781 13.9062L43.125 13.3594L43.5937 13.9062Z" fill="#DDA85F"/>
<path d="M39.6875 10.3125L39.1406 10.8594L38.5938 10.3125L39.1406 9.76562L39.6875 10.3125Z" fill="#DDA85F"/>
<path d="M34.8437 5.54687L34.2969 6.09375L33.75 5.54687L34.2969 5L34.8437 5.54687Z" fill="#DDA85F"/>
<path d="M44.6875 15.8594L44.1406 16.4062L43.5938 15.8594L44.1406 15.3125L44.6875 15.8594Z" fill="#DDA85F"/>
<path d="M45.1562 13.9062L44.6094 14.4531L44.0625 13.9062L44.6094 13.3594L45.1562 13.9062Z" fill="#DDA85F"/>
<path d="M9.2184 16.0938C8.43715 17.4219 9.60902 19.8437 11.1715 20.5469C13.4371 21.4844 14.7653 21.6406 16.1715 19.2188C16.6403 18.3594 17.2653 16.0938 17.0309 15.5469C16.7184 14.7656 15.3903 13.2031 14.5309 13.2031C12.109 13.2812 9.76527 15.1563 9.2184 16.0938Z" fill="#6D4934"/>
<path d="M9.60952 16.0938C9.06264 17.0313 10.4689 19.8438 12.3439 19.6094C14.922 19.2969 14.6876 13.9844 13.5939 13.9844C11.7189 13.9844 10.0001 15.3906 9.60952 16.0938Z" fill="#A37F6A"/>
<path d="M35.3123 30.5467C36.4061 30.2342 37.1873 28.2811 36.7186 27.1092C36.0155 25.3123 35.3123 24.5311 33.2811 25.078C32.5779 25.3123 30.9373 26.1717 30.7811 26.5623C30.5467 27.1873 30.3905 28.7498 30.8592 29.2186C32.1873 30.5467 34.5311 30.7811 35.3123 30.5467Z" fill="#6D4934"/>
<path d="M34.219 28.672C35.0784 28.4376 36.4065 25.7813 35.0003 25.6251C32.5784 25.2345 30.7034 26.4063 30.9378 27.7345C31.1722 29.0626 33.594 28.8282 34.219 28.672Z" fill="#A37F6A"/>
<path d="M19.4533 34.7654C19.2189 33.8279 17.5002 33.1248 16.4064 33.5935C14.8439 34.2185 14.1408 34.7654 14.6877 36.5623C14.8439 37.1873 15.6252 38.5935 16.0158 38.6717C16.5627 38.906 17.8908 38.9842 18.2814 38.5935C19.4533 37.4998 19.6095 35.4685 19.4533 34.7654Z" fill="#6D4934"/>
<path d="M18.1255 34.0625C17.9692 33.3594 14.688 34.375 15.0005 35.625C15.6255 37.7344 15.6255 38.0469 16.2505 37.9688C17.4223 37.6563 18.2036 34.6094 18.1255 34.0625Z" fill="#A37F6A"/>
<path d="M39.9217 19.9221C38.9842 20.1564 38.281 21.8752 38.7498 22.9689C39.3748 24.5314 40.8592 24.7658 42.4998 23.9064C43.906 23.2033 43.9842 20.7033 43.5935 20.2346C42.4217 19.0627 40.6248 19.7658 39.9217 19.9221Z" fill="#6D4934"/>
<path d="M39.5316 20.7814C39.0628 21.3283 38.6722 23.5158 39.8441 23.2033C41.9535 22.5783 43.4378 20.4689 42.5003 20.1564C41.3285 19.7658 40.0785 20.1564 39.5316 20.7814Z" fill="#A37F6A"/>
<path d="M17.7656 12.5874L19.3125 11.0405L20.8594 12.5874L19.3125 14.1343L17.7656 12.5874Z" fill="#6D4934"/>
<path d="M11.4893 26.1587L13.0354 24.6118L14.5822 26.1579L13.0361 27.7048L11.4893 26.1587Z" fill="#DDA85F"/>
<path d="M27.1084 35.0088L28.6553 33.4619L30.2021 35.0088L28.6553 36.5557L27.1084 35.0088Z" fill="#DDA85F"/>
<path d="M25.0303 30.6944L27.1295 28.5952L29.2287 30.6944L27.1295 32.7937L25.0303 30.6944Z" fill="#DDA85F"/>
<path d="M19.2939 7.67734L21.3932 5.57812L23.4924 7.67734L21.3932 9.77656L19.2939 7.67734Z" fill="#DDA85F"/>
<path d="M32.127 36.2085L33.6738 34.6616L35.2207 36.2085L33.6738 37.7554L32.127 36.2085Z" fill="#6D4934"/>
<path d="M38.3408 27.5117L39.8877 25.9648L41.4346 27.5117L39.8877 29.0586L38.3408 27.5117Z" fill="#6D4934"/>
<path d="M32.666 19.2476L33.4395 18.4741L34.2129 19.2476L33.4395 20.021L32.666 19.2476Z" fill="#6D4934"/>
<path d="M10.7236 29.895L11.4971 29.1216L12.2705 29.895L11.4971 30.6685L10.7236 29.895Z" fill="#6D4934"/>
</svg>
