<svg width="171" height="49" viewBox="0 0 171 49" fill="none" xmlns="http://www.w3.org/2000/svg">
<path d="M36.1119 11.5249C33.3524 10.2337 30.4018 9.2954 27.317 8.76111C26.9381 9.44605 26.4955 10.3673 26.1903 11.1002C22.9111 10.607 19.6621 10.607 16.4431 11.1002C16.138 10.3673 15.6854 9.44605 15.3031 8.76111C12.215 9.2954 9.261 10.2372 6.50146 11.5317C0.935455 19.9427 -0.573397 28.1447 0.181031 36.2303C3.8727 38.9871 7.45037 40.6618 10.9677 41.7577C11.8361 40.5625 12.6106 39.292 13.2779 37.9529C12.0071 37.47 10.79 36.8742 9.63991 36.1824C9.94501 35.9563 10.2434 35.72 10.5318 35.4769C17.5463 38.7577 25.1677 38.7577 32.0984 35.4769C32.3901 35.72 32.6885 35.9563 32.9902 36.1824C31.8368 36.8776 30.6163 37.4734 29.3456 37.9564C30.0128 39.292 30.784 40.5659 31.6558 41.7611C35.1764 40.6652 38.7574 38.9906 42.4491 36.2303C43.3343 26.857 40.9369 18.7303 36.1119 11.5249ZM14.2335 31.2577C12.1278 31.2577 10.401 29.292 10.401 26.8981C10.401 24.5043 12.091 22.5351 14.2335 22.5351C16.3761 22.5351 18.1029 24.5008 18.066 26.8981C18.0693 29.292 16.3761 31.2577 14.2335 31.2577ZM28.3966 31.2577C26.291 31.2577 24.5641 29.292 24.5641 26.8981C24.5641 24.5043 26.254 22.5351 28.3966 22.5351C30.5392 22.5351 32.266 24.5008 32.2291 26.8981C32.2291 29.292 30.5392 31.2577 28.3966 31.2577Z" fill="#23272A"/>
<path d="M57.2857 17.1797H66.4392C68.6458 17.1797 70.51 17.5324 72.0393 18.2345C73.5645 18.9365 74.7081 19.9159 75.466 21.1694C76.2234 22.4228 76.6056 23.8577 76.6056 25.4742C76.6056 27.0564 76.21 28.4913 75.4187 29.7755C74.6275 31.0632 73.4237 32.0803 71.8044 32.8303C70.1851 33.5803 68.1795 33.957 65.7824 33.957H57.2857V17.1797ZM65.6883 29.6934C67.1738 29.6934 68.3174 29.3132 69.1151 28.5563C69.9133 27.7961 70.3124 26.7618 70.3124 25.4502C70.3124 24.2344 69.9566 23.2652 69.246 22.5392C68.5354 21.8132 67.4589 21.4468 66.0202 21.4468H63.1568V29.6934H65.6883Z" fill="#23272A"/>
<path d="M90.3096 33.9366C89.0421 33.601 87.8985 33.1147 86.8828 32.4742V28.4948C87.6507 29.1009 88.6798 29.601 89.9706 29.9948C91.2615 30.3852 92.5092 30.5804 93.7159 30.5804C94.2792 30.5804 94.7053 30.5051 94.9934 30.3544C95.282 30.2037 95.4264 30.0222 95.4264 29.8133C95.4264 29.5736 95.3492 29.3749 95.1915 29.2139C95.0337 29.053 94.7286 28.9194 94.2763 28.8064L91.4596 28.1592C89.8468 27.7756 88.7031 27.2448 88.0229 26.5633C87.3421 25.8852 87.0032 24.9948 87.0032 23.892C87.0032 22.9639 87.2983 22.1592 87.8955 21.4708C88.4887 20.7825 89.3337 20.2516 90.43 19.8783C91.5268 19.5016 92.8072 19.3133 94.2793 19.3133C95.5935 19.3133 96.7973 19.4571 97.8942 19.7448C98.9905 20.0325 99.8957 20.3989 100.617 20.8475V24.6112C99.8787 24.1626 99.0337 23.8099 98.0683 23.5427C97.1059 23.279 96.1171 23.1489 95.0974 23.1489C93.6253 23.1489 92.8914 23.4057 92.8914 23.916C92.8914 24.1558 93.0053 24.3338 93.2332 24.4537C93.4611 24.5735 93.8801 24.6968 94.4873 24.827L96.8341 25.2585C98.3669 25.5291 99.51 26.0051 100.261 26.6831C101.012 27.3612 101.388 28.3647 101.388 29.6934C101.388 31.1489 100.768 32.303 99.5234 33.1592C98.2793 34.0153 96.5157 34.4434 94.229 34.4434C92.8843 34.44 91.5771 34.2722 90.3096 33.9366Z" fill="#23272A"/>
<path d="M106.928 33.433C105.584 32.7617 104.568 31.8508 103.89 30.7001C103.213 29.5494 102.871 28.2549 102.871 26.8165C102.871 25.3782 103.223 24.0905 103.927 22.9569C104.631 21.8234 105.664 20.933 107.025 20.2857C108.386 19.6385 110.013 19.3165 111.907 19.3165C114.254 19.3165 116.202 19.82 117.752 20.8268V25.2138C117.205 24.8302 116.568 24.5186 115.84 24.2789C115.113 24.0392 114.335 23.9192 113.503 23.9192C112.048 23.9192 110.912 24.1898 110.09 24.7343C109.268 25.2788 108.856 25.9878 108.856 26.8679C108.856 27.7309 109.255 28.4364 110.053 28.9912C110.851 29.5426 112.008 29.82 113.527 29.82C114.308 29.82 115.079 29.7035 115.84 29.4741C116.598 29.2412 117.252 28.957 117.798 28.6213V32.8644C116.079 33.9192 114.083 34.4466 111.813 34.4466C109.902 34.4398 108.272 34.1042 106.928 33.433Z" fill="#23272A"/>
<path d="M123.606 33.4332C122.251 32.762 121.219 31.8442 120.507 30.6764C119.797 29.5086 119.438 28.2072 119.438 26.7688C119.438 25.3305 119.793 24.0462 120.507 22.9196C121.221 21.7928 122.248 20.9093 123.596 20.2688C124.94 19.6284 126.546 19.3099 128.407 19.3099C130.268 19.3099 131.874 19.6284 133.219 20.2688C134.563 20.9093 135.59 21.786 136.294 22.9058C136.998 24.0257 137.35 25.3099 137.35 26.7655C137.35 28.2038 136.998 29.5052 136.294 30.6729C135.59 31.8407 134.56 32.7586 133.205 33.4298C131.851 34.101 130.251 34.4367 128.404 34.4367C126.556 34.4367 124.957 34.1044 123.606 33.4332ZM130.737 29.1798C131.308 28.5976 131.596 27.8271 131.596 26.8682C131.596 25.9093 131.311 25.1456 130.737 24.5805C130.168 24.012 129.389 23.7278 128.404 23.7278C127.401 23.7278 126.616 24.012 126.043 24.5805C125.473 25.149 125.188 25.9093 125.188 26.8682C125.188 27.8271 125.473 28.5976 126.043 29.1798C126.614 29.762 127.401 30.0565 128.404 30.0565C129.389 30.0531 130.168 29.762 130.737 29.1798Z" fill="#23272A"/>
<path d="M151.452 20.2003V25.3784C150.856 24.9777 150.084 24.7791 149.129 24.7791C147.878 24.7791 146.912 25.1661 146.241 25.94C145.568 26.714 145.232 27.9195 145.232 29.5496V33.9606H139.482V19.9366H145.115V24.3955C145.427 22.7654 145.933 21.5634 146.631 20.7859C147.325 20.012 148.223 19.625 149.316 19.625C150.144 19.625 150.856 19.8168 151.452 20.2003Z" fill="#23272A"/>
<path d="M170.558 16.7002V33.9604H164.807V30.8201C164.321 32.0016 163.584 32.9023 162.591 33.5187C161.598 34.1317 160.371 34.4399 158.916 34.4399C157.615 34.4399 156.482 34.118 155.513 33.4707C154.544 32.8235 153.797 31.9365 153.27 30.8098C152.747 29.6831 152.482 28.4091 152.482 26.9845C152.465 25.5153 152.743 24.1968 153.317 23.029C153.887 21.8611 154.695 20.9502 155.734 20.2961C156.774 19.642 157.961 19.3132 159.292 19.3132C162.032 19.3132 163.869 20.5289 164.807 22.957V16.7002H170.558ZM163.949 29.0838C164.536 28.5016 164.828 27.7447 164.828 26.8201C164.828 25.9262 164.543 25.1968 163.973 24.6386C163.402 24.0804 162.621 23.7995 161.639 23.7995C160.67 23.7995 159.896 24.0837 159.315 24.6522C158.735 25.2208 158.447 25.957 158.447 26.868C158.447 27.779 158.735 28.5221 159.315 29.0975C159.896 29.6728 160.66 29.9605 161.615 29.9605C162.584 29.9571 163.362 29.6659 163.949 29.0838Z" fill="#23272A"/>
<path d="M81.4514 21.4294C83.0345 21.4294 84.3184 20.2519 84.3184 18.7993C84.3184 17.3467 83.0345 16.1692 81.4514 16.1692C79.8678 16.1692 78.5845 17.3467 78.5845 18.7993C78.5845 20.2519 79.8678 21.4294 81.4514 21.4294Z" fill="#23272A"/>
<path d="M78.582 23.2413C80.3386 24.0152 82.5183 24.0495 84.3153 23.2413V34.0358H78.582V23.2413Z" fill="#23272A"/>
</svg>
