<svg width="163" height="49" viewBox="0 0 163 49" fill="none" xmlns="http://www.w3.org/2000/svg">
<path d="M45.0503 14.7156H52.6724C57.5318 14.7156 61.546 17.5272 61.546 23.9467V25.2956C61.546 31.7639 57.7918 34.6729 52.8187 34.6729H45.0503V14.7156ZM49.3083 18.3398V31.0325H52.5749C55.3377 31.0325 57.1905 29.2286 57.1905 25.2143V24.158C57.1905 20.1437 55.2402 18.3398 52.4287 18.3398H49.3083ZM63.805 18.5348H67.2179L67.7705 22.289C68.4205 19.7374 70.0782 18.3723 73.0848 18.3723H74.1412V22.679H72.386C68.9243 22.679 68.0792 23.8817 68.0792 27.2946V34.7217H63.87V18.5348H63.805ZM74.9863 26.9533V26.4982C74.9863 21.0864 78.448 18.1285 83.161 18.1285C87.9716 18.1285 91.3357 21.0864 91.3357 26.4982V26.9533C91.3357 32.2677 88.0691 35.128 83.161 35.128C77.9441 35.0792 74.9863 32.2839 74.9863 26.9533ZM87.029 26.9045V26.4982C87.029 23.4916 85.5175 21.6877 83.1123 21.6877C80.7557 21.6877 79.1955 23.3454 79.1955 26.4982V26.9045C79.1955 29.8136 80.707 31.4713 83.1123 31.4713C85.5175 31.4226 87.029 29.8136 87.029 26.9045ZM93.546 18.5348H97.0564L97.4627 21.5902C98.3078 19.5424 100.112 18.1285 102.777 18.1285C106.889 18.1285 109.603 21.0864 109.603 26.5632V27.0183C109.603 32.3327 106.596 35.1443 102.777 35.1443C100.226 35.1443 98.4703 33.9904 97.6089 32.1377V40.3124H93.4972L93.546 18.5348ZM105.329 26.9045V26.547C105.329 23.3291 103.671 21.7364 101.461 21.7364C99.1041 21.7364 97.5439 23.5404 97.5439 26.547V26.8558C97.5439 29.7161 99.0554 31.5201 101.412 31.5201C103.833 31.4713 105.329 29.9274 105.329 26.9045ZM115.827 31.7314L115.47 34.6892H111.862V13.1229H115.974V21.3951C116.884 19.2824 118.688 18.1285 121.239 18.1285C125.107 18.1773 127.968 20.8426 127.968 26.2057V26.7095C127.968 32.0726 125.253 35.1443 121.142 35.1443C118.428 35.0792 116.672 33.8278 115.827 31.7314ZM123.645 26.7095V26.3032C123.645 23.3454 122.036 21.6877 119.777 21.6877C117.469 21.6877 115.86 23.5404 115.86 26.352V26.7095C115.86 29.7161 117.42 31.4713 119.728 31.4713C122.198 31.4713 123.645 29.9274 123.645 26.7095ZM129.771 26.9533V26.4982C129.771 21.0864 133.233 18.1285 137.946 18.1285C142.757 18.1285 146.121 21.0864 146.121 26.4982V26.9533C146.121 32.2677 142.806 35.128 137.946 35.128C132.729 35.0792 129.771 32.2839 129.771 26.9533ZM141.847 26.9045V26.4982C141.847 23.4916 140.335 21.6877 137.93 21.6877C135.573 21.6877 134.013 23.3454 134.013 26.4982V26.9045C134.013 29.8136 135.525 31.4713 137.93 31.4713C140.351 31.4226 141.847 29.8136 141.847 26.9045ZM151.63 26.3032L145.958 18.5348H150.818L154.084 23.3941L157.4 18.5348H162.21L156.457 26.2545L162.519 34.6892H157.757L154.052 29.3261L150.444 34.6892H145.471L151.63 26.3032Z" fill="black"/>
<path d="M18.8522 14.7157L9.42611 20.7289L18.8522 26.7421L9.42611 32.7553L0 26.7096L9.42611 20.6964L0 14.7157L9.42611 8.70251L18.8522 14.7157ZM9.37735 34.6893L18.8035 28.6761L28.2296 34.6893L18.8035 40.7025L9.37735 34.6893ZM18.8522 26.7096L28.2783 20.6964L18.8522 14.7157L28.2296 8.70251L37.6557 14.7157L28.2296 20.7289L37.6557 26.7421L28.2296 32.7553L18.8522 26.7096Z" fill="black"/>
</svg>
