<svg width="135" height="49" viewBox="0 0 135 49" fill="none" xmlns="http://www.w3.org/2000/svg">
<path fill-rule="evenodd" clip-rule="evenodd" d="M17.43 5.70251C7.79992 5.70251 0 13.5024 0 23.1325C0 30.8453 4.98934 37.3597 11.9178 39.6692C12.7893 39.8217 13.1161 39.2988 13.1161 38.8413C13.1161 38.4273 13.0943 37.0547 13.0943 35.595C8.715 36.4011 7.58205 34.5274 7.23345 33.5469C7.03736 33.0458 6.18765 31.4989 5.44687 31.0849C4.83682 30.7581 3.96532 29.952 5.42509 29.9302C6.7977 29.9084 7.77814 31.1939 8.10495 31.7168C9.67365 34.3531 12.1792 33.6123 13.1814 33.1548C13.3339 32.0218 13.7915 31.2592 14.2926 30.8235C10.4144 30.3877 6.36195 28.8844 6.36195 22.2174C6.36195 20.3219 7.03736 18.7532 8.14852 17.5331C7.97422 17.0974 7.36417 15.3108 8.32282 12.9142C8.32282 12.9142 9.78259 12.4566 13.1161 14.7007C14.5105 14.3086 15.992 14.1125 17.4736 14.1125C18.9551 14.1125 20.4367 14.3086 21.8311 14.7007C25.1646 12.4349 26.6243 12.9142 26.6243 12.9142C27.583 15.3108 26.9729 17.0974 26.7986 17.5331C27.9098 18.7532 28.5852 20.3001 28.5852 22.2174C28.5852 28.9062 24.5109 30.3877 20.6328 30.8235C21.2646 31.3682 21.8093 32.414 21.8093 34.048C21.8093 36.3793 21.7875 38.253 21.7875 38.8413C21.7875 39.2988 22.1143 39.8435 22.9858 39.6692C26.446 38.5011 29.4527 36.2773 31.5828 33.3108C33.7129 30.3443 34.8591 26.7845 34.86 23.1325C34.86 13.5024 27.0601 5.70251 17.43 5.70251Z" fill="#24292E"/>
<path d="M81.2557 31.5455H81.2151C81.2334 31.5455 81.2456 31.5659 81.2639 31.5679H81.2761L81.2557 31.5476V31.5455ZM81.2639 31.5679C81.0748 31.5699 80.5989 31.6696 80.0966 31.6696C78.5105 31.6696 77.9615 30.9375 77.9615 29.9818V23.6149H81.1947C81.3777 23.6149 81.5201 23.4522 81.5201 23.2285V19.7716C81.5201 19.5886 81.3574 19.4259 81.1947 19.4259H77.9615V15.1352C77.9615 14.9725 77.8598 14.8708 77.6768 14.8708H73.2844C73.1014 14.8708 72.9997 14.9725 72.9997 15.1352V19.5479C72.9997 19.5479 70.7832 20.0969 70.6409 20.1173C70.4782 20.1579 70.3765 20.3003 70.3765 20.463V23.2285C70.3765 23.4522 70.5392 23.6149 70.7222 23.6149H72.9794V30.2848C72.9794 35.2465 76.4363 35.7549 78.7952 35.7549C79.873 35.7549 81.1744 35.4092 81.3777 35.3075C81.4998 35.2668 81.5608 35.1245 81.5608 34.9821V31.9319C81.5636 31.8454 81.5351 31.7608 81.4806 31.6935C81.426 31.6263 81.3491 31.581 81.2639 31.5659V31.5679ZM129.45 27.0922C129.45 23.4115 127.965 22.9235 126.399 23.0862C125.179 23.1675 124.203 23.7776 124.203 23.7776V30.9355C124.203 30.9355 125.2 31.6269 126.684 31.6675C128.779 31.7285 129.45 30.9761 129.45 27.0922ZM134.391 26.7668C134.391 33.7417 132.134 35.7345 128.189 35.7345C124.854 35.7345 123.064 34.0467 123.064 34.0467C123.064 34.0467 122.983 34.9821 122.881 35.1042C122.82 35.2262 122.719 35.2668 122.597 35.2668H119.587C119.384 35.2668 119.201 35.1042 119.201 34.9211L119.242 12.329C119.242 12.1459 119.404 11.9833 119.587 11.9833H123.919C124.102 11.9833 124.264 12.1459 124.264 12.329V19.9953C124.264 19.9953 125.932 18.9175 128.372 18.9175L128.352 18.8768C130.792 18.8768 134.391 19.7919 134.391 26.7668ZM116.659 19.4259H112.389C112.165 19.4259 112.043 19.5886 112.043 19.8122V30.8745C112.043 30.8745 110.924 31.6675 109.399 31.6675C107.874 31.6675 107.427 30.9761 107.427 29.451V19.7919C107.427 19.6089 107.264 19.4462 107.081 19.4462H102.729C102.546 19.4462 102.384 19.6089 102.384 19.7919V30.1831C102.384 34.6568 104.885 35.7752 108.322 35.7752C111.148 35.7752 113.446 34.2094 113.446 34.2094C113.446 34.2094 113.548 35.0025 113.609 35.1245C113.649 35.2262 113.792 35.3075 113.934 35.3075H116.659C116.883 35.3075 117.005 35.1448 117.005 34.9618L117.045 19.7716C117.045 19.5886 116.883 19.4259 116.659 19.4259ZM68.465 19.4055H64.1337C63.9507 19.4055 63.788 19.5886 63.788 19.8122V34.7381C63.788 35.1448 64.0523 35.2872 64.398 35.2872H68.3023C68.709 35.2872 68.8107 35.1042 68.8107 34.7381V19.7512C68.8107 19.5682 68.648 19.4055 68.465 19.4055ZM66.3298 12.5323C64.7641 12.5323 63.5236 13.7727 63.5236 15.3385C63.5236 16.9043 64.7641 18.1448 66.3298 18.1448C67.855 18.1448 69.0954 16.9043 69.0954 15.3385C69.0954 13.7727 67.855 12.5323 66.3298 12.5323ZM99.8623 12.0239H95.5716C95.3886 12.0239 95.2259 12.1866 95.2259 12.3696V20.6866H88.495V12.3696C88.495 12.1866 88.3323 12.0239 88.1493 12.0239H83.818C83.6349 12.0239 83.4723 12.1866 83.4723 12.3696V34.9618C83.4723 35.1448 83.6553 35.3075 83.818 35.3075H88.1493C88.3323 35.3075 88.495 35.1448 88.495 34.9618V25.3027H95.2259L95.1852 34.9618C95.1852 35.1448 95.3479 35.3075 95.5309 35.3075H99.8623C100.045 35.3075 100.208 35.1448 100.208 34.9618V12.3696C100.208 12.1866 100.045 12.0239 99.8623 12.0239ZM61.4901 22.0288V33.701C61.4901 33.7824 61.4698 33.9247 61.3681 33.9654C61.3681 33.9654 58.8262 35.7752 54.6372 35.7752C49.5738 35.7752 43.575 34.1891 43.575 23.7369C43.575 13.2847 48.8214 11.1292 53.9458 11.1495C58.3789 11.1495 60.1683 12.1459 60.453 12.329C60.5344 12.4306 60.575 12.512 60.575 12.6136L59.721 16.2333C59.721 16.4163 59.538 16.64 59.3143 16.579C58.5822 16.3553 57.4841 15.9079 54.9016 15.9079C51.9123 15.9079 48.6994 16.762 48.6994 23.4929C48.6994 30.2238 51.7497 31.0168 53.9458 31.0168C55.8167 31.0168 56.4877 30.7931 56.4877 30.7931V26.1161H53.4985C53.2748 26.1161 53.1121 25.9534 53.1121 25.7704V22.0288C53.1121 21.8457 53.2748 21.6831 53.4985 21.6831H61.1038C61.3274 21.6831 61.4901 21.8457 61.4901 22.0288Z" fill="#24292E"/>
</svg>
