<svg width="121" height="49" viewBox="0 0 121 49" fill="none" xmlns="http://www.w3.org/2000/svg">
<path d="M37.9251 33.1289L39.3932 29.6974C41.0006 30.8879 43.0973 31.5179 45.1945 31.5179C46.7323 31.5179 47.7107 30.9229 47.7107 30.0127C47.6756 27.4915 38.4494 29.4523 38.3792 23.1137C38.3441 19.8923 41.2102 17.4061 45.2646 17.4061C47.6756 17.4061 50.0875 18.0016 51.7997 19.3675L50.4279 22.8721C48.8525 21.8591 46.9067 21.1529 45.0546 21.1529C43.7965 21.1529 42.9575 21.7478 42.9575 22.5187C42.9925 25.0049 52.2895 23.639 52.3942 29.6974C52.3942 32.989 49.5978 35.3002 45.6135 35.3002C42.6783 35.3002 39.9871 34.6 37.9246 33.1289H37.9251ZM96.3831 28.4549C96.0125 29.1133 95.4735 29.6613 94.8212 30.0427C94.169 30.4241 93.427 30.6251 92.6715 30.6252C90.3167 30.6252 88.4079 28.7125 88.4079 26.3532C88.4079 23.9939 90.3167 22.0812 92.6715 22.0812C93.427 22.0812 94.169 22.2822 94.8212 22.6636C95.4735 23.045 96.0125 23.5931 96.3831 24.2515L100.465 21.9859C98.9359 19.2537 96.0197 17.4061 92.6715 17.4061C87.7398 17.4061 83.742 21.4115 83.742 26.3532C83.742 31.2944 87.7398 35.3002 92.6715 35.3002C96.0197 35.3002 98.9359 33.4527 100.465 30.7204L96.3831 28.4549ZM55.0427 34.9499H60.1453V9.95828H55.0432L55.0427 34.9499ZM103.042 9.95828V34.9499H108.144V27.4624L114.19 34.9499H120.713L113.024 26.0549L120.153 17.755H113.911L108.144 24.6555V9.95828H103.042ZM75.8655 17.756V19.7875C75.027 18.3865 72.9649 17.4061 70.7981 17.4061C66.3245 17.4061 62.7948 21.3634 62.7948 26.3356C62.7948 31.3079 66.3245 35.3002 70.7981 35.3002C72.9649 35.3002 75.027 34.3198 75.8655 32.9189V34.9499H80.9681V17.756H75.8655ZM75.8655 28.4894C75.1317 29.715 73.5939 30.6247 71.8817 30.6247C69.5264 30.6247 67.6177 28.7125 67.6177 26.3532C67.6177 23.9939 69.5264 22.0812 71.8817 22.0812C73.5939 22.0812 75.1317 23.0265 75.8655 24.2866V28.4894Z" fill="black"/>
<path d="M10.9783 9.40613C9.32472 9.40613 7.98442 10.7494 7.98442 12.406C7.98402 12.7996 8.06115 13.1894 8.21139 13.5531C8.36163 13.9169 8.58205 14.2475 8.86006 14.526C9.13806 14.8046 9.46822 15.0257 9.83166 15.1766C10.1951 15.3276 10.5847 15.4055 10.9783 15.4059H13.9727V12.406C13.9733 11.6112 13.6582 10.8486 13.0967 10.286C12.5352 9.72342 11.7732 9.40693 10.9783 9.40613ZM10.9783 17.4058H2.99412C1.34055 17.4058 0.000244141 18.7491 0.000244141 20.4062C0.000244141 22.0628 1.34055 23.4061 2.99412 23.4061H10.9788C12.6319 23.4061 13.9727 22.0628 13.9727 20.4062C13.9727 18.7491 12.6319 17.4058 10.9783 17.4058Z" fill="black"/>
<path d="M29.9411 20.4062C29.9411 18.7491 28.6003 17.4058 26.9467 17.4058C25.2932 17.4058 23.9529 18.7491 23.9529 20.4062V23.4061H26.9467C27.7416 23.4053 28.5036 23.0888 29.0652 22.5263C29.6267 21.9637 29.9418 21.2011 29.9411 20.4062ZM21.9569 20.4062V12.406C21.9576 11.6112 21.6425 10.8486 21.081 10.286C20.5194 9.72342 19.7574 9.40693 18.9626 9.40613C17.309 9.40613 15.9687 10.7494 15.9687 12.406V20.4057C15.9687 22.0633 17.309 23.4066 18.9626 23.4066C19.7574 23.4058 20.5194 23.0893 21.081 22.5268C21.6425 21.9642 21.9576 21.2016 21.9569 20.4067" fill="black"/>
<path d="M18.9626 39.4061C19.7575 39.4053 20.5195 39.0888 21.081 38.5263C21.6426 37.9637 21.9577 37.2011 21.957 36.4062C21.9577 35.6114 21.6426 34.8488 21.081 34.2862C20.5195 33.7236 19.7575 33.4071 18.9626 33.4063H15.9688V36.4062C15.9688 38.0628 17.3091 39.4061 18.9626 39.4061ZM18.9626 31.4064H26.9473C28.6004 31.4064 29.9412 30.0631 29.9412 28.406C29.9418 27.6112 29.6268 26.8486 29.0652 26.286C28.5037 25.7234 27.7417 25.4069 26.9468 25.4061H18.9626C17.3091 25.4061 15.9688 26.7494 15.9688 28.406C15.9684 28.7996 16.0455 29.1894 16.1957 29.5531C16.346 29.9169 16.5664 30.2475 16.8444 30.526C17.1224 30.8046 17.4526 31.0257 17.816 31.1766C18.1794 31.3276 18.5691 31.4055 18.9626 31.4059" fill="black"/>
<path d="M1.51064e-06 28.406C-0.000393626 28.7996 0.0767319 29.1894 0.226974 29.5531C0.377217 29.9169 0.597634 30.2475 0.875642 30.526C1.15365 30.8046 1.4838 31.0257 1.84725 31.1766C2.2107 31.3276 2.60032 31.4055 2.99388 31.4059C3.78875 31.4051 4.55075 31.0886 5.11229 30.526C5.67383 29.9635 5.98892 29.2009 5.98826 28.406V25.4061H2.99388C1.3403 25.4061 1.51064e-06 26.7494 1.51064e-06 28.406ZM7.98417 28.406V36.4057C7.98417 38.0628 9.32448 39.4061 10.9781 39.4061C11.7729 39.4053 12.5349 39.0888 13.0965 38.5263C13.658 37.9637 13.9731 37.2011 13.9724 36.4062V28.406C13.9728 28.0124 13.8957 27.6226 13.7454 27.2588C13.5951 26.895 13.3747 26.5644 13.0966 26.2858C12.8186 26.0073 12.4883 25.7862 12.1248 25.6353C11.7613 25.4843 11.3716 25.4065 10.9781 25.4061C9.32448 25.4061 7.98417 26.7494 7.98417 28.406Z" fill="black"/>
</svg>
