<svg width="176" height="52" viewBox="0 0 176 52" fill="none" xmlns="http://www.w3.org/2000/svg">
<path d="M174.748 45.8604C174.748 46.5149 174.619 47.1629 174.369 47.7675C174.118 48.3721 173.751 48.9214 173.287 49.3839C172.824 49.8465 172.275 50.2132 171.669 50.4632C171.064 50.7132 170.416 50.8415 169.761 50.8408H6.56371C5.24098 50.8422 3.97186 50.3183 3.03546 49.3843C2.09905 48.4503 1.57204 47.1828 1.57031 45.8604V6.14361C1.57204 4.82064 2.09884 3.55242 3.03506 2.61742C3.97128 1.68243 5.24038 1.15708 6.56371 1.15674H169.76C170.415 1.15674 171.064 1.28574 171.669 1.53637C172.274 1.787 172.824 2.15435 173.287 2.61744C173.75 3.08053 174.117 3.63029 174.368 4.23531C174.618 4.84034 174.747 5.48878 174.747 6.14361L174.748 45.8604Z" fill="white"/>
<path d="M169.763 52H6.56508C4.93564 51.9997 3.37288 51.3531 2.21971 50.2022C1.06654 49.0513 0.417163 47.49 0.414062 45.861L0.414063 6.14549C0.416473 4.51567 1.06542 2.95335 2.21855 1.80126C3.37168 0.649163 4.93483 0.00137563 6.56508 0L169.762 0C171.392 0.00206204 172.954 0.650069 174.107 1.80201C175.26 2.95396 175.909 4.51588 175.913 6.14549V45.861C175.915 49.2471 173.151 52 169.763 52Z" fill="#A6A6A6"/>
<path d="M174.748 45.8604C174.748 46.5149 174.619 47.1629 174.369 47.7675C174.118 48.3721 173.751 48.9214 173.287 49.3839C172.824 49.8465 172.275 50.2132 171.669 50.4632C171.064 50.7132 170.416 50.8415 169.761 50.8408H6.56371C5.24098 50.8422 3.97186 50.3183 3.03546 49.3843C2.09905 48.4503 1.57204 47.1828 1.57031 45.8604V6.14361C1.57204 4.82064 2.09884 3.55242 3.03506 2.61742C3.97128 1.68243 5.24038 1.15708 6.56371 1.15674H169.76C170.415 1.15674 171.064 1.28574 171.669 1.53637C172.274 1.787 172.824 2.15435 173.287 2.61744C173.75 3.08053 174.117 3.63029 174.368 4.23531C174.618 4.84034 174.747 5.48878 174.747 6.14361L174.748 45.8604Z" fill="black"/>
<path d="M39.5999 25.7275C39.5622 21.5365 43.0324 19.4975 43.1911 19.4026C41.2258 16.5379 38.1795 16.1465 37.109 16.1153C34.5506 15.8461 32.0688 17.6458 30.7655 17.6458C29.4362 17.6458 27.4292 16.1413 25.2661 16.1855C22.4826 16.2284 19.8786 17.8396 18.4505 20.3414C15.5031 25.4427 17.7013 32.9393 20.5251 37.0627C21.9376 39.0835 23.5882 41.337 25.7487 41.2577C27.8623 41.1719 28.6519 39.9118 31.2025 39.9118C33.7298 39.9118 34.4712 41.2577 36.6746 41.207C38.943 41.1719 40.3712 39.1784 41.7343 37.1408C43.3667 34.8274 44.0223 32.5466 44.0483 32.4296C43.9963 32.4114 39.6441 30.7495 39.5999 25.7275ZM35.4376 13.4027C36.5744 11.9814 37.3523 10.0478 37.1363 8.08557C35.491 8.15839 33.4333 9.22338 32.2483 10.6135C31.1999 11.8384 30.2634 13.8462 30.5054 15.7343C32.3537 15.8721 34.2514 14.8019 35.4376 13.4027Z" fill="white"/>
<path d="M169.761 0H82.3477L116.586 52H169.761C171.391 51.9986 172.954 51.3512 174.107 50.1997C175.26 49.0481 175.909 47.4865 175.912 45.8571V6.14549C175.91 4.51577 175.261 2.95365 174.107 1.80164C172.954 0.649616 171.391 0.00171896 169.761 0Z" fill="url(#paint0_linear_1_1756)"/>
<path d="M70.215 40.965H67.2611L65.643 35.8819H60.0187L58.4774 40.965H55.6016L61.1751 23.6599H64.6167L70.215 40.965ZM65.1552 33.7493L63.6919 29.2306C63.5371 28.769 63.2458 27.6819 62.8192 25.9706H62.7671C62.5954 26.7066 62.321 27.7937 61.9451 29.2306L60.5065 33.7493H65.1552ZM84.5201 34.5725C84.5201 36.6946 83.9439 38.3721 82.7901 39.6035C81.7574 40.6997 80.4736 41.2472 78.9427 41.2472C77.2895 41.2472 76.1006 40.6581 75.3787 39.4774V46.0247H72.6056V32.5881C72.6056 31.2552 72.5705 29.8886 72.5029 28.4868H74.9417L75.0965 30.4646H75.1485C76.0733 28.9744 77.4768 28.2293 79.3602 28.2293C80.8326 28.2293 82.0617 28.8106 83.0451 29.9744C84.0271 31.1408 84.5201 32.6726 84.5201 34.5725ZM81.695 34.6739C81.695 33.4594 81.4218 32.4581 80.8729 31.6688C80.2733 30.8482 79.4681 30.4373 78.4588 30.4373C77.7746 30.4373 77.1529 30.6662 76.5975 31.1174C76.0408 31.5725 75.6766 32.1668 75.5062 32.9028C75.4301 33.178 75.3869 33.4613 75.3774 33.7467V35.8286C75.3774 36.735 75.6558 37.5009 76.2125 38.1276C76.7692 38.7518 77.4924 39.0652 78.3821 39.0652C79.4265 39.0652 80.2395 38.6608 80.8209 37.8585C81.4036 37.0535 81.695 35.9924 81.695 34.6739ZM98.8759 34.5725C98.8759 36.6946 98.2997 38.3721 97.146 39.6035C96.1119 40.6997 94.8294 41.2472 93.2972 41.2472C91.644 41.2472 90.4552 40.6581 89.7333 39.4774V46.0247H86.9602V32.5881C86.9602 31.2552 86.9251 29.8886 86.8574 28.4868H89.2963L89.451 30.4646H89.5031C90.4266 28.9744 91.83 28.2293 93.7147 28.2293C95.1858 28.2293 96.415 28.8106 97.4009 29.9744C98.3817 31.1408 98.8759 32.6726 98.8759 34.5725ZM96.0495 34.6739C96.0495 33.4594 95.775 32.4581 95.2262 31.6688C94.6265 30.8482 93.824 30.4373 92.8147 30.4373C92.1305 30.4373 91.5088 30.6662 90.9507 31.1174C90.394 31.5725 90.0311 32.1668 89.8608 32.9028C89.7762 33.2461 89.7307 33.5257 89.7307 33.7467V35.8286C89.7307 36.735 90.0103 37.5009 90.5644 38.1276C91.1211 38.7505 91.8443 39.0652 92.7366 39.0652C93.7824 39.0652 94.5953 38.6608 95.1754 37.8585C95.7581 37.0535 96.0495 35.9924 96.0495 34.6739ZM114.927 36.1108C114.927 37.5841 114.412 38.7817 113.388 39.7063C112.261 40.7153 110.689 41.2212 108.673 41.2212C106.81 41.2212 105.317 40.8623 104.191 40.1432L104.832 37.8325C106.048 38.5529 107.384 38.9118 108.838 38.9118C109.884 38.9118 110.697 38.6751 111.277 38.2057C111.858 37.7349 112.152 37.1056 112.152 36.3201C112.152 35.6166 111.909 35.0276 111.432 34.5478C110.952 34.0692 110.158 33.6232 109.044 33.2136C106.013 32.0836 104.496 30.4308 104.496 28.2566C104.496 26.8366 105.032 25.6741 106.101 24.7652C107.17 23.8575 108.588 23.4037 110.352 23.4037C111.927 23.4037 113.24 23.6781 114.281 24.2255L113.586 26.4855C112.605 25.955 111.498 25.6897 110.26 25.6897C109.282 25.6897 108.514 25.9303 107.965 26.4088C107.503 26.8366 107.269 27.3581 107.269 27.977C107.269 28.6597 107.536 29.2267 108.067 29.6714C108.527 30.081 109.367 30.527 110.582 31.0056C112.073 31.6063 113.168 32.3059 113.869 33.1096C114.575 33.9132 114.927 34.9158 114.927 36.1108ZM124.119 30.5674H121.062V36.6257C121.062 38.1666 121.6 38.9352 122.68 38.9352C123.176 38.9352 123.587 38.8935 123.912 38.8064L123.989 40.9117C123.442 41.1159 122.723 41.2186 121.832 41.2186C120.737 41.2186 119.881 40.8844 119.263 40.216C118.648 39.5476 118.338 38.428 118.338 36.852V30.5622H116.517V28.4816H118.338V26.1969L121.062 25.375V28.4816H124.119V30.5674ZM137.883 34.6232C137.883 36.5412 137.334 38.1159 136.239 39.3474C135.093 40.6152 133.568 41.2472 131.668 41.2472C129.834 41.2472 128.376 40.6399 127.288 39.4267C126.201 38.2109 125.657 36.679 125.657 34.8312C125.657 32.8976 126.219 31.3138 127.339 30.0823C128.462 28.8496 129.973 28.2332 131.873 28.2332C133.705 28.2332 135.176 28.8418 136.289 30.0563C137.353 31.2344 137.883 32.7559 137.883 34.6232ZM135.008 34.6869C135.008 33.5439 134.761 32.5634 134.265 31.7429C133.684 30.752 132.852 30.2566 131.773 30.2566C130.662 30.2566 129.811 30.752 129.23 31.7429C128.734 32.5634 128.486 33.5608 128.486 34.7389C128.486 35.8832 128.734 36.8663 129.23 37.6842C129.83 38.6751 130.666 39.1705 131.75 39.1705C132.81 39.1705 133.641 38.6647 134.242 37.6595C134.752 36.8195 135.008 35.8325 135.008 34.6869ZM146.9 30.925C146.612 30.8729 146.319 30.8472 146.026 30.8482C145.051 30.8482 144.296 31.2149 143.766 31.9535C143.305 32.6037 143.074 33.4255 143.074 34.4177V40.965H140.301V32.4165C140.303 31.1066 140.276 29.7968 140.22 28.4881H142.635L142.737 30.8755H142.814C143.108 30.055 143.568 29.3931 144.2 28.8977C144.779 28.4648 145.482 28.2303 146.205 28.2293C146.461 28.2293 146.692 28.2475 146.898 28.28L146.9 30.925ZM159.303 34.1355C159.31 34.557 159.276 34.9781 159.201 35.393H150.882C150.913 36.6257 151.316 37.5698 152.089 38.22C152.79 38.7999 153.697 39.0912 154.81 39.0912C156.042 39.0912 157.166 38.8961 158.176 38.5021L158.611 40.4254C157.43 40.9403 156.035 41.1965 154.426 41.1965C152.491 41.1965 150.972 40.6269 149.866 39.4904C148.763 38.3526 148.21 36.8234 148.21 34.908C148.21 33.0276 148.724 31.4607 149.753 30.2111C150.83 28.8769 152.285 28.2098 154.117 28.2098C155.916 28.2098 157.277 28.8769 158.202 30.2111C158.935 31.2682 159.303 32.579 159.303 34.1355ZM156.658 33.4164C156.678 32.5933 156.496 31.8846 156.12 31.2852C155.64 30.5127 154.901 30.1278 153.911 30.1278C153.005 30.1278 152.266 30.5036 151.704 31.2578C151.242 31.8573 150.968 32.5777 150.883 33.4138L156.658 33.4164Z" fill="white"/>
<path d="M59.2205 17.5417C58.4492 17.5417 57.782 17.5039 57.2266 17.4402V9.07373C58.0034 8.95376 58.7883 8.89463 59.5743 8.89688C62.7545 8.89688 64.2191 10.4612 64.2191 13.0112C64.2191 15.9526 62.4892 17.5417 59.2205 17.5417ZM59.6862 9.96967C59.257 9.96967 58.8915 9.99568 58.5884 10.0581V16.4181C58.7523 16.4442 59.0671 16.4559 59.5093 16.4559C61.593 16.4559 62.7793 15.2699 62.7793 13.0489C62.7793 11.0685 61.7062 9.96967 59.6862 9.96967ZM68.7833 17.6054C66.9909 17.6054 65.8294 16.2673 65.8294 14.4507C65.8294 12.5574 67.0156 11.2076 68.8848 11.2076C70.6511 11.2076 71.8386 12.482 71.8386 14.3506C71.8386 16.2673 70.6147 17.6054 68.7833 17.6054ZM68.8353 12.2037C67.8507 12.2037 67.2199 13.1243 67.2199 14.4117C67.2199 15.6743 67.8637 16.595 68.8223 16.595C69.7809 16.595 70.4248 15.6106 70.4248 14.3857C70.4248 13.1373 69.7939 12.2037 68.8353 12.2037ZM82.0596 11.3337L80.141 17.4662H78.8911L78.0963 14.8031C77.8987 14.1517 77.7342 13.4907 77.6034 12.8227H77.5773C77.4772 13.491 77.2873 14.1607 77.0857 14.8031L76.2402 17.4662H74.9772L73.1719 11.3337H74.5727L75.2673 14.2492C75.4312 14.9435 75.5691 15.5989 75.6835 16.2179H75.7095C75.8097 15.7017 75.9736 15.0567 76.2142 14.2622L77.0857 11.3351H78.1965L79.0302 14.1997C79.2318 14.8941 79.3957 15.5755 79.5232 16.2192H79.5596C79.6481 15.5885 79.7872 14.9188 79.9758 14.1997L80.7211 11.3351L82.0596 11.3337ZM89.1224 17.4662H87.7592V13.9449C87.7592 12.8604 87.343 12.3168 86.5223 12.3168C85.7145 12.3168 85.1591 13.0112 85.1591 13.8187V17.4662H83.796V13.0866C83.796 12.5444 83.783 11.9631 83.7453 11.3324H84.9445L85.0083 12.2791H85.046C85.4128 11.6237 86.1568 11.2076 86.9905 11.2076C88.2782 11.2076 89.1237 12.192 89.1237 13.794L89.1224 17.4662ZM92.8814 17.4662H91.517V8.51978H92.8814V17.4662ZM97.8514 17.6054C96.0603 17.6054 94.8975 16.2673 94.8975 14.4507C94.8975 12.5574 96.0837 11.2076 97.9515 11.2076C99.7192 11.2076 100.905 12.482 100.905 14.3506C100.907 16.2673 99.6815 17.6054 97.8514 17.6054ZM97.9021 12.2037C96.9175 12.2037 96.2866 13.1243 96.2866 14.4117C96.2866 15.6743 96.9318 16.595 97.8878 16.595C98.8477 16.595 99.4903 15.6106 99.4903 14.3857C99.4916 13.1373 98.862 12.2037 97.9021 12.2037ZM106.28 17.4662L106.181 16.7601H106.145C105.728 17.3284 105.121 17.6054 104.351 17.6054C103.252 17.6054 102.471 16.8356 102.471 15.8005C102.471 14.2869 103.784 13.504 106.056 13.504V13.3909C106.056 12.5834 105.628 12.179 104.783 12.179C104.178 12.179 103.647 12.3311 103.18 12.6341L102.903 11.7382C103.47 11.3845 104.178 11.2076 105.009 11.2076C106.612 11.2076 107.421 12.0528 107.421 13.7446V16.0033C107.421 16.6223 107.448 17.1021 107.509 17.4675L106.28 17.4662ZM106.093 14.4117C104.579 14.4117 103.819 14.7784 103.819 15.6483C103.819 16.292 104.211 16.6067 104.754 16.6067C105.447 16.6067 106.093 16.0775 106.093 15.3584V14.4117ZM114.04 17.4662L113.976 16.4819H113.938C113.547 17.2257 112.889 17.6054 111.969 17.6054C110.49 17.6054 109.395 16.305 109.395 14.4754C109.395 12.5574 110.531 11.2063 112.081 11.2063C112.902 11.2063 113.483 11.4833 113.811 12.0398H113.838V8.51978H115.203V15.8135C115.203 16.4064 115.217 16.9617 115.253 17.4662H114.04ZM113.838 13.8577C113.838 12.9995 113.27 12.2674 112.402 12.2674C111.392 12.2674 110.774 13.1634 110.774 14.4247C110.774 15.6613 111.415 16.5079 112.375 16.5079C113.232 16.5079 113.838 15.7628 113.838 14.8798V13.8577ZM123.854 17.6054C122.063 17.6054 120.901 16.2673 120.901 14.4507C120.901 12.5574 122.087 11.2076 123.955 11.2076C125.723 11.2076 126.909 12.482 126.909 14.3506C126.91 16.2673 125.686 17.6054 123.854 17.6054ZM123.904 12.2037C122.921 12.2037 122.29 13.1243 122.29 14.4117C122.29 15.6743 122.934 16.595 123.891 16.595C124.851 16.595 125.494 15.6106 125.494 14.3857C125.497 13.1373 124.866 12.2037 123.904 12.2037ZM134.24 17.4662H132.875V13.9449C132.875 12.8604 132.459 12.3168 131.638 12.3168C130.831 12.3168 130.277 13.0112 130.277 13.8187V17.4662H128.912V13.0866C128.912 12.5444 128.899 11.9631 128.861 11.3324H130.061L130.124 12.2791H130.162C130.528 11.6237 131.273 11.2063 132.105 11.2063C133.393 11.2063 134.24 12.1907 134.24 13.7927V17.4662ZM143.411 12.3558H141.911V15.3337C141.911 16.0918 142.174 16.4702 142.705 16.4702C142.945 16.4702 143.147 16.4442 143.31 16.4064L143.347 17.4415C143.083 17.543 142.729 17.5937 142.29 17.5937C141.215 17.5937 140.573 17.0007 140.573 15.4481V12.3558H139.678V11.3337H140.573V10.2102L141.911 9.80583V11.3324H143.411V12.3558ZM150.627 17.4662H149.266V13.9709C149.266 12.8734 148.851 12.3181 148.029 12.3181C147.322 12.3181 146.664 12.798 146.664 13.7693V17.4662H145.302V8.51978H146.664V12.2037H146.691C147.121 11.5353 147.742 11.2063 148.536 11.2063C149.834 11.2063 150.627 12.2154 150.627 13.8187V17.4662ZM158.021 14.7277H153.93C153.956 15.8889 154.725 16.5443 155.863 16.5443C156.468 16.5443 157.024 16.4429 157.516 16.2543L157.728 17.201C157.148 17.4532 156.465 17.5794 155.67 17.5794C153.752 17.5794 152.616 16.3674 152.616 14.4884C152.616 12.6081 153.779 11.1946 155.517 11.1946C157.084 11.1946 158.067 12.3558 158.067 14.11C158.076 14.317 158.06 14.5244 158.021 14.7277ZM156.771 13.7563C156.771 12.8097 156.293 12.1413 155.422 12.1413C154.639 12.1413 154.02 12.8227 153.931 13.7563H156.771Z" fill="white"/>
<defs>
<linearGradient id="paint0_linear_1_1756" x1="129.129" y1="52.1381" x2="129.129" y2="-135.399" gradientUnits="userSpaceOnUse">
<stop stop-color="#1A1A1A" stop-opacity="0.1"/>
<stop offset="0.123" stop-color="#212121" stop-opacity="0.151"/>
<stop offset="0.308" stop-color="#353535" stop-opacity="0.227"/>
<stop offset="0.532" stop-color="#575757" stop-opacity="0.318"/>
<stop offset="0.783" stop-color="#858585" stop-opacity="0.421"/>
<stop offset="1" stop-color="#B3B3B3" stop-opacity="0.51"/>
</linearGradient>
</defs>
</svg>
