<svg width="323" height="236" viewBox="0 0 323 236" fill="none" xmlns="http://www.w3.org/2000/svg">
<g filter="url(#filter0_dddddd_5511_451)">
<path d="M91.4883 2.0027C91.9862 2 92.4793 2 92.9785 2H229.914C230.403 2 230.9 1.99987 231.389 2.00257C231.728 2.00466 232.074 2.01035 232.415 2.01597C232.492 2.01724 232.568 2.0185 232.644 2.01971C233.556 2.02974 234.467 2.10949 235.367 2.25826C236.27 2.4107 237.145 2.69599 237.964 3.1047C239.601 3.93864 240.933 5.26057 241.774 6.88456C242.184 7.69367 242.468 8.56002 242.616 9.45387C242.768 10.3473 242.853 11.2507 242.869 12.1566C242.874 12.5706 242.874 12.9859 242.874 13.3999C242.885 13.889 242.885 14.3793 242.885 14.8738V43.1274C242.885 43.6258 242.885 44.1135 242.874 44.604C242.874 45.0232 242.874 45.4293 242.869 45.8486C242.852 46.7544 242.768 47.6577 242.616 48.5511C242.469 49.4455 242.185 50.3124 241.774 51.1219C241.356 51.9275 240.813 52.663 240.165 53.3012C239.522 53.945 238.779 54.4822 237.964 54.8925C237.145 55.3023 236.27 55.5893 235.367 55.744C234.466 55.8916 233.556 55.9714 232.644 55.9827C232.229 55.9919 231.804 55.9972 231.389 55.9972C230.9 55.9999 230.403 55.9999 229.914 55.9999H92.9785C92.4793 55.9999 91.9862 55.9999 91.4884 55.9972C91.0716 55.9972 90.6581 55.9919 90.2375 55.9827C89.3235 55.9708 88.4117 55.891 87.5098 55.744C86.6092 55.5903 85.7369 55.3033 84.9223 54.8925C84.1068 54.4824 83.3629 53.9452 82.7191 53.3012C82.0694 52.6655 81.5278 51.9295 81.1154 51.1219C80.7012 50.313 80.4143 49.4461 80.2646 48.5511C80.1131 47.6579 80.0315 46.7544 80.0207 45.8487C80.012 45.5619 80.0087 45.2814 80.0053 44.9986C80.0037 44.8678 80.0021 44.7366 80 44.604V13.3999C80.0021 13.2674 80.0037 13.1348 80.0053 13.0022C80.0087 12.7203 80.0121 12.4382 80.0207 12.1567C80.0315 11.2509 80.1131 10.3473 80.2646 9.45401C80.4147 8.55954 80.7016 7.69304 81.1154 6.88442C81.5279 6.07428 82.0695 5.33536 82.7191 4.69608C83.3653 4.05495 84.1087 3.51804 84.9223 3.10484C85.7369 2.69512 86.6093 2.40975 87.5098 2.25839C88.4116 2.11026 89.3234 2.03051 90.2375 2.01985C90.3237 2.01849 90.4095 2.01709 90.4952 2.01568C90.8277 2.01024 91.1569 2.00485 91.4883 2.0027Z" fill="black"/>
</g>
<path d="M91.4961 54.8191C91.0813 54.8191 90.6766 54.8139 90.2651 54.8047C89.4128 54.7937 88.5624 54.7202 87.721 54.5847C86.9364 54.4506 86.1763 54.2012 85.4659 53.8449C84.7619 53.4915 84.1199 53.0281 83.5643 52.4724C83.0007 51.9234 82.5314 51.2865 82.1751 50.5872C81.8149 49.8833 81.5656 49.1288 81.436 48.35C81.296 47.5131 81.2203 46.6669 81.2095 45.8187C81.2008 45.534 81.1895 44.5862 81.1895 44.5862V13.4003C81.1895 13.4003 81.2014 12.4669 81.2095 12.1926C81.2198 11.3458 81.2951 10.5009 81.4347 9.6654C81.5647 8.88446 81.8141 8.12778 82.1745 7.42157C82.5295 6.72268 82.9961 6.08535 83.5563 5.53428C84.1159 4.97798 84.76 4.51219 85.4652 4.15391C86.174 3.79872 86.9326 3.5512 87.7156 3.41965C88.5599 3.28278 89.4132 3.20882 90.2685 3.19838L91.4967 3.18164H231.384L232.627 3.19879C233.474 3.20877 234.32 3.28215 235.156 3.4183C235.947 3.55154 236.714 3.80083 237.431 4.15796C238.843 4.87998 239.993 6.02231 240.718 7.42481C241.073 8.12618 241.318 8.87672 241.447 9.65096C241.588 10.4933 241.667 11.3448 241.683 12.1985C241.687 12.5809 241.687 12.9915 241.687 13.4003C241.698 13.9066 241.698 14.3884 241.698 14.8742V43.1278C241.698 43.6182 241.698 44.0968 241.687 44.5793C241.687 45.0183 241.687 45.4205 241.682 45.8344C241.666 46.673 241.588 47.5093 241.449 48.3366C241.322 49.121 241.074 49.8814 240.714 50.5911C240.355 51.2828 239.889 51.9142 239.332 52.4618C238.776 53.0204 238.132 53.4865 237.427 53.8422C236.712 54.2012 235.946 54.4515 235.156 54.5844C234.315 54.7207 233.465 54.7943 232.612 54.8046C232.205 54.814 231.798 54.8188 231.391 54.819L229.915 54.8217L91.4961 54.8191Z" fill="black"/>
<path d="M113.716 29.4067C113.731 28.2799 114.033 27.1752 114.593 26.1951C115.154 25.2151 115.956 24.3917 116.924 23.8015C116.309 22.9306 115.498 22.2138 114.555 21.7082C113.612 21.2025 112.563 20.9219 111.491 20.8886C109.205 20.6506 106.989 22.2451 105.825 22.2451C104.637 22.2451 102.844 20.9123 100.913 20.9517C99.6638 20.9917 98.4464 21.3519 97.3793 21.9973C96.3123 22.6426 95.4321 23.5511 94.8243 24.6342C92.1918 29.1547 94.1554 35.798 96.6773 39.4519C97.939 41.2412 99.4134 43.2397 101.343 43.1689C103.231 43.0912 103.936 41.9748 106.215 41.9748C108.473 41.9748 109.135 43.1689 111.103 43.1238C113.129 43.0912 114.405 41.3266 115.623 39.5205C116.529 38.2456 117.227 36.8366 117.69 35.3456C116.513 34.8519 115.508 34.0254 114.802 32.9693C114.095 31.9132 113.718 30.6742 113.716 29.4067ZM109.998 18.4855C111.103 17.1703 111.647 15.4799 111.515 13.7732C109.827 13.949 108.268 14.749 107.149 16.0137C106.601 16.6315 106.182 17.3503 105.915 18.1289C105.648 18.9076 105.538 19.7308 105.592 20.5515C106.436 20.5602 107.271 20.3787 108.035 20.0208C108.798 19.663 109.469 19.138 109.998 18.4855ZM137.582 38.6393H131.139L129.592 43.1705H126.863L132.966 26.4062H135.801L141.904 43.1705H139.128L137.582 38.6393ZM131.807 36.5483H136.914L134.396 29.1946H134.326L131.807 36.5483ZM155.084 37.06C155.084 40.8581 153.034 43.2983 149.941 43.2983C149.157 43.339 148.378 43.16 147.692 42.7818C147.006 42.4036 146.442 41.8415 146.063 41.1599H146.005V47.2138H143.475V30.948H145.924V32.981H145.97C146.366 32.3026 146.94 31.7435 147.631 31.363C148.322 30.9825 149.104 30.7949 149.894 30.8202C153.022 30.8202 155.084 33.2723 155.084 37.0599V37.06ZM152.484 37.06C152.484 34.5854 151.194 32.9586 149.227 32.9586C147.294 32.9586 145.994 34.6196 145.994 37.0599C145.994 39.5226 147.294 41.1719 149.227 41.1719C151.194 41.1719 152.484 39.5569 152.484 37.0599V37.06ZM168.648 37.06C168.648 40.8581 166.598 43.2983 163.505 43.2983C162.721 43.339 161.942 43.1599 161.256 42.7818C160.57 42.4036 160.006 41.8415 159.627 41.1599H159.569V47.2138H157.039V30.948H159.487V32.981H159.534C159.93 32.3026 160.504 31.7435 161.195 31.363C161.886 30.9825 162.668 30.7949 163.458 30.8202C166.586 30.8202 168.648 33.2723 168.648 37.0599V37.06ZM166.048 37.06C166.048 34.5854 164.758 32.9586 162.791 32.9586C160.858 32.9586 159.558 34.6196 159.558 37.0599C159.558 39.5226 160.858 41.1719 162.791 41.1719C164.758 41.1719 166.048 39.5569 166.048 37.0599V37.06ZM177.612 38.4996C177.8 40.162 179.428 41.2536 181.653 41.2536C183.785 41.2536 185.319 40.162 185.319 38.663C185.319 37.3617 184.394 36.5826 182.204 36.0487L180.013 35.5253C176.909 34.7817 175.468 33.3421 175.468 31.0059C175.468 28.1134 178.01 26.1268 181.619 26.1268C185.19 26.1268 187.639 28.1134 187.721 31.0059H185.168C185.015 29.333 183.621 28.3231 181.583 28.3231C179.545 28.3231 178.151 29.3449 178.151 30.8319C178.151 32.0172 179.041 32.7146 181.22 33.2484L183.082 33.702C186.55 34.5154 187.991 35.8971 187.991 38.3491C187.991 41.4855 185.472 43.4499 181.466 43.4499C177.717 43.4499 175.186 41.5316 175.023 38.4995L177.612 38.4996ZM193.451 28.0556V30.948H195.794V32.9348H193.451V39.6729C193.451 40.7197 193.92 41.2074 194.95 41.2074C195.228 41.2026 195.506 41.1833 195.782 41.1494V43.1244C195.319 43.2102 194.848 43.249 194.377 43.2403C191.882 43.2403 190.909 42.3109 190.909 39.9405V32.9348H189.117V30.948H190.909V28.0556H193.451ZM197.151 37.06C197.151 33.2142 199.435 30.7978 202.996 30.7978C206.569 30.7978 208.843 33.2142 208.843 37.06C208.843 40.9161 206.581 43.3221 202.996 43.3221C199.413 43.3221 197.151 40.9161 197.151 37.06ZM206.265 37.06C206.265 34.422 205.046 32.8649 202.996 32.8649C200.947 32.8649 199.729 34.4337 199.729 37.06C199.729 39.7085 200.947 41.2536 202.996 41.2536C205.046 41.2536 206.265 39.7085 206.265 37.06ZM210.928 30.948H213.341V33.0284H213.399C213.562 32.3786 213.946 31.8044 214.486 31.4023C215.026 31.0001 215.689 30.7946 216.364 30.8202C216.655 30.8191 216.946 30.8505 217.23 30.9137V33.2604C216.862 33.1489 216.478 33.0977 216.094 33.1088C215.726 33.094 215.36 33.1583 215.02 33.2972C214.68 33.4361 214.374 33.6463 214.124 33.9135C213.873 34.1806 213.684 34.4984 213.569 34.8449C213.454 35.1914 213.416 35.5584 213.458 35.9209V43.1705H210.928V30.948ZM228.893 39.5806C228.553 41.7994 226.374 43.3221 223.587 43.3221C220.002 43.3221 217.777 40.9399 217.777 37.1179C217.777 33.2842 220.014 30.7978 223.48 30.7978C226.89 30.7978 229.034 33.1207 229.034 36.8266V37.6861H220.33V37.8377C220.29 38.2875 220.347 38.7407 220.497 39.1671C220.647 39.5935 220.886 39.9833 221.2 40.3108C221.513 40.6382 221.894 40.8957 222.315 41.0663C222.737 41.2368 223.19 41.3164 223.645 41.2998C224.243 41.3554 224.843 41.2181 225.356 40.9083C225.869 40.5985 226.267 40.1329 226.491 39.5806H228.893ZM220.342 35.9327H226.503C226.526 35.5283 226.464 35.1235 226.322 34.7439C226.179 34.3642 225.959 34.0179 225.675 33.7266C225.391 33.4353 225.05 33.2054 224.672 33.0512C224.295 32.897 223.889 32.8219 223.48 32.8306C223.068 32.8282 222.66 32.9067 222.279 33.0616C221.898 33.2165 221.551 33.4447 221.26 33.7331C220.968 34.0215 220.736 34.3644 220.579 34.7419C220.422 35.1195 220.341 35.5242 220.342 35.9327ZM131.49 13.7877C132.02 13.7499 132.552 13.8294 133.048 14.0203C133.543 14.2112 133.99 14.5089 134.356 14.8918C134.721 15.2747 134.997 15.7333 135.162 16.2345C135.327 16.7358 135.378 17.2671 135.311 17.7903C135.311 20.3636 133.909 21.843 131.49 21.843H128.556V13.7875L131.49 13.7877ZM129.817 20.7037H131.349C131.728 20.7261 132.107 20.6645 132.459 20.5233C132.811 20.382 133.126 20.1647 133.383 19.8872C133.64 19.6097 133.83 19.279 133.942 18.919C134.053 18.5591 134.082 18.1791 134.027 17.8066C134.078 17.4356 134.046 17.0579 133.933 16.7006C133.82 16.3433 133.629 16.0153 133.373 15.74C133.117 15.4647 132.803 15.2489 132.453 15.1082C132.103 14.9675 131.726 14.9052 131.349 14.926H129.817V20.7037ZM136.736 18.8007C136.698 18.4012 136.744 17.9982 136.872 17.6174C136.999 17.2366 137.206 16.8865 137.478 16.5895C137.75 16.2925 138.082 16.0552 138.452 15.8929C138.822 15.7305 139.222 15.6466 139.627 15.6466C140.031 15.6466 140.432 15.7305 140.802 15.8929C141.172 16.0552 141.503 16.2925 141.776 16.5895C142.048 16.8865 142.254 17.2366 142.382 17.6174C142.51 17.9982 142.556 18.4012 142.517 18.8007C142.557 19.2007 142.511 19.6044 142.384 19.9859C142.256 20.3674 142.05 20.7182 141.778 21.0159C141.506 21.3135 141.174 21.5514 140.803 21.7142C140.433 21.8769 140.032 21.961 139.627 21.961C139.222 21.961 138.821 21.8769 138.45 21.7142C138.08 21.5514 137.748 21.3135 137.476 21.0159C137.203 20.7182 136.997 20.3674 136.87 19.9859C136.742 19.6044 136.697 19.2007 136.736 18.8007ZM141.273 18.8007C141.273 17.483 140.676 16.7124 139.629 16.7124C138.577 16.7124 137.986 17.483 137.986 18.8007C137.986 20.129 138.577 20.8936 139.629 20.8936C140.676 20.8936 141.273 20.1237 141.273 18.8007ZM150.202 21.8428H148.947L147.68 17.3657H147.584L146.323 21.8428H145.08L143.391 15.7638H144.618L145.716 20.4024H145.806L147.066 15.7638H148.227L149.487 20.4024H149.582L150.675 15.7638H151.885L150.202 21.8428ZM153.306 15.7639H154.47V16.7296H154.561C154.714 16.3827 154.973 16.0919 155.3 15.8978C155.628 15.7036 156.009 15.6158 156.39 15.6465C156.688 15.6242 156.987 15.6688 157.266 15.777C157.544 15.8851 157.795 16.054 157.999 16.2711C158.202 16.4883 158.354 16.7481 158.443 17.0313C158.532 17.3146 158.555 17.614 158.511 17.9074V21.8427H157.302V18.2088C157.302 17.2319 156.873 16.746 155.979 16.746C155.776 16.7367 155.574 16.7709 155.386 16.8463C155.198 16.9216 155.029 17.0364 154.89 17.1827C154.751 17.329 154.646 17.5034 154.581 17.694C154.516 17.8845 154.494 18.0866 154.515 18.2865V21.8428H153.306V15.7639ZM160.439 13.3908H161.648V21.8428H160.439V13.3908ZM163.33 18.8007C163.291 18.4012 163.337 17.9981 163.465 17.6172C163.593 17.2364 163.799 16.8862 164.072 16.5892C164.344 16.2922 164.676 16.0549 165.046 15.8925C165.416 15.7301 165.816 15.6462 166.221 15.6462C166.625 15.6462 167.026 15.7301 167.396 15.8925C167.766 16.0549 168.098 16.2922 168.37 16.5892C168.642 16.8862 168.849 17.2364 168.976 17.6172C169.104 17.9981 169.15 18.4012 169.112 18.8007C169.151 19.2006 169.105 19.6042 168.978 19.9856C168.85 20.367 168.644 20.7177 168.372 21.0152C168.099 21.3127 167.767 21.5505 167.397 21.7132C167.026 21.8759 166.626 21.9599 166.221 21.9599C165.816 21.9599 165.415 21.8759 165.045 21.7132C164.674 21.5505 164.342 21.3127 164.07 21.0152C163.798 20.7177 163.591 20.367 163.464 19.9856C163.336 19.6042 163.291 19.2006 163.33 18.8007ZM167.867 18.8007C167.867 17.483 167.27 16.7124 166.222 16.7124C165.171 16.7124 164.579 17.483 164.579 18.8007C164.579 20.129 165.171 20.8936 166.222 20.8936C167.27 20.8936 167.867 20.1237 167.867 18.8007ZM170.385 20.1237C170.385 19.0294 171.206 18.3986 172.665 18.3089L174.325 18.214V17.6893C174.325 17.0472 173.897 16.6848 173.07 16.6848C172.395 16.6848 171.927 16.9306 171.793 17.3604H170.622C170.745 16.3162 171.736 15.6466 173.126 15.6466C174.663 15.6466 175.529 16.4053 175.529 17.6893V21.8428H174.365V20.9885H174.269C174.075 21.295 173.802 21.5448 173.479 21.7125C173.155 21.8802 172.793 21.9597 172.428 21.943C172.171 21.9695 171.911 21.9423 171.665 21.8631C171.419 21.7838 171.192 21.6543 171 21.4829C170.807 21.3115 170.653 21.102 170.547 20.8679C170.441 20.6338 170.386 20.3803 170.385 20.1237ZM174.325 19.6043V19.096L172.828 19.1909C171.984 19.2469 171.601 19.5318 171.601 20.0676C171.601 20.6147 172.08 20.9332 172.738 20.9332C172.931 20.9526 173.125 20.9332 173.311 20.8764C173.496 20.8196 173.667 20.7264 173.815 20.6024C173.964 20.4784 174.085 20.3262 174.172 20.1547C174.26 19.9832 174.312 19.796 174.325 19.6043ZM177.119 18.8007C177.119 16.8798 178.115 15.6631 179.663 15.6631C180.046 15.6456 180.427 15.7365 180.759 15.9254C181.092 16.1143 181.364 16.3932 181.543 16.7296H181.633V13.3906H182.843V21.8427H181.684V20.8822H181.588C181.395 21.2163 181.114 21.4917 180.775 21.6787C180.436 21.8657 180.051 21.957 179.664 21.9429C178.104 21.9429 177.119 20.726 177.119 18.8006V18.8007ZM178.369 18.8007C178.369 20.09 178.982 20.866 180.006 20.866C181.026 20.866 181.656 20.0789 181.656 18.8059C181.656 17.539 181.019 16.7408 180.006 16.7408C178.988 16.7408 178.369 17.5219 178.369 18.8007ZM187.848 18.8007C187.809 18.4012 187.855 17.9982 187.983 17.6174C188.111 17.2366 188.317 16.8865 188.589 16.5895C188.862 16.2925 189.193 16.0552 189.563 15.8929C189.933 15.7305 190.334 15.6466 190.738 15.6466C191.143 15.6466 191.543 15.7305 191.913 15.8929C192.283 16.0552 192.615 16.2925 192.887 16.5895C193.159 16.8865 193.366 17.2366 193.493 17.6174C193.621 17.9982 193.667 18.4012 193.629 18.8007C193.668 19.2007 193.623 19.6044 193.495 19.9859C193.368 20.3674 193.162 20.7182 192.889 21.0159C192.617 21.3135 192.285 21.5514 191.915 21.7142C191.544 21.8769 191.143 21.961 190.738 21.961C190.333 21.961 189.932 21.8769 189.562 21.7142C189.191 21.5514 188.859 21.3135 188.587 21.0159C188.315 20.7182 188.109 20.3674 187.981 19.9859C187.854 19.6044 187.808 19.2007 187.848 18.8007ZM192.385 18.8007C192.385 17.483 191.788 16.7124 190.74 16.7124C189.689 16.7124 189.097 17.483 189.097 18.8007C189.097 20.129 189.689 20.8936 190.74 20.8936C191.788 20.8936 192.385 20.1237 192.385 18.8007ZM195.252 15.7639H196.416V16.7296H196.507C196.66 16.3827 196.919 16.0919 197.247 15.8978C197.574 15.7036 197.955 15.6158 198.336 15.6465C198.634 15.6242 198.934 15.6688 199.212 15.777C199.49 15.8851 199.741 16.054 199.945 16.2711C200.148 16.4883 200.3 16.7481 200.389 17.0313C200.478 17.3146 200.501 17.614 200.457 17.9074V21.8427H199.248V18.2088C199.248 17.2319 198.82 16.746 197.925 16.746C197.723 16.7367 197.52 16.7709 197.333 16.8463C197.145 16.9216 196.975 17.0364 196.836 17.1827C196.697 17.329 196.592 17.5034 196.527 17.694C196.462 17.8845 196.44 18.0866 196.461 18.2865V21.8428H195.252L195.252 15.7639ZM207.293 14.2504V15.7916H208.621V16.8021H207.293V19.9278C207.293 20.5646 207.557 20.8436 208.159 20.8436C208.313 20.843 208.467 20.8337 208.62 20.8157V21.8151C208.403 21.8537 208.183 21.8742 207.962 21.8764C206.617 21.8764 206.082 21.407 206.082 20.2351V16.8021H205.109V15.7915H206.082V14.2506L207.293 14.2504ZM210.273 13.3908H211.472V16.7408H211.567C211.728 16.3907 211.994 16.0983 212.328 15.9034C212.663 15.7085 213.05 15.6206 213.436 15.6517C213.733 15.6357 214.03 15.6848 214.305 15.7956C214.58 15.9064 214.828 16.076 215.029 16.2925C215.231 16.509 215.382 16.7669 215.471 17.0479C215.561 17.3289 215.587 17.626 215.547 17.9181V21.8428H214.336V18.214C214.336 17.243 213.88 16.7513 213.026 16.7513C212.818 16.7344 212.609 16.7628 212.413 16.8344C212.217 16.906 212.04 17.0192 211.893 17.166C211.746 17.3128 211.633 17.4896 211.562 17.6842C211.491 17.8788 211.464 18.0864 211.482 18.2925V21.8428H210.273V13.3908ZM222.601 20.2014C222.436 20.757 222.08 21.2376 221.595 21.5591C221.109 21.8806 220.525 22.0226 219.945 21.9601C219.541 21.9707 219.14 21.894 218.769 21.7354C218.398 21.5767 218.066 21.3399 217.797 21.0413C217.527 20.7428 217.327 20.3897 217.209 20.0065C217.091 19.6234 217.058 19.2193 217.113 18.8225C217.059 18.4244 217.093 18.0194 217.21 17.6351C217.328 17.2508 217.528 16.896 217.796 16.5949C218.063 16.2937 218.394 16.0532 218.763 15.8896C219.133 15.7259 219.534 15.643 219.939 15.6465C221.645 15.6465 222.674 16.8021 222.674 18.711V19.1296H218.345V19.1968C218.327 19.4199 218.355 19.6444 218.428 19.8561C218.502 20.0677 218.62 20.2617 218.773 20.4256C218.927 20.5896 219.114 20.7199 219.321 20.8082C219.528 20.8965 219.752 20.9408 219.978 20.9383C220.267 20.9728 220.56 20.9211 220.82 20.7899C221.08 20.6587 221.294 20.4538 221.436 20.2014H222.601ZM218.345 18.2424H221.441C221.457 18.0384 221.429 17.8334 221.359 17.6408C221.29 17.4481 221.181 17.272 221.039 17.1236C220.897 16.9753 220.725 16.8582 220.534 16.7796C220.344 16.7011 220.139 16.6629 219.933 16.6676C219.723 16.665 219.516 16.7039 219.322 16.7822C219.128 16.8604 218.952 16.9763 218.804 17.1231C218.656 17.2698 218.54 17.4445 218.461 17.6367C218.382 17.829 218.343 18.0349 218.345 18.2424Z" fill="white"/>
<defs>
<filter id="filter0_dddddd_5511_451" x="0" y="0.703704" width="322.885" height="235.296" filterUnits="userSpaceOnUse" color-interpolation-filters="sRGB">
<feFlood flood-opacity="0" result="BackgroundImageFix"/>
<feColorMatrix in="SourceAlpha" type="matrix" values="0 0 0 0 0 0 0 0 0 0 0 0 0 0 0 0 0 0 127 0" result="hardAlpha"/>
<feOffset dy="1.85185"/>
<feGaussianBlur stdDeviation="1.57407"/>
<feColorMatrix type="matrix" values="0 0 0 0 0.219608 0 0 0 0 0.219608 0 0 0 0 0.219608 0 0 0 0.0240741 0"/>
<feBlend mode="normal" in2="BackgroundImageFix" result="effect1_dropShadow_5511_451"/>
<feColorMatrix in="SourceAlpha" type="matrix" values="0 0 0 0 0 0 0 0 0 0 0 0 0 0 0 0 0 0 127 0" result="hardAlpha"/>
<feOffset dy="8.14815"/>
<feGaussianBlur stdDeviation="3.25926"/>
<feColorMatrix type="matrix" values="0 0 0 0 0.219608 0 0 0 0 0.219608 0 0 0 0 0.219608 0 0 0 0.0392593 0"/>
<feBlend mode="normal" in2="effect1_dropShadow_5511_451" result="effect2_dropShadow_5511_451"/>
<feColorMatrix in="SourceAlpha" type="matrix" values="0 0 0 0 0 0 0 0 0 0 0 0 0 0 0 0 0 0 127 0" result="hardAlpha"/>
<feOffset dy="20"/>
<feGaussianBlur stdDeviation="6.5"/>
<feColorMatrix type="matrix" values="0 0 0 0 0.219608 0 0 0 0 0.219608 0 0 0 0 0.219608 0 0 0 0.05 0"/>
<feBlend mode="normal" in2="effect2_dropShadow_5511_451" result="effect3_dropShadow_5511_451"/>
<feColorMatrix in="SourceAlpha" type="matrix" values="0 0 0 0 0 0 0 0 0 0 0 0 0 0 0 0 0 0 127 0" result="hardAlpha"/>
<feOffset dy="38.5185"/>
<feGaussianBlur stdDeviation="12.7407"/>
<feColorMatrix type="matrix" values="0 0 0 0 0.219608 0 0 0 0 0.219608 0 0 0 0 0.219608 0 0 0 0.0607407 0"/>
<feBlend mode="normal" in2="effect3_dropShadow_5511_451" result="effect4_dropShadow_5511_451"/>
<feColorMatrix in="SourceAlpha" type="matrix" values="0 0 0 0 0 0 0 0 0 0 0 0 0 0 0 0 0 0 127 0" result="hardAlpha"/>
<feOffset dy="64.8148"/>
<feGaussianBlur stdDeviation="23.4259"/>
<feColorMatrix type="matrix" values="0 0 0 0 0.219608 0 0 0 0 0.219608 0 0 0 0 0.219608 0 0 0 0.0759259 0"/>
<feBlend mode="normal" in2="effect4_dropShadow_5511_451" result="effect5_dropShadow_5511_451"/>
<feColorMatrix in="SourceAlpha" type="matrix" values="0 0 0 0 0 0 0 0 0 0 0 0 0 0 0 0 0 0 127 0" result="hardAlpha"/>
<feOffset dy="100"/>
<feGaussianBlur stdDeviation="40"/>
<feColorMatrix type="matrix" values="0 0 0 0 0.219608 0 0 0 0 0.219608 0 0 0 0 0.219608 0 0 0 0.1 0"/>
<feBlend mode="normal" in2="effect5_dropShadow_5511_451" result="effect6_dropShadow_5511_451"/>
<feBlend mode="normal" in="SourceGraphic" in2="effect6_dropShadow_5511_451" result="shape"/>
</filter>
</defs>
</svg>
