<svg width="174" height="52" viewBox="0 0 174 52" fill="none" xmlns="http://www.w3.org/2000/svg">
<rect width="174" height="52" rx="8" fill="black"/>
<path d="M60.528 12.636C61.44 12.636 62.228 12.808 62.892 13.152C63.564 13.488 64.076 13.972 64.428 14.604C64.788 15.236 64.968 15.98 64.968 16.836C64.968 17.692 64.788 18.436 64.428 19.068C64.076 19.692 63.564 20.172 62.892 20.508C62.228 20.836 61.44 21 60.528 21H57.924V12.636H60.528ZM60.528 20.1C61.608 20.1 62.432 19.816 63 19.248C63.568 18.672 63.852 17.868 63.852 16.836C63.852 15.796 63.564 14.984 62.988 14.4C62.42 13.816 61.6 13.524 60.528 13.524H59.016V20.1H60.528ZM69.2764 21.108C68.6604 21.108 68.1004 20.968 67.5964 20.688C67.1004 20.408 66.7084 20.012 66.4204 19.5C66.1404 18.98 66.0004 18.38 66.0004 17.7C66.0004 17.028 66.1444 16.436 66.4324 15.924C66.7284 15.404 67.1284 15.008 67.6324 14.736C68.1364 14.456 68.7004 14.316 69.3244 14.316C69.9484 14.316 70.5124 14.456 71.0164 14.736C71.5204 15.008 71.9164 15.4 72.2044 15.912C72.5004 16.424 72.6484 17.02 72.6484 17.7C72.6484 18.38 72.4964 18.98 72.1924 19.5C71.8964 20.012 71.4924 20.408 70.9804 20.688C70.4684 20.968 69.9004 21.108 69.2764 21.108ZM69.2764 20.148C69.6684 20.148 70.0364 20.056 70.3804 19.872C70.7244 19.688 71.0004 19.412 71.2084 19.044C71.4244 18.676 71.5324 18.228 71.5324 17.7C71.5324 17.172 71.4284 16.724 71.2204 16.356C71.0124 15.988 70.7404 15.716 70.4044 15.54C70.0684 15.356 69.7044 15.264 69.3124 15.264C68.9124 15.264 68.5444 15.356 68.2084 15.54C67.8804 15.716 67.6164 15.988 67.4164 16.356C67.2164 16.724 67.1164 17.172 67.1164 17.7C67.1164 18.236 67.2124 18.688 67.4044 19.056C67.6044 19.424 67.8684 19.7 68.1964 19.884C68.5244 20.06 68.8844 20.148 69.2764 20.148ZM82.8442 14.424L80.7922 21H79.6642L78.0802 15.78L76.4962 21H75.3682L73.3042 14.424H74.4202L75.9322 19.944L77.5642 14.424H78.6802L80.2762 19.956L81.7642 14.424H82.8442ZM87.1319 14.304C87.9319 14.304 88.5799 14.548 89.0759 15.036C89.5719 15.516 89.8199 16.212 89.8199 17.124V21H88.7399V17.28C88.7399 16.624 88.5759 16.124 88.2479 15.78C87.9199 15.428 87.4719 15.252 86.9039 15.252C86.3279 15.252 85.8679 15.432 85.5239 15.792C85.1879 16.152 85.0199 16.676 85.0199 17.364V21H83.9279V14.424H85.0199V15.36C85.2359 15.024 85.5279 14.764 85.8959 14.58C86.2719 14.396 86.6839 14.304 87.1319 14.304ZM92.6957 12.12V21H91.6037V12.12H92.6957ZM97.4248 21.108C96.8088 21.108 96.2488 20.968 95.7448 20.688C95.2488 20.408 94.8568 20.012 94.5688 19.5C94.2888 18.98 94.1488 18.38 94.1488 17.7C94.1488 17.028 94.2928 16.436 94.5808 15.924C94.8768 15.404 95.2768 15.008 95.7808 14.736C96.2848 14.456 96.8488 14.316 97.4728 14.316C98.0968 14.316 98.6608 14.456 99.1648 14.736C99.6688 15.008 100.065 15.4 100.353 15.912C100.649 16.424 100.797 17.02 100.797 17.7C100.797 18.38 100.645 18.98 100.341 19.5C100.045 20.012 99.6408 20.408 99.1288 20.688C98.6168 20.968 98.0488 21.108 97.4248 21.108ZM97.4248 20.148C97.8168 20.148 98.1848 20.056 98.5288 19.872C98.8728 19.688 99.1488 19.412 99.3568 19.044C99.5728 18.676 99.6808 18.228 99.6808 17.7C99.6808 17.172 99.5768 16.724 99.3688 16.356C99.1608 15.988 98.8888 15.716 98.5528 15.54C98.2168 15.356 97.8528 15.264 97.4608 15.264C97.0608 15.264 96.6928 15.356 96.3568 15.54C96.0288 15.716 95.7648 15.988 95.5648 16.356C95.3648 16.724 95.2648 17.172 95.2648 17.7C95.2648 18.236 95.3608 18.688 95.5528 19.056C95.7528 19.424 96.0168 19.7 96.3448 19.884C96.6728 20.06 97.0328 20.148 97.4248 20.148ZM101.825 17.688C101.825 17.016 101.961 16.428 102.233 15.924C102.505 15.412 102.877 15.016 103.349 14.736C103.829 14.456 104.361 14.316 104.945 14.316C105.521 14.316 106.021 14.44 106.445 14.688C106.869 14.936 107.185 15.248 107.393 15.624V14.424H108.497V21H107.393V19.776C107.177 20.16 106.853 20.48 106.421 20.736C105.997 20.984 105.501 21.108 104.933 21.108C104.349 21.108 103.821 20.964 103.349 20.676C102.877 20.388 102.505 19.984 102.233 19.464C101.961 18.944 101.825 18.352 101.825 17.688ZM107.393 17.7C107.393 17.204 107.293 16.772 107.093 16.404C106.893 16.036 106.621 15.756 106.277 15.564C105.941 15.364 105.569 15.264 105.161 15.264C104.753 15.264 104.381 15.36 104.045 15.552C103.709 15.744 103.441 16.024 103.241 16.392C103.041 16.76 102.941 17.192 102.941 17.688C102.941 18.192 103.041 18.632 103.241 19.008C103.441 19.376 103.709 19.66 104.045 19.86C104.381 20.052 104.753 20.148 105.161 20.148C105.569 20.148 105.941 20.052 106.277 19.86C106.621 19.66 106.893 19.376 107.093 19.008C107.293 18.632 107.393 18.196 107.393 17.7ZM109.934 17.688C109.934 17.016 110.07 16.428 110.342 15.924C110.614 15.412 110.986 15.016 111.458 14.736C111.938 14.456 112.474 14.316 113.066 14.316C113.578 14.316 114.054 14.436 114.494 14.676C114.934 14.908 115.27 15.216 115.502 15.6V12.12H116.606V21H115.502V19.764C115.286 20.156 114.966 20.48 114.542 20.736C114.118 20.984 113.622 21.108 113.054 21.108C112.47 21.108 111.938 20.964 111.458 20.676C110.986 20.388 110.614 19.984 110.342 19.464C110.07 18.944 109.934 18.352 109.934 17.688ZM115.502 17.7C115.502 17.204 115.402 16.772 115.202 16.404C115.002 16.036 114.73 15.756 114.386 15.564C114.05 15.364 113.678 15.264 113.27 15.264C112.862 15.264 112.49 15.36 112.154 15.552C111.818 15.744 111.55 16.024 111.35 16.392C111.15 16.76 111.05 17.192 111.05 17.688C111.05 18.192 111.15 18.632 111.35 19.008C111.55 19.376 111.818 19.66 112.154 19.86C112.49 20.052 112.862 20.148 113.27 20.148C113.678 20.148 114.05 20.052 114.386 19.86C114.73 19.66 115.002 19.376 115.202 19.008C115.402 18.632 115.502 18.196 115.502 17.7ZM124.327 15.324H122.947V21H121.855V15.324H121.003V14.424H121.855V13.956C121.855 13.22 122.043 12.684 122.419 12.348C122.803 12.004 123.415 11.832 124.255 11.832V12.744C123.775 12.744 123.435 12.84 123.235 13.032C123.043 13.216 122.947 13.524 122.947 13.956V14.424H124.327V15.324ZM126.692 15.492C126.884 15.116 127.156 14.824 127.508 14.616C127.868 14.408 128.304 14.304 128.816 14.304V15.432H128.528C127.304 15.432 126.692 16.096 126.692 17.424V21H125.6V14.424H126.692V15.492ZM132.944 21.108C132.328 21.108 131.768 20.968 131.264 20.688C130.768 20.408 130.376 20.012 130.088 19.5C129.808 18.98 129.668 18.38 129.668 17.7C129.668 17.028 129.812 16.436 130.1 15.924C130.396 15.404 130.796 15.008 131.3 14.736C131.804 14.456 132.368 14.316 132.992 14.316C133.616 14.316 134.18 14.456 134.684 14.736C135.188 15.008 135.584 15.4 135.872 15.912C136.168 16.424 136.316 17.02 136.316 17.7C136.316 18.38 136.164 18.98 135.86 19.5C135.564 20.012 135.16 20.408 134.648 20.688C134.136 20.968 133.568 21.108 132.944 21.108ZM132.944 20.148C133.336 20.148 133.704 20.056 134.048 19.872C134.392 19.688 134.668 19.412 134.876 19.044C135.092 18.676 135.2 18.228 135.2 17.7C135.2 17.172 135.096 16.724 134.888 16.356C134.68 15.988 134.408 15.716 134.072 15.54C133.736 15.356 133.372 15.264 132.98 15.264C132.58 15.264 132.212 15.356 131.876 15.54C131.548 15.716 131.284 15.988 131.084 16.356C130.884 16.724 130.784 17.172 130.784 17.7C130.784 18.236 130.88 18.688 131.072 19.056C131.272 19.424 131.536 19.7 131.864 19.884C132.192 20.06 132.552 20.148 132.944 20.148ZM145.66 14.304C146.172 14.304 146.628 14.412 147.028 14.628C147.428 14.836 147.744 15.152 147.976 15.576C148.208 16 148.324 16.516 148.324 17.124V21H147.244V17.28C147.244 16.624 147.08 16.124 146.752 15.78C146.432 15.428 145.996 15.252 145.444 15.252C144.876 15.252 144.424 15.436 144.088 15.804C143.752 16.164 143.584 16.688 143.584 17.376V21H142.504V17.28C142.504 16.624 142.34 16.124 142.012 15.78C141.692 15.428 141.256 15.252 140.704 15.252C140.136 15.252 139.684 15.436 139.348 15.804C139.012 16.164 138.844 16.688 138.844 17.376V21H137.752V14.424H138.844V15.372C139.06 15.028 139.348 14.764 139.708 14.58C140.076 14.396 140.48 14.304 140.92 14.304C141.472 14.304 141.96 14.428 142.384 14.676C142.808 14.924 143.124 15.288 143.332 15.768C143.516 15.304 143.82 14.944 144.244 14.688C144.668 14.432 145.14 14.304 145.66 14.304Z" fill="white" fill-opacity="0.9"/>
<path d="M63.916 37.012H59.842L59.142 39H57.476L60.962 29.256H62.81L66.296 39H64.616L63.916 37.012ZM63.468 35.71L61.886 31.188L60.29 35.71H63.468ZM69.4077 32.42C69.6784 32.0653 70.0471 31.7667 70.5137 31.524C70.9804 31.2813 71.5077 31.16 72.0957 31.16C72.7677 31.16 73.3791 31.328 73.9297 31.664C74.4897 31.9907 74.9284 32.4527 75.2457 33.05C75.5631 33.6473 75.7217 34.3333 75.7217 35.108C75.7217 35.8827 75.5631 36.578 75.2457 37.194C74.9284 37.8007 74.4897 38.2767 73.9297 38.622C73.3791 38.958 72.7677 39.126 72.0957 39.126C71.5077 39.126 70.9851 39.0093 70.5277 38.776C70.0704 38.5333 69.6971 38.2347 69.4077 37.88V42.668H67.8117V31.286H69.4077V32.42ZM74.0977 35.108C74.0977 34.576 73.9857 34.1187 73.7617 33.736C73.5471 33.344 73.2577 33.05 72.8937 32.854C72.5391 32.6487 72.1564 32.546 71.7457 32.546C71.3444 32.546 70.9617 32.6487 70.5977 32.854C70.2431 33.0593 69.9537 33.358 69.7297 33.75C69.5151 34.142 69.4077 34.604 69.4077 35.136C69.4077 35.668 69.5151 36.1347 69.7297 36.536C69.9537 36.928 70.2431 37.2267 70.5977 37.432C70.9617 37.6373 71.3444 37.74 71.7457 37.74C72.1564 37.74 72.5391 37.6373 72.8937 37.432C73.2577 37.2173 73.5471 36.9093 73.7617 36.508C73.9857 36.1067 74.0977 35.64 74.0977 35.108ZM78.896 32.42C79.1667 32.0653 79.5353 31.7667 80.002 31.524C80.4687 31.2813 80.996 31.16 81.584 31.16C82.256 31.16 82.8673 31.328 83.418 31.664C83.978 31.9907 84.4167 32.4527 84.734 33.05C85.0513 33.6473 85.21 34.3333 85.21 35.108C85.21 35.8827 85.0513 36.578 84.734 37.194C84.4167 37.8007 83.978 38.2767 83.418 38.622C82.8673 38.958 82.256 39.126 81.584 39.126C80.996 39.126 80.4733 39.0093 80.016 38.776C79.5587 38.5333 79.1853 38.2347 78.896 37.88V42.668H77.3V31.286H78.896V32.42ZM83.586 35.108C83.586 34.576 83.474 34.1187 83.25 33.736C83.0353 33.344 82.746 33.05 82.382 32.854C82.0273 32.6487 81.6447 32.546 81.234 32.546C80.8327 32.546 80.45 32.6487 80.086 32.854C79.7313 33.0593 79.442 33.358 79.218 33.75C79.0033 34.142 78.896 34.604 78.896 35.136C78.896 35.668 79.0033 36.1347 79.218 36.536C79.442 36.928 79.7313 37.2267 80.086 37.432C80.45 37.6373 80.8327 37.74 81.234 37.74C81.6447 37.74 82.0273 37.6373 82.382 37.432C82.746 37.2173 83.0353 36.9093 83.25 36.508C83.474 36.1067 83.586 35.64 83.586 35.108ZM88.3843 28.64V39H86.7883V28.64H88.3843ZM97.5497 34.954C97.5497 35.2433 97.531 35.5047 97.4937 35.738H91.5997C91.6464 36.354 91.875 36.8487 92.2857 37.222C92.6964 37.5953 93.2004 37.782 93.7977 37.782C94.6564 37.782 95.263 37.4227 95.6177 36.704H97.3397C97.1064 37.4133 96.6817 37.9967 96.0657 38.454C95.459 38.902 94.703 39.126 93.7977 39.126C93.0604 39.126 92.3977 38.9627 91.8097 38.636C91.231 38.3 90.7737 37.8333 90.4377 37.236C90.111 36.6293 89.9477 35.9293 89.9477 35.136C89.9477 34.3427 90.1064 33.6473 90.4237 33.05C90.7504 32.4433 91.203 31.9767 91.7817 31.65C92.3697 31.3233 93.0417 31.16 93.7977 31.16C94.5257 31.16 95.1744 31.3187 95.7437 31.636C96.313 31.9533 96.7564 32.4013 97.0737 32.98C97.391 33.5493 97.5497 34.2073 97.5497 34.954ZM95.8837 34.45C95.8744 33.862 95.6644 33.3907 95.2537 33.036C94.843 32.6813 94.3344 32.504 93.7277 32.504C93.177 32.504 92.7057 32.6813 92.3137 33.036C91.9217 33.3813 91.6884 33.8527 91.6137 34.45H95.8837ZM105.963 39.098C105.31 39.098 104.722 38.986 104.199 38.762C103.676 38.5287 103.266 38.202 102.967 37.782C102.668 37.362 102.519 36.872 102.519 36.312H104.227C104.264 36.732 104.428 37.0773 104.717 37.348C105.016 37.6187 105.431 37.754 105.963 37.754C106.514 37.754 106.943 37.6233 107.251 37.362C107.559 37.0913 107.713 36.746 107.713 36.326C107.713 35.9993 107.615 35.7333 107.419 35.528C107.232 35.3227 106.994 35.164 106.705 35.052C106.425 34.94 106.033 34.8187 105.529 34.688C104.894 34.52 104.376 34.352 103.975 34.184C103.583 34.0067 103.247 33.736 102.967 33.372C102.687 33.008 102.547 32.5227 102.547 31.916C102.547 31.356 102.687 30.866 102.967 30.446C103.247 30.026 103.639 29.704 104.143 29.48C104.647 29.256 105.23 29.144 105.893 29.144C106.836 29.144 107.606 29.382 108.203 29.858C108.81 30.3247 109.146 30.9687 109.211 31.79H107.447C107.419 31.4353 107.251 31.132 106.943 30.88C106.635 30.628 106.229 30.502 105.725 30.502C105.268 30.502 104.894 30.6187 104.605 30.852C104.316 31.0853 104.171 31.4213 104.171 31.86C104.171 32.1587 104.26 32.406 104.437 32.602C104.624 32.7887 104.857 32.938 105.137 33.05C105.417 33.162 105.8 33.2833 106.285 33.414C106.929 33.5913 107.452 33.7687 107.853 33.946C108.264 34.1233 108.609 34.3987 108.889 34.772C109.178 35.136 109.323 35.626 109.323 36.242C109.323 36.7367 109.188 37.2033 108.917 37.642C108.656 38.0807 108.268 38.4353 107.755 38.706C107.251 38.9673 106.654 39.098 105.963 39.098ZM113.068 32.588V36.858C113.068 37.1473 113.134 37.3573 113.264 37.488C113.404 37.6093 113.638 37.67 113.964 37.67H114.944V39H113.684C112.966 39 112.415 38.832 112.032 38.496C111.65 38.16 111.458 37.614 111.458 36.858V32.588H110.548V31.286H111.458V29.368H113.068V31.286H114.944V32.588H113.068ZM119.761 39.126C119.033 39.126 118.375 38.9627 117.787 38.636C117.199 38.3 116.737 37.8333 116.401 37.236C116.065 36.6293 115.897 35.9293 115.897 35.136C115.897 34.352 116.07 33.6567 116.415 33.05C116.761 32.4433 117.232 31.9767 117.829 31.65C118.427 31.3233 119.094 31.16 119.831 31.16C120.569 31.16 121.236 31.3233 121.833 31.65C122.431 31.9767 122.902 32.4433 123.247 33.05C123.593 33.6567 123.765 34.352 123.765 35.136C123.765 35.92 123.588 36.6153 123.233 37.222C122.879 37.8287 122.393 38.3 121.777 38.636C121.171 38.9627 120.499 39.126 119.761 39.126ZM119.761 37.74C120.172 37.74 120.555 37.642 120.909 37.446C121.273 37.25 121.567 36.956 121.791 36.564C122.015 36.172 122.127 35.696 122.127 35.136C122.127 34.576 122.02 34.1047 121.805 33.722C121.591 33.33 121.306 33.036 120.951 32.84C120.597 32.644 120.214 32.546 119.803 32.546C119.393 32.546 119.01 32.644 118.655 32.84C118.31 33.036 118.035 33.33 117.829 33.722C117.624 34.1047 117.521 34.576 117.521 35.136C117.521 35.9667 117.731 36.6107 118.151 37.068C118.581 37.516 119.117 37.74 119.761 37.74ZM126.939 32.406C127.172 32.014 127.48 31.7107 127.863 31.496C128.255 31.272 128.717 31.16 129.249 31.16V32.812H128.843C128.218 32.812 127.742 32.9707 127.415 33.288C127.098 33.6053 126.939 34.156 126.939 34.94V39H125.343V31.286H126.939V32.406ZM137.786 34.954C137.786 35.2433 137.767 35.5047 137.73 35.738H131.836C131.883 36.354 132.111 36.8487 132.522 37.222C132.933 37.5953 133.437 37.782 134.034 37.782C134.893 37.782 135.499 37.4227 135.854 36.704H137.576C137.343 37.4133 136.918 37.9967 136.302 38.454C135.695 38.902 134.939 39.126 134.034 39.126C133.297 39.126 132.634 38.9627 132.046 38.636C131.467 38.3 131.01 37.8333 130.674 37.236C130.347 36.6293 130.184 35.9293 130.184 35.136C130.184 34.3427 130.343 33.6473 130.66 33.05C130.987 32.4433 131.439 31.9767 132.018 31.65C132.606 31.3233 133.278 31.16 134.034 31.16C134.762 31.16 135.411 31.3187 135.98 31.636C136.549 31.9533 136.993 32.4013 137.31 32.98C137.627 33.5493 137.786 34.2073 137.786 34.954ZM136.12 34.45C136.111 33.862 135.901 33.3907 135.49 33.036C135.079 32.6813 134.571 32.504 133.964 32.504C133.413 32.504 132.942 32.6813 132.55 33.036C132.158 33.3813 131.925 33.8527 131.85 34.45H136.12Z" fill="white" fill-opacity="0.9"/>
<path fill-rule="evenodd" clip-rule="evenodd" d="M37.9741 16.132C38.9176 15.0384 39.5536 13.5154 39.3795 12C38.0199 12.0518 36.375 12.8685 35.4001 13.9608C34.5246 14.93 33.7604 16.4788 33.9658 17.9644C35.4825 18.077 37.0306 17.2267 37.9741 16.132ZM41.3752 25.75C41.4131 29.6672 44.9607 30.9703 45 30.9871C44.9712 31.079 44.4334 32.8439 43.1313 34.6685C42.0046 36.2448 40.836 37.8146 38.9948 37.8482C37.1863 37.8806 36.604 36.8208 34.5351 36.8208C32.4675 36.8208 31.821 37.8145 30.1094 37.8805C28.3323 37.9439 26.9779 36.1751 25.8433 34.6041C23.5218 31.3908 21.7487 25.5236 24.1303 21.5637C25.3133 19.598 27.4267 18.3513 29.722 18.3202C31.4664 18.2878 33.1139 19.445 34.1804 19.445C35.247 19.445 37.2491 18.0538 39.3534 18.2583C40.2341 18.2932 42.7073 18.5985 44.2947 20.8257C44.1664 20.902 41.3438 22.4759 41.3752 25.75Z" fill="white"/>
</svg>
