<svg width="176" height="52" viewBox="0 0 176 52" fill="none" xmlns="http://www.w3.org/2000/svg">
<path d="M169 52H6.5C2.86 52 0 49.14 0 45.5V6.5C0 2.86 2.86 0 6.5 0H169C172.64 0 175.5 2.86 175.5 6.5V45.5C175.5 49.14 172.64 52 169 52Z" fill="black"/>
<path d="M169 1.04C171.99 1.04 174.46 3.51 174.46 6.5V45.5C174.46 48.49 171.99 50.96 169 50.96H6.5C3.51 50.96 1.04 48.49 1.04 45.5V6.5C1.04 3.51 3.51 1.04 6.5 1.04H169ZM169 0H6.5C2.86 0 0 2.99 0 6.5V45.5C0 49.14 2.86 52 6.5 52H169C172.64 52 175.5 49.14 175.5 45.5V6.5C175.5 2.99 172.64 0 169 0Z" fill="#A6A6A6"/>
<mask id="path-3-inside-1_1_1743" fill="white">
<path d="M61.6203 13.2605C61.6203 14.3005 61.3603 15.2105 60.7103 15.8605C59.9303 16.6405 59.0203 17.0305 57.8503 17.0305C56.6803 17.0305 55.7703 16.6405 54.9903 15.8605C54.2103 15.0805 53.8203 14.1705 53.8203 13.0005C53.8203 11.8305 54.2103 10.9205 54.9903 10.1405C55.7703 9.36046 56.6803 8.97046 57.8503 8.97046C58.3703 8.97046 58.8903 9.10046 59.4103 9.36046C59.9303 9.62046 60.3203 9.88046 60.5803 10.2705L59.9303 10.9205C59.4103 10.2705 58.7603 10.0105 57.8503 10.0105C57.0703 10.0105 56.2903 10.2705 55.7703 10.9205C55.1203 11.4405 54.8603 12.2205 54.8603 13.1305C54.8603 14.0405 55.1203 14.8205 55.7703 15.3405C56.4203 15.8605 57.0703 16.2505 57.8503 16.2505C58.7603 16.2505 59.4103 15.9905 60.0603 15.3405C60.4503 14.9505 60.7103 14.4305 60.7103 13.7805H57.8503V12.7405H61.6203V13.2605ZM67.6003 10.0105H64.0903V12.4805H67.3403V13.3905H64.0903V15.8605H67.6003V16.9005H63.0503V9.10046H67.6003V10.0105ZM71.8903 16.9005H70.8503V10.0105H68.6403V9.10046H74.1003V10.0105H71.8903V16.9005ZM77.8703 16.9005V9.10046H78.9103V16.9005H77.8703ZM83.3303 16.9005H82.2903V10.0105H80.0803V9.10046H85.4103V10.0105H83.2003V16.9005H83.3303ZM95.6803 15.8605C94.9003 16.6405 93.9903 17.0305 92.8203 17.0305C91.6503 17.0305 90.7403 16.6405 89.9603 15.8605C89.1803 15.0805 88.7903 14.1705 88.7903 13.0005C88.7903 11.8305 89.1803 10.9205 89.9603 10.1405C90.7403 9.36046 91.6503 8.97046 92.8203 8.97046C93.9903 8.97046 94.9003 9.36046 95.6803 10.1405C96.4603 10.9205 96.8503 11.8305 96.8503 13.0005C96.8503 14.1705 96.4603 15.0805 95.6803 15.8605ZM90.7403 15.2105C91.2603 15.7305 92.0403 16.1205 92.8203 16.1205C93.6003 16.1205 94.3803 15.8605 94.9003 15.2105C95.4203 14.6905 95.8103 13.9105 95.8103 13.0005C95.8103 12.0905 95.5503 11.3105 94.9003 10.7905C94.3803 10.2705 93.6003 9.88046 92.8203 9.88046C92.0403 9.88046 91.2603 10.1405 90.7403 10.7905C90.2203 11.3105 89.8303 12.0905 89.8303 13.0005C89.8303 13.9105 90.0903 14.6905 90.7403 15.2105ZM98.2803 16.9005V9.10046H99.4503L103.22 15.2105V9.10046H104.26V16.9005H103.22L99.1903 10.5305V16.9005H98.2803Z"/>
</mask>
<path d="M61.6203 13.2605C61.6203 14.3005 61.3603 15.2105 60.7103 15.8605C59.9303 16.6405 59.0203 17.0305 57.8503 17.0305C56.6803 17.0305 55.7703 16.6405 54.9903 15.8605C54.2103 15.0805 53.8203 14.1705 53.8203 13.0005C53.8203 11.8305 54.2103 10.9205 54.9903 10.1405C55.7703 9.36046 56.6803 8.97046 57.8503 8.97046C58.3703 8.97046 58.8903 9.10046 59.4103 9.36046C59.9303 9.62046 60.3203 9.88046 60.5803 10.2705L59.9303 10.9205C59.4103 10.2705 58.7603 10.0105 57.8503 10.0105C57.0703 10.0105 56.2903 10.2705 55.7703 10.9205C55.1203 11.4405 54.8603 12.2205 54.8603 13.1305C54.8603 14.0405 55.1203 14.8205 55.7703 15.3405C56.4203 15.8605 57.0703 16.2505 57.8503 16.2505C58.7603 16.2505 59.4103 15.9905 60.0603 15.3405C60.4503 14.9505 60.7103 14.4305 60.7103 13.7805H57.8503V12.7405H61.6203V13.2605ZM67.6003 10.0105H64.0903V12.4805H67.3403V13.3905H64.0903V15.8605H67.6003V16.9005H63.0503V9.10046H67.6003V10.0105ZM71.8903 16.9005H70.8503V10.0105H68.6403V9.10046H74.1003V10.0105H71.8903V16.9005ZM77.8703 16.9005V9.10046H78.9103V16.9005H77.8703ZM83.3303 16.9005H82.2903V10.0105H80.0803V9.10046H85.4103V10.0105H83.2003V16.9005H83.3303ZM95.6803 15.8605C94.9003 16.6405 93.9903 17.0305 92.8203 17.0305C91.6503 17.0305 90.7403 16.6405 89.9603 15.8605C89.1803 15.0805 88.7903 14.1705 88.7903 13.0005C88.7903 11.8305 89.1803 10.9205 89.9603 10.1405C90.7403 9.36046 91.6503 8.97046 92.8203 8.97046C93.9903 8.97046 94.9003 9.36046 95.6803 10.1405C96.4603 10.9205 96.8503 11.8305 96.8503 13.0005C96.8503 14.1705 96.4603 15.0805 95.6803 15.8605ZM90.7403 15.2105C91.2603 15.7305 92.0403 16.1205 92.8203 16.1205C93.6003 16.1205 94.3803 15.8605 94.9003 15.2105C95.4203 14.6905 95.8103 13.9105 95.8103 13.0005C95.8103 12.0905 95.5503 11.3105 94.9003 10.7905C94.3803 10.2705 93.6003 9.88046 92.8203 9.88046C92.0403 9.88046 91.2603 10.1405 90.7403 10.7905C90.2203 11.3105 89.8303 12.0905 89.8303 13.0005C89.8303 13.9105 90.0903 14.6905 90.7403 15.2105ZM98.2803 16.9005V9.10046H99.4503L103.22 15.2105V9.10046H104.26V16.9005H103.22L99.1903 10.5305V16.9005H98.2803Z" fill="white"/>
<path d="M60.5803 10.2705L61.4184 11.1085L62.1054 10.4215L61.5664 9.61304L60.5803 10.2705ZM59.9303 10.9205L59.0048 11.6608L59.832 12.6948L60.7684 11.7585L59.9303 10.9205ZM55.7703 10.9205L56.5107 11.8459L56.6135 11.7637L56.6958 11.6608L55.7703 10.9205ZM60.7103 13.7805H61.8955V12.5953H60.7103V13.7805ZM57.8503 13.7805H56.6651V14.9656H57.8503V13.7805ZM57.8503 12.7405V11.5553H56.6651V12.7405H57.8503ZM61.6203 12.7405H62.8055V11.5553H61.6203V12.7405ZM67.6003 10.0105V11.1956H68.7855V10.0105H67.6003ZM64.0903 10.0105V8.82527H62.9051V10.0105H64.0903ZM64.0903 12.4805H62.9051V13.6656H64.0903V12.4805ZM67.3403 12.4805H68.5255V11.2953H67.3403V12.4805ZM67.3403 13.3905V14.5756H68.5255V13.3905H67.3403ZM64.0903 13.3905V12.2053H62.9051V13.3905H64.0903ZM64.0903 15.8605H62.9051V17.0456H64.0903V15.8605ZM67.6003 15.8605H68.7855V14.6753H67.6003V15.8605ZM67.6003 16.9005V18.0856H68.7855V16.9005H67.6003ZM63.0503 16.9005H61.8651V18.0856H63.0503V16.9005ZM63.0503 9.10046V7.91527H61.8651V9.10046H63.0503ZM67.6003 9.10046H68.7855V7.91527H67.6003V9.10046ZM71.8903 16.9005V18.0856H73.0755V16.9005H71.8903ZM70.8503 16.9005H69.6651V18.0856H70.8503V16.9005ZM70.8503 10.0105H72.0355V8.82527H70.8503V10.0105ZM68.6403 10.0105H67.4551V11.1956H68.6403V10.0105ZM68.6403 9.10046V7.91527H67.4551V9.10046H68.6403ZM74.1003 9.10046H75.2855V7.91527H74.1003V9.10046ZM74.1003 10.0105V11.1956H75.2855V10.0105H74.1003ZM71.8903 10.0105V8.82527H70.7051V10.0105H71.8903ZM77.8703 16.9005H76.6851V18.0856H77.8703V16.9005ZM77.8703 9.10046V7.91527H76.6851V9.10046H77.8703ZM78.9103 9.10046H80.0955V7.91527H78.9103V9.10046ZM78.9103 16.9005V18.0856H80.0955V16.9005H78.9103ZM82.2903 16.9005H81.1051V18.0856H82.2903V16.9005ZM82.2903 10.0105H83.4755V8.82527H82.2903V10.0105ZM80.0803 10.0105H78.8951V11.1956H80.0803V10.0105ZM80.0803 9.10046V7.91527H78.8951V9.10046H80.0803ZM85.4103 9.10046H86.5955V7.91527H85.4103V9.10046ZM85.4103 10.0105V11.1956H86.5955V10.0105H85.4103ZM83.2003 10.0105V8.82527H82.0151V10.0105H83.2003ZM83.2003 16.9005H82.0151V18.0856H83.2003V16.9005ZM90.7403 15.2105L91.5784 14.3724L91.5319 14.326L91.4807 14.285L90.7403 15.2105ZM94.9003 15.2105L94.0623 14.3724L94.0158 14.4188L93.9748 14.4701L94.9003 15.2105ZM94.9003 10.7905L94.0623 11.6285L94.1087 11.6749L94.1599 11.7159L94.9003 10.7905ZM90.7403 10.7905L91.5784 11.6285L91.6248 11.5821L91.6658 11.5308L90.7403 10.7905ZM98.2803 16.9005H97.0951V18.0856H98.2803V16.9005ZM98.2803 9.10046V7.91527H97.0951V9.10046H98.2803ZM99.4503 9.10046L100.459 8.47811L100.112 7.91527H99.4503V9.10046ZM103.22 15.2105L102.212 15.8328L104.405 19.3883V15.2105H103.22ZM103.22 9.10046V7.91527H102.035V9.10046H103.22ZM104.26 9.10046H105.445V7.91527H104.26V9.10046ZM104.26 16.9005V18.0856H105.445V16.9005H104.26ZM103.22 16.9005L102.219 17.5341L102.568 18.0856H103.22V16.9005ZM99.1903 10.5305L100.192 9.89681L98.0051 6.44032V10.5305H99.1903ZM99.1903 16.9005V18.0856H100.375V16.9005H99.1903ZM60.4351 13.2605C60.4351 14.1178 60.2216 14.6731 59.8723 15.0224L61.5484 16.6985C62.499 15.7479 62.8055 14.4831 62.8055 13.2605H60.4351ZM59.8723 15.0224C59.315 15.5797 58.7066 15.8453 57.8503 15.8453V18.2156C59.334 18.2156 60.5457 17.7012 61.5484 16.6985L59.8723 15.0224ZM57.8503 15.8453C56.994 15.8453 56.3857 15.5797 55.8284 15.0224L54.1523 16.6985C55.155 17.7012 56.3666 18.2156 57.8503 18.2156V15.8453ZM55.8284 15.0224C55.2711 14.4651 55.0055 13.8567 55.0055 13.0005H52.6351C52.6351 14.4842 53.1496 15.6958 54.1523 16.6985L55.8284 15.0224ZM55.0055 13.0005C55.0055 12.1442 55.2711 11.5358 55.8284 10.9785L54.1523 9.30241C53.1496 10.3051 52.6351 11.5167 52.6351 13.0005H55.0055ZM55.8284 10.9785C56.3857 10.4212 56.994 10.1556 57.8503 10.1556V7.78527C56.3666 7.78527 55.155 8.29971 54.1523 9.30241L55.8284 10.9785ZM57.8503 10.1556C58.1656 10.1556 58.5052 10.233 58.8803 10.4205L59.9403 8.3004C59.2754 7.96793 58.5751 7.78527 57.8503 7.78527V10.1556ZM58.8803 10.4205C59.3497 10.6553 59.51 10.8016 59.5942 10.9279L61.5664 9.61304C61.1307 8.95936 60.5109 8.58566 59.9403 8.3004L58.8803 10.4205ZM59.7423 9.43241L59.0923 10.0824L60.7684 11.7585L61.4184 11.1085L59.7423 9.43241ZM60.8558 10.1801C60.0658 9.19255 59.0414 8.82527 57.8503 8.82527V11.1956C58.4793 11.1956 58.7549 11.3484 59.0048 11.6608L60.8558 10.1801ZM57.8503 8.82527C56.8214 8.82527 55.6511 9.17231 54.8448 10.1801L56.6958 11.6608C56.9296 11.3686 57.3192 11.1956 57.8503 11.1956V8.82527ZM55.0299 9.99498C54.0042 10.8156 53.6751 12.0021 53.6751 13.1305H56.0455C56.0455 12.4388 56.2365 12.0653 56.5107 11.8459L55.0299 9.99498ZM53.6751 13.1305C53.6751 14.2588 54.0042 15.4453 55.0299 16.2659L56.5107 14.415C56.2365 14.1956 56.0455 13.8221 56.0455 13.1305H53.6751ZM55.0299 16.2659C55.729 16.8252 56.6496 17.4356 57.8503 17.4356V15.0653C57.491 15.0653 57.1116 14.8957 56.5107 14.415L55.0299 16.2659ZM57.8503 17.4356C58.4211 17.4356 58.9701 17.3536 59.5016 17.1362C60.0339 16.9184 60.4867 16.5901 60.8984 16.1785L59.2223 14.5024C58.9839 14.7408 58.7868 14.8675 58.6041 14.9423C58.4205 15.0174 58.1895 15.0653 57.8503 15.0653V17.4356ZM60.8984 16.1785C61.4862 15.5907 61.8955 14.7777 61.8955 13.7805H59.5251C59.5251 14.0832 59.4144 14.3103 59.2223 14.5024L60.8984 16.1785ZM60.7103 12.5953H57.8503V14.9656H60.7103V12.5953ZM59.0355 13.7805V12.7405H56.6651V13.7805H59.0355ZM57.8503 13.9256H61.6203V11.5553H57.8503V13.9256ZM60.4351 12.7405V13.2605H62.8055V12.7405H60.4351ZM67.6003 8.82527H64.0903V11.1956H67.6003V8.82527ZM62.9051 10.0105V12.4805H65.2755V10.0105H62.9051ZM64.0903 13.6656H67.3403V11.2953H64.0903V13.6656ZM66.1551 12.4805V13.3905H68.5255V12.4805H66.1551ZM67.3403 12.2053H64.0903V14.5756H67.3403V12.2053ZM62.9051 13.3905V15.8605H65.2755V13.3905H62.9051ZM64.0903 17.0456H67.6003V14.6753H64.0903V17.0456ZM66.4151 15.8605V16.9005H68.7855V15.8605H66.4151ZM67.6003 15.7153H63.0503V18.0856H67.6003V15.7153ZM64.2355 16.9005V9.10046H61.8651V16.9005H64.2355ZM63.0503 10.2856H67.6003V7.91527H63.0503V10.2856ZM66.4151 9.10046V10.0105H68.7855V9.10046H66.4151ZM71.8903 15.7153H70.8503V18.0856H71.8903V15.7153ZM72.0355 16.9005V10.0105H69.6651V16.9005H72.0355ZM70.8503 8.82527H68.6403V11.1956H70.8503V8.82527ZM69.8255 10.0105V9.10046H67.4551V10.0105H69.8255ZM68.6403 10.2856H74.1003V7.91527H68.6403V10.2856ZM72.9151 9.10046V10.0105H75.2855V9.10046H72.9151ZM74.1003 8.82527H71.8903V11.1956H74.1003V8.82527ZM70.7051 10.0105V16.9005H73.0755V10.0105H70.7051ZM79.0555 16.9005V9.10046H76.6851V16.9005H79.0555ZM77.8703 10.2856H78.9103V7.91527H77.8703V10.2856ZM77.7251 9.10046V16.9005H80.0955V9.10046H77.7251ZM78.9103 15.7153H77.8703V18.0856H78.9103V15.7153ZM83.3303 15.7153H82.2903V18.0856H83.3303V15.7153ZM83.4755 16.9005V10.0105H81.1051V16.9005H83.4755ZM82.2903 8.82527H80.0803V11.1956H82.2903V8.82527ZM81.2655 10.0105V9.10046H78.8951V10.0105H81.2655ZM80.0803 10.2856H85.4103V7.91527H80.0803V10.2856ZM84.2251 9.10046V10.0105H86.5955V9.10046H84.2251ZM85.4103 8.82527H83.2003V11.1956H85.4103V8.82527ZM82.0151 10.0105V16.9005H84.3855V10.0105H82.0151ZM83.2003 18.0856H83.3303V15.7153H83.2003V18.0856ZM94.8423 15.0224C94.285 15.5797 93.6766 15.8453 92.8203 15.8453V18.2156C94.304 18.2156 95.5157 17.7012 96.5184 16.6985L94.8423 15.0224ZM92.8203 15.8453C91.964 15.8453 91.3557 15.5797 90.7984 15.0224L89.1223 16.6985C90.125 17.7012 91.3366 18.2156 92.8203 18.2156V15.8453ZM90.7984 15.0224C90.2411 14.4651 89.9755 13.8567 89.9755 13.0005H87.6051C87.6051 14.4842 88.1195 15.6958 89.1223 16.6985L90.7984 15.0224ZM89.9755 13.0005C89.9755 12.1442 90.2411 11.5358 90.7984 10.9785L89.1223 9.30241C88.1195 10.3051 87.6051 11.5167 87.6051 13.0005H89.9755ZM90.7984 10.9785C91.3557 10.4212 91.964 10.1556 92.8203 10.1556V7.78527C91.3366 7.78527 90.125 8.29971 89.1223 9.30241L90.7984 10.9785ZM92.8203 10.1556C93.6766 10.1556 94.285 10.4212 94.8423 10.9785L96.5184 9.30241C95.5157 8.29971 94.304 7.78527 92.8203 7.78527V10.1556ZM94.8423 10.9785C95.3996 11.5358 95.6651 12.1442 95.6651 13.0005H98.0355C98.0355 11.5167 97.5211 10.3051 96.5184 9.30241L94.8423 10.9785ZM95.6651 13.0005C95.6651 13.8567 95.3996 14.4651 94.8423 15.0224L96.5184 16.6985C97.5211 15.6958 98.0355 14.4842 98.0355 13.0005H95.6651ZM89.9023 16.0485C90.6018 16.7481 91.6703 17.3056 92.8203 17.3056V14.9353C92.4103 14.9353 91.9188 14.7128 91.5784 14.3724L89.9023 16.0485ZM92.8203 17.3056C93.8492 17.3056 95.0196 16.9586 95.8258 15.9508L93.9748 14.4701C93.741 14.7623 93.3514 14.9353 92.8203 14.9353V17.3056ZM95.7384 16.0485C96.4591 15.3278 96.9955 14.254 96.9955 13.0005H94.6251C94.6251 13.567 94.3815 14.0532 94.0623 14.3724L95.7384 16.0485ZM96.9955 13.0005C96.9955 11.8721 96.6665 10.6856 95.6407 9.86498L94.1599 11.7159C94.4342 11.9353 94.6251 12.3088 94.6251 13.0005H96.9955ZM95.7384 9.95241C95.0388 9.25285 93.9703 8.69527 92.8203 8.69527V11.0656C93.2303 11.0656 93.7218 11.2881 94.0623 11.6285L95.7384 9.95241ZM92.8203 8.69527C91.7914 8.69527 90.6211 9.04231 89.8148 10.0501L91.6658 11.5308C91.8996 11.2386 92.2892 11.0656 92.8203 11.0656V8.69527ZM89.9023 9.95241C89.1815 10.6731 88.6451 11.7469 88.6451 13.0005H91.0155C91.0155 12.434 91.2591 11.9478 91.5784 11.6285L89.9023 9.95241ZM88.6451 13.0005C88.6451 14.1288 88.9742 15.3153 89.9999 16.1359L91.4807 14.285C91.2065 14.0656 91.0155 13.6921 91.0155 13.0005H88.6451ZM99.4655 16.9005V9.10046H97.0951V16.9005H99.4655ZM98.2803 10.2856H99.4503V7.91527H98.2803V10.2856ZM98.4417 9.72281L102.212 15.8328L104.229 14.5881L100.459 8.47811L98.4417 9.72281ZM104.405 15.2105V9.10046H102.035V15.2105H104.405ZM103.22 10.2856H104.26V7.91527H103.22V10.2856ZM103.075 9.10046V16.9005H105.445V9.10046H103.075ZM104.26 15.7153H103.22V18.0856H104.26V15.7153ZM104.222 16.2668L100.192 9.89681L98.1887 11.1641L102.219 17.5341L104.222 16.2668ZM98.0051 10.5305V16.9005H100.375V10.5305H98.0051ZM99.1903 15.7153H98.2803V18.0856H99.1903V15.7153Z" fill="white" mask="url(#path-3-inside-1_1_1743)"/>
<path d="M88.5297 28.3395C85.4097 28.3395 82.9397 30.6795 82.9397 33.9295C82.9397 37.0495 85.4097 39.5195 88.5297 39.5195C91.6497 39.5195 94.1197 37.1795 94.1197 33.9295C94.1197 30.5495 91.6497 28.3395 88.5297 28.3395ZM88.5297 37.1795C86.8397 37.1795 85.4097 35.7495 85.4097 33.7995C85.4097 31.8495 86.8397 30.4195 88.5297 30.4195C90.2197 30.4195 91.6497 31.7195 91.6497 33.7995C91.6497 35.7495 90.2197 37.1795 88.5297 37.1795ZM76.4397 28.3395C73.3197 28.3395 70.8497 30.6795 70.8497 33.9295C70.8497 37.0495 73.3197 39.5195 76.4397 39.5195C79.5597 39.5195 82.0297 37.1795 82.0297 33.9295C82.0297 30.5495 79.5597 28.3395 76.4397 28.3395ZM76.4397 37.1795C74.7497 37.1795 73.3197 35.7495 73.3197 33.7995C73.3197 31.8495 74.7497 30.4195 76.4397 30.4195C78.1297 30.4195 79.5597 31.7195 79.5597 33.7995C79.5597 35.7495 78.1297 37.1795 76.4397 37.1795ZM62.0097 30.0295V32.3695H67.5997C67.4697 33.6695 66.9497 34.7095 66.2997 35.3595C65.5197 36.1395 64.2197 37.0495 62.0097 37.0495C58.4997 37.0495 55.8997 34.3195 55.8997 30.8095C55.8997 27.2995 58.6297 24.5695 62.0097 24.5695C63.8297 24.5695 65.2597 25.3495 66.2997 26.2595L67.9897 24.5695C66.5597 23.2695 64.7397 22.2295 62.1397 22.2295C57.4597 22.2295 53.4297 26.1295 53.4297 30.8095C53.4297 35.4895 57.4597 39.3895 62.1397 39.3895C64.7397 39.3895 66.5597 38.6095 68.1197 36.9195C69.6797 35.3595 70.1997 33.1495 70.1997 31.4595C70.1997 30.9395 70.1997 30.4195 70.0697 30.0295H62.0097ZM121.03 31.8495C120.51 30.5495 119.21 28.3395 116.35 28.3395C113.49 28.3395 111.15 30.5495 111.15 33.9295C111.15 37.0495 113.49 39.5195 116.61 39.5195C119.08 39.5195 120.64 37.9595 121.16 37.0495L119.34 35.7495C118.69 36.6595 117.91 37.3095 116.61 37.3095C115.31 37.3095 114.53 36.7895 113.88 35.6195L121.29 32.4995L121.03 31.8495ZM113.49 33.6695C113.49 31.5895 115.18 30.4195 116.35 30.4195C117.26 30.4195 118.17 30.9395 118.43 31.5895L113.49 33.6695ZM107.38 38.9995H109.85V22.7495H107.38V38.9995ZM103.48 29.5095C102.83 28.8595 101.79 28.2095 100.49 28.2095C97.7597 28.2095 95.1597 30.6795 95.1597 33.7995C95.1597 36.9195 97.6297 39.2595 100.49 39.2595C101.79 39.2595 102.83 38.6095 103.35 37.9595H103.48V38.7395C103.48 40.8195 102.31 41.9895 100.49 41.9895C99.0597 41.9895 98.0197 40.9495 97.7597 40.0395L95.6797 40.9495C96.3297 42.3795 97.8897 44.1995 100.62 44.1995C103.48 44.1995 105.82 42.5095 105.82 38.4795V28.5995H103.48V29.5095ZM100.62 37.1795C98.9297 37.1795 97.4997 35.7495 97.4997 33.7995C97.4997 31.8495 98.9297 30.4195 100.62 30.4195C102.31 30.4195 103.61 31.8495 103.61 33.7995C103.61 35.7495 102.31 37.1795 100.62 37.1795ZM132.34 22.7495H126.49V38.9995H128.96V32.8895H132.34C135.07 32.8895 137.67 30.9395 137.67 27.8195C137.67 24.6995 135.07 22.7495 132.34 22.7495ZM132.47 30.5495H128.96V24.9595H132.47C134.29 24.9595 135.33 26.5195 135.33 27.6895C135.2 29.1195 134.16 30.5495 132.47 30.5495ZM147.42 28.2095C145.6 28.2095 143.78 28.9895 143.13 30.6795L145.34 31.5895C145.86 30.6795 146.64 30.4195 147.55 30.4195C148.85 30.4195 150.02 31.1995 150.15 32.4995V32.6295C149.76 32.3695 148.72 31.9795 147.68 31.9795C145.34 31.9795 143 33.2795 143 35.6195C143 37.8295 144.95 39.2595 147.03 39.2595C148.72 39.2595 149.5 38.4795 150.15 37.6995H150.28V38.9995H152.62V32.7595C152.36 29.8995 150.15 28.2095 147.42 28.2095ZM147.16 37.1795C146.38 37.1795 145.21 36.7895 145.21 35.7495C145.21 34.4495 146.64 34.0595 147.81 34.0595C148.85 34.0595 149.37 34.3195 150.02 34.5795C149.76 36.1395 148.46 37.1795 147.16 37.1795ZM160.81 28.5995L158.08 35.6195H157.95L155.09 28.5995H152.49L156.78 38.4795L154.31 43.9395H156.78L163.41 28.5995H160.81ZM138.97 38.9995H141.44V22.7495H138.97V38.9995Z" fill="white"/>
<path d="M13.52 9.75012C13.13 10.1401 13 10.7901 13 11.5701V40.3001C13 41.0801 13.26 41.7301 13.65 42.1201L13.78 42.2501L29.9 26.1301V25.8701L13.52 9.75012Z" fill="url(#paint0_linear_1_1743)"/>
<path d="M35.0995 31.5904L29.7695 26.2604V25.8704L35.0995 20.5404L35.2295 20.6704L41.5995 24.3104C43.4195 25.3504 43.4195 27.0404 41.5995 28.0804L35.0995 31.5904Z" fill="url(#paint1_linear_1_1743)"/>
<path d="M35.2295 31.46L29.7695 26L13.5195 42.25C14.1695 42.9 15.0795 42.9 16.2495 42.38L35.2295 31.46Z" fill="url(#paint2_linear_1_1743)"/>
<path d="M35.2295 20.5405L16.2495 9.75046C15.0795 9.10046 14.1695 9.23046 13.5195 9.88046L29.7695 26.0005L35.2295 20.5405Z" fill="url(#paint3_linear_1_1743)"/>
<path opacity="0.2" d="M35.0995 31.3308L16.2495 41.9908C15.2095 42.6408 14.2995 42.5108 13.6495 41.9908L13.5195 42.1208L13.6495 42.2508C14.2995 42.7708 15.2095 42.9008 16.2495 42.2508L35.0995 31.3308Z" fill="black"/>
<path opacity="0.12" d="M13.52 41.99C13.13 41.6 13 40.95 13 40.17V40.3C13 41.08 13.26 41.73 13.65 42.12V41.99H13.52ZM41.6 27.69L35.1 31.33L35.23 31.46L41.6 27.82C42.51 27.3 42.9 26.65 42.9 26C42.9 26.65 42.38 27.17 41.6 27.69Z" fill="black"/>
<path opacity="0.25" d="M16.25 9.88077L41.6 24.3108C42.38 24.8308 42.9 25.3508 42.9 26.0008C42.9 25.3508 42.51 24.7008 41.6 24.1808L16.25 9.75077C14.43 8.71077 13 9.49077 13 11.5708V11.7008C13 9.75077 14.43 8.84077 16.25 9.88077Z" fill="white"/>
<defs>
<linearGradient id="paint0_linear_1_1743" x1="28.34" y1="11.3231" x2="6.5221" y2="33.1397" gradientUnits="userSpaceOnUse">
<stop stop-color="#00A0FF"/>
<stop offset="0.007" stop-color="#00A1FF"/>
<stop offset="0.26" stop-color="#00BEFF"/>
<stop offset="0.512" stop-color="#00D2FF"/>
<stop offset="0.76" stop-color="#00DFFF"/>
<stop offset="1" stop-color="#00E3FF"/>
</linearGradient>
<linearGradient id="paint1_linear_1_1743" x1="43.9837" y1="26.0017" x2="12.5276" y2="26.0017" gradientUnits="userSpaceOnUse">
<stop stop-color="#FFE000"/>
<stop offset="0.409" stop-color="#FFBD00"/>
<stop offset="0.775" stop-color="#FFA500"/>
<stop offset="1" stop-color="#FF9C00"/>
</linearGradient>
<linearGradient id="paint2_linear_1_1743" x1="32.2746" y1="28.9848" x2="2.68923" y2="58.5702" gradientUnits="userSpaceOnUse">
<stop stop-color="#FF3A44"/>
<stop offset="1" stop-color="#C31162"/>
</linearGradient>
<linearGradient id="paint3_linear_1_1743" x1="9.48563" y1="0.229263" x2="22.6975" y2="13.4412" gradientUnits="userSpaceOnUse">
<stop stop-color="#32A071"/>
<stop offset="0.069" stop-color="#2DA771"/>
<stop offset="0.476" stop-color="#15CF74"/>
<stop offset="0.801" stop-color="#06E775"/>
<stop offset="1" stop-color="#00F076"/>
</linearGradient>
</defs>
</svg>
