<svg width="324" height="236" viewBox="0 0 324 236" fill="none" xmlns="http://www.w3.org/2000/svg">
<g filter="url(#filter0_dddddd_5511_455)">
<path d="M237.636 2H86.816C83.498 2 80.7832 5.0375 80.7832 8.75003V49.25C80.7832 52.9625 83.4979 56 86.816 56H237.636C240.954 56 243.668 52.9625 243.668 49.25V8.75003C243.669 5.0375 240.954 2 237.636 2Z" fill="black"/>
<path fill-rule="evenodd" clip-rule="evenodd" d="M86.816 2H237.636C240.954 2 243.669 5.0375 243.668 8.75003V49.25C243.668 52.9625 240.954 56 237.636 56H86.816C83.4979 56 80.7832 52.9625 80.7832 49.25V8.75003C80.7832 5.0375 83.498 2 86.816 2Z" fill="black"/>
</g>
<path d="M236.952 55.2101H87.5352C84.2836 55.2101 81.623 52.2624 81.623 48.6597V9.3571C81.623 5.75433 84.2835 2.80664 87.5352 2.80664H236.952C240.204 2.80664 242.864 5.75433 242.864 9.3571V48.6596C242.864 52.2624 240.204 55.2101 236.952 55.2101Z" fill="black"/>
<path d="M137.997 15.8286C137.997 16.9597 137.698 17.8604 137.098 18.5322C136.417 19.3312 135.53 19.7309 134.439 19.7309C133.394 19.7309 132.505 19.326 131.775 18.5148C131.043 17.7043 130.678 16.6992 130.678 15.5C130.678 14.3003 131.043 13.2958 131.775 12.4846C132.505 11.6741 133.394 11.2686 134.439 11.2686C134.957 11.2686 135.454 11.382 135.925 11.6083C136.396 11.8351 136.774 12.1361 137.057 12.5131L136.421 13.2255C135.941 12.5848 135.281 12.2647 134.439 12.2647C133.677 12.2647 133.018 12.5643 132.462 13.1639C131.905 13.7641 131.627 14.5424 131.627 15.5C131.627 16.4577 131.905 17.236 132.462 17.8362C133.018 18.4358 133.677 18.7353 134.439 18.7353C135.247 18.7353 135.921 18.4341 136.461 17.8309C136.811 17.438 137.013 16.8917 137.068 16.1903H134.439V15.2173H137.947C137.981 15.4289 137.997 15.6319 137.997 15.8286" fill="white"/>
<path d="M137.995 15.8289H137.874C137.873 16.9341 137.585 17.7926 137.011 18.437L137.009 18.4381L137.009 18.4392C136.349 19.2106 135.502 19.5945 134.436 19.5962C133.419 19.5945 132.568 19.2064 131.857 18.4196C131.148 17.6312 130.797 16.6688 130.796 15.5003C130.797 14.3312 131.148 13.3693 131.857 12.5814C132.568 11.7941 133.419 11.4054 134.436 11.4038C134.939 11.4038 135.418 11.5136 135.875 11.7324C136.332 11.9529 136.693 12.2418 136.962 12.6005L137.054 12.5134L136.969 12.4179L136.333 13.1308L136.418 13.2258L136.511 13.1394C136.009 12.4669 135.305 12.128 134.436 12.13C133.646 12.1289 132.951 12.4449 132.376 13.0672C131.795 13.6915 131.503 14.5136 131.504 15.5003C131.503 16.487 131.795 17.309 132.376 17.9334C132.951 18.5557 133.646 18.8716 134.436 18.8705C135.271 18.8722 135.983 18.5552 136.543 17.9266C136.918 17.5067 137.13 16.9252 137.185 16.2021L137.197 16.0555H134.557V15.3526H137.944V15.2176L137.825 15.2413C137.858 15.446 137.874 15.6405 137.874 15.8289H138.115C138.115 15.6237 138.098 15.4128 138.063 15.1934L138.045 15.0826H134.316V16.3255H137.065V16.1905L136.945 16.1789C136.892 16.8582 136.699 17.3697 136.373 17.7358C135.854 18.3137 135.218 18.5989 134.436 18.6005C133.702 18.5994 133.08 18.3168 132.543 17.7394C132.011 17.164 131.747 16.4294 131.746 15.5003C131.747 14.5711 132.011 13.8365 132.543 13.2611C133.08 12.6837 133.702 12.4011 134.436 12.4C135.252 12.4021 135.868 12.7037 136.326 13.3128L136.411 13.4257L137.14 12.6089L137.218 12.5214L137.147 12.4268C136.85 12.0314 136.455 11.7176 135.97 11.4846C135.484 11.2509 134.97 11.1338 134.436 11.1338C133.364 11.1328 132.438 11.5546 131.687 12.3895C130.934 13.2227 130.554 14.27 130.555 15.5003C130.554 16.73 130.934 17.7779 131.688 18.6116C132.438 19.4459 133.364 19.8673 134.436 19.8662C135.553 19.8673 136.48 19.4521 137.183 18.6258L137.096 18.5325L137.181 18.628C137.806 17.9292 138.116 16.9853 138.115 15.8289H137.995H137.995ZM143.556 12.4453H140.259V15.0136H143.232V15.9869H140.259V18.5552H143.556V19.5502H139.33V11.4503H143.556V12.4453Z" fill="white"/>
<path d="M143.558 12.4455V12.3105H140.14V15.1488H143.113V15.8517L140.14 15.8521V18.6903H143.437V19.4154H139.452V11.5854H143.437V12.4455H143.558V12.3105V12.4455H143.678V11.3154H139.211V19.6854H143.678V18.4203H140.382V16.1221H143.355V14.8788H140.382V12.5805H143.678V12.4455H143.558ZM147.481 19.5505H146.55V12.4455H144.528V11.4504H149.502V12.4455H147.481V19.5504" fill="white"/>
<path d="M147.482 19.5505V19.4154H146.671V12.3105H144.65V11.5855H149.383V12.3105H147.361V19.5504H147.482V19.4154V19.5504H147.602V12.5805H149.624V11.3154H144.408V12.5804H146.43V19.6853H147.602V19.5504H147.482V19.5505ZM153.103 19.5505V11.4504H154.033V19.5504H153.103" fill="white"/>
<path d="M153.101 19.5505H153.222V11.5854H153.91V19.4154H153.101V19.5504H153.222H153.101V19.6854H154.152V11.3154H152.98V19.6854H153.101V19.5504V19.5505ZM158.157 19.5505H157.226V12.4455H155.205V11.4504H160.179V12.4455H158.157V19.5504" fill="white"/>
<path d="M158.159 19.5501V19.415H157.349V12.3101H155.327V11.5851H160.061V12.3101H158.039V19.55H158.159V19.415V19.55H158.28V12.5801H160.302V11.315H155.086V12.58H157.108V19.6849H158.28V19.55H158.159V19.5501ZM164.977 17.8252C165.513 18.4321 166.169 18.7352 166.944 18.7352C167.719 18.7352 168.375 18.4321 168.91 17.8252C169.447 17.2182 169.715 16.4423 169.715 15.5C169.715 14.5578 169.447 13.7819 168.91 13.1749C168.375 12.568 167.719 12.2647 166.944 12.2647C166.169 12.2647 165.513 12.568 164.977 13.1749C164.442 13.7819 164.174 14.5577 164.174 15.5C164.174 16.4423 164.442 17.2182 164.977 17.8252ZM169.599 18.5032C168.887 19.3221 168.002 19.7309 166.944 19.7309C165.885 19.7309 165.001 19.3221 164.291 18.5032C163.578 17.6853 163.224 16.684 163.224 15.5C163.224 14.3161 163.578 13.3146 164.291 12.4968C165.001 11.6777 165.885 11.2686 166.944 11.2686C167.996 11.2686 168.879 11.6799 169.594 12.5021C170.308 13.3242 170.665 14.3235 170.665 15.5C170.665 16.684 170.309 17.6853 169.599 18.5032Z" fill="white"/>
<path d="M164.977 17.8254L164.892 17.9203C165.447 18.5515 166.141 18.8722 166.944 18.8705C167.747 18.8722 168.442 18.5515 168.996 17.9203C169.556 17.2884 169.837 16.4711 169.836 15.5003C169.837 14.5295 169.556 13.7121 168.996 13.0802C168.442 12.449 167.747 12.1284 166.944 12.13C166.141 12.1284 165.447 12.449 164.892 13.0802C164.334 13.7121 164.052 14.5295 164.053 15.5003C164.052 16.471 164.334 17.2884 164.892 17.9203L164.977 17.8254L165.063 17.7304C164.551 17.1477 164.295 16.4146 164.294 15.5003C164.295 14.5859 164.551 13.8529 165.063 13.2701C165.58 12.6874 166.197 12.4016 166.944 12.4C167.691 12.4016 168.31 12.6874 168.825 13.2701C169.338 13.8529 169.593 14.5859 169.594 15.5003C169.593 16.4146 169.338 17.1477 168.825 17.7304C168.31 18.3131 167.691 18.5989 166.944 18.6005C166.197 18.5989 165.58 18.3131 165.063 17.7304L164.977 17.8254ZM169.599 18.5035L169.512 18.4097C168.821 19.2028 167.974 19.5946 166.944 19.5962C165.913 19.5945 165.067 19.2028 164.377 18.4097L164.374 18.4054L164.377 18.4097C163.687 17.6138 163.346 16.6541 163.345 15.5003C163.346 14.3464 163.687 13.3867 164.377 12.5909C165.067 11.7977 165.913 11.4054 166.944 11.4038C167.968 11.4054 168.812 11.7994 169.508 12.5967C170.2 13.3961 170.543 14.3543 170.545 15.5003C170.543 16.6541 170.201 17.6138 169.512 18.4097L169.599 18.5035L169.685 18.5973C170.417 17.7568 170.787 16.7142 170.786 15.5003C170.787 14.2932 170.415 13.2528 169.681 12.4085C168.945 11.5609 168.024 11.1323 166.944 11.1338C165.858 11.1323 164.935 11.5589 164.204 12.4032V12.4026C163.471 13.2437 163.103 14.2863 163.104 15.5003C163.103 16.7142 163.471 17.7568 164.204 18.5978L164.207 18.6016L164.204 18.5973C164.935 19.4416 165.858 19.8673 166.944 19.8662C168.03 19.8673 168.953 19.4416 169.685 18.5973L169.599 18.5035ZM171.971 19.5503V11.4502H173.103L176.621 17.7514H176.661L176.621 16.1905V11.4502H177.552V19.5502H176.581L172.9 12.9436H172.86L172.9 14.5051V19.5502H171.971" fill="white"/>
<path d="M171.97 19.5505H172.09V11.5854H173.035L176.553 17.8867H176.784L176.741 16.1887V11.5855H177.43V19.4154H176.647L172.966 12.8088H172.735L172.778 14.5075V19.4154H171.97V19.5504H172.09H171.97V19.6854H173.02V14.5032L172.98 12.9402L172.859 12.9438V13.0788H172.899V12.9438L172.797 13.0156L176.513 19.6854H177.671V11.3154H176.499V16.1923L176.539 17.7553L176.66 17.7517V17.6167H176.62V17.7517L176.722 17.68L173.168 11.3154H171.849V19.6854H171.97V19.5504L171.97 19.5505ZM209.808 42.5004H212.059V25.6238H209.808L209.808 42.5004ZM230.087 31.7032L227.506 39.02H227.428L224.75 31.7031H222.325L226.341 41.9298L224.051 47.6183H226.4L232.59 31.7031L230.087 31.7032ZM217.319 40.5836C216.58 40.5836 215.552 40.1712 215.552 39.1503C215.552 37.8477 216.834 37.3483 217.939 37.3483C218.93 37.3483 219.394 37.5871 219.996 37.9132C219.821 39.4762 218.618 40.5836 217.319 40.5836ZM217.59 31.3339C215.96 31.3339 214.272 32.1375 213.574 33.918L215.572 34.8513C215.999 33.918 216.794 33.6136 217.629 33.6136C218.793 33.6136 219.977 34.3957 219.996 35.7853V35.9588C219.588 35.6982 218.716 35.3075 217.648 35.3075C215.494 35.3075 213.301 36.6316 213.301 39.107C213.301 41.3651 215.067 42.82 217.046 42.82C218.56 42.82 219.394 42.0601 219.919 41.17H219.996V42.4725H222.169V36.0019C222.169 33.0062 220.171 31.3339 217.59 31.3339ZM203.676 33.7576H200.474V27.9727H203.676C205.359 27.9727 206.315 29.532 206.315 30.8651C206.315 32.1729 205.359 33.7576 203.676 33.7576ZM203.618 25.6238H198.224V42.5004H200.474V36.1064H203.618C206.113 36.1064 208.566 34.0851 208.566 30.8651C208.566 27.6452 206.113 25.6238 203.618 25.6238ZM174.201 40.5867C172.646 40.5867 171.344 39.1297 171.344 37.1284C171.344 35.1061 172.646 33.6269 174.201 33.6269C175.737 33.6269 176.942 35.1061 176.942 37.1284C176.942 39.1297 175.737 40.5867 174.201 40.5867H174.201ZM176.786 32.6482H176.709C176.203 31.9741 175.231 31.3651 174.007 31.3651C171.441 31.3651 169.089 33.8879 169.089 37.1284C169.089 40.3473 171.441 42.8485 174.007 42.8485C175.231 42.8485 176.203 42.2394 176.709 41.5438H176.786V42.3702C176.786 44.5672 175.737 45.7415 174.046 45.7415C172.666 45.7415 171.81 44.632 171.46 43.6969L169.497 44.6104C170.061 46.1327 171.558 48.0033 174.046 48.0033C176.689 48.0033 178.925 46.263 178.925 42.0221V31.7131H176.786V32.6482ZM180.48 42.5004H182.734V25.6232H180.48V42.5004ZM186.058 36.9328C186 34.7142 187.594 33.5835 188.741 33.5835C189.635 33.5835 190.393 34.0835 190.645 34.8018L186.058 36.9328ZM193.056 35.019C192.629 33.7354 191.326 31.3651 188.663 31.3651C186.019 31.3651 183.823 33.6922 183.823 37.1068C183.823 40.3257 186 42.8485 188.916 42.8485C191.268 42.8485 192.629 41.239 193.192 40.304L191.443 38.9988C190.86 39.9559 190.063 40.5867 188.916 40.5867C187.769 40.5867 186.953 39.9993 186.427 38.8469L193.289 35.6713L193.056 35.019ZM138.389 33.1269V35.5627H143.598C143.443 36.9328 143.035 37.9331 142.413 38.6292C141.655 39.4777 140.469 40.4127 138.389 40.4127C135.182 40.4127 132.674 37.5201 132.674 33.9316C132.674 30.343 135.182 27.4501 138.389 27.4501C140.119 27.4501 141.382 28.2115 142.315 29.1902L143.851 27.4722C142.549 26.08 140.819 25.0143 138.389 25.0143C133.996 25.0143 130.303 29.0163 130.303 33.9316C130.303 38.8469 133.996 42.8485 138.389 42.8485C140.761 42.8485 142.549 41.9789 143.948 40.3473C145.387 38.7378 145.834 36.4761 145.834 34.6494C145.834 34.0835 145.795 33.5619 145.717 33.1269H138.389ZM151.756 40.5867C150.201 40.5867 148.86 39.1512 148.86 37.1068C148.86 35.0406 150.201 33.6269 151.756 33.6269C153.311 33.6269 154.653 35.0406 154.653 37.1068C154.653 39.1513 153.311 40.5867 151.756 40.5867ZM151.756 31.3651C148.918 31.3651 146.605 33.7791 146.605 37.1068C146.605 40.4127 148.918 42.8485 151.756 42.8485C154.594 42.8485 156.907 40.4127 156.907 37.1068C156.907 33.7791 154.594 31.3651 151.756 31.3651ZM162.993 40.5867C161.439 40.5867 160.097 39.1512 160.097 37.1068C160.097 35.0406 161.439 33.6269 162.993 33.6269C164.548 33.6269 165.89 35.0406 165.89 37.1068C165.89 39.1513 164.548 40.5867 162.993 40.5867H162.993ZM162.993 31.3651C160.155 31.3651 157.842 33.7791 157.842 37.1068C157.842 40.4127 160.155 42.8485 162.993 42.8485C165.831 42.8485 168.144 40.4127 168.144 37.1068C168.144 33.7791 165.831 31.3651 162.993 31.3651H162.993Z" fill="white"/>
<path d="M93.465 12.2761C93.0601 12.6849 92.8184 13.3666 92.8184 14.2716V14.067V43.9305V43.7338C92.8184 44.5696 93.0257 45.215 93.3768 45.6307L93.4664 45.7267V45.7271C93.7505 46.014 94.1149 46.1664 94.5325 46.1659C94.9406 46.1659 95.3997 46.0203 95.8842 45.713L113.398 34.5791L119.413 30.7543C120.177 30.2687 120.606 29.6422 120.678 29.004V29.0014C120.606 28.3618 120.177 27.7358 119.413 27.2501L113.397 23.4257L95.8843 12.2919C95.3987 11.984 94.9393 11.8379 94.5302 11.8379C94.113 11.8379 93.7491 11.9898 93.4651 12.2761H93.465Z" fill="#00C1FF"/>
<path d="M93.4664 45.7256L93.3768 45.6296C93.0257 45.214 92.8184 44.5685 92.8184 43.7327V43.9294V14.0734V14.2705C92.8184 13.3656 93.0601 12.6838 93.465 12.275L108.414 29.0009L93.4664 45.7256Z" fill="url(#paint0_linear_5511_455)"/>
<path d="M113.396 34.5791L108.412 29.002L113.395 23.4258L119.412 27.2501C120.176 27.7358 120.604 28.3618 120.676 29.0014V29.004C120.604 29.6421 120.176 30.2687 119.412 30.7543L113.396 34.579" fill="url(#paint1_linear_5511_455)"/>
<path d="M94.5309 46.165C94.1133 46.1655 93.749 46.0131 93.4648 45.7262V45.7258L108.412 29.001L113.396 34.5782L95.8826 45.7121C95.3981 46.0195 94.939 46.165 94.5309 46.165Z" fill="url(#paint2_linear_5511_455)"/>
<path d="M108.412 29.001L93.4629 12.2752C93.7471 11.9888 94.111 11.8369 94.528 11.8369C94.9372 11.8369 95.3967 11.983 95.8822 12.2909L113.395 23.4248L108.412 29.001" fill="url(#paint3_linear_5511_455)"/>
<path d="M94.5312 46.3633C94.1136 46.3633 93.7487 46.2109 93.4646 45.924L93.4641 45.9245C93.4629 45.9232 93.4617 45.922 93.4603 45.9209L93.3826 45.8359C93.3802 45.8332 93.3779 45.8302 93.375 45.8271L93.4646 45.7268C93.7488 46.0136 94.1131 46.166 94.5308 46.1655C94.9388 46.1655 95.3979 46.02 95.8824 45.7126L113.396 34.5787L113.508 34.7043L113.394 34.7765L95.8824 45.9098C95.4408 46.1898 95.0208 46.3359 94.6414 46.3602C94.6047 46.3622 94.5679 46.3632 94.5312 46.3632" fill="url(#paint4_linear_5511_455)"/>
<path d="M93.3768 45.8262C93.0257 45.4106 92.8184 44.7656 92.8184 43.9293V43.7326C92.8184 44.5684 93.0257 45.2138 93.3768 45.6295L93.4664 45.7255L93.3768 45.8262Z" fill="url(#paint5_linear_5511_455)"/>
<path d="M113.509 34.704L113.396 34.5784L119.412 30.7537C120.176 30.2681 120.605 29.6415 120.677 29.0034C120.677 29.2376 120.63 29.4717 120.537 29.6996C120.35 30.1589 119.975 30.5929 119.412 30.9509L113.509 34.7041" fill="url(#paint6_linear_5511_455)"/>
<path d="M120.677 29.001C120.606 28.3613 120.177 27.7354 119.413 27.2496L113.396 23.4253L113.509 23.2997H113.509L119.413 27.0529C120.255 27.5887 120.677 28.2948 120.677 29.001Z" fill="url(#paint7_linear_5511_455)"/>
<path d="M92.8184 14.2705V14.0642C92.8184 13.9898 92.8202 13.9171 92.8236 13.8465V13.8433C92.8236 13.8423 92.8236 13.8413 92.8239 13.8402V13.8322C92.8602 13.1123 93.0601 12.5508 93.3768 12.1759L93.465 12.2749C93.0601 12.6837 92.8184 13.3655 92.8184 14.2705Z" fill="url(#paint8_linear_5511_455)"/>
<path d="M113.395 23.4248L95.8824 12.2908C95.3969 11.9829 94.9375 11.8369 94.5283 11.8369C94.1112 11.8369 93.7473 11.9888 93.4632 12.2751L93.375 12.176C93.4025 12.1434 93.4312 12.1119 93.4608 12.0816C93.4617 12.0806 93.4632 12.0795 93.4641 12.0784C93.746 11.7942 94.1061 11.6424 94.5194 11.6396H94.5283C94.9375 11.6396 95.3969 11.7857 95.8824 12.0938L113.508 23.2988L113.508 23.2992L113.395 23.4248Z" fill="url(#paint9_linear_5511_455)"/>
<defs>
<filter id="filter0_dddddd_5511_455" x="0.783203" y="0.703704" width="322.885" height="235.296" filterUnits="userSpaceOnUse" color-interpolation-filters="sRGB">
<feFlood flood-opacity="0" result="BackgroundImageFix"/>
<feColorMatrix in="SourceAlpha" type="matrix" values="0 0 0 0 0 0 0 0 0 0 0 0 0 0 0 0 0 0 127 0" result="hardAlpha"/>
<feOffset dy="1.85185"/>
<feGaussianBlur stdDeviation="1.57407"/>
<feColorMatrix type="matrix" values="0 0 0 0 0.219608 0 0 0 0 0.219608 0 0 0 0 0.219608 0 0 0 0.0240741 0"/>
<feBlend mode="normal" in2="BackgroundImageFix" result="effect1_dropShadow_5511_455"/>
<feColorMatrix in="SourceAlpha" type="matrix" values="0 0 0 0 0 0 0 0 0 0 0 0 0 0 0 0 0 0 127 0" result="hardAlpha"/>
<feOffset dy="8.14815"/>
<feGaussianBlur stdDeviation="3.25926"/>
<feColorMatrix type="matrix" values="0 0 0 0 0.219608 0 0 0 0 0.219608 0 0 0 0 0.219608 0 0 0 0.0392593 0"/>
<feBlend mode="normal" in2="effect1_dropShadow_5511_455" result="effect2_dropShadow_5511_455"/>
<feColorMatrix in="SourceAlpha" type="matrix" values="0 0 0 0 0 0 0 0 0 0 0 0 0 0 0 0 0 0 127 0" result="hardAlpha"/>
<feOffset dy="20"/>
<feGaussianBlur stdDeviation="6.5"/>
<feColorMatrix type="matrix" values="0 0 0 0 0.219608 0 0 0 0 0.219608 0 0 0 0 0.219608 0 0 0 0.05 0"/>
<feBlend mode="normal" in2="effect2_dropShadow_5511_455" result="effect3_dropShadow_5511_455"/>
<feColorMatrix in="SourceAlpha" type="matrix" values="0 0 0 0 0 0 0 0 0 0 0 0 0 0 0 0 0 0 127 0" result="hardAlpha"/>
<feOffset dy="38.5185"/>
<feGaussianBlur stdDeviation="12.7407"/>
<feColorMatrix type="matrix" values="0 0 0 0 0.219608 0 0 0 0 0.219608 0 0 0 0 0.219608 0 0 0 0.0607407 0"/>
<feBlend mode="normal" in2="effect3_dropShadow_5511_455" result="effect4_dropShadow_5511_455"/>
<feColorMatrix in="SourceAlpha" type="matrix" values="0 0 0 0 0 0 0 0 0 0 0 0 0 0 0 0 0 0 127 0" result="hardAlpha"/>
<feOffset dy="64.8148"/>
<feGaussianBlur stdDeviation="23.4259"/>
<feColorMatrix type="matrix" values="0 0 0 0 0.219608 0 0 0 0 0.219608 0 0 0 0 0.219608 0 0 0 0.0759259 0"/>
<feBlend mode="normal" in2="effect4_dropShadow_5511_455" result="effect5_dropShadow_5511_455"/>
<feColorMatrix in="SourceAlpha" type="matrix" values="0 0 0 0 0 0 0 0 0 0 0 0 0 0 0 0 0 0 127 0" result="hardAlpha"/>
<feOffset dy="100"/>
<feGaussianBlur stdDeviation="40"/>
<feColorMatrix type="matrix" values="0 0 0 0 0.219608 0 0 0 0 0.219608 0 0 0 0 0.219608 0 0 0 0.1 0"/>
<feBlend mode="normal" in2="effect5_dropShadow_5511_455" result="effect6_dropShadow_5511_455"/>
<feBlend mode="normal" in="SourceGraphic" in2="effect6_dropShadow_5511_455" result="shape"/>
</filter>
<linearGradient id="paint0_linear_5511_455" x1="102.372" y1="13.7578" x2="88.0659" y2="26.5848" gradientUnits="userSpaceOnUse">
<stop stop-color="#00A0FF"/>
<stop offset="0.00657" stop-color="#00A1FF"/>
<stop offset="0.2601" stop-color="#00BEFF"/>
<stop offset="0.5122" stop-color="#00D2FF"/>
<stop offset="0.7604" stop-color="#00DFFF"/>
<stop offset="1" stop-color="#00E3FF"/>
</linearGradient>
<linearGradient id="paint1_linear_5511_455" x1="121.607" y1="28.9056" x2="92.4119" y2="28.9056" gradientUnits="userSpaceOnUse">
<stop stop-color="#FFE000"/>
<stop offset="0.4087" stop-color="#FFBD00"/>
<stop offset="0.7754" stop-color="#FFA500"/>
<stop offset="1" stop-color="#FF9C00"/>
</linearGradient>
<linearGradient id="paint2_linear_5511_455" x1="110.75" y1="34.3036" x2="86.5275" y2="55.8638" gradientUnits="userSpaceOnUse">
<stop stop-color="#FF3A44"/>
<stop offset="1" stop-color="#C31162"/>
</linearGradient>
<linearGradient id="paint3_linear_5511_455" x1="89.6101" y1="9.79547" x2="100.407" y2="19.4208" gradientUnits="userSpaceOnUse">
<stop stop-color="#32A071"/>
<stop offset="0.0685" stop-color="#2DA771"/>
<stop offset="0.4762" stop-color="#15CF74"/>
<stop offset="0.8009" stop-color="#06E775"/>
<stop offset="1" stop-color="#00F076"/>
</linearGradient>
<linearGradient id="paint4_linear_5511_455" x1="110.739" y1="38.1727" x2="91.3247" y2="55.5804" gradientUnits="userSpaceOnUse">
<stop stop-color="#CC2E36"/>
<stop offset="1" stop-color="#9C0E4E"/>
</linearGradient>
<linearGradient id="paint5_linear_5511_455" x1="94.8098" y1="13.7576" x2="82.2066" y2="25.0583" gradientUnits="userSpaceOnUse">
<stop stop-color="#008DE0"/>
<stop offset="0.00657" stop-color="#008DE0"/>
<stop offset="0.2601" stop-color="#00A7E0"/>
<stop offset="0.5122" stop-color="#00B8E0"/>
<stop offset="0.7604" stop-color="#00C4E0"/>
<stop offset="1" stop-color="#00C7E0"/>
</linearGradient>
<linearGradient id="paint6_linear_5511_455" x1="121.608" y1="29.0022" x2="92.4126" y2="29.0022" gradientUnits="userSpaceOnUse">
<stop stop-color="#E0C500"/>
<stop offset="0.4087" stop-color="#E0A600"/>
<stop offset="0.7754" stop-color="#E09100"/>
<stop offset="1" stop-color="#E08900"/>
</linearGradient>
<linearGradient id="paint7_linear_5511_455" x1="121.608" y1="29.0023" x2="92.4132" y2="29.0023" gradientUnits="userSpaceOnUse">
<stop stop-color="#FFE840"/>
<stop offset="0.4087" stop-color="#FFCE40"/>
<stop offset="0.7754" stop-color="#FFBC40"/>
<stop offset="1" stop-color="#FFB540"/>
</linearGradient>
<linearGradient id="paint8_linear_5511_455" x1="94.7975" y1="13.7807" x2="82.7173" y2="24.143" gradientUnits="userSpaceOnUse">
<stop stop-color="#40B8FF"/>
<stop offset="0.00657" stop-color="#40B9FF"/>
<stop offset="0.2601" stop-color="#40CEFF"/>
<stop offset="0.5122" stop-color="#40DDFF"/>
<stop offset="0.7604" stop-color="#40E7FF"/>
<stop offset="1" stop-color="#40EAFF"/>
</linearGradient>
<linearGradient id="paint9_linear_5511_455" x1="89.5886" y1="13.3326" x2="98.258" y2="21.106" gradientUnits="userSpaceOnUse">
<stop stop-color="#65B895"/>
<stop offset="0.0685" stop-color="#62BD95"/>
<stop offset="0.4762" stop-color="#50DB97"/>
<stop offset="0.8009" stop-color="#44ED98"/>
<stop offset="1" stop-color="#40F498"/>
</linearGradient>
</defs>
</svg>
