<svg width="346" height="452" viewBox="0 0 346 452" fill="none" xmlns="http://www.w3.org/2000/svg">
<g clip-path="url(#clip0_7297_842)">
<path d="M326 0H20C8.9543 0 0 8.9543 0 20V432C0 443.046 8.9543 452 20 452H326C337.046 452 346 443.046 346 432V20C346 8.9543 337.046 0 326 0Z" fill="url(#paint0_linear_7297_842)"/>
<path d="M211.5 373H62.5C50.6259 373 41 382.626 41 394.5C41 406.374 50.6259 416 62.5 416H211.5C223.374 416 233 406.374 233 394.5C233 382.626 223.374 373 211.5 373Z" fill="white"/>
<path d="M70.2161 399.001L67.8921 395.011H66.3521V399.001H65.0781V389.243H68.2281C68.9654 389.243 69.5861 389.369 70.0901 389.621C70.6034 389.873 70.9861 390.214 71.2381 390.643C71.4901 391.072 71.6161 391.562 71.6161 392.113C71.6161 392.785 71.4201 393.378 71.0281 393.891C70.6454 394.404 70.0668 394.745 69.2921 394.913L71.7421 399.001H70.2161ZM66.3521 393.989H68.2281C68.9188 393.989 69.4368 393.821 69.7821 393.485C70.1274 393.14 70.3001 392.682 70.3001 392.113C70.3001 391.534 70.1274 391.086 69.7821 390.769C69.4461 390.452 68.9281 390.293 68.2281 390.293H66.3521V393.989ZM80.5957 394.871C80.5957 395.114 80.5817 395.37 80.5537 395.641H74.4217C74.4683 396.397 74.725 396.99 75.1917 397.419C75.6677 397.839 76.2417 398.049 76.9137 398.049C77.4643 398.049 77.9217 397.923 78.2857 397.671C78.659 397.41 78.9203 397.064 79.0697 396.635H80.4417C80.2363 397.372 79.8257 397.974 79.2097 398.441C78.5937 398.898 77.8283 399.127 76.9137 399.127C76.1857 399.127 75.5323 398.964 74.9537 398.637C74.3843 398.31 73.9363 397.848 73.6097 397.251C73.283 396.644 73.1197 395.944 73.1197 395.151C73.1197 394.358 73.2783 393.662 73.5957 393.065C73.913 392.468 74.3563 392.01 74.9257 391.693C75.5043 391.366 76.167 391.203 76.9137 391.203C77.6417 391.203 78.2857 391.362 78.8457 391.679C79.4057 391.996 79.835 392.435 80.1337 392.995C80.4417 393.546 80.5957 394.171 80.5957 394.871ZM79.2797 394.605C79.2797 394.12 79.1723 393.704 78.9577 393.359C78.743 393.004 78.449 392.738 78.0757 392.561C77.7117 392.374 77.3057 392.281 76.8577 392.281C76.2137 392.281 75.663 392.486 75.2057 392.897C74.7577 393.308 74.501 393.877 74.4357 394.605H79.2797ZM81.8013 395.137C81.8013 394.353 81.96 393.667 82.2773 393.079C82.5947 392.482 83.0287 392.02 83.5793 391.693C84.1393 391.366 84.76 391.203 85.4413 391.203C86.1133 391.203 86.6967 391.348 87.1913 391.637C87.686 391.926 88.0547 392.29 88.2973 392.729V391.329H89.5853V399.001H88.2973V397.573C88.0453 398.021 87.6673 398.394 87.1633 398.693C86.6687 398.982 86.09 399.127 85.4273 399.127C84.746 399.127 84.13 398.959 83.5793 398.623C83.0287 398.287 82.5947 397.816 82.2773 397.209C81.96 396.602 81.8013 395.912 81.8013 395.137ZM88.2973 395.151C88.2973 394.572 88.1807 394.068 87.9473 393.639C87.714 393.21 87.3967 392.883 86.9953 392.659C86.6033 392.426 86.1693 392.309 85.6933 392.309C85.2173 392.309 84.7833 392.421 84.3913 392.645C83.9993 392.869 83.6867 393.196 83.4533 393.625C83.22 394.054 83.1033 394.558 83.1033 395.137C83.1033 395.725 83.22 396.238 83.4533 396.677C83.6867 397.106 83.9993 397.438 84.3913 397.671C84.7833 397.895 85.2173 398.007 85.6933 398.007C86.1693 398.007 86.6033 397.895 86.9953 397.671C87.3967 397.438 87.714 397.106 87.9473 396.677C88.1807 396.238 88.2973 395.73 88.2973 395.151ZM91.2623 395.137C91.2623 394.353 91.4209 393.667 91.7383 393.079C92.0556 392.482 92.4896 392.02 93.0403 391.693C93.6003 391.366 94.2256 391.203 94.9163 391.203C95.5136 391.203 96.0689 391.343 96.5823 391.623C97.0956 391.894 97.4876 392.253 97.7583 392.701V388.641H99.0463V399.001H97.7583V397.559C97.5063 398.016 97.1329 398.394 96.6383 398.693C96.1436 398.982 95.5649 399.127 94.9023 399.127C94.2209 399.127 93.6003 398.959 93.0403 398.623C92.4896 398.287 92.0556 397.816 91.7383 397.209C91.4209 396.602 91.2623 395.912 91.2623 395.137ZM97.7583 395.151C97.7583 394.572 97.6416 394.068 97.4083 393.639C97.1749 393.21 96.8576 392.883 96.4563 392.659C96.0643 392.426 95.6303 392.309 95.1543 392.309C94.6783 392.309 94.2443 392.421 93.8523 392.645C93.4603 392.869 93.1476 393.196 92.9143 393.625C92.6809 394.054 92.5643 394.558 92.5643 395.137C92.5643 395.725 92.6809 396.238 92.9143 396.677C93.1476 397.106 93.4603 397.438 93.8523 397.671C94.2443 397.895 94.6783 398.007 95.1543 398.007C95.6303 398.007 96.0643 397.895 96.4563 397.671C96.8576 397.438 97.1749 397.106 97.4083 396.677C97.6416 396.238 97.7583 395.73 97.7583 395.151ZM106.206 392.757C106.467 392.3 106.85 391.926 107.354 391.637C107.858 391.348 108.432 391.203 109.076 391.203C109.766 391.203 110.387 391.366 110.938 391.693C111.488 392.02 111.922 392.482 112.24 393.079C112.557 393.667 112.716 394.353 112.716 395.137C112.716 395.912 112.557 396.602 112.24 397.209C111.922 397.816 111.484 398.287 110.924 398.623C110.373 398.959 109.757 399.127 109.076 399.127C108.413 399.127 107.83 398.982 107.326 398.693C106.831 398.404 106.458 398.035 106.206 397.587V399.001H104.932V388.641H106.206V392.757ZM111.414 395.137C111.414 394.558 111.297 394.054 111.064 393.625C110.83 393.196 110.513 392.869 110.112 392.645C109.72 392.421 109.286 392.309 108.81 392.309C108.343 392.309 107.909 392.426 107.508 392.659C107.116 392.883 106.798 393.214 106.556 393.653C106.322 394.082 106.206 394.582 106.206 395.151C106.206 395.73 106.322 396.238 106.556 396.677C106.798 397.106 107.116 397.438 107.508 397.671C107.909 397.895 108.343 398.007 108.81 398.007C109.286 398.007 109.72 397.895 110.112 397.671C110.513 397.438 110.83 397.106 111.064 396.677C111.297 396.238 111.414 395.725 111.414 395.137ZM115.666 392.575C115.89 392.136 116.208 391.796 116.618 391.553C117.038 391.31 117.547 391.189 118.144 391.189V392.505H117.808C116.38 392.505 115.666 393.28 115.666 394.829V399.001H114.392V391.329H115.666V392.575ZM119.139 395.137C119.139 394.353 119.298 393.667 119.615 393.079C119.932 392.482 120.366 392.02 120.917 391.693C121.477 391.366 122.098 391.203 122.779 391.203C123.451 391.203 124.034 391.348 124.529 391.637C125.024 391.926 125.392 392.29 125.635 392.729V391.329H126.923V399.001H125.635V397.573C125.383 398.021 125.005 398.394 124.501 398.693C124.006 398.982 123.428 399.127 122.765 399.127C122.084 399.127 121.468 398.959 120.917 398.623C120.366 398.287 119.932 397.816 119.615 397.209C119.298 396.602 119.139 395.912 119.139 395.137ZM125.635 395.151C125.635 394.572 125.518 394.068 125.285 393.639C125.052 393.21 124.734 392.883 124.333 392.659C123.941 392.426 123.507 392.309 123.031 392.309C122.555 392.309 122.121 392.421 121.729 392.645C121.337 392.869 121.024 393.196 120.791 393.625C120.558 394.054 120.441 394.558 120.441 395.137C120.441 395.725 120.558 396.238 120.791 396.677C121.024 397.106 121.337 397.438 121.729 397.671C122.121 397.895 122.555 398.007 123.031 398.007C123.507 398.007 123.941 397.895 124.333 397.671C124.734 397.438 125.052 397.106 125.285 396.677C125.518 396.238 125.635 395.73 125.635 395.151ZM132.814 391.189C133.747 391.189 134.503 391.474 135.082 392.043C135.661 392.603 135.95 393.415 135.95 394.479V399.001H134.69V394.661C134.69 393.896 134.499 393.312 134.116 392.911C133.733 392.5 133.211 392.295 132.548 392.295C131.876 392.295 131.339 392.505 130.938 392.925C130.546 393.345 130.35 393.956 130.35 394.759V399.001H129.076V391.329H130.35V392.421C130.602 392.029 130.943 391.726 131.372 391.511C131.811 391.296 132.291 391.189 132.814 391.189ZM137.555 395.137C137.555 394.353 137.714 393.667 138.031 393.079C138.348 392.482 138.782 392.02 139.333 391.693C139.893 391.366 140.518 391.203 141.209 391.203C141.806 391.203 142.362 391.343 142.875 391.623C143.388 391.894 143.78 392.253 144.051 392.701V388.641H145.339V399.001H144.051V397.559C143.799 398.016 143.426 398.394 142.931 398.693C142.436 398.982 141.858 399.127 141.195 399.127C140.514 399.127 139.893 398.959 139.333 398.623C138.782 398.287 138.348 397.816 138.031 397.209C137.714 396.602 137.555 395.912 137.555 395.137ZM144.051 395.151C144.051 394.572 143.934 394.068 143.701 393.639C143.468 393.21 143.15 392.883 142.749 392.659C142.357 392.426 141.923 392.309 141.447 392.309C140.971 392.309 140.537 392.421 140.145 392.645C139.753 392.869 139.44 393.196 139.207 393.625C138.974 394.054 138.857 394.558 138.857 395.137C138.857 395.725 138.974 396.238 139.207 396.677C139.44 397.106 139.753 397.438 140.145 397.671C140.537 397.895 140.971 398.007 141.447 398.007C141.923 398.007 142.357 397.895 142.749 397.671C143.15 397.438 143.468 397.106 143.701 396.677C143.934 396.238 144.051 395.73 144.051 395.151ZM150.208 399.127C149.62 399.127 149.093 399.029 148.626 398.833C148.159 398.628 147.791 398.348 147.52 397.993C147.249 397.629 147.1 397.214 147.072 396.747H148.388C148.425 397.13 148.603 397.442 148.92 397.685C149.247 397.928 149.671 398.049 150.194 398.049C150.679 398.049 151.062 397.942 151.342 397.727C151.622 397.512 151.762 397.242 151.762 396.915C151.762 396.579 151.613 396.332 151.314 396.173C151.015 396.005 150.553 395.842 149.928 395.683C149.359 395.534 148.892 395.384 148.528 395.235C148.173 395.076 147.865 394.848 147.604 394.549C147.352 394.241 147.226 393.84 147.226 393.345C147.226 392.953 147.343 392.594 147.576 392.267C147.809 391.94 148.141 391.684 148.57 391.497C148.999 391.301 149.489 391.203 150.04 391.203C150.889 391.203 151.575 391.418 152.098 391.847C152.621 392.276 152.901 392.864 152.938 393.611H151.664C151.636 393.21 151.473 392.888 151.174 392.645C150.885 392.402 150.493 392.281 149.998 392.281C149.541 392.281 149.177 392.379 148.906 392.575C148.635 392.771 148.5 393.028 148.5 393.345C148.5 393.597 148.579 393.807 148.738 393.975C148.906 394.134 149.111 394.264 149.354 394.367C149.606 394.46 149.951 394.568 150.39 394.689C150.941 394.838 151.389 394.988 151.734 395.137C152.079 395.277 152.373 395.492 152.616 395.781C152.868 396.07 152.999 396.448 153.008 396.915C153.008 397.335 152.891 397.713 152.658 398.049C152.425 398.385 152.093 398.651 151.664 398.847C151.244 399.034 150.759 399.127 150.208 399.127ZM161.255 399.127C160.667 399.127 160.14 399.029 159.673 398.833C159.206 398.628 158.838 398.348 158.567 397.993C158.296 397.629 158.147 397.214 158.119 396.747H159.435C159.472 397.13 159.65 397.442 159.967 397.685C160.294 397.928 160.718 398.049 161.241 398.049C161.726 398.049 162.109 397.942 162.389 397.727C162.669 397.512 162.809 397.242 162.809 396.915C162.809 396.579 162.66 396.332 162.361 396.173C162.062 396.005 161.6 395.842 160.975 395.683C160.406 395.534 159.939 395.384 159.575 395.235C159.22 395.076 158.912 394.848 158.651 394.549C158.399 394.241 158.273 393.84 158.273 393.345C158.273 392.953 158.39 392.594 158.623 392.267C158.856 391.94 159.188 391.684 159.617 391.497C160.046 391.301 160.536 391.203 161.087 391.203C161.936 391.203 162.622 391.418 163.145 391.847C163.668 392.276 163.948 392.864 163.985 393.611H162.711C162.683 393.21 162.52 392.888 162.221 392.645C161.932 392.402 161.54 392.281 161.045 392.281C160.588 392.281 160.224 392.379 159.953 392.575C159.682 392.771 159.547 393.028 159.547 393.345C159.547 393.597 159.626 393.807 159.785 393.975C159.953 394.134 160.158 394.264 160.401 394.367C160.653 394.46 160.998 394.568 161.437 394.689C161.988 394.838 162.436 394.988 162.781 395.137C163.126 395.277 163.42 395.492 163.663 395.781C163.915 396.07 164.046 396.448 164.055 396.915C164.055 397.335 163.938 397.713 163.705 398.049C163.472 398.385 163.14 398.651 162.711 398.847C162.291 399.034 161.806 399.127 161.255 399.127ZM167.407 392.379V396.901C167.407 397.274 167.487 397.54 167.645 397.699C167.804 397.848 168.079 397.923 168.471 397.923H169.409V399.001H168.261C167.552 399.001 167.02 398.838 166.665 398.511C166.311 398.184 166.133 397.648 166.133 396.901V392.379H165.139V391.329H166.133V389.397H167.407V391.329H169.409V392.379H167.407ZM174.299 399.127C173.58 399.127 172.927 398.964 172.339 398.637C171.76 398.31 171.303 397.848 170.967 397.251C170.64 396.644 170.477 395.944 170.477 395.151C170.477 394.367 170.645 393.676 170.981 393.079C171.326 392.472 171.793 392.01 172.381 391.693C172.969 391.366 173.627 391.203 174.355 391.203C175.083 391.203 175.741 391.366 176.329 391.693C176.917 392.01 177.379 392.468 177.715 393.065C178.06 393.662 178.233 394.358 178.233 395.151C178.233 395.944 178.056 396.644 177.701 397.251C177.356 397.848 176.884 398.31 176.287 398.637C175.69 398.964 175.027 399.127 174.299 399.127ZM174.299 398.007C174.756 398.007 175.186 397.9 175.587 397.685C175.988 397.47 176.31 397.148 176.553 396.719C176.805 396.29 176.931 395.767 176.931 395.151C176.931 394.535 176.81 394.012 176.567 393.583C176.324 393.154 176.007 392.836 175.615 392.631C175.223 392.416 174.798 392.309 174.341 392.309C173.874 392.309 173.445 392.416 173.053 392.631C172.67 392.836 172.362 393.154 172.129 393.583C171.896 394.012 171.779 394.535 171.779 395.151C171.779 395.776 171.891 396.304 172.115 396.733C172.348 397.162 172.656 397.484 173.039 397.699C173.422 397.904 173.842 398.007 174.299 398.007ZM181.182 392.575C181.406 392.136 181.723 391.796 182.134 391.553C182.554 391.31 183.063 391.189 183.66 391.189V392.505H183.324C181.896 392.505 181.182 393.28 181.182 394.829V399.001H179.908V391.329H181.182V392.575ZM191.739 391.329L187.119 402.613H185.803L187.315 398.917L184.221 391.329H185.635L188.043 397.545L190.423 391.329H191.739Z" fill="#532CA5"/>
<path d="M212.53 394.529C212.823 394.236 212.823 393.762 212.53 393.469L207.757 388.696C207.464 388.403 206.99 388.403 206.697 388.696C206.404 388.989 206.404 389.463 206.697 389.756L210.939 393.999L206.697 398.242C206.404 398.535 206.404 399.009 206.697 399.302C206.99 399.595 207.464 399.595 207.757 399.302L212.53 394.529ZM200 393.999V394.749H212V393.999V393.249H200V393.999Z" fill="#532CA5"/>
<path d="M80.3938 51.1225C80.3938 48.9115 78.2656 46.5632 74.5828 46.5632C70.4472 46.5632 65.9041 49.6281 65.2098 55.7427C64.5004 61.9183 68.304 64.6631 72.1377 64.6631C75.9714 64.6631 77.9788 63.1535 80.0315 61.1407C78.2656 58.8992 75.9865 59.9361 75.5488 60.1648C75.0658 60.4088 74.447 60.7442 73.1791 60.7442C71.7 60.7442 70.1906 60.0733 70.1906 57.2828C79.6693 56.3374 80.3938 53.3335 80.3938 51.1225ZM75.6997 51.4884C75.6394 52.1746 75.3677 53.3487 70.568 54.0044C71.5792 50.3753 73.5112 50.1008 74.4017 50.1008C75.2318 50.1008 75.7601 50.7565 75.6997 51.4884ZM59.6404 52.0831C59.6404 52.0831 57.6027 58.5485 57.4367 59.0821C57.3763 58.5332 55.8821 46.9292 55.8821 46.9292C52.4106 46.9292 50.5541 49.4299 49.5731 52.0679C49.5731 52.0679 47.0977 58.5484 46.8864 59.0974C46.8713 58.5942 46.5091 52.1441 46.5091 52.1441C46.2978 48.9115 43.3697 46.9444 41 46.9444L43.8677 64.5258C47.5053 64.5106 49.4674 62.0251 50.4938 59.3871C50.4938 59.3871 52.6823 53.669 52.7729 53.4097C52.7879 53.6537 54.3426 64.5258 54.3426 64.5258C57.9952 64.5258 59.9573 62.1928 61.0139 59.6463L66.1305 46.9444C62.5232 46.9444 60.6214 49.4299 59.6404 52.0831ZM93.7967 46.5327C91.5478 46.5327 89.8272 47.7678 88.3782 49.5824V49.5671L89.6762 39C86.6877 39 84.2577 41.6227 83.7898 45.5263L81.5258 64.3886C83.2464 64.3886 85.0727 63.8854 86.0538 62.6045C86.9292 63.7482 88.2424 64.6631 90.1894 64.6631C95.2306 64.6631 98.687 58.7467 98.687 53.1963C98.6568 48.1338 96.2268 46.5327 93.7967 46.5327ZM93.3288 55.6055C92.8006 58.7009 91.095 60.8052 89.4498 60.8052C87.7896 60.8052 87.0802 60.058 87.0802 60.058C87.3971 57.3438 87.5933 55.6818 88.1971 54.2484C88.8008 52.8151 90.2347 50.5278 91.7289 50.5278C93.193 50.5278 93.8571 52.4948 93.3288 55.6055ZM111.275 46.9444H107.758L107.773 46.7614C108.015 44.4437 108.558 43.2238 110.354 43.0256C111.577 42.9036 112.12 42.2632 112.256 41.5617C112.362 41.0128 112.694 39.1067 112.694 39.1067C105.63 39.061 103.411 42.1412 102.838 46.8377L102.823 46.9444H102.747C101.6 46.9444 100.332 48.2558 100.121 49.9179L100.045 50.5278H102.4L100.423 67.0266L99.819 69.9847C99.8945 69.9847 99.985 70 100.06 70C103.366 69.878 105.479 67.24 105.947 63.4127L107.486 50.5278H108.588C109.675 50.5278 110.943 49.4299 111.169 47.6001L111.275 46.9444ZM129.568 46.6394C125.508 46.6394 121.674 49.6586 120.497 54.4009C119.32 59.1431 121.101 64.7545 127.078 64.7545C133.04 64.7545 136.481 58.9144 136.481 54.0502C136.481 49.2164 133.236 46.6394 129.568 46.6394ZM131.213 55.453C131.002 57.603 130.066 60.8662 127.5 60.8662C124.919 60.8662 125.282 57.0541 125.538 55.2395C125.81 53.303 126.881 50.543 129.191 50.543C131.259 50.543 131.455 53.0285 131.213 55.453ZM156.54 52.0831C156.54 52.0831 154.502 58.5485 154.336 59.0821C154.276 58.5332 152.782 46.9292 152.782 46.9292C149.31 46.9292 147.454 49.4299 146.473 52.0679C146.473 52.0679 143.997 58.5484 143.786 59.0974C143.771 58.5942 143.409 52.1441 143.409 52.1441C143.197 48.9115 140.269 46.9444 137.9 46.9444L140.752 64.5258C144.39 64.5106 146.352 62.0251 147.378 59.3871C147.378 59.3871 149.567 53.669 149.642 53.4097C149.657 53.6537 151.212 64.5258 151.212 64.5258C154.865 64.5258 156.827 62.1928 157.883 59.6463L163 46.9444C159.408 46.9444 157.506 49.4299 156.54 52.0831ZM114.595 39.1067L111.637 63.2145L111.033 66.1879C111.109 66.1879 111.199 66.2031 111.275 66.2031C114.46 66.1574 116.724 63.3364 117.146 59.7836L118.852 45.9533C119.365 41.7295 116.875 39.1067 114.595 39.1067Z" fill="#F8FAFC"/>
<path d="M163.568 81.271C163.473 80.6145 164.084 80.0591 164.728 80.2163L164.867 80.2617L196.255 92.9925C197.122 93.3443 197.012 94.606 196.097 94.8018L180.324 98.1748L175.091 113.919C174.798 114.801 173.544 114.781 173.278 113.89L163.599 81.4137L163.568 81.271Z" fill="#9E3CFF" stroke="white" stroke-width="1.5"/>
<path d="M223.281 459.001V0.478516" stroke="white" stroke-opacity="0.15"/>
<path d="M87.6367 458.522V0" stroke="white" stroke-opacity="0.15"/>
<path d="M223.383 364.004C297.756 364.004 358.047 303.713 358.047 229.34C358.047 154.967 297.756 94.6758 223.383 94.6758C149.01 94.6758 88.7188 154.967 88.7188 229.34C88.7188 303.713 149.01 364.004 223.383 364.004Z" stroke="white" stroke-opacity="0.15"/>
<path d="M223.583 420.623C329.115 420.623 414.666 335.072 414.666 229.54C414.666 124.008 329.115 38.457 223.583 38.457C118.051 38.457 32.5 124.008 32.5 229.54C32.5 335.072 118.051 420.623 223.583 420.623Z" stroke="white" stroke-opacity="0.15"/>
<path d="M47.6865 338.848V350H46.2305V338.848H47.6865ZM54.44 341.072C55.5067 341.072 56.3707 341.397 57.032 342.048C57.6933 342.688 58.024 343.616 58.024 344.832V350H56.584V345.04C56.584 344.165 56.3653 343.499 55.928 343.04C55.4907 342.571 54.8933 342.336 54.136 342.336C53.368 342.336 52.7547 342.576 52.296 343.056C51.848 343.536 51.624 344.235 51.624 345.152V350H50.168V341.232H51.624V342.48C51.912 342.032 52.3013 341.685 52.792 341.44C53.2933 341.195 53.8427 341.072 54.44 341.072ZM59.8584 345.6C59.8584 344.693 60.0397 343.904 60.4024 343.232C60.765 342.549 61.2664 342.021 61.9064 341.648C62.557 341.275 63.2984 341.088 64.1304 341.088C65.2077 341.088 66.093 341.349 66.7864 341.872C67.4904 342.395 67.9544 343.12 68.1784 344.048H66.6104C66.461 343.515 66.1677 343.093 65.7304 342.784C65.3037 342.475 64.7704 342.32 64.1304 342.32C63.2984 342.32 62.6264 342.608 62.1144 343.184C61.6024 343.749 61.3464 344.555 61.3464 345.6C61.3464 346.656 61.6024 347.472 62.1144 348.048C62.6264 348.624 63.2984 348.912 64.1304 348.912C64.7704 348.912 65.3037 348.763 65.7304 348.464C66.157 348.165 66.4504 347.739 66.6104 347.184H68.1784C67.9437 348.08 67.4744 348.8 66.7704 349.344C66.0664 349.877 65.1864 350.144 64.1304 350.144C63.2984 350.144 62.557 349.957 61.9064 349.584C61.2664 349.211 60.765 348.683 60.4024 348C60.0397 347.317 59.8584 346.517 59.8584 345.6ZM71.5771 342.656C71.8331 342.155 72.1958 341.765 72.6651 341.488C73.1451 341.211 73.7265 341.072 74.4091 341.072V342.576H74.0251C72.3931 342.576 71.5771 343.461 71.5771 345.232V350H70.1211V341.232H71.5771V342.656ZM84.0899 345.28C84.0899 345.557 84.0739 345.851 84.0419 346.16H77.0339C77.0872 347.024 77.3805 347.701 77.9139 348.192C78.4579 348.672 79.1139 348.912 79.8819 348.912C80.5112 348.912 81.0339 348.768 81.4499 348.48C81.8765 348.181 82.1752 347.787 82.3459 347.296H83.9139C83.6792 348.139 83.2099 348.827 82.5059 349.36C81.8019 349.883 80.9272 350.144 79.8819 350.144C79.0499 350.144 78.3032 349.957 77.6419 349.584C76.9912 349.211 76.4792 348.683 76.1059 348C75.7325 347.307 75.5459 346.507 75.5459 345.6C75.5459 344.693 75.7272 343.899 76.0899 343.216C76.4525 342.533 76.9592 342.011 77.6099 341.648C78.2712 341.275 79.0285 341.088 79.8819 341.088C80.7139 341.088 81.4499 341.269 82.0899 341.632C82.7299 341.995 83.2205 342.496 83.5619 343.136C83.9139 343.765 84.0899 344.48 84.0899 345.28ZM82.5859 344.976C82.5859 344.421 82.4632 343.947 82.2179 343.552C81.9725 343.147 81.6365 342.843 81.2099 342.64C80.7939 342.427 80.3299 342.32 79.8179 342.32C79.0819 342.32 78.4525 342.555 77.9299 343.024C77.4179 343.493 77.1245 344.144 77.0499 344.976H82.5859ZM85.4678 345.584C85.4678 344.688 85.6491 343.904 86.0118 343.232C86.3744 342.549 86.8704 342.021 87.4998 341.648C88.1398 341.275 88.8491 341.088 89.6278 341.088C90.3958 341.088 91.0624 341.253 91.6278 341.584C92.1931 341.915 92.6144 342.331 92.8918 342.832V341.232H94.3638V350H92.8918V348.368C92.6038 348.88 92.1718 349.307 91.5958 349.648C91.0304 349.979 90.3691 350.144 89.6118 350.144C88.8331 350.144 88.1291 349.952 87.4998 349.568C86.8704 349.184 86.3744 348.645 86.0118 347.952C85.6491 347.259 85.4678 346.469 85.4678 345.584ZM92.8918 345.6C92.8918 344.939 92.7584 344.363 92.4918 343.872C92.2251 343.381 91.8624 343.008 91.4038 342.752C90.9558 342.485 90.4598 342.352 89.9158 342.352C89.3718 342.352 88.8758 342.48 88.4278 342.736C87.9798 342.992 87.6224 343.365 87.3558 343.856C87.0891 344.347 86.9558 344.923 86.9558 345.584C86.9558 346.256 87.0891 346.843 87.3558 347.344C87.6224 347.835 87.9798 348.213 88.4278 348.48C88.8758 348.736 89.3718 348.864 89.9158 348.864C90.4598 348.864 90.9558 348.736 91.4038 348.48C91.8624 348.213 92.2251 347.835 92.4918 347.344C92.7584 346.843 92.8918 346.261 92.8918 345.6ZM99.9283 350.144C99.2563 350.144 98.6536 350.032 98.1203 349.808C97.5869 349.573 97.1656 349.253 96.8563 348.848C96.5469 348.432 96.3763 347.957 96.3443 347.424H97.8483C97.8909 347.861 98.0936 348.219 98.4563 348.496C98.8296 348.773 99.3149 348.912 99.9123 348.912C100.466 348.912 100.904 348.789 101.224 348.544C101.544 348.299 101.704 347.989 101.704 347.616C101.704 347.232 101.533 346.949 101.192 346.768C100.85 346.576 100.322 346.389 99.6083 346.208C98.9576 346.037 98.4243 345.867 98.0083 345.696C97.6029 345.515 97.2509 345.253 96.9523 344.912C96.6643 344.56 96.5203 344.101 96.5203 343.536C96.5203 343.088 96.6536 342.677 96.9203 342.304C97.1869 341.931 97.5656 341.637 98.0563 341.424C98.5469 341.2 99.1069 341.088 99.7363 341.088C100.706 341.088 101.49 341.333 102.088 341.824C102.685 342.315 103.005 342.987 103.048 343.84H101.592C101.56 343.381 101.373 343.013 101.032 342.736C100.701 342.459 100.253 342.32 99.6883 342.32C99.1656 342.32 98.7496 342.432 98.4403 342.656C98.1309 342.88 97.9763 343.173 97.9763 343.536C97.9763 343.824 98.0669 344.064 98.2483 344.256C98.4403 344.437 98.6749 344.587 98.9523 344.704C99.2403 344.811 99.6349 344.933 100.136 345.072C100.765 345.243 101.277 345.413 101.672 345.584C102.066 345.744 102.402 345.989 102.68 346.32C102.968 346.651 103.117 347.083 103.128 347.616C103.128 348.096 102.994 348.528 102.728 348.912C102.461 349.296 102.082 349.6 101.592 349.824C101.112 350.037 100.557 350.144 99.9283 350.144ZM113.183 345.28C113.183 345.557 113.167 345.851 113.135 346.16H106.127C106.18 347.024 106.474 347.701 107.007 348.192C107.551 348.672 108.207 348.912 108.975 348.912C109.604 348.912 110.127 348.768 110.543 348.48C110.97 348.181 111.268 347.787 111.439 347.296H113.007C112.772 348.139 112.303 348.827 111.599 349.36C110.895 349.883 110.02 350.144 108.975 350.144C108.143 350.144 107.396 349.957 106.735 349.584C106.084 349.211 105.572 348.683 105.199 348C104.826 347.307 104.639 346.507 104.639 345.6C104.639 344.693 104.82 343.899 105.183 343.216C105.546 342.533 106.052 342.011 106.703 341.648C107.364 341.275 108.122 341.088 108.975 341.088C109.807 341.088 110.543 341.269 111.183 341.632C111.823 341.995 112.314 342.496 112.655 343.136C113.007 343.765 113.183 344.48 113.183 345.28ZM111.679 344.976C111.679 344.421 111.556 343.947 111.311 343.552C111.066 343.147 110.73 342.843 110.303 342.64C109.887 342.427 109.423 342.32 108.911 342.32C108.175 342.32 107.546 342.555 107.023 343.024C106.511 343.493 106.218 344.144 106.143 344.976H111.679ZM120.123 339.808C119.845 339.808 119.611 339.712 119.419 339.52C119.227 339.328 119.131 339.093 119.131 338.816C119.131 338.539 119.227 338.304 119.419 338.112C119.611 337.92 119.845 337.824 120.123 337.824C120.389 337.824 120.613 337.92 120.795 338.112C120.987 338.304 121.083 338.539 121.083 338.816C121.083 339.093 120.987 339.328 120.795 339.52C120.613 339.712 120.389 339.808 120.123 339.808ZM120.827 341.232V350H119.371V341.232H120.827ZM127.58 341.072C128.647 341.072 129.511 341.397 130.172 342.048C130.833 342.688 131.164 343.616 131.164 344.832V350H129.724V345.04C129.724 344.165 129.505 343.499 129.068 343.04C128.631 342.571 128.033 342.336 127.276 342.336C126.508 342.336 125.895 342.576 125.436 343.056C124.988 343.536 124.764 344.235 124.764 345.152V350H123.308V341.232H124.764V342.48C125.052 342.032 125.441 341.685 125.932 341.44C126.433 341.195 126.983 341.072 127.58 341.072ZM139.264 342.656C139.52 342.155 139.883 341.765 140.352 341.488C140.832 341.211 141.413 341.072 142.096 341.072V342.576H141.712C140.08 342.576 139.264 343.461 139.264 345.232V350H137.808V341.232H139.264V342.656ZM151.777 345.28C151.777 345.557 151.761 345.851 151.729 346.16H144.721C144.774 347.024 145.068 347.701 145.601 348.192C146.145 348.672 146.801 348.912 147.569 348.912C148.198 348.912 148.721 348.768 149.137 348.48C149.564 348.181 149.862 347.787 150.033 347.296H151.601C151.366 348.139 150.897 348.827 150.193 349.36C149.489 349.883 148.614 350.144 147.569 350.144C146.737 350.144 145.99 349.957 145.329 349.584C144.678 349.211 144.166 348.683 143.793 348C143.42 347.307 143.233 346.507 143.233 345.6C143.233 344.693 143.414 343.899 143.777 343.216C144.14 342.533 144.646 342.011 145.297 341.648C145.958 341.275 146.716 341.088 147.569 341.088C148.401 341.088 149.137 341.269 149.777 341.632C150.417 341.995 150.908 342.496 151.249 343.136C151.601 343.765 151.777 344.48 151.777 345.28ZM150.273 344.976C150.273 344.421 150.15 343.947 149.905 343.552C149.66 343.147 149.324 342.843 148.897 342.64C148.481 342.427 148.017 342.32 147.505 342.32C146.769 342.32 146.14 342.555 145.617 343.024C145.105 343.493 144.812 344.144 144.737 344.976H150.273ZM156.963 348.656L159.683 341.232H161.235L157.795 350H156.099L152.659 341.232H154.227L156.963 348.656ZM170.668 345.28C170.668 345.557 170.652 345.851 170.62 346.16H163.612C163.665 347.024 163.958 347.701 164.492 348.192C165.036 348.672 165.692 348.912 166.46 348.912C167.089 348.912 167.612 348.768 168.028 348.48C168.454 348.181 168.753 347.787 168.924 347.296H170.492C170.257 348.139 169.788 348.827 169.084 349.36C168.38 349.883 167.505 350.144 166.46 350.144C165.628 350.144 164.881 349.957 164.22 349.584C163.569 349.211 163.057 348.683 162.684 348C162.31 347.307 162.124 346.507 162.124 345.6C162.124 344.693 162.305 343.899 162.668 343.216C163.03 342.533 163.537 342.011 164.188 341.648C164.849 341.275 165.606 341.088 166.46 341.088C167.292 341.088 168.028 341.269 168.668 341.632C169.308 341.995 169.798 342.496 170.14 343.136C170.492 343.765 170.668 344.48 170.668 345.28ZM169.164 344.976C169.164 344.421 169.041 343.947 168.796 343.552C168.55 343.147 168.214 342.843 167.788 342.64C167.372 342.427 166.908 342.32 166.396 342.32C165.66 342.32 165.03 342.555 164.508 343.024C163.996 343.493 163.702 344.144 163.628 344.976H169.164ZM176.861 341.072C177.928 341.072 178.792 341.397 179.453 342.048C180.115 342.688 180.445 343.616 180.445 344.832V350H179.005V345.04C179.005 344.165 178.787 343.499 178.349 343.04C177.912 342.571 177.315 342.336 176.557 342.336C175.789 342.336 175.176 342.576 174.717 343.056C174.269 343.536 174.045 344.235 174.045 345.152V350H172.589V341.232H174.045V342.48C174.333 342.032 174.723 341.685 175.213 341.44C175.715 341.195 176.264 341.072 176.861 341.072ZM190.6 341.232V350H189.144V348.704C188.866 349.152 188.477 349.504 187.976 349.76C187.485 350.005 186.941 350.128 186.344 350.128C185.661 350.128 185.048 349.989 184.504 349.712C183.96 349.424 183.528 348.997 183.208 348.432C182.898 347.867 182.744 347.179 182.744 346.368V341.232H184.184V346.176C184.184 347.04 184.402 347.707 184.84 348.176C185.277 348.635 185.874 348.864 186.632 348.864C187.41 348.864 188.024 348.624 188.472 348.144C188.92 347.664 189.144 346.965 189.144 346.048V341.232H190.6ZM201.058 345.28C201.058 345.557 201.042 345.851 201.01 346.16H194.002C194.055 347.024 194.349 347.701 194.882 348.192C195.426 348.672 196.082 348.912 196.85 348.912C197.479 348.912 198.002 348.768 198.418 348.48C198.845 348.181 199.143 347.787 199.314 347.296H200.882C200.647 348.139 200.178 348.827 199.474 349.36C198.77 349.883 197.895 350.144 196.85 350.144C196.018 350.144 195.271 349.957 194.61 349.584C193.959 349.211 193.447 348.683 193.074 348C192.701 347.307 192.514 346.507 192.514 345.6C192.514 344.693 192.695 343.899 193.058 343.216C193.421 342.533 193.927 342.011 194.578 341.648C195.239 341.275 195.997 341.088 196.85 341.088C197.682 341.088 198.418 341.269 199.058 341.632C199.698 341.995 200.189 342.496 200.53 343.136C200.882 343.765 201.058 344.48 201.058 345.28ZM199.554 344.976C199.554 344.421 199.431 343.947 199.186 343.552C198.941 343.147 198.605 342.843 198.178 342.64C197.762 342.427 197.298 342.32 196.786 342.32C196.05 342.32 195.421 342.555 194.898 343.024C194.386 343.493 194.093 344.144 194.018 344.976H199.554Z" fill="white"/>
<path d="M55.0876 311.29C60.3356 306.753 64.4629 303.035 67.4696 300.138C70.5309 297.186 73.0729 294.125 75.0956 290.954C77.1183 287.783 78.1296 284.613 78.1296 281.442C78.1296 278.162 77.3369 275.593 75.7516 273.734C74.2209 271.875 71.7883 270.946 68.4536 270.946C65.2283 270.946 62.7136 271.985 60.9096 274.062C59.1603 276.085 58.2309 278.818 58.1216 282.262H49.1016C49.2656 276.03 51.1243 271.274 54.6776 267.994C58.2856 264.659 62.8503 262.992 68.3716 262.992C74.3303 262.992 78.9769 264.632 82.3116 267.912C85.7009 271.192 87.3956 275.565 87.3956 281.032C87.3956 284.968 86.3843 288.767 84.3616 292.43C82.3936 296.038 80.0156 299.291 77.2276 302.188C74.4943 305.031 70.9956 308.338 66.7316 312.11L63.0416 315.39H89.0356V323.18H49.1836V316.374L55.0876 311.29ZM124.636 295.546L142.348 324H131.852L118.978 303.336L106.924 324H96.5098L114.222 295.546L96.4278 267.01H106.924L119.88 287.838L132.016 267.01H142.43L124.636 295.546Z" fill="white"/>
</g>
<defs>
<linearGradient id="paint0_linear_7297_842" x1="173" y1="0" x2="173" y2="452" gradientUnits="userSpaceOnUse">
<stop stop-color="#DBB9FF"/>
<stop offset="1" stop-color="#532CA5"/>
</linearGradient>
<clipPath id="clip0_7297_842">
<rect width="346" height="452" fill="white"/>
</clipPath>
</defs>
</svg>
