<svg width="678" height="452" viewBox="0 0 678 452" fill="none" xmlns="http://www.w3.org/2000/svg">
<g clip-path="url(#clip0_6512_547)">
<rect width="678" height="452" rx="20" fill="url(#paint0_linear_6512_547)" fill-opacity="0.1"/>
<g filter="url(#filter0_f_6512_547)">
<circle cx="105" cy="119" r="156" fill="url(#paint1_linear_6512_547)" fill-opacity="0.8"/>
</g>
<circle cx="339" cy="226" r="143.5" stroke="white" stroke-opacity="0.8"/>
<circle cx="15" cy="62" r="143.5" stroke="white" stroke-opacity="0.8"/>
<line y1="319.5" x2="678.39" y2="319.5" stroke="white" stroke-opacity="0.6"/>
<line y1="128.5" x2="678.39" y2="128.5" stroke="white" stroke-opacity="0.6"/>
<line y1="379.5" x2="678.39" y2="379.5" stroke="white" stroke-opacity="0.6"/>
<circle cx="372" cy="244" r="143.5" stroke="white" stroke-opacity="0.8"/>
<rect x="123.5" y="100.5" width="59" height="59" rx="9.5" fill="#F8FAFC" stroke="#E2E8F0"/>
<g clip-path="url(#clip1_6512_547)">
<path d="M147.753 148.001C150.926 148.001 153.502 145.387 153.502 142.167V136.334H147.753C144.579 136.334 142.004 138.947 142.004 142.167C142.004 145.387 144.579 148.001 147.753 148.001Z" fill="#0ACF83"/>
<path d="M142.004 130.499C142.004 127.279 144.579 124.666 147.753 124.666H153.502V136.333H147.753C144.579 136.333 142.004 133.719 142.004 130.499Z" fill="#A259FF"/>
<path d="M142.004 118.833C142.004 115.613 144.579 113 147.753 113H153.502V124.667H147.753C144.579 124.667 142.004 122.053 142.004 118.833Z" fill="#F24E1E"/>
<path d="M153.5 113H159.249C162.422 113 164.998 115.613 164.998 118.833C164.998 122.053 162.422 124.667 159.249 124.667H153.5V113Z" fill="#FF7262"/>
<path d="M164.998 130.499C164.998 133.719 162.422 136.333 159.249 136.333C156.075 136.333 153.5 133.719 153.5 130.499C153.5 127.279 156.075 124.666 159.249 124.666C162.422 124.666 164.998 127.279 164.998 130.499Z" fill="#1ABCFE"/>
</g>
<rect x="183.5" y="240.5" width="59" height="59" rx="9.5" fill="#F8FAFC" stroke="#E2E8F0"/>
<g clip-path="url(#clip2_6512_547)">
<path d="M213.999 253.057C204.639 253.057 197.051 260.645 197.051 270.004C197.051 279.365 204.639 286.952 213.999 286.952C223.36 286.952 230.947 279.365 230.947 270.004C230.947 260.645 223.36 253.057 213.999 253.057L213.999 253.057ZM221.771 277.5C221.467 277.998 220.816 278.156 220.318 277.85C216.339 275.42 211.329 274.869 205.43 276.217C204.861 276.347 204.295 275.99 204.165 275.422C204.035 274.853 204.39 274.286 204.96 274.157C211.416 272.681 216.954 273.317 221.421 276.047C221.919 276.353 222.077 277.002 221.771 277.5ZM223.845 272.885C223.463 273.507 222.649 273.704 222.028 273.321C217.472 270.52 210.528 269.709 205.14 271.345C204.441 271.556 203.703 271.162 203.491 270.465C203.28 269.766 203.674 269.029 204.372 268.817C210.527 266.949 218.179 267.854 223.41 271.069C224.032 271.451 224.228 272.265 223.845 272.885V272.885ZM224.024 268.08C218.561 264.835 209.549 264.537 204.334 266.12C203.497 266.374 202.611 265.901 202.357 265.063C202.103 264.226 202.576 263.341 203.414 263.086C209.4 261.269 219.353 261.62 225.641 265.353C226.396 265.8 226.643 266.773 226.196 267.525C225.751 268.279 224.775 268.527 224.024 268.08H224.024Z" fill="#1ED760"/>
</g>
<rect x="447.5" y="193.5" width="59" height="59" rx="9.5" fill="#F8FAFC" stroke="#E2E8F0"/>
<path fill-rule="evenodd" clip-rule="evenodd" d="M467.17 227.476C467.17 229.452 465.575 231.047 463.599 231.047C461.622 231.047 460.027 229.447 460.027 227.476C460.027 225.505 461.622 223.904 463.599 223.904H467.17V227.476ZM468.953 227.476C468.953 225.499 470.548 223.904 472.525 223.904C474.501 223.904 476.096 225.499 476.096 227.476V236.402C476.096 238.378 474.501 239.973 472.525 239.973C470.548 239.973 468.953 238.378 468.953 236.402V227.476Z" fill="#E01E5A"/>
<path fill-rule="evenodd" clip-rule="evenodd" d="M472.524 213.143C470.548 213.143 468.953 211.548 468.953 209.571C468.953 207.595 470.548 206 472.524 206C474.5 206 476.096 207.595 476.096 209.571V213.143H472.524ZM472.524 214.953C474.5 214.953 476.096 216.548 476.096 218.524C476.096 220.5 474.5 222.096 472.524 222.096H463.571C461.595 222.096 460 220.495 460 218.524C460 216.553 461.595 214.953 463.571 214.953H472.524Z" fill="#36C5F0"/>
<path fill-rule="evenodd" clip-rule="evenodd" d="M486.832 218.524C486.832 216.548 488.427 214.953 490.404 214.953C492.38 214.953 493.975 216.548 493.975 218.524C493.975 220.5 492.38 222.096 490.404 222.096H486.832V218.524ZM485.049 218.524C485.049 220.5 483.454 222.096 481.478 222.096C479.501 222.096 477.906 220.5 477.906 218.524V209.571C477.906 207.595 479.501 206 481.478 206C483.454 206 485.049 207.595 485.049 209.571V218.524Z" fill="#2EB67D"/>
<path fill-rule="evenodd" clip-rule="evenodd" d="M481.478 232.83C483.454 232.83 485.049 234.425 485.049 236.402C485.049 238.378 483.454 239.973 481.478 239.973C479.501 239.973 477.906 238.378 477.906 236.402V232.83H481.478ZM481.478 231.047C479.501 231.047 477.906 229.452 477.906 227.476C477.906 225.499 479.501 223.904 481.478 223.904H490.43C492.407 223.904 494.002 225.499 494.002 227.476C494.002 229.452 492.407 231.047 490.43 231.047H481.478Z" fill="#ECB22E"/>
<rect x="397.5" y="71.5" width="59" height="59" rx="9.5" fill="#F8FAFC" stroke="#E2E8F0"/>
<path d="M435.446 96.7258L432.555 105.874C432.555 105.173 430.561 90 430.561 90C425.975 90 423.542 93.2628 422.266 96.7258L418.737 105.894C418.737 105.233 418.238 96.8059 418.238 96.8059C418.068 94.9816 417.237 93.2833 415.903 92.0326C414.569 90.782 412.825 90.0659 411 90.02L414.749 113C419.534 113 422.126 109.737 423.462 106.274L426.453 98.4674C426.453 98.7876 428.447 113 428.447 113C430.404 112.997 432.309 112.369 433.887 111.207C435.464 110.044 436.632 108.408 437.221 106.534L444 90C439.215 90 436.702 93.2628 435.426 96.7258H435.446Z" fill="#4353FF"/>
<rect x="272.5" y="112.5" width="59" height="59" rx="9.5" fill="#F8FAFC" stroke="#E2E8F0"/>
<path d="M292.932 126H311.066C314.892 126 317.998 129.106 317.998 132.932V151.066C317.998 154.892 314.892 157.998 311.066 157.998H292.932C289.106 157.998 286 154.892 286 151.066V132.932C286 129.106 289.106 126 292.932 126Z" fill="#FFD02F"/>
<path d="M308.234 129.996H304.721L307.647 135.138L301.208 129.996H297.694L300.914 136.284L294.181 129.996H290.668L294.181 137.998L290.668 154.002H294.181L300.914 136.852L297.694 154.002H301.208L307.647 135.716L304.721 154.002H308.234L314.674 133.992L308.234 129.996Z" fill="#050038"/>
<rect x="77.5" y="320.5" width="59" height="59" rx="9.5" fill="#F8FAFC" stroke="#E2E8F0"/>
<path d="M100.914 348.459V348.459C100.835 348.365 100.733 348.293 100.619 348.247C100.506 348.201 100.382 348.183 100.26 348.195C100.157 348.214 100.06 348.258 99.9784 348.324C99.8966 348.389 99.8325 348.474 99.7918 348.571L92.0717 364.002C92.02 364.106 91.9956 364.22 92.0007 364.335C92.0058 364.451 92.0403 364.563 92.1009 364.661C92.1615 364.759 92.2461 364.84 92.3469 364.896C92.4476 364.952 92.561 364.982 92.6764 364.982H103.426C103.552 364.984 103.676 364.95 103.783 364.884C103.889 364.817 103.975 364.721 104.028 364.607C106.286 359.947 104.889 352.705 100.914 348.459Z" fill="url(#paint2_linear_6512_547)"/>
<path d="M122.93 364.007C122.786 363.718 108.466 335.066 108.114 334.353C108.068 334.254 107.996 334.168 107.905 334.106C107.814 334.044 107.708 334.007 107.599 334L107.574 334C107.449 334.006 107.327 334.045 107.221 334.111C107.114 334.178 107.026 334.27 106.966 334.38L106.965 334.381C103.083 340.53 102.644 347.954 105.789 354.241L110.971 364.604C111.026 364.718 111.112 364.815 111.219 364.883C111.326 364.95 111.45 364.986 111.577 364.986H122.325C122.441 364.986 122.554 364.957 122.655 364.901C122.756 364.845 122.84 364.764 122.901 364.666C122.962 364.568 122.996 364.456 123.001 364.34C123.006 364.225 122.982 364.11 122.93 364.007Z" fill="url(#paint3_linear_6512_547)"/>
<rect x="273.5" y="350.5" width="59" height="59" rx="9.5" fill="#F8FAFC" stroke="#E2E8F0"/>
<g clip-path="url(#clip3_6512_547)">
<path d="M319.998 380.406C319.998 379.26 319.888 378.077 319.705 376.969H303.828V383.51H312.921C312.555 385.617 311.345 387.464 309.548 388.647L314.975 392.897C318.165 389.904 319.998 385.543 319.998 380.406Z" fill="#4280EF"/>
<path d="M303.83 396.963C308.377 396.963 312.19 395.448 314.977 392.861L309.55 388.648C308.047 389.683 306.104 390.274 303.83 390.274C299.43 390.274 295.727 387.28 294.37 383.289L288.797 387.613C291.657 393.341 297.45 396.963 303.83 396.963Z" fill="#34A353"/>
<path d="M294.369 383.252C293.672 381.145 293.672 378.854 294.369 376.748L288.795 372.387C286.412 377.191 286.412 382.845 288.795 387.613L294.369 383.252Z" fill="#F6B704"/>
<path d="M303.83 369.764C306.214 369.727 308.56 370.651 310.284 372.314L315.087 367.436C312.044 364.553 308.01 363.001 303.83 363.038C297.45 363.038 291.657 366.659 288.797 372.388L294.37 376.749C295.727 372.72 299.43 369.764 303.83 369.764Z" fill="#E54335"/>
</g>
<rect x="476.5" y="320.5" width="59" height="59" rx="9.5" fill="#F8FAFC" stroke="#E2E8F0"/>
<g clip-path="url(#clip4_6512_547)">
<path d="M523.33 346.594L523.283 346.467L518.557 334.016C518.461 333.771 518.291 333.564 518.071 333.424C517.906 333.317 517.72 333.252 517.526 333.231C517.332 333.211 517.136 333.237 516.954 333.307C516.771 333.377 516.608 333.489 516.476 333.635C516.345 333.78 516.249 333.954 516.196 334.144L513.006 344.009H500.087L496.897 334.144C496.844 333.955 496.747 333.781 496.616 333.636C496.484 333.49 496.321 333.378 496.138 333.308C495.956 333.238 495.761 333.212 495.567 333.232C495.373 333.252 495.186 333.318 495.022 333.424C494.802 333.564 494.632 333.771 494.536 334.016L489.812 346.47L489.763 346.594C489.083 348.389 488.999 350.359 489.524 352.206C490.049 354.054 491.155 355.679 492.674 356.836L492.692 356.85L492.732 356.881L499.922 362.324L503.489 365.046L505.656 366.701C505.91 366.895 506.22 367 506.538 367C506.857 367 507.167 366.895 507.421 366.701L509.588 365.046L513.155 362.324L520.396 356.85L520.416 356.834C521.935 355.677 523.041 354.052 523.567 352.205C524.092 350.358 524.009 348.389 523.33 346.594Z" fill="#E24329"/>
<path d="M523.332 346.593L523.286 346.467C520.983 346.944 518.813 347.93 516.932 349.353L506.555 357.279L513.162 362.323L520.403 356.849L520.423 356.833C521.942 355.676 523.047 354.051 523.571 352.204C524.096 350.357 524.012 348.388 523.332 346.593Z" fill="#FC6D26"/>
<path d="M499.922 362.323L503.489 365.045L505.656 366.7C505.91 366.894 506.22 366.999 506.538 366.999C506.857 366.999 507.167 366.894 507.421 366.7L509.588 365.045L513.155 362.323L506.547 357.279L499.922 362.323Z" fill="#FCA326"/>
<path d="M496.163 349.353C494.283 347.93 492.114 346.945 489.812 346.469L489.763 346.593C489.083 348.388 488.999 350.358 489.524 352.205C490.049 354.053 491.155 355.678 492.674 356.835L492.692 356.849L492.732 356.88L499.922 362.323L506.534 357.279L496.163 349.353Z" fill="#FC6D26"/>
</g>
</g>
<defs>
<filter id="filter0_f_6512_547" x="-351" y="-337" width="912" height="912" filterUnits="userSpaceOnUse" color-interpolation-filters="sRGB">
<feFlood flood-opacity="0" result="BackgroundImageFix"/>
<feBlend mode="normal" in="SourceGraphic" in2="BackgroundImageFix" result="shape"/>
<feGaussianBlur stdDeviation="150" result="effect1_foregroundBlur_6512_547"/>
</filter>
<linearGradient id="paint0_linear_6512_547" x1="339" y1="0" x2="339" y2="452" gradientUnits="userSpaceOnUse">
<stop stop-color="#7452FF"/>
<stop offset="1" stop-color="#463199"/>
</linearGradient>
<linearGradient id="paint1_linear_6512_547" x1="105" y1="-37" x2="252" y2="253" gradientUnits="userSpaceOnUse">
<stop stop-color="#536DFF"/>
<stop offset="1" stop-color="#F046FF"/>
</linearGradient>
<linearGradient id="paint2_linear_6512_547" x1="105.202" y1="350.887" x2="95.9222" y2="366.96" gradientUnits="userSpaceOnUse">
<stop stop-color="#075BD5"/>
<stop offset="0.92" stop-color="#2684FF"/>
</linearGradient>
<linearGradient id="paint3_linear_6512_547" x1="113.354" y1="334" x2="113.354" y2="364.986" gradientUnits="userSpaceOnUse">
<stop stop-color="#2684FF"/>
<stop offset="1" stop-color="#2684FF"/>
</linearGradient>
<clipPath id="clip0_6512_547">
<rect width="678" height="452" rx="20" fill="white"/>
</clipPath>
<clipPath id="clip1_6512_547">
<rect width="23" height="35" fill="white" transform="translate(142 113)"/>
</clipPath>
<clipPath id="clip2_6512_547">
<rect width="34" height="34" fill="white" transform="translate(197 253)"/>
</clipPath>
<clipPath id="clip3_6512_547">
<rect width="33" height="34" fill="white" transform="translate(287 363)"/>
</clipPath>
<clipPath id="clip4_6512_547">
<rect width="35" height="34" fill="white" transform="translate(489 333)"/>
</clipPath>
</defs>
</svg>
