<svg width="225" height="60" viewBox="0 0 225 60" fill="none" xmlns="http://www.w3.org/2000/svg">
<path d="M84.448 38.36C83.128 38.36 81.952 38.084 80.92 37.532C79.888 36.956 79.072 36.176 78.472 35.192C77.896 34.208 77.608 33.092 77.608 31.844V26.876C77.608 25.628 77.908 24.512 78.508 23.528C79.108 22.544 79.924 21.776 80.956 21.224C81.988 20.648 83.152 20.36 84.448 20.36C86.008 20.36 87.412 20.768 88.66 21.584C89.932 22.376 90.928 23.456 91.648 24.824C92.392 26.168 92.764 27.692 92.764 29.396C92.764 31.076 92.392 32.6 91.648 33.968C90.928 35.312 89.932 36.38 88.66 37.172C87.412 37.964 86.008 38.36 84.448 38.36ZM75.196 45.2V20.72H79.156V25.364L78.472 29.576L79.156 33.752V45.2H75.196ZM83.8 34.616C84.76 34.616 85.6 34.4 86.32 33.968C87.064 33.512 87.64 32.888 88.048 32.096C88.48 31.304 88.696 30.392 88.696 29.36C88.696 28.328 88.48 27.416 88.048 26.624C87.64 25.832 87.064 25.22 86.32 24.788C85.6 24.332 84.76 24.104 83.8 24.104C82.84 24.104 81.988 24.332 81.244 24.788C80.5 25.22 79.924 25.832 79.516 26.624C79.108 27.416 78.904 28.328 78.904 29.36C78.904 30.392 79.108 31.304 79.516 32.096C79.924 32.888 80.5 33.512 81.244 33.968C81.988 34.4 82.84 34.616 83.8 34.616ZM96.0788 38V20.72H100.039V38H96.0788ZM100.039 28.388L98.6708 27.704C98.6708 25.52 99.1508 23.756 100.111 22.412C101.095 21.044 102.571 20.36 104.539 20.36C105.403 20.36 106.183 20.516 106.879 20.828C107.575 21.14 108.223 21.644 108.823 22.34L106.231 25.004C105.919 24.668 105.571 24.428 105.187 24.284C104.803 24.14 104.359 24.068 103.855 24.068C102.751 24.068 101.839 24.416 101.119 25.112C100.399 25.808 100.039 26.9 100.039 28.388ZM118.24 38.36C116.512 38.36 114.952 37.976 113.56 37.208C112.192 36.416 111.1 35.336 110.284 33.968C109.492 32.6 109.096 31.064 109.096 29.36C109.096 27.656 109.492 26.132 110.284 24.788C111.076 23.42 112.144 22.34 113.488 21.548C114.856 20.756 116.368 20.36 118.024 20.36C119.632 20.36 121.048 20.732 122.272 21.476C123.52 22.22 124.492 23.24 125.188 24.536C125.908 25.832 126.268 27.308 126.268 28.964C126.268 29.252 126.244 29.552 126.196 29.864C126.172 30.152 126.124 30.476 126.052 30.836H111.868V27.596H124L122.524 28.892C122.476 27.836 122.272 26.948 121.912 26.228C121.552 25.508 121.036 24.956 120.364 24.572C119.716 24.188 118.912 23.996 117.952 23.996C116.944 23.996 116.068 24.212 115.324 24.644C114.58 25.076 114.004 25.688 113.596 26.48C113.188 27.248 112.984 28.172 112.984 29.252C112.984 30.332 113.2 31.28 113.632 32.096C114.064 32.912 114.676 33.548 115.468 34.004C116.26 34.436 117.172 34.652 118.204 34.652C119.092 34.652 119.908 34.496 120.652 34.184C121.42 33.872 122.068 33.416 122.596 32.816L125.116 35.372C124.276 36.356 123.256 37.1 122.056 37.604C120.856 38.108 119.584 38.36 118.24 38.36ZM138.694 38.36C137.374 38.36 136.198 38.084 135.166 37.532C134.134 36.956 133.318 36.176 132.718 35.192C132.142 34.208 131.854 33.092 131.854 31.844V26.876C131.854 25.628 132.154 24.512 132.754 23.528C133.354 22.544 134.17 21.776 135.202 21.224C136.234 20.648 137.398 20.36 138.694 20.36C140.254 20.36 141.658 20.768 142.906 21.584C144.178 22.376 145.174 23.456 145.894 24.824C146.638 26.168 147.01 27.692 147.01 29.396C147.01 31.076 146.638 32.6 145.894 33.968C145.174 35.312 144.178 36.38 142.906 37.172C141.658 37.964 140.254 38.36 138.694 38.36ZM129.442 38V12.08H133.402V24.968L132.718 29.144L133.402 33.356V38H129.442ZM138.046 34.616C139.006 34.616 139.846 34.4 140.566 33.968C141.31 33.512 141.886 32.888 142.294 32.096C142.726 31.304 142.942 30.392 142.942 29.36C142.942 28.328 142.726 27.416 142.294 26.624C141.886 25.832 141.31 25.22 140.566 24.788C139.846 24.332 139.006 24.104 138.046 24.104C137.086 24.104 136.234 24.332 135.49 24.788C134.746 25.22 134.17 25.832 133.762 26.624C133.354 27.416 133.15 28.328 133.15 29.36C133.15 30.392 133.354 31.304 133.762 32.096C134.17 32.888 134.746 33.512 135.49 33.968C136.234 34.4 137.086 34.616 138.046 34.616ZM157.417 38.36C155.953 38.36 154.645 38.036 153.493 37.388C152.365 36.74 151.477 35.852 150.829 34.724C150.205 33.572 149.893 32.252 149.893 30.764V20.72H153.853V30.584C153.853 31.424 153.985 32.144 154.249 32.744C154.537 33.32 154.945 33.764 155.473 34.076C156.025 34.388 156.673 34.544 157.417 34.544C158.569 34.544 159.445 34.208 160.045 33.536C160.669 32.84 160.981 31.856 160.981 30.584V20.72H164.941V30.764C164.941 32.276 164.617 33.608 163.969 34.76C163.345 35.888 162.469 36.776 161.341 37.424C160.213 38.048 158.905 38.36 157.417 38.36ZM168.959 38V20.72H172.919V38H168.959ZM170.939 17.552C170.267 17.552 169.703 17.324 169.247 16.868C168.815 16.412 168.599 15.848 168.599 15.176C168.599 14.504 168.815 13.94 169.247 13.484C169.703 13.028 170.267 12.8 170.939 12.8C171.635 12.8 172.199 13.028 172.631 13.484C173.063 13.94 173.279 14.504 173.279 15.176C173.279 15.848 173.063 16.412 172.631 16.868C172.199 17.324 171.635 17.552 170.939 17.552ZM177.36 38V12.08H181.32V38H177.36ZM188.355 38V13.52H192.315V38H188.355ZM184.215 24.32V20.72H196.455V24.32H184.215ZM206.425 38.36C204.961 38.36 203.653 38.036 202.501 37.388C201.373 36.74 200.485 35.852 199.837 34.724C199.213 33.572 198.901 32.252 198.901 30.764V20.72H202.861V30.584C202.861 31.424 202.993 32.144 203.257 32.744C203.545 33.32 203.953 33.764 204.481 34.076C205.033 34.388 205.681 34.544 206.425 34.544C207.577 34.544 208.453 34.208 209.053 33.536C209.677 32.84 209.989 31.856 209.989 30.584V20.72H213.949V30.764C213.949 32.276 213.625 33.608 212.977 34.76C212.353 35.888 211.477 36.776 210.349 37.424C209.221 38.048 207.913 38.36 206.425 38.36ZM217.966 38V20.72H221.926V38H217.966ZM219.946 17.552C219.274 17.552 218.71 17.324 218.254 16.868C217.822 16.412 217.606 15.848 217.606 15.176C217.606 14.504 217.822 13.94 218.254 13.484C218.71 13.028 219.274 12.8 219.946 12.8C220.642 12.8 221.206 13.028 221.638 13.484C222.07 13.94 222.286 14.504 222.286 15.176C222.286 15.848 222.07 16.412 221.638 16.868C221.206 17.324 220.642 17.552 219.946 17.552Z" fill="white"/>
<rect width="60" height="60" rx="10" fill="url(#paint0_linear_5199_132)"/>
<path d="M21.75 16.7389L29.5 21.1418L37.25 16.7389M21.75 43.1221V34.3334L14 29.9305M45 29.9305L37.25 34.3334V43.1221M14.465 21.3958L29.5 29.9475L44.535 21.3958M29.5 47V29.9305M45 36.7041V23.1569C44.9994 22.563 44.8399 21.9797 44.5377 21.4655C44.2354 20.9513 43.8009 20.5243 43.2778 20.2273L31.2222 13.4537C30.6986 13.1565 30.1046 13 29.5 13C28.8954 13 28.3014 13.1565 27.7778 13.4537L15.7222 20.2273C15.1991 20.5243 14.7646 20.9513 14.4624 21.4655C14.1601 21.9797 14.0006 22.563 14 23.1569V36.7041C14.0006 37.298 14.1601 37.8814 14.4624 38.3956C14.7646 38.9098 15.1991 39.3368 15.7222 39.6337L27.7778 46.4073C28.3014 46.7046 28.8954 46.8611 29.5 46.8611C30.1046 46.8611 30.6986 46.7046 31.2222 46.4073L43.2778 39.6337C43.8009 39.3368 44.2354 38.9098 44.5377 38.3956C44.8399 37.8814 44.9994 37.298 45 36.7041Z" stroke="white" stroke-width="2.5" stroke-linecap="round" stroke-linejoin="round"/>
<defs>
<linearGradient id="paint0_linear_5199_132" x1="-3.32793e-07" y1="26.5" x2="60" y2="46.5" gradientUnits="userSpaceOnUse">
<stop stop-color="#7A41FF"/>
<stop offset="1" stop-color="#7C83FF"/>
</linearGradient>
</defs>
</svg>
