<svg width="155" height="40" viewBox="0 0 155 40" fill="none" xmlns="http://www.w3.org/2000/svg">
<path d="M45.904 28.28C44.8773 28.28 43.9627 28.0653 43.16 27.636C42.3573 27.188 41.7227 26.5813 41.256 25.816C40.808 25.0507 40.584 24.1827 40.584 23.212V19.348C40.584 18.3773 40.8173 17.5093 41.284 16.744C41.7507 15.9787 42.3853 15.3813 43.188 14.952C43.9907 14.504 44.896 14.28 45.904 14.28C47.1173 14.28 48.2093 14.5973 49.18 15.232C50.1693 15.848 50.944 16.688 51.504 17.752C52.0827 18.7973 52.372 19.9827 52.372 21.308C52.372 22.6147 52.0827 23.8 51.504 24.864C50.944 25.9093 50.1693 26.74 49.18 27.356C48.2093 27.972 47.1173 28.28 45.904 28.28ZM38.708 33.6V14.56H41.788V18.172L41.256 21.448L41.788 24.696V33.6H38.708ZM45.4 25.368C46.1467 25.368 46.8 25.2 47.36 24.864C47.9387 24.5093 48.3867 24.024 48.704 23.408C49.04 22.792 49.208 22.0827 49.208 21.28C49.208 20.4773 49.04 19.768 48.704 19.152C48.3867 18.536 47.9387 18.06 47.36 17.724C46.8 17.3693 46.1467 17.192 45.4 17.192C44.6533 17.192 43.9907 17.3693 43.412 17.724C42.8333 18.06 42.3853 18.536 42.068 19.152C41.7507 19.768 41.592 20.4773 41.592 21.28C41.592 22.0827 41.7507 22.792 42.068 23.408C42.3853 24.024 42.8333 24.5093 43.412 24.864C43.9907 25.2 44.6533 25.368 45.4 25.368ZM54.9502 28V14.56H58.0302V28H54.9502ZM58.0302 20.524L56.9662 19.992C56.9662 18.2933 57.3395 16.9213 58.0862 15.876C58.8515 14.812 59.9995 14.28 61.5302 14.28C62.2022 14.28 62.8089 14.4013 63.3502 14.644C63.8915 14.8867 64.3955 15.2787 64.8622 15.82L62.8462 17.892C62.6035 17.6307 62.3329 17.444 62.0342 17.332C61.7355 17.22 61.3902 17.164 60.9982 17.164C60.1395 17.164 59.4302 17.4347 58.8702 17.976C58.3102 18.5173 58.0302 19.3667 58.0302 20.524ZM72.1864 28.28C70.8424 28.28 69.629 27.9813 68.5464 27.384C67.4824 26.768 66.633 25.928 65.9984 24.864C65.3824 23.8 65.0744 22.6053 65.0744 21.28C65.0744 19.9547 65.3824 18.7693 65.9984 17.724C66.6144 16.66 67.445 15.82 68.4904 15.204C69.5544 14.588 70.7304 14.28 72.0184 14.28C73.269 14.28 74.3704 14.5693 75.3224 15.148C76.293 15.7267 77.049 16.52 77.5904 17.528C78.1504 18.536 78.4304 19.684 78.4304 20.972C78.4304 21.196 78.4117 21.4293 78.3744 21.672C78.3557 21.896 78.3184 22.148 78.2624 22.428H67.2304V19.908H76.6664L75.5184 20.916C75.481 20.0947 75.3224 19.404 75.0424 18.844C74.7624 18.284 74.361 17.8547 73.8384 17.556C73.3344 17.2573 72.709 17.108 71.9624 17.108C71.1784 17.108 70.497 17.276 69.9184 17.612C69.3397 17.948 68.8917 18.424 68.5744 19.04C68.257 19.6373 68.0984 20.356 68.0984 21.196C68.0984 22.036 68.2664 22.7733 68.6024 23.408C68.9384 24.0427 69.4144 24.5373 70.0304 24.892C70.6464 25.228 71.3557 25.396 72.1584 25.396C72.849 25.396 73.4837 25.2747 74.0624 25.032C74.6597 24.7893 75.1637 24.4347 75.5744 23.968L77.5344 25.956C76.881 26.7213 76.0877 27.3 75.1544 27.692C74.221 28.084 73.2317 28.28 72.1864 28.28ZM88.0954 28.28C87.0687 28.28 86.1541 28.0653 85.3514 27.636C84.5487 27.188 83.9141 26.5813 83.4474 25.816C82.9994 25.0507 82.7754 24.1827 82.7754 23.212V19.348C82.7754 18.3773 83.0087 17.5093 83.4754 16.744C83.9421 15.9787 84.5767 15.3813 85.3794 14.952C86.1821 14.504 87.0874 14.28 88.0954 14.28C89.3087 14.28 90.4007 14.5973 91.3714 15.232C92.3607 15.848 93.1354 16.688 93.6954 17.752C94.2741 18.7973 94.5634 19.9827 94.5634 21.308C94.5634 22.6147 94.2741 23.8 93.6954 24.864C93.1354 25.9093 92.3607 26.74 91.3714 27.356C90.4007 27.972 89.3087 28.28 88.0954 28.28ZM80.8994 28V7.84H83.9794V17.864L83.4474 21.112L83.9794 24.388V28H80.8994ZM87.5914 25.368C88.3381 25.368 88.9914 25.2 89.5514 24.864C90.1301 24.5093 90.5781 24.024 90.8954 23.408C91.2314 22.792 91.3994 22.0827 91.3994 21.28C91.3994 20.4773 91.2314 19.768 90.8954 19.152C90.5781 18.536 90.1301 18.06 89.5514 17.724C88.9914 17.3693 88.3381 17.192 87.5914 17.192C86.8447 17.192 86.1821 17.3693 85.6034 17.724C85.0247 18.06 84.5767 18.536 84.2594 19.152C83.9421 19.768 83.7834 20.4773 83.7834 21.28C83.7834 22.0827 83.9421 22.792 84.2594 23.408C84.5767 24.024 85.0247 24.5093 85.6034 24.864C86.1821 25.2 86.8447 25.368 87.5914 25.368ZM102.658 28.28C101.519 28.28 100.502 28.028 99.6056 27.524C98.7283 27.02 98.0376 26.3293 97.5336 25.452C97.0483 24.556 96.8056 23.5293 96.8056 22.372V14.56H99.8856V22.232C99.8856 22.8853 99.9883 23.4453 100.194 23.912C100.418 24.36 100.735 24.7053 101.146 24.948C101.575 25.1907 102.079 25.312 102.658 25.312C103.554 25.312 104.235 25.0507 104.702 24.528C105.187 23.9867 105.43 23.2213 105.43 22.232V14.56H108.51V22.372C108.51 23.548 108.258 24.584 107.754 25.48C107.268 26.3573 106.587 27.048 105.71 27.552C104.832 28.0373 103.815 28.28 102.658 28.28ZM111.634 28V14.56H114.714V28H111.634ZM113.174 12.096C112.652 12.096 112.213 11.9187 111.858 11.564C111.522 11.2093 111.354 10.7707 111.354 10.248C111.354 9.72533 111.522 9.28667 111.858 8.932C112.213 8.57733 112.652 8.4 113.174 8.4C113.716 8.4 114.154 8.57733 114.49 8.932C114.826 9.28667 114.994 9.72533 114.994 10.248C114.994 10.7707 114.826 11.2093 114.49 11.564C114.154 11.9187 113.716 12.096 113.174 12.096ZM118.169 28V7.84H121.249V28H118.169ZM126.721 28V8.96H129.801V28H126.721ZM123.501 17.36V14.56H133.021V17.36H123.501Z" fill="#3A3A3A"/>
<path d="M140.775 28.28C139.636 28.28 138.619 28.028 137.723 27.524C136.845 27.02 136.155 26.3293 135.651 25.452C135.165 24.556 134.923 23.5293 134.923 22.372V14.56H138.003V22.232C138.003 22.8853 138.105 23.4453 138.311 23.912C138.535 24.36 138.852 24.7053 139.263 24.948C139.692 25.1907 140.196 25.312 140.775 25.312C141.671 25.312 142.352 25.0507 142.819 24.528C143.304 23.9867 143.547 23.2213 143.547 22.232V14.56H146.627V22.372C146.627 23.548 146.375 24.584 145.871 25.48C145.385 26.3573 144.704 27.048 143.827 27.552C142.949 28.0373 141.932 28.28 140.775 28.28ZM149.752 28V14.56H152.832V28H149.752ZM151.292 12.096C150.769 12.096 150.33 11.9187 149.976 11.564C149.64 11.2093 149.472 10.7707 149.472 10.248C149.472 9.72533 149.64 9.28667 149.976 8.932C150.33 8.57733 150.769 8.4 151.292 8.4C151.833 8.4 152.272 8.57733 152.608 8.932C152.944 9.28667 153.112 9.72533 153.112 10.248C153.112 10.7707 152.944 11.2093 152.608 11.564C152.272 11.9187 151.833 12.096 151.292 12.096Z" fill="#4F39F6"/>
<path d="M8.75 11.2991L15.5 15.1839L22.25 11.2991M8.75 34.5783V26.8236L2 22.9387M29 22.9387L22.25 26.8236V34.5783M2.405 15.4081L15.5 22.9536L28.595 15.4081M15.5 38V22.9387M29 28.9154V16.962C28.9995 16.4379 28.8606 15.9233 28.5973 15.4696C28.334 15.0159 27.9556 14.6391 27.5 14.3771L17 8.40036C16.5439 8.13808 16.0266 8 15.5 8C14.9734 8 14.4561 8.13808 14 8.40036L3.5 14.3771C3.04439 14.6391 2.66597 15.0159 2.40269 15.4696C2.13941 15.9233 2.00054 16.4379 2 16.962V28.9154C2.00054 29.4395 2.13941 29.9541 2.40269 30.4078C2.66597 30.8615 3.04439 31.2383 3.5 31.5003L14 37.477C14.4561 37.7393 14.9734 37.8774 15.5 37.8774C16.0266 37.8774 16.5439 37.7393 17 37.477L27.5 31.5003C27.9556 31.2383 28.334 30.8615 28.5973 30.4078C28.8606 29.9541 28.9995 29.4395 29 28.9154Z" stroke="#4F39F6" stroke-width="2.5" stroke-linecap="round" stroke-linejoin="round"/>
</svg>
