<svg width="1440" height="550" viewBox="0 0 1440 550" fill="none" xmlns="http://www.w3.org/2000/svg">
<path d="M20.2065 5.08248L31.4532 1.00012M20.2065 5.08248L53.5351 5.08248M20.2065 5.08248L8.58599 9.29966M20.2065 5.08248L-3.39706 5.08248M31.4532 1.00012L27.3608 1.00172L23.3107 1.01056L19.345 1.03541L15.5036 1.08436L11.8288 1.16379L8.35977 1.28335L5.1379 1.44944L2.14749 1.66124L-0.418707 1.95412L-2.755 2.29352L-3.39706 2.4124L-3.39706 5.08248M31.4532 1.00012L64.2459 1.00012M64.2459 1.00012L97.0387 1.00012M64.2459 1.00012L53.5351 5.08248M97.0387 1.00012L129.832 1.00011M97.0387 1.00012L86.8638 5.08248M129.832 1.00011L162.625 1.00011M129.832 1.00011L120.192 5.08247M162.625 1.00011L195.418 1.00011M162.625 1.00011L153.52 5.08247M195.418 1.00011L228.211 1.00011M195.418 1.00011L186.849 5.08247M228.211 1.00011L261.004 1.0001M228.211 1.00011L220.178 5.08246M261.004 1.0001L293.797 1.0001M261.004 1.0001L253.506 5.08246M293.797 1.0001L326.591 1.0001M293.797 1.0001L286.835 5.08246M326.591 1.0001L359.383 1.00009M326.591 1.0001L320.164 5.08245M359.383 1.00009L392.176 1.00009M359.383 1.00009L353.492 5.08245M392.176 1.00009L424.969 1.00009M392.176 1.00009L386.821 5.08245M424.969 1.00009L457.763 1.00009M424.969 1.00009L423.779 2.00864L421.975 3.53553L420.15 5.08245M457.763 1.00009L490.555 1.00008M457.763 1.00009L456.705 2.00863L453.478 5.08244M490.555 1.00008L523.348 1.00008M490.555 1.00008L486.807 5.08244M523.348 1.00008L556.142 1.00008M523.348 1.00008L522.156 2.51571L520.948 4.04901L520.542 4.56493L520.135 5.08244M556.142 1.00008L588.935 1.00007M556.142 1.00008L555.148 2.5157L554.813 3.0244L554.478 3.53552L553.463 5.08243M588.935 1.00007L621.727 1.00007M588.935 1.00007L586.792 5.08243M621.727 1.00007L621.529 1.50313L621.331 2.00862L620.325 4.56492L620.121 5.08243M621.727 1.00007L654.52 1.00007M654.52 1.00007L687.314 1.00007M654.52 1.00007L653.449 5.08243M687.314 1.00007L720.107 1.00006M687.314 1.00007L687.115 2.51569L686.778 5.08242M720.107 1.00006L752.899 1.00006M720.107 1.00006L720.107 5.08242M752.899 1.00006L785.693 1.00006M752.899 1.00006L753.098 2.51569L753.435 5.08242M785.693 1.00006L818.486 1.00005M785.693 1.00006L786.764 5.08241M818.486 1.00005L818.684 1.50312L818.882 2.0086L819.888 4.5649L820.093 5.08241M818.486 1.00005L851.279 1.00005M851.279 1.00005L884.072 1.00005M851.279 1.00005L853.149 4.5649L853.421 5.08241M884.072 1.00005L916.865 1.00005M884.072 1.00005L885.065 2.51567L885.4 3.02437L886.072 4.04898L886.41 4.5649L886.75 5.08241M916.865 1.00005L949.658 1.00004M916.865 1.00005L918.057 2.51567L919.265 4.04898L919.671 4.56489L920.079 5.0824M949.658 1.00004L982.451 1.00004M949.658 1.00004L953.406 5.0824M982.451 1.00004L1015.24 1.00004M982.451 1.00004L983.509 2.00859L986.735 5.0824M1015.24 1.00004L1048.04 1.00003M1015.24 1.00004L1020.06 5.08239M1048.04 1.00003L1080.83 1.00003M1048.04 1.00003L1053.39 5.08239M1080.83 1.00003L1113.62 1.00003M1080.83 1.00003L1086.72 5.08239M1113.62 1.00003L1146.42 1.00003M1113.62 1.00003L1120.05 5.08238M1146.42 1.00003L1179.21 1.00002M1146.42 1.00003L1153.38 5.08238M1179.21 1.00002L1212 1.00002M1179.21 1.00002L1186.71 5.08238M1212 1.00002L1244.8 1.00002M1212 1.00002L1220.04 5.08238M1244.8 1.00002L1277.59 1.00001M1244.8 1.00002L1253.36 5.08237M1277.59 1.00001L1310.38 1.00001M1277.59 1.00001L1286.69 5.08237M1310.38 1.00001L1343.17 1.00001M1310.38 1.00001L1320.02 5.08237M1343.17 1.00001L1375.97 1.00001M1343.17 1.00001L1353.35 5.08236M1375.97 1.00001L1408.76 1M1375.97 1.00001L1386.68 5.08236M1408.76 1L1412.85 1.00159L1416.9 1.01043L1420.87 1.03529L1424.71 1.08423L1428.38 1.16366L1431.85 1.28323L1435.08 1.44932L1438.07 1.66112L1440.63 1.95399L1442.97 2.29339L1443.61 2.4123L1443.61 5.08236M1408.76 1L1420.01 5.08236M1353.35 5.08236L1320.02 5.08237M1353.35 5.08236L1386.68 5.08236M1353.35 5.08236L1363.86 9.29954M1320.02 5.08237L1329.98 9.29954M1320.02 5.08237L1286.69 5.08237M1220.04 5.08238L1186.71 5.08238M1220.04 5.08238L1253.36 5.08237M1220.04 5.08238L1222.08 6.12383L1228.34 9.29955M1186.71 5.08238L1194.45 9.29955M1186.71 5.08238L1153.38 5.08238M1086.72 5.08239L1053.39 5.08239M1086.72 5.08239L1120.05 5.08238M1086.72 5.08239L1088.22 6.12384L1088.98 6.64699L1092.81 9.29956M1053.39 5.08239L1054.07 5.60152L1054.76 6.12385L1058.93 9.29957M1053.39 5.08239L1020.06 5.08239M953.406 5.0824L953.884 5.60152L957.28 9.29957M953.406 5.0824L920.079 5.0824M953.406 5.0824L986.735 5.0824M920.079 5.0824L920.898 6.12386L921.311 6.647L921.724 7.17335L923.398 9.29958M920.079 5.0824L886.75 5.08241M820.093 5.08241L786.764 5.08241M820.093 5.08241L853.421 5.08241M820.093 5.08241L821.752 9.29959M786.764 5.08241L786.9 5.60154L787.037 6.12387L787.175 6.64701L787.591 8.23166L787.87 9.29959M786.764 5.08241L753.435 5.08242M686.778 5.08242L653.449 5.08243M686.778 5.08242L720.107 5.08242M686.778 5.08242L686.225 9.2996M653.449 5.08243L653.313 5.60155L653.177 6.12388L653.039 6.64702L652.343 9.2996M653.449 5.08243L620.121 5.08243M553.463 5.08243L520.135 5.08244M553.463 5.08243L586.792 5.08243M553.463 5.08243L552.781 6.12389L551.397 8.23168L551.048 8.76445L550.697 9.29961M520.135 5.08244L519.316 6.12389L518.903 6.64703L518.489 7.17338L516.815 9.29961M520.135 5.08244L486.807 5.08244M420.15 5.08245L386.821 5.08245M420.15 5.08245L453.478 5.08244M420.15 5.08245L418.92 6.1239L418.301 6.64704L415.169 9.29962M386.821 5.08245L386.139 5.60157L385.455 6.12391L381.288 9.29962M386.821 5.08245L353.492 5.08245M286.835 5.08246L253.506 5.08246M286.835 5.08246L320.164 5.08245M286.835 5.08246L285.059 6.12391L284.165 6.64706L279.641 9.29963M253.506 5.08246L245.76 9.29964M253.506 5.08246L220.178 5.08246M153.52 5.08247L120.192 5.08247M153.52 5.08247L186.849 5.08247M153.52 5.08247L144.114 9.29965M120.192 5.08247L110.231 9.29965M120.192 5.08247L86.8638 5.08248M1443.73 43.2583L1443.61 43.2583M1410.18 43.2583L1397.46 37.8705M1410.18 43.2583L1423.39 48.8523M1410.18 43.2583L1371.84 43.2583M1410.18 43.2583L1443.61 43.2583M1397.46 37.8705L1435.09 37.8705M1397.46 37.8705L1385.19 32.6777M1397.46 37.8705L1359.83 37.8705M1435.09 37.8705L1422.14 32.6777M1435.09 37.8705L1443.61 37.8705M1435.09 37.8705L1443.61 41.2886M1397.61 22.836L1361.95 22.836M1397.61 22.836L1385.97 18.1687M1397.61 22.836L1433.27 22.836M1397.61 22.836L1409.66 27.6694M1361.95 22.836L1350.93 18.1687M1361.95 22.836L1373.36 27.6694M1361.95 22.836L1326.29 22.836M1385.97 18.1687L1350.93 18.1687M1385.97 18.1687L1374.73 13.6595M1385.97 18.1687L1421.02 18.1687M1350.93 18.1687L1315.88 18.1687M1350.93 18.1687L1340.28 13.6595M1443.98 128.3L1443.61 128.3M1413.04 128.3L1396.63 119.367M1413.04 128.3L1430.27 137.677M1413.04 128.3L1363.55 128.3M1413.04 128.3L1443.61 128.3M1396.63 119.367L1380.99 110.848M1396.63 119.367L1348.31 119.367M1396.63 119.367L1443.61 119.367M1428.19 110.848L1380.99 110.848M1428.19 110.848L1412.18 102.713M1428.19 110.848L1443.61 110.848M1428.19 110.848L1443.61 118.682M1396.88 94.9386L1351.76 94.9386M1396.88 94.9386L1382.24 87.5008M1396.88 94.9386L1442 94.9386M1396.88 94.9386L1412.18 102.713M1351.76 94.9386L1338.1 87.5008M1351.76 94.9386L1366.04 102.713M1351.76 94.9386L1306.64 94.9387M1382.24 87.5008L1338.1 87.5008M1382.24 87.5008L1426.38 87.5008M1382.24 87.5008L1368.22 80.3776M1338.1 87.5008L1325.02 80.3776M1338.1 87.5008L1293.96 87.5009M1341.89 66.9991L1300.44 66.9991M1341.89 66.9991L1329.51 60.7095M1341.89 66.9991L1383.35 66.9991M1341.89 66.9991L1354.79 73.5495M1300.44 66.9991L1288.89 60.7095M1300.44 66.9991L1312.47 73.5495M1300.44 66.9991L1258.99 66.9991M1329.51 60.7095L1288.89 60.7095M1329.51 60.7095L1370.14 60.7095M1329.51 60.7095L1317.62 54.6654M1288.89 60.7095L1277.78 54.6654M1288.89 60.7095L1248.26 60.7095M1295.17 43.2583L1256.83 43.2583M1295.17 43.2583L1284.57 37.8705M1295.17 43.2583L1333.51 43.2583M1295.17 43.2583L1306.18 48.8523M1256.83 43.2583L1246.93 37.8705M1256.83 43.2583L1267.11 48.8523M1256.83 43.2583L1218.49 43.2583M1284.57 37.8705L1246.93 37.8705M1284.57 37.8705L1322.2 37.8705M1284.57 37.8705L1274.35 32.6777M1246.93 37.8705L1237.4 32.6777M1246.93 37.8705L1209.3 37.8705M1254.98 22.836L1219.32 22.836M1254.98 22.836L1245.79 18.1687M1254.98 22.836L1290.63 22.836M1254.98 22.836L1264.49 27.6694M1219.32 22.836L1210.75 18.1687M1219.32 22.836L1228.2 27.6694M1219.32 22.836L1183.66 22.836M1245.79 18.1687L1210.75 18.1687M1245.79 18.1687L1236.92 13.6595M1245.79 18.1687L1280.84 18.1687M1210.75 18.1687L1175.7 18.1688M1210.75 18.1687L1202.46 13.6595M1418.25 283.165L1395.16 265.564M1418.25 283.165L1442.98 302.013M1418.25 283.165L1348.44 283.165M1418.25 283.165L1443.61 283.165M1395.16 265.564L1373.54 249.09M1395.16 265.564L1327.65 265.564M1395.16 265.564L1443.61 265.564M1395.63 219.116L1334.22 219.116M1395.63 219.116L1375.89 205.443M1395.63 219.116L1416.59 233.638M1395.63 219.116L1443.61 219.116M1334.22 219.116L1316.28 205.443M1334.22 219.116L1353.27 233.638M1334.22 219.116L1272.81 219.116M1375.89 205.443L1316.28 205.443M1375.89 205.443L1435.51 205.443M1375.89 205.443L1357.28 192.545M1316.28 205.443L1299.35 192.545M1316.28 205.443L1256.66 205.443M1323.05 168.829L1268.24 168.829M1323.05 168.829L1307.28 157.902M1323.05 168.829L1377.86 168.829M1323.05 168.829L1339.69 180.36M1268.24 168.829L1253.9 157.902M1268.24 168.829L1283.37 180.36M1268.24 168.829L1213.42 168.829M1307.28 157.902L1253.9 157.902M1307.28 157.902L1360.66 157.902M1307.28 157.902L1292.31 147.531M1253.9 157.902L1240.29 147.531M1253.9 157.902L1200.52 157.902M1264.56 128.3L1215.06 128.3M1264.56 128.3L1251.66 119.367M1264.56 128.3L1314.05 128.3M1264.56 128.3L1278.09 137.677M1215.06 128.3L1203.34 119.367M1215.06 128.3L1227.36 137.677M1215.06 128.3L1165.57 128.3M1251.66 119.367L1203.34 119.367M1251.66 119.367L1299.99 119.367M1251.66 119.367L1239.37 110.848M1203.34 119.367L1192.16 110.848M1203.34 119.367L1155.02 119.367M1216.41 94.9387L1171.29 94.9387M1216.41 94.9387L1205.67 87.5009M1216.41 94.9387L1261.53 94.9387M1216.41 94.9387L1227.63 102.713M1171.29 94.9387L1161.53 87.5009M1171.29 94.9387L1181.49 102.713M1171.29 94.9387L1126.17 94.9387M1205.67 87.5009L1161.53 87.5009M1205.67 87.5009L1249.81 87.5009M1205.67 87.5009L1195.39 80.3776M1161.53 87.5009L1152.18 80.3776M1161.53 87.5009L1117.39 87.5009M1176.08 66.9991L1134.63 66.9991M1176.08 66.9991L1167.01 60.7095M1176.08 66.9991L1217.54 66.9991M1176.08 66.9991L1185.54 73.5496M1134.63 66.9991L1133.58 66.1992L1126.38 60.7095M1134.63 66.9991L1143.23 73.5496M1134.63 66.9991L1093.18 66.9991M1167.01 60.7095L1126.38 60.7095M1167.01 60.7095L1207.63 60.7095M1167.01 60.7095L1158.28 54.6654M1126.38 60.7095L1118.45 54.6654M1126.38 60.7095L1085.75 60.7095M1141.82 43.2583L1103.48 43.2583M1141.82 43.2583L1134.04 37.8705M1141.82 43.2583L1180.16 43.2583M1141.82 43.2583L1149.89 48.8523M1103.48 43.2583L1096.41 37.8705M1103.48 43.2583L1106.2 45.3316L1110.82 48.8523M1103.48 43.2583L1065.14 43.2583M1134.04 37.8705L1096.41 37.8705M1134.04 37.8705L1171.67 37.8705M1134.04 37.8705L1126.55 32.6777M1096.41 37.8705L1089.6 32.6777M1096.41 37.8705L1058.78 37.8706M1112.35 22.8361L1076.69 22.8361M1112.35 22.8361L1105.61 18.1688M1112.35 22.8361L1148 22.8361M1112.35 22.8361L1119.32 27.6694M1076.69 22.8361L1072.07 19.3209L1071.32 18.7432L1070.56 18.1688M1076.69 22.8361L1083.03 27.6694M1076.69 22.8361L1041.03 22.8361M1105.61 18.1688L1070.56 18.1688M1105.61 18.1688L1099.1 13.6595M1105.61 18.1688L1140.65 18.1688M1070.56 18.1688L1035.52 18.1688M1070.56 18.1688L1064.65 13.6595M1392.96 483.666L1296.84 483.667M1392.96 483.666L1362.69 450.712M1392.96 483.666L1426.22 519.879M1392.96 483.666L1443.61 483.667M1296.84 483.667L1270.89 450.712M1296.84 483.667L1325.34 519.879M1296.84 483.667L1200.71 483.667M1362.69 450.712L1270.89 450.712M1362.69 450.712L1335.03 420.595M1362.69 450.712L1443.61 450.712M1270.89 450.712L1247.18 420.595M1270.89 450.712L1179.1 450.712M1286.29 367.523L1205.4 367.523M1286.29 367.523L1264.7 344.021M1286.29 367.523L1367.17 367.523M1286.29 367.523L1309.65 392.964M1205.4 367.523L1186.9 344.021M1205.4 367.523L1225.43 392.964M1205.4 367.523L1124.52 367.523M1264.7 344.021L1186.9 344.021M1264.7 344.021L1342.5 344.021M1264.7 344.021L1244.7 322.246M1186.9 344.021L1169.76 322.246M1186.9 344.021L1109.1 344.021M1208.81 283.165L1138.99 283.165M1208.81 283.165L1192.64 265.564M1208.81 283.165L1278.62 283.165M1208.81 283.165L1226.12 302.013M1138.99 283.165L1125.14 265.564M1138.99 283.165L1153.83 302.013M1138.99 283.165L1069.18 283.165M1192.64 265.564L1125.14 265.564M1192.64 265.564L1260.15 265.564M1192.64 265.564L1177.51 249.09M1125.14 265.564L1112.17 249.09M1125.14 265.564L1057.63 265.564M1149.98 219.116L1088.57 219.116M1149.98 219.116L1137.43 205.443M1149.98 219.116L1211.39 219.116M1149.98 219.116L1163.32 233.638M1088.57 219.116L1077.81 205.443M1088.57 219.116L1100 233.638M1088.57 219.116L1027.16 219.116M1137.43 205.443L1077.81 205.443M1137.43 205.443L1197.04 205.443M1137.43 205.443L1125.58 192.545M1077.81 205.443L1067.66 192.545M1077.81 205.443L1018.19 205.443M1103.8 168.829L1048.99 168.829M1103.8 168.829L1093.76 157.902M1103.8 168.829L1158.61 168.829M1103.8 168.829L1114.39 180.36M1048.99 168.829L1040.38 157.902M1048.99 168.829L1058.06 180.36M1048.99 168.829L994.172 168.829M1093.76 157.902L1040.38 157.902M1093.76 157.902L1147.14 157.902M1093.76 157.902L1084.24 147.531M1040.38 157.902L1032.22 147.531M1040.38 157.902L987.003 157.902M1066.57 128.3L1017.08 128.3M1066.57 128.3L1058.37 119.367M1066.57 128.3L1116.07 128.3M1066.57 128.3L1075.19 137.677M1017.08 128.3L1010.05 119.367M1017.08 128.3L1024.46 137.677M1017.08 128.3L967.584 128.3M1058.37 119.367L1010.05 119.367M1058.37 119.367L1106.69 119.367M1058.37 119.367L1050.55 110.848M1010.05 119.367L1003.34 110.848M1010.05 119.367L961.724 119.367M1035.93 94.9387L990.816 94.9387M1035.93 94.9387L1029.1 87.5009M1035.93 94.9387L1081.05 94.9387M1035.93 94.9387L1043.07 102.713M990.816 94.9387L984.961 87.5009M990.816 94.9387L996.936 102.713M990.816 94.9387L945.698 94.9387M1029.1 87.5009L984.961 87.5009M1029.1 87.5009L1073.25 87.5009M1029.1 87.5009L1022.56 80.3776M984.961 87.5009L979.353 80.3776M984.961 87.5009L940.818 87.5009M1010.27 66.9992L968.821 66.9992M1010.27 66.9992L1004.5 60.7095M1010.27 66.9992L1051.73 66.9992M1010.27 66.9992L1016.29 73.5496M968.821 66.9992L969.455 67.8031L973.978 73.5496M968.821 66.9992L963.87 60.7095M968.821 66.9992L927.369 66.9992M1004.5 60.7095L963.87 60.7095M1004.5 60.7095L1045.12 60.7095M1004.5 60.7095L998.946 54.6654M963.87 60.7095L959.112 54.6654M963.87 60.7095L923.242 60.7095M988.469 43.2584L950.132 43.2584M988.469 43.2584L983.521 37.8706M988.469 43.2584L1026.81 43.2583M988.469 43.2584L993.607 48.8523M950.132 43.2584L945.89 37.8706M950.132 43.2584L951.763 45.3316L952.865 46.7301L954.535 48.8523M950.132 43.2584L911.794 43.2584M983.521 37.8706L945.89 37.8706M983.521 37.8706L1021.15 37.8706M983.521 37.8706L978.752 32.6777M945.89 37.8706L944.339 35.9008L943.317 34.6026L941.802 32.6777M945.89 37.8706L908.26 37.8706M969.712 22.8361L934.055 22.8361M969.712 22.8361L966.484 19.321L965.426 18.1688M969.712 22.8361L1005.37 22.8361M969.712 22.8361L973.588 27.0556L974.151 27.6694M934.055 22.8361L931.287 19.321L930.833 18.7433L930.38 18.1688M934.055 22.8361L935.941 25.2311L937.859 27.6694M934.055 22.8361L898.397 22.8361M965.426 18.1688L930.38 18.1688M965.426 18.1688L961.284 13.6596M965.426 18.1688L1000.47 18.1688M930.38 18.1688L895.335 18.1688M930.38 18.1688L926.83 13.6596M1008.47 483.667L912.35 483.667M1008.47 483.667L995.5 450.712M1008.47 483.667L1104.59 483.667M1008.47 483.667L1022.72 519.879M912.35 483.667L903.702 450.712M912.35 483.667L921.852 519.879M912.35 483.667L816.228 483.667M995.5 450.712L903.702 450.712M995.5 450.712L1087.3 450.712M995.5 450.712L983.645 420.595M903.702 450.712L895.799 420.595M903.702 450.712L811.904 450.712M962.755 367.523L881.872 367.523M962.755 367.523L953.504 344.021M962.755 367.523L1043.64 367.523M962.755 367.523L972.769 392.964M881.872 367.523L875.705 344.021M881.872 367.523L888.548 392.964M881.872 367.523L800.989 367.523M953.504 344.021L875.705 344.021M953.504 344.021L1031.3 344.021M953.504 344.021L944.933 322.246M875.705 344.021L869.991 322.246M875.705 344.021L797.906 344.021M929.55 283.165L859.736 283.165M929.55 283.165L922.622 265.564M929.55 283.165L999.365 283.165M929.55 283.165L936.969 302.013M859.736 283.165L855.117 265.564M859.736 283.165L864.682 302.013M859.736 283.165L789.921 283.165M922.622 265.564L855.117 265.564M922.622 265.564L990.127 265.564M922.622 265.564L916.138 249.09M855.117 265.564L850.794 249.09M855.117 265.564L787.612 265.564M904.339 219.116L842.929 219.116M904.339 219.116L898.958 205.443M904.339 219.116L965.75 219.116M904.339 219.116L910.056 233.638M842.929 219.116L839.341 205.443M842.929 219.116L846.739 233.638M842.929 219.116L781.518 219.116M898.958 205.443L839.341 205.443M898.958 205.443L958.574 205.443M898.958 205.443L893.881 192.545M839.341 205.443L835.956 192.545M839.341 205.443L779.723 205.443M884.546 168.829L829.733 168.829M884.546 168.829L880.245 157.902M884.546 168.829L939.359 168.829M884.546 168.829L889.085 180.36M829.733 168.829L826.866 157.902M829.733 168.829L832.758 180.36M829.733 168.829L774.92 168.829M880.245 157.902L826.866 157.902M880.245 157.902L933.624 157.902M880.245 157.902L876.163 147.531M826.866 157.902L824.144 147.531M826.866 157.902L773.486 157.902M868.593 128.3L819.098 128.3M868.593 128.3L865.077 119.367M868.593 128.3L918.088 128.3M868.593 128.3L872.284 137.677M819.098 128.3L816.753 119.367M819.098 128.3L821.558 137.677M819.098 128.3L769.602 128.3M865.077 119.367L816.753 119.367M865.077 119.367L913.4 119.367M865.077 119.367L863.8 116.126L861.723 110.848M816.753 119.367L814.518 110.848M816.753 119.367L768.43 119.367M855.461 94.9387L810.343 94.9387M855.461 94.9387L852.533 87.5009M855.461 94.9387L900.58 94.9387M855.461 94.9387L857.743 100.737L858.522 102.713M810.343 94.9387L809.601 92.1112L808.391 87.5009M810.343 94.9387L812.383 102.713M810.343 94.9387L765.225 94.9387M852.533 87.5009L852.177 86.5934L849.73 80.3776M852.533 87.5009L808.391 87.5009M852.533 87.5009L896.676 87.5009M808.391 87.5009L807.681 84.7938L807.447 83.9007L807.213 83.0133L806.522 80.3776M808.391 87.5009L764.249 87.5009M844.464 66.9992L803.012 66.9992M844.464 66.9992L843.214 63.8226L842.905 63.0388L842.598 62.2581L842.292 61.4822L841.988 60.7095M844.464 66.9992L885.916 66.9992M844.464 66.9992L847.042 73.5496M803.012 66.9992L801.768 62.2581L801.563 61.4822L801.361 60.7095M803.012 66.9992L804.73 73.5496M803.012 66.9992L761.559 66.9992M841.988 60.7095L801.361 60.7095M841.988 60.7095L882.615 60.7095M841.988 60.7095L840.49 56.904L840.195 56.1538L839.609 54.6654M801.361 60.7095L800.363 56.904L800.165 56.1538L799.97 55.4076L799.775 54.6654M801.361 60.7095L760.734 60.7095M835.119 43.2584L796.781 43.2584M835.119 43.2584L832.998 37.8706M835.119 43.2584L873.457 43.2584M835.119 43.2584L835.662 44.6368L836.486 46.7301L837.321 48.8524M796.781 43.2584L796.962 43.946L798.063 48.1415L798.25 48.8524M796.781 43.2584L795.368 37.8706M796.781 43.2584L758.444 43.2584M832.998 37.8706L795.368 37.8706M832.998 37.8706L870.629 37.8706M832.998 37.8706L830.954 32.6777M795.368 37.8706L794.851 35.9008L794.68 35.2501L794.51 34.6026L794.005 32.6777M795.368 37.8706L757.737 37.8706M827.08 22.8361L791.423 22.8361M827.08 22.8361L825.697 19.321L825.244 18.1688M827.08 22.8361L862.739 22.8361M827.08 22.8361L827.787 24.6285L828.023 25.2311L828.262 25.8369L828.983 27.6694M791.423 22.8361L791.267 22.2439L790.959 21.0669L790.652 19.9003L790.198 18.1688M791.423 22.8361L792.052 25.2311L792.21 25.8369L792.53 27.0557L792.691 27.6694M791.423 22.8361L755.765 22.8361M825.244 18.1688L790.198 18.1688M825.244 18.1688L823.688 14.2148L823.468 13.6596M825.244 18.1688L860.289 18.1688M790.198 18.1688L790.048 17.5967L789.898 17.027L789.749 16.4598L789.601 15.8949L789.161 14.2148L789.014 13.6596M790.198 18.1688L755.152 18.1688M623.985 483.667L527.863 483.667M623.985 483.667L628.309 450.712M623.985 483.667L720.107 483.667M623.985 483.667L619.234 519.879M527.863 483.667L536.511 450.712M527.863 483.667L518.361 519.879M527.863 483.667L431.742 483.667M628.309 450.712L536.511 450.712M628.309 450.712L720.107 450.712M628.309 450.712L632.261 420.595M536.511 450.712L544.414 420.595M536.511 450.712L444.713 450.712M639.224 367.523L558.341 367.523M639.224 367.523L642.307 344.021M639.224 367.523L720.107 367.523M639.224 367.523L635.886 392.964M558.341 367.523L564.508 344.021M558.341 367.523L551.665 392.964M558.341 367.523L477.459 367.523M642.307 344.021L564.508 344.021M642.307 344.021L720.107 344.021M642.307 344.021L645.165 322.246M564.508 344.021L570.222 322.246M564.508 344.021L486.709 344.021M650.292 283.165L580.477 283.165M650.292 283.165L652.601 265.564M650.292 283.165L720.107 283.165M650.292 283.165L647.819 302.013M580.477 283.165L585.096 265.564M580.477 283.165L575.532 302.013M580.477 283.165L510.663 283.165M652.601 265.564L585.096 265.564M652.601 265.564L720.107 265.564M652.601 265.564L654.763 249.09M585.096 265.564L589.419 249.09M585.096 265.564L517.591 265.564M658.696 219.116L597.284 219.116M658.696 219.116L660.49 205.443M658.696 219.116L720.107 219.116M658.696 219.116L656.79 233.638M597.284 219.116L600.873 205.443M597.284 219.116L593.474 233.638M597.284 219.116L535.874 219.116M660.49 205.443L600.873 205.443M660.49 205.443L720.107 205.443M660.49 205.443L662.182 192.545M600.873 205.443L604.257 192.545M600.873 205.443L541.256 205.443M665.294 168.829L610.481 168.829M665.294 168.829L666.727 157.902M665.294 168.829L720.107 168.829M665.294 168.829L663.78 180.36M610.481 168.829L613.348 157.902M610.481 168.829L607.455 180.36M610.481 168.829L555.667 168.829M666.727 157.902L613.348 157.902M666.727 157.902L720.107 157.902M666.727 157.902L668.088 147.531M613.348 157.902L616.069 147.531M613.348 157.902L559.968 157.902M670.612 128.3L621.116 128.3M670.612 128.3L671.783 119.367M670.612 128.3L720.107 128.3M670.612 128.3L669.381 137.677M621.116 128.3L623.46 119.367M621.116 128.3L618.655 137.677M621.116 128.3L571.62 128.3M671.783 119.367L623.46 119.367M671.783 119.367L720.107 119.367M671.783 119.367L672.901 110.848M623.46 119.367L625.695 110.848M623.46 119.367L575.136 119.367M674.989 94.9387L629.87 94.9387M674.989 94.9387L675.965 87.5009M674.989 94.9387L720.107 94.9387M674.989 94.9387L673.968 102.714M629.87 94.9387L631.583 88.4132L631.822 87.5009M629.87 94.9387L627.83 102.714M629.87 94.9387L584.752 94.9387M675.965 87.5009L676.083 86.5934L676.899 80.3776M675.965 87.5009L631.822 87.5009M675.965 87.5009L720.107 87.5009M631.822 87.5009L632.533 84.7938L632.766 83.9008L633 83.0134L633.691 80.3776M631.822 87.5009L587.68 87.5009M678.654 66.9992L637.201 66.9992M678.654 66.9992L679.48 60.7096M678.654 66.9992L720.107 66.9992M678.654 66.9992L678.336 69.4239L678.229 70.2407L678.121 71.0615L677.904 72.7159L677.794 73.5496M637.201 66.9992L638.446 62.2581L638.853 60.7096M637.201 66.9992L635.483 73.5496M637.201 66.9992L595.749 66.9992M679.48 60.7096L638.853 60.7096M679.48 60.7096L720.107 60.7095M679.48 60.7096L680.272 54.6654M638.853 60.7096L639.851 56.904L640.048 56.1538L640.243 55.4076L640.438 54.6654M638.853 60.7096L598.225 60.7096M681.769 43.2584L643.432 43.2584M681.769 43.2584L682.476 37.8706M681.769 43.2584L720.107 43.2584M681.769 43.2584L681.035 48.8524M643.432 43.2584L643.251 43.946L642.15 48.1415L641.964 48.8524M643.432 43.2584L644.846 37.8706M643.432 43.2584L605.094 43.2584M682.476 37.8706L644.846 37.8706M682.476 37.8706L720.107 37.8706M682.476 37.8706L683.157 32.6777M644.846 37.8706L645.363 35.9008L645.533 35.2501L645.703 34.6026L646.208 32.6777M644.846 37.8706L607.215 37.8706M684.448 22.8361L648.79 22.8361M684.448 22.8361L685.061 18.1688M684.448 22.8361L720.107 22.8361M684.448 22.8361L683.815 27.6695M648.79 22.8361L648.946 22.244L649.255 21.0669L649.408 20.482L649.714 19.321L649.864 18.7433L650.016 18.1688M648.79 22.8361L648.162 25.2311L648.003 25.8369L647.683 27.0557L647.523 27.6695M648.79 22.8361L613.133 22.8361M685.061 18.1688L685.136 17.5967L685.211 17.027L685.285 16.4598L685.653 13.6596M685.061 18.1688L650.016 18.1688M685.061 18.1688L720.107 18.1688M650.016 18.1688L614.969 18.1688M650.016 18.1688L650.315 17.027L650.464 16.4598L650.612 15.8949L651.053 14.2148L651.199 13.6596M239.499 483.667L143.378 483.667M239.499 483.667L261.118 450.712M239.499 483.667L335.62 483.667M239.499 483.667L215.742 519.879M143.378 483.667L169.321 450.712M143.378 483.667L114.87 519.879M143.378 483.667L47.2558 483.667M261.118 450.712L169.321 450.712M261.118 450.712L352.916 450.712M261.118 450.712L280.876 420.595M169.321 450.712L193.03 420.595M169.321 450.712L77.5223 450.712M315.693 367.523L234.81 367.523M315.693 367.523L331.11 344.021M315.693 367.523L396.575 367.523M315.693 367.523L299.003 392.964M234.81 367.523L253.311 344.021M234.81 367.523L214.782 392.964M234.81 367.523L153.927 367.523M331.11 344.021L253.311 344.021M331.11 344.021L408.91 344.021M331.11 344.021L345.396 322.246M253.311 344.021L270.454 322.246M253.311 344.021L175.512 344.021M371.033 283.165L301.219 283.165M371.033 283.165L382.581 265.564M371.033 283.165L440.849 283.165M371.033 283.165L358.668 302.013M301.219 283.165L315.075 265.564M301.219 283.165L286.381 302.013M301.219 283.165L231.405 283.165M382.581 265.564L315.075 265.564M382.581 265.564L450.086 265.564M382.581 265.564L393.388 249.09M315.075 265.564L328.045 249.09M315.075 265.564L247.571 265.564M413.052 219.116L351.641 219.116M413.052 219.116L422.022 205.443M413.052 219.116L474.463 219.116M413.052 219.116L403.525 233.638M351.641 219.116L362.405 205.443M351.641 219.116L340.208 233.638M351.641 219.116L290.229 219.116M422.022 205.443L362.405 205.443M422.022 205.443L481.639 205.443M422.022 205.443L430.483 192.545M362.405 205.443L372.558 192.545M362.405 205.443L302.788 205.443M446.041 168.829L391.228 168.829M446.041 168.829L453.21 157.902M446.041 168.829L500.854 168.829M446.041 168.829L438.477 180.36M391.228 168.829L399.83 157.902M391.228 168.829L382.151 180.36M391.228 168.829L336.415 168.829M453.21 157.902L399.83 157.902M453.21 157.902L506.589 157.902M453.21 157.902L460.013 147.531M399.83 157.902L407.994 147.531M399.83 157.902L346.451 157.902M472.629 128.3L423.134 128.3M472.629 128.3L478.49 119.367M472.629 128.3L522.125 128.3M472.629 128.3L466.478 137.677M423.134 128.3L430.166 119.367M423.134 128.3L415.752 137.677M423.134 128.3L373.639 128.3M478.49 119.367L430.166 119.367M478.49 119.367L526.813 119.367M478.49 119.367L484.079 110.848M430.166 119.367L436.873 110.848M430.166 119.367L381.843 119.367M494.515 94.9387L493.89 95.8919L493.261 96.8499L489.415 102.714M494.515 94.9387L449.397 94.9387M494.515 94.9387L499.395 87.5009M494.515 94.9387L539.633 94.9387M449.397 94.9387L455.252 87.5009M449.397 94.9387L443.277 102.714M449.397 94.9387L404.279 94.9387M499.395 87.5009L455.252 87.5009M499.395 87.5009L543.537 87.5009M499.395 87.5009L504.068 80.3776M455.252 87.5009L460.86 80.3776M455.252 87.5009L411.11 87.5009M512.845 66.9992L471.392 66.9992M512.845 66.9992L516.971 60.7096M512.845 66.9992L554.297 66.9992M512.845 66.9992L508.547 73.5496M471.392 66.9992L474.51 63.0388L476.343 60.7096M471.392 66.9992L466.235 73.5496M471.392 66.9992L429.939 66.9992M516.971 60.7096L476.343 60.7096M516.971 60.7096L557.598 60.7096M516.971 60.7096L520.448 55.4076L520.936 54.6654M476.343 60.7096L481.102 54.6654M476.343 60.7096L435.716 60.7096M528.419 43.2584L490.081 43.2584M528.419 43.2584L529.315 41.892L531.953 37.8706M528.419 43.2584L566.756 43.2584M528.419 43.2584L527.514 44.6368L525.679 47.4338L524.749 48.8524M490.081 43.2584L494.323 37.8706M490.081 43.2584L488.45 45.3317L487.349 46.7302L485.678 48.8524M490.081 43.2584L451.744 43.2584M531.953 37.8706L494.323 37.8706M531.953 37.8706L569.585 37.8706M531.953 37.8706L534.52 33.9575L535.361 32.6778M494.323 37.8706L495.874 35.9008L496.896 34.6026L498.412 32.6778M494.323 37.8706L456.693 37.8706M541.817 22.8361L506.158 22.8361M541.817 22.8361L543.743 19.9003L544.879 18.1688M541.817 22.8361L577.475 22.8361M541.817 22.8361L538.646 27.6695M506.158 22.8361L508.927 19.321L509.38 18.7433L509.833 18.1688M506.158 22.8361L504.273 25.2311L502.354 27.6695M506.158 22.8361L470.501 22.8361M544.879 18.1688L509.833 18.1688M544.879 18.1688L546.37 15.895L547.106 14.7724L547.473 14.2148L547.837 13.6596M544.879 18.1688L579.924 18.1688M509.833 18.1688L474.787 18.1688M509.833 18.1688L513.383 13.6596M19.9134 344.021L97.7126 344.021M19.9134 344.021L45.6264 322.246M19.9134 344.021L-3.39703 344.021M19.9134 344.021L-3.39703 363.762M91.7753 283.165L21.961 283.165M91.7753 283.165L112.559 265.564M91.7753 283.165L161.59 283.165M91.7753 283.165L69.5186 302.013M21.961 283.165L45.0543 265.564M21.961 283.165L-2.76924 302.013M21.961 283.165L-3.39703 283.165M112.559 265.564L45.0543 265.564M112.559 265.564L180.065 265.564M112.559 265.564L132.013 249.09M45.0543 265.564L66.6698 249.09M45.0543 265.564L-3.39704 265.564M167.408 219.116L105.997 219.116M167.408 219.116L183.554 205.443M167.408 219.116L228.819 219.116M167.408 219.116L150.259 233.638M105.997 219.116L123.937 205.443M105.997 219.116L86.9429 233.638M105.997 219.116L44.5856 219.116M183.554 205.443L123.937 205.443M183.554 205.443L243.171 205.443M183.554 205.443L198.784 192.545M123.937 205.443L140.859 192.545M123.937 205.443L64.3199 205.443M226.789 168.829L171.976 168.829M226.789 168.829L239.692 157.902M226.789 168.829L281.602 168.829M226.789 168.829L213.172 180.36M171.976 168.829L186.313 157.902M171.976 168.829L156.846 180.36M171.976 168.829L117.162 168.829M239.692 157.902L186.313 157.902M239.692 157.902L293.071 157.902M239.692 157.902L251.938 147.531M186.313 157.902L199.92 147.531M186.313 157.902L132.934 157.902M274.648 128.3L225.152 128.3M274.648 128.3L285.196 119.367M274.648 128.3L324.143 128.3M274.648 128.3L263.575 137.677M225.152 128.3L236.872 119.367M225.152 128.3L212.849 137.677M225.152 128.3L175.657 128.3M285.196 119.367L236.872 119.367M285.196 119.367L333.519 119.367M285.196 119.367L295.256 110.848M236.872 119.367L248.051 110.848M236.872 119.367L188.549 119.367M314.042 94.9387L268.924 94.9387M314.042 94.9387L322.826 87.5009M314.042 94.9387L359.16 94.9387M314.042 94.9387L304.862 102.714M268.924 94.9387L278.683 87.5009M268.924 94.9387L258.723 102.714M268.924 94.9387L223.806 94.9387M322.826 87.5009L278.683 87.5009M322.826 87.5009L366.968 87.5009M322.826 87.5009L331.237 80.3777M278.683 87.5009L288.03 80.3777M278.683 87.5009L234.541 87.5009M347.035 66.9992L305.583 66.9992M347.035 66.9992L354.462 60.7096M347.035 66.9992L388.487 66.9992M347.035 66.9992L339.299 73.5496M305.583 66.9992L313.834 60.7096M305.583 66.9992L296.987 73.5496M305.583 66.9992L264.13 66.9992M354.462 60.7096L313.834 60.7096M354.462 60.7096L395.089 60.7096M354.462 60.7096L361.599 54.6654M313.834 60.7096L321.765 54.6654M313.834 60.7096L273.207 60.7096M375.069 43.2584L336.732 43.2584M375.069 43.2584L381.432 37.8706M375.069 43.2584L413.407 43.2584M375.069 43.2584L373.441 44.6368L372.621 45.3317L368.463 48.8524M336.732 43.2584L343.801 37.8706M336.732 43.2584L329.391 48.8524M336.732 43.2584L298.394 43.2584M381.432 37.8706L343.801 37.8706M381.432 37.8706L419.062 37.8706M381.432 37.8706L387.563 32.6778M343.801 37.8706L350.614 32.6778M343.801 37.8706L306.171 37.8706M399.185 22.8361L363.526 22.8361M399.185 22.8361L404.696 18.1688M399.185 22.8361L434.843 22.8361M399.185 22.8361L393.477 27.6695M363.526 22.8361L368.139 19.321L368.896 18.7433L369.651 18.1688M363.526 22.8361L357.185 27.6695M363.526 22.8361L327.869 22.8361M404.696 18.1688L369.651 18.1688M404.696 18.1688L409.365 14.2148L410.021 13.6596M404.696 18.1688L439.741 18.1688M369.651 18.1688L334.604 18.1688M369.651 18.1688L375.567 13.6596M7.53612 168.829L26.1747 157.902M7.53612 168.829L62.3491 168.829M7.53612 168.829L-3.39704 175.239M7.53612 168.829L-3.39704 168.829M26.1747 157.902L79.5542 157.902M26.1747 157.902L43.8628 147.531M26.1747 157.902L-3.39705 157.902M76.6662 128.3L27.1702 128.3M76.6662 128.3L91.9027 119.367M76.6662 128.3L126.161 128.3M76.6662 128.3L60.6722 137.677M27.1702 128.3L43.5787 119.367M27.1702 128.3L9.94629 137.677M27.1702 128.3L-3.39705 128.3M91.9027 119.367L43.5787 119.367M91.9027 119.367L140.226 119.367M91.9027 119.367L106.434 110.848M43.5787 119.367L59.2282 110.848M43.5787 119.367L-3.39705 119.367M133.569 94.9388L88.4502 94.9388M133.569 94.9388L146.256 87.501M133.569 94.9388L178.687 94.9387M133.569 94.9388L120.308 102.714M88.4502 94.9388L102.114 87.501M88.4502 94.9388L74.1701 102.714M88.4502 94.9388L43.3323 94.9388M146.256 87.501L102.114 87.501M146.256 87.501L190.399 87.5009M146.256 87.501L158.406 80.3777M102.114 87.501L115.198 80.3777M102.114 87.501L57.9711 87.501M181.225 66.9992L139.773 66.9992M181.225 66.9992L191.954 60.7096M181.225 66.9992L222.678 66.9992M181.225 66.9992L170.052 73.5496M139.773 66.9992L151.326 60.7096M139.773 66.9992L127.74 73.5496M139.773 66.9992L98.32 66.9992M191.954 60.7096L151.326 60.7096M191.954 60.7096L232.58 60.7096M191.954 60.7096L202.263 54.6655M151.326 60.7096L162.429 54.6655M151.326 60.7096L110.699 60.7096M221.719 43.2584L183.381 43.2584M221.719 43.2584L230.909 37.8706M221.719 43.2584L260.056 43.2584M221.719 43.2584L212.177 48.8524M183.381 43.2584L193.278 37.8706M183.381 43.2584L173.105 48.8524M183.381 43.2584L145.044 43.2584M230.909 37.8706L193.278 37.8706M230.909 37.8706L268.54 37.8706M230.909 37.8706L239.766 32.6778M193.278 37.8706L202.817 32.6778M193.278 37.8706L155.648 37.8706M256.553 22.8361L220.894 22.8361M256.553 22.8361L264.513 18.1688M256.553 22.8361L292.211 22.8361M256.553 22.8361L248.309 27.6695M220.894 22.8361L229.468 18.1688M220.894 22.8361L212.016 27.6695M220.894 22.8361L185.236 22.8361M264.513 18.1688L229.468 18.1688M264.513 18.1688L272.205 13.6596M264.513 18.1688L299.559 18.1688M229.468 18.1688L194.422 18.1688M229.468 18.1688L237.751 13.6596M15.4156 66.9992L29.4448 60.7096M15.4156 66.9992L56.8678 66.9992M15.4156 66.9992L0.804508 73.5497M15.4156 66.9992L-3.39705 66.9992M29.4448 60.7096L70.0717 60.7096M29.4448 60.7096L42.926 54.6655M29.4448 60.7096L-3.39705 60.7096M68.3692 43.2584L30.0318 43.2584M68.3692 43.2584L80.387 37.8706M68.3692 43.2584L106.707 43.2584M68.3692 43.2584L55.891 48.8524M30.0318 43.2584L42.7564 37.8706M30.0318 43.2584L16.8196 48.8524M30.0318 43.2584L-3.39706 43.2584M80.387 37.8706L42.7564 37.8706M80.387 37.8706L118.017 37.8706M80.387 37.8706L91.9698 32.6778M42.7564 37.8706L55.0205 32.6778M42.7564 37.8706L5.12594 37.8706M113.921 22.8361L78.2624 22.8361M113.921 22.8361L124.331 18.1688M113.921 22.8361L149.579 22.8361M113.921 22.8361L103.14 27.6695M78.2624 22.8361L89.2853 18.1688M78.2624 22.8361L66.8484 27.6695M78.2624 22.8361L42.6042 22.8361M124.331 18.1688L89.2853 18.1688M124.331 18.1688L134.389 13.6596M124.331 18.1688L159.376 18.1688M89.2853 18.1688L54.239 18.1688M89.2853 18.1688L99.9351 13.6596M66.8484 27.6695L55.0205 32.6778M66.8484 27.6695L30.5556 27.6695M66.8484 27.6695L103.14 27.6695M42.6042 22.8361L54.239 18.1688M42.6042 22.8361L30.5556 27.6695M42.6042 22.8361L6.94677 22.8362M54.239 18.1688L19.1936 18.1689M54.239 18.1688L65.4812 13.6596M99.9351 13.6596L134.389 13.6596M99.9351 13.6596L65.4812 13.6596M99.9351 13.6596L110.231 9.29965M30.5556 27.6695L18.0706 32.6778M30.5556 27.6695L-3.39706 27.6695M6.94677 22.8362L19.1936 18.1689M6.94677 22.8362L-3.39706 26.7777M6.94677 22.8362L-3.39706 22.8362M19.1936 18.1689L31.0274 13.6596M19.1936 18.1689L-3.39706 18.1689M65.4812 13.6596L31.0274 13.6596M65.4812 13.6596L76.3496 9.29965M31.0274 13.6596L42.4678 9.29965M31.0274 13.6596L-3.39706 13.6596M55.0205 32.6778L18.0706 32.6778M55.0205 32.6778L91.9698 32.6778M5.12594 37.8706L18.0706 32.6778M5.12594 37.8706L-3.39706 41.2888M5.12594 37.8706L-3.39706 37.8706M18.0706 32.6778L-3.39706 32.6778M91.9698 32.6778L128.919 32.6778M91.9698 32.6778L103.14 27.6695M103.14 27.6695L139.432 27.6695M16.8196 48.8524L3.09186 54.6655M16.8196 48.8524L55.891 48.8524M16.8196 48.8524L-3.39705 48.8524M-3.51389 43.2584L-3.39706 43.2584M3.09186 54.6655L42.926 54.6655M3.09186 54.6655L-3.39705 57.4127M3.09186 54.6655L-3.39705 54.6655M42.926 54.6655L82.7601 54.6655M42.926 54.6655L55.891 48.8524M55.891 48.8524L94.9625 48.8524M212.016 27.6695L202.817 32.6778M212.016 27.6695L175.724 27.6695M212.016 27.6695L248.309 27.6695M185.236 22.8361L194.422 18.1688M185.236 22.8361L175.724 27.6695M185.236 22.8361L149.579 22.8361M194.422 18.1688L159.376 18.1688M194.422 18.1688L203.297 13.6596M237.751 13.6596L203.297 13.6596M237.751 13.6596L245.76 9.29964M237.751 13.6596L272.205 13.6596M175.724 27.6695L165.868 32.6778M175.724 27.6695L139.432 27.6695M149.579 22.8361L159.376 18.1688M149.579 22.8361L139.432 27.6695M159.376 18.1688L168.843 13.6596M203.297 13.6596L168.843 13.6596M203.297 13.6596L211.878 9.29964M139.432 27.6695L128.919 32.6778M134.389 13.6596L168.843 13.6596M134.389 13.6596L144.114 9.29965M168.843 13.6596L177.996 9.29964M202.817 32.6778L165.868 32.6778M202.817 32.6778L239.766 32.6778M155.648 37.8706L165.868 32.6778M155.648 37.8706L145.044 43.2584M155.648 37.8706L118.017 37.8706M165.868 32.6778L128.919 32.6778M239.766 32.6778L276.716 32.6778M239.766 32.6778L248.309 27.6695M128.919 32.6778L118.017 37.8706M248.309 27.6695L284.601 27.6695M145.044 43.2584L134.034 48.8524M145.044 43.2584L106.707 43.2584M118.017 37.8706L106.707 43.2584M106.707 43.2584L94.9625 48.8524M173.105 48.8524L162.429 54.6655M173.105 48.8524L134.034 48.8524M173.105 48.8524L212.177 48.8524M134.034 48.8524L122.594 54.6655M134.034 48.8524L94.9625 48.8524M94.9625 48.8524L82.7601 54.6655M162.429 54.6655L122.594 54.6655M162.429 54.6655L202.263 54.6655M110.699 60.7096L122.594 54.6655M110.699 60.7096L98.32 66.9992M110.699 60.7096L70.0717 60.7096M122.594 54.6655L82.7601 54.6655M202.263 54.6655L242.097 54.6655M202.263 54.6655L212.177 48.8524M82.7601 54.6655L70.0717 60.7096M212.177 48.8524L251.248 48.8524M98.32 66.9992L85.4281 73.5496M98.32 66.9992L56.8678 66.9992M70.0717 60.7096L56.8678 66.9992M56.8678 66.9992L43.1167 73.5497M127.74 73.5496L115.198 80.3777M127.74 73.5496L85.4281 73.5496M127.74 73.5496L170.052 73.5496M85.4281 73.5496L71.9906 80.3777M85.4281 73.5496L43.1167 73.5497M43.1167 73.5497L28.783 80.3777M43.1167 73.5497L0.804508 73.5497M0.804508 73.5497L-3.39705 73.5497M0.804508 73.5497L-3.39705 75.433M115.198 80.3777L71.9906 80.3777M115.198 80.3777L158.406 80.3777M57.9711 87.501L71.9906 80.3777M57.9711 87.501L43.3323 94.9388M57.9711 87.501L13.8292 87.501M71.9906 80.3777L28.783 80.3777M158.406 80.3777L201.614 80.3777M158.406 80.3777L170.052 73.5496M28.783 80.3777L13.8292 87.501M28.783 80.3777L-3.39705 80.3777M170.052 73.5496L212.364 73.5496M43.3323 94.9388L28.0317 102.714M43.3323 94.9388L-1.78579 94.9388M13.8292 87.501L-1.78579 94.9388M13.8292 87.501L-3.39705 87.501M-3.62318 80.3777L-3.39705 80.3777M-1.78579 94.9388L-3.39705 95.7064M-1.78579 94.9388L-3.39705 94.9388M74.1701 102.714L59.2282 110.848M74.1701 102.714L28.0317 102.714M74.1701 102.714L120.308 102.714M28.0317 102.714L12.0226 110.848M28.0317 102.714L-3.39705 102.714M-3.78666 95.892L-3.39705 95.7064M59.2282 110.848L12.0226 110.848M59.2282 110.848L106.434 110.848M12.0226 110.848L-3.39705 110.848M12.0226 110.848L-3.39705 118.683M106.434 110.848L153.639 110.848M106.434 110.848L120.308 102.714M120.308 102.714L166.446 102.714M9.94629 137.677L60.6722 137.677M9.94629 137.677L-3.39705 144.941M9.94629 137.677L-3.39705 137.677M-3.76412 128.3L-3.39705 128.3M60.6722 137.677L111.398 137.677M60.6722 137.677L43.8628 147.531M-3.54397 145.021L-3.39705 144.941M357.185 27.6695L350.614 32.6778M357.185 27.6695L320.893 27.6695M357.185 27.6695L393.477 27.6695M327.869 22.8361L334.604 18.1688M327.869 22.8361L320.893 27.6695M327.869 22.8361L292.211 22.8361M334.604 18.1688L299.559 18.1688M334.604 18.1688L341.113 13.6596M375.567 13.6596L341.113 13.6596M375.567 13.6596L377.735 12.0076L381.288 9.29962M375.567 13.6596L410.021 13.6596M320.893 27.6695L313.665 32.6778M320.893 27.6695L284.601 27.6695M292.211 22.8361L299.559 18.1688M292.211 22.8361L284.601 27.6695M299.559 18.1688L306.659 13.6596M341.113 13.6596L306.659 13.6596M341.113 13.6596L347.405 9.29963M284.601 27.6695L276.716 32.6778M272.205 13.6596L279.641 9.29963M272.205 13.6596L306.659 13.6596M306.659 13.6596L307.529 13.106L309.261 12.0076L313.523 9.29963M350.614 32.6778L313.665 32.6778M350.614 32.6778L387.563 32.6778M306.171 37.8706L313.665 32.6778M306.171 37.8706L298.394 43.2584M306.171 37.8706L268.54 37.8706M313.665 32.6778L276.716 32.6778M387.563 32.6778L424.512 32.6778M387.563 32.6778L393.477 27.6695M276.716 32.6778L268.54 37.8706M393.477 27.6695L429.77 27.6695M298.394 43.2584L290.32 48.8524M298.394 43.2584L260.056 43.2584M268.54 37.8706L267.496 38.5325L260.056 43.2584M260.056 43.2584L251.248 48.8524M329.391 48.8524L328.455 49.5673L321.765 54.6654M329.391 48.8524L290.32 48.8524M329.391 48.8524L368.463 48.8524M290.32 48.8524L281.931 54.6654M290.32 48.8524L251.248 48.8524M251.248 48.8524L242.097 54.6655M321.765 54.6654L281.931 54.6654M321.765 54.6654L361.599 54.6654M273.207 60.7096L281.931 54.6654M273.207 60.7096L264.13 66.9992M273.207 60.7096L232.58 60.7096M281.931 54.6654L242.097 54.6655M361.599 54.6654L401.433 54.6654M361.599 54.6654L368.463 48.8524M242.097 54.6655L232.58 60.7096M368.463 48.8524L407.534 48.8524M264.13 66.9992L254.676 73.5496M264.13 66.9992L222.678 66.9992M232.58 60.7096L222.678 66.9992M222.678 66.9992L212.364 73.5496M296.987 73.5496L288.03 80.3777M296.987 73.5496L254.676 73.5496M296.987 73.5496L339.299 73.5496M254.676 73.5496L244.821 80.3777M254.676 73.5496L212.364 73.5496M212.364 73.5496L201.614 80.3777M288.03 80.3777L244.821 80.3777M288.03 80.3777L331.237 80.3777M234.541 87.5009L244.821 80.3777M234.541 87.5009L223.806 94.9387M234.541 87.5009L190.399 87.5009M244.821 80.3777L201.614 80.3777M331.237 80.3777L374.444 80.3777M331.237 80.3777L339.299 73.5496M201.614 80.3777L190.399 87.5009M339.299 73.5496L381.612 73.5496M223.806 94.9387L212.585 102.714M223.806 94.9387L178.687 94.9387M190.399 87.5009L178.687 94.9387M178.687 94.9387L166.446 102.714M258.723 102.714L248.051 110.848M258.723 102.714L212.585 102.714M258.723 102.714L304.862 102.714M212.585 102.714L200.845 110.848M212.585 102.714L166.446 102.714M166.446 102.714L153.639 110.848M248.051 110.848L200.845 110.848M248.051 110.848L295.256 110.848M188.549 119.367L200.845 110.848M188.549 119.367L175.657 128.3M188.549 119.367L140.226 119.367M200.845 110.848L153.639 110.848M295.256 110.848L342.462 110.848M295.256 110.848L304.862 102.714M153.639 110.848L140.226 119.367M304.862 102.714L351 102.714M175.657 128.3L162.124 137.677M175.657 128.3L126.161 128.3M140.226 119.367L126.161 128.3M126.161 128.3L111.398 137.677M212.849 137.677L199.92 147.531M212.849 137.677L162.124 137.677M212.849 137.677L263.575 137.677M162.124 137.677L147.9 147.531M162.124 137.677L111.398 137.677M111.398 137.677L95.882 147.531M199.92 147.531L147.9 147.531M199.92 147.531L251.938 147.531M132.934 157.902L147.9 147.531M132.934 157.902L117.162 168.829M132.934 157.902L79.5542 157.902M147.9 147.531L95.882 147.531M251.938 147.531L303.957 147.531M251.938 147.531L263.575 137.677M95.882 147.531L79.5542 157.902M95.882 147.531L43.8628 147.531M263.575 137.677L314.301 137.677M117.162 168.829L100.521 180.36M117.162 168.829L62.3491 168.829M79.5542 157.902L62.3491 168.829M43.8628 147.531L-3.39705 147.531M62.3491 168.829L44.1944 180.36M156.846 180.36L140.859 192.545M156.846 180.36L100.521 180.36M156.846 180.36L213.172 180.36M100.521 180.36L82.9343 192.545M100.521 180.36L44.1944 180.36M44.1944 180.36L25.0095 192.545M44.1944 180.36L-3.39704 180.36M140.859 192.545L82.9343 192.545M140.859 192.545L198.784 192.545M64.3199 205.443L82.9343 192.545M64.3199 205.443L44.5856 219.116M64.3199 205.443L4.70322 205.443M82.9343 192.545L25.0095 192.545M198.784 192.545L256.709 192.545M198.784 192.545L213.172 180.36M25.0095 192.545L4.70322 205.443M25.0095 192.545L-3.39704 192.545M213.172 180.36L269.499 180.36M44.5856 219.116L23.6266 233.638M44.5856 219.116L-3.39704 219.116M4.70322 205.443L-3.39704 205.443M4.70322 205.443L-3.39704 210.587M86.9429 233.638L66.6698 249.09M86.9429 233.638L23.6266 233.638M86.9429 233.638L150.259 233.638M23.6266 233.638L1.32606 249.09M23.6266 233.638L-3.39704 233.638M66.6698 249.09L1.32606 249.09M66.6698 249.09L132.013 249.09M1.32606 249.09L-3.39704 252.362M1.32606 249.09L-3.39704 249.09M132.013 249.09L197.357 249.09M132.013 249.09L150.259 233.638M150.259 233.638L213.576 233.638M-2.76924 302.013L69.5186 302.013M-2.76924 302.013L-3.39703 302.013M-2.76924 302.013L-3.39703 302.492M69.5186 302.013L141.806 302.013M69.5186 302.013L45.6264 322.246M502.354 27.6695L500.892 29.5261L500.4 30.1512L498.412 32.6778M502.354 27.6695L466.062 27.6695M502.354 27.6695L538.646 27.6695M470.501 22.8361L473.73 19.321L474.787 18.1688M470.501 22.8361L466.625 27.0557L466.062 27.6695M470.501 22.8361L434.843 22.8361M474.787 18.1688L439.741 18.1688M474.787 18.1688L478.929 13.6596M513.383 13.6596L478.929 13.6596M513.383 13.6596L514.684 12.0076L516.815 9.29961M513.383 13.6596L547.837 13.6596M466.062 27.6695L464.927 28.9043L461.462 32.6778M466.062 27.6695L429.77 27.6695M434.843 22.8361L439.741 18.1688M434.843 22.8361L429.77 27.6695M439.741 18.1688L443.307 14.7725L444.475 13.6596M478.929 13.6596L444.475 13.6596M478.929 13.6596L482.933 9.29962M429.77 27.6695L424.512 32.6778M410.021 13.6596L410.674 13.106L415.169 9.29962M410.021 13.6596L444.475 13.6596M444.475 13.6596L446.209 12.0076L449.051 9.29962M498.412 32.6778L461.462 32.6778M498.412 32.6778L535.361 32.6778M456.693 37.8706L461.462 32.6778M456.693 37.8706L451.744 43.2584M456.693 37.8706L419.062 37.8706M461.462 32.6778L424.512 32.6778M535.361 32.6778L572.31 32.6778M535.361 32.6778L538.646 27.6695M424.512 32.6778L419.062 37.8706M538.646 27.6695L574.938 27.6695M451.744 43.2584L448.556 46.7302L447.909 47.4338L446.606 48.8524M451.744 43.2584L413.407 43.2584M419.062 37.8706L413.407 43.2584M413.407 43.2584L407.534 48.8524M485.678 48.8524L481.102 54.6654M485.678 48.8524L446.606 48.8524M485.678 48.8524L524.749 48.8524M446.606 48.8524L441.268 54.6654M446.606 48.8524L407.534 48.8524M407.534 48.8524L401.433 54.6654M481.102 54.6654L441.268 54.6654M481.102 54.6654L520.936 54.6654M435.716 60.7096L439.212 56.904L439.9 56.1538L441.268 54.6654M435.716 60.7096L429.939 66.9992M435.716 60.7096L395.089 60.7096M441.268 54.6654L401.433 54.6654M520.936 54.6654L560.77 54.6654M520.936 54.6654L524.749 48.8524M401.433 54.6654L395.089 60.7096M524.749 48.8524L563.821 48.8524M429.939 66.9992L423.923 73.5496M429.939 66.9992L388.487 66.9992M395.089 60.7096L388.487 66.9992M388.487 66.9992L381.612 73.5496M466.235 73.5496L463.576 76.9275L462.903 77.7836L460.86 80.3776M466.235 73.5496L423.923 73.5496M466.235 73.5496L508.547 73.5496M423.923 73.5496L417.653 80.3776M423.923 73.5496L381.612 73.5496M381.612 73.5496L374.444 80.3777M460.86 80.3776L417.653 80.3776M460.86 80.3776L504.068 80.3776M411.11 87.5009L417.653 80.3776M411.11 87.5009L404.279 94.9387M411.11 87.5009L366.968 87.5009M417.653 80.3776L374.444 80.3777M504.068 80.3776L547.276 80.3776M504.068 80.3776L505.206 78.6437L508.547 73.5496M374.444 80.3777L366.968 87.5009M508.547 73.5496L550.859 73.5496M404.279 94.9387L397.138 102.714M404.279 94.9387L359.16 94.9387M366.968 87.5009L359.16 94.9387M359.16 94.9387L351 102.714M443.277 102.714L436.873 110.848M443.277 102.714L397.138 102.714M443.277 102.714L489.415 102.714M397.138 102.714L389.667 110.848M397.138 102.714L351 102.714M351 102.714L342.462 110.848M436.873 110.848L389.667 110.848M436.873 110.848L484.079 110.848M381.843 119.367L389.667 110.848M381.843 119.367L373.639 128.3M381.843 119.367L333.519 119.367M389.667 110.848L342.462 110.848M484.079 110.848L531.284 110.848M484.079 110.848L489.415 102.714M342.462 110.848L333.519 119.367M489.415 102.714L535.553 102.714M373.639 128.3L365.027 137.677M373.639 128.3L324.143 128.3M333.519 119.367L324.143 128.3M324.143 128.3L314.301 137.677M415.752 137.677L407.994 147.531M415.752 137.677L365.027 137.677M415.752 137.677L466.478 137.677M365.027 137.677L355.976 147.531M365.027 137.677L314.301 137.677M314.301 137.677L303.957 147.531M407.994 147.531L355.976 147.531M407.994 147.531L460.013 147.531M346.451 157.902L355.976 147.531M346.451 157.902L336.415 168.829M346.451 157.902L293.071 157.902M355.976 147.531L303.957 147.531M460.013 147.531L512.032 147.531M460.013 147.531L466.478 137.677M303.957 147.531L293.071 157.902M466.478 137.677L517.204 137.677M336.415 168.829L325.824 180.36M336.415 168.829L281.602 168.829M293.071 157.902L281.602 168.829M281.602 168.829L269.499 180.36M382.151 180.36L372.558 192.545M382.151 180.36L325.824 180.36M382.151 180.36L438.477 180.36M325.824 180.36L314.633 192.545M325.824 180.36L269.499 180.36M269.499 180.36L256.709 192.545M372.558 192.545L314.633 192.545M372.558 192.545L430.483 192.545M302.788 205.443L314.633 192.545M302.788 205.443L290.229 219.116M302.788 205.443L243.171 205.443M314.633 192.545L256.709 192.545M430.483 192.545L488.408 192.545M430.483 192.545L438.477 180.36M256.709 192.545L243.171 205.443M438.477 180.36L494.802 180.36M290.229 219.116L276.892 233.638M290.229 219.116L228.819 219.116M243.171 205.443L228.819 219.116M228.819 219.116L213.576 233.638M340.208 233.638L328.045 249.09M340.208 233.638L276.892 233.638M340.208 233.638L403.525 233.638M276.892 233.638L262.701 249.09M276.892 233.638L213.576 233.638M213.576 233.638L197.357 249.09M328.045 249.09L262.701 249.09M328.045 249.09L393.388 249.09M247.571 265.564L262.701 249.09M247.571 265.564L231.405 283.165M247.571 265.564L180.065 265.564M262.701 249.09L197.357 249.09M393.388 249.09L458.732 249.09M393.388 249.09L403.525 233.638M197.357 249.09L180.065 265.564M403.525 233.638L466.841 233.638M231.405 283.165L214.093 302.013M231.405 283.165L161.59 283.165M180.065 265.564L161.59 283.165M161.59 283.165L141.806 302.013M286.381 302.013L270.454 322.246M286.381 302.013L214.093 302.013M286.381 302.013L358.668 302.013M214.093 302.013L195.511 322.246M214.093 302.013L141.806 302.013M141.806 302.013L120.569 322.246M270.454 322.246L195.511 322.246M270.454 322.246L345.396 322.246M175.512 344.021L195.511 322.246M175.512 344.021L153.927 367.523M175.512 344.021L97.7126 344.021M195.511 322.246L120.569 322.246M345.396 322.246L420.338 322.246M345.396 322.246L358.668 302.013M120.569 322.246L97.7126 344.021M120.569 322.246L45.6264 322.246M358.668 302.013L430.956 302.013M153.927 367.523L130.561 392.964M153.927 367.523L73.0449 367.523M97.7126 344.021L73.0449 367.523M45.6264 322.246L-3.39703 322.246M73.0449 367.523L46.3401 392.964M73.0449 367.523L-3.39703 367.523M214.782 392.964L193.03 420.595M214.782 392.964L130.561 392.964M214.782 392.964L299.003 392.964M130.561 392.964L105.184 420.595M130.561 392.964L46.3401 392.964M46.3401 392.964L17.3374 420.595M46.3401 392.964L-3.39702 392.964M193.03 420.595L105.184 420.595M193.03 420.595L280.876 420.595M77.5223 450.712L105.184 420.595M77.5223 450.712L47.2558 483.667M77.5223 450.712L-3.39702 450.712M105.184 420.595L17.3374 420.595M280.876 420.595L368.722 420.595M280.876 420.595L299.003 392.964M17.3374 420.595L-3.39702 420.595M17.3374 420.595L-3.39702 440.349M299.003 392.964L383.224 392.964M47.2558 483.667L13.9972 519.879M47.2558 483.667L-3.39702 483.667M114.87 519.879L83.3978 559.858M114.87 519.879L13.9972 519.879M114.87 519.879L215.742 519.879M13.9972 519.879L-3.39701 538.819M13.9972 519.879L-3.39701 519.879M83.3978 559.858L189.516 559.858M83.3978 559.858L-3.39701 559.857M189.516 559.858L295.634 559.858M189.516 559.858L215.742 519.879M215.742 519.879L316.615 519.879M647.523 27.6695L647.361 28.2857L647.199 28.9043L647.035 29.5261L646.872 30.1511L646.375 32.0415L646.208 32.6777M647.523 27.6695L611.23 27.6695M647.523 27.6695L683.815 27.6695M613.133 22.8361L614.517 19.321L614.969 18.1688M613.133 22.8361L611.951 25.8369L611.23 27.6695M613.133 22.8361L577.475 22.8361M614.969 18.1688L579.924 18.1688M614.969 18.1688L616.307 14.7724L616.745 13.6596M651.199 13.6596L651.344 13.106L651.918 10.9171L652.343 9.2996M651.199 13.6596L616.745 13.6596M651.199 13.6596L685.653 13.6596M611.23 27.6695L610.988 28.2857L610.744 28.9043L610.5 29.5261L610.253 30.1512L609.259 32.6778M611.23 27.6695L574.938 27.6695M577.475 22.8361L579.32 19.321L579.924 18.1688M577.475 22.8361L574.938 27.6695M579.924 18.1688L581.118 15.8949L582 14.2148L582.291 13.6596M616.745 13.6596L616.962 13.106L617.395 12.0075L617.824 10.9171L618.037 10.3756L618.461 9.2996M616.745 13.6596L582.291 13.6596M574.938 27.6695L572.975 31.4084L572.31 32.6778M547.837 13.6596L549.991 10.3756L550.697 9.29961M547.837 13.6596L582.291 13.6596M582.291 13.6596L584.297 9.83639L584.579 9.29961M646.208 32.6777L609.259 32.6778M646.208 32.6777L683.157 32.6777M607.215 37.8706L609.259 32.6778M607.215 37.8706L605.094 43.2584M607.215 37.8706L569.585 37.8706M609.259 32.6778L572.31 32.6778M683.157 32.6777L720.107 32.6777M683.157 32.6777L683.815 27.6695M572.31 32.6778L569.585 37.8706M683.815 27.6695L720.107 27.6695M605.094 43.2584L604.551 44.6368L603.727 46.7302L602.892 48.8524M605.094 43.2584L566.756 43.2584M569.585 37.8706L569.237 38.5325L566.756 43.2584M566.756 43.2584L566.396 43.946L566.033 44.6368L565.669 45.3317L563.821 48.8524M641.964 48.8524L640.438 54.6654M641.964 48.8524L602.892 48.8524M641.964 48.8524L681.035 48.8524M602.892 48.8524L600.604 54.6654M602.892 48.8524L563.821 48.8524M563.821 48.8524L561.544 53.1907L561.157 53.9265L560.77 54.6654M640.438 54.6654L600.604 54.6654M640.438 54.6654L680.272 54.6654M598.225 60.7096L597.921 61.4822L597.615 62.2581L597.309 63.0388L595.749 66.9992M598.225 60.7096L599.426 57.6574L599.723 56.904L600.018 56.1538L600.604 54.6654M598.225 60.7096L557.598 60.7096M600.604 54.6654L560.77 54.6654M680.272 54.6654L720.107 54.6654M680.272 54.6654L681.035 48.8524M560.77 54.6654L557.598 60.7096M681.035 48.8524L720.107 48.8524M595.749 66.9992L593.499 72.716L593.171 73.5496M595.749 66.9992L554.297 66.9992M557.598 60.7096L556.785 62.2581L554.297 66.9992M554.297 66.9992L553.024 69.4239L550.859 73.5496M635.483 73.5496L634.596 76.9275L634.372 77.7836L633.691 80.3776M635.483 73.5496L593.171 73.5496M635.483 73.5496L677.794 73.5496M593.171 73.5496L590.483 80.3776M593.171 73.5496L550.859 73.5496M550.859 73.5496L547.276 80.3776M633.691 80.3776L590.483 80.3776M633.691 80.3776L676.899 80.3776M587.68 87.5009L590.483 80.3776M587.68 87.5009L584.752 94.9387M587.68 87.5009L543.537 87.5009M590.483 80.3776L547.276 80.3776M676.899 80.3776L720.107 80.3776M676.899 80.3776L677.127 78.6437L677.574 75.2297L677.794 73.5496M547.276 80.3776L543.537 87.5009M677.794 73.5496L720.107 73.5496M584.752 94.9387L582.47 100.737L581.691 102.714M584.752 94.9387L539.633 94.9387M543.537 87.5009L539.633 94.9387M539.633 94.9387L537.616 98.7828L535.553 102.714M627.83 102.714L625.695 110.848M627.83 102.714L581.691 102.714M627.83 102.714L673.968 102.714M581.691 102.714L578.49 110.848M581.691 102.714L535.553 102.714M535.553 102.714L531.284 110.848M625.695 110.848L578.49 110.848M625.695 110.848L672.901 110.848M575.136 119.367L575.99 117.2L578.49 110.848M575.136 119.367L571.62 128.3M575.136 119.367L526.813 119.367M578.49 110.848L531.284 110.848M672.901 110.848L720.107 110.848M672.901 110.848L673.968 102.714M531.284 110.848L526.813 119.367M673.968 102.714L720.107 102.714M571.62 128.3L567.93 137.677M571.62 128.3L522.125 128.3M526.813 119.367L522.125 128.3M522.125 128.3L517.204 137.677M618.655 137.677L616.069 147.531M618.655 137.677L567.93 137.677M618.655 137.677L669.381 137.677M567.93 137.677L564.051 147.531M567.93 137.677L517.204 137.677M517.204 137.677L512.032 147.531M616.069 147.531L564.051 147.531M616.069 147.531L668.088 147.531M559.968 157.902L564.051 147.531M559.968 157.902L555.667 168.829M559.968 157.902L506.589 157.902M564.051 147.531L512.032 147.531M668.088 147.531L720.107 147.531M668.088 147.531L669.223 138.882L669.381 137.677M512.032 147.531L506.589 157.902M669.381 137.677L720.107 137.677M555.667 168.829L551.129 180.36M555.667 168.829L500.854 168.829M506.589 157.902L502.317 166.043L500.854 168.829M500.854 168.829L494.802 180.36M607.455 180.36L604.257 192.545M607.455 180.36L551.129 180.36M607.455 180.36L663.78 180.36M551.129 180.36L546.332 192.545M551.129 180.36L494.802 180.36M494.802 180.36L488.408 192.545M604.257 192.545L546.332 192.545M604.257 192.545L662.182 192.545M541.256 205.443L546.332 192.545M541.256 205.443L535.874 219.116M541.256 205.443L481.639 205.443M546.332 192.545L488.408 192.545M662.182 192.545L720.107 192.545M662.182 192.545L663.78 180.36M488.408 192.545L481.639 205.443M663.78 180.36L720.107 180.36M535.874 219.116L530.158 233.638M535.874 219.116L474.463 219.116M481.639 205.443L474.463 219.116M474.463 219.116L466.841 233.638M593.474 233.638L589.419 249.09M593.474 233.638L530.158 233.638M593.474 233.638L656.79 233.638M530.158 233.638L524.076 249.09M530.158 233.638L466.841 233.638M466.841 233.638L458.732 249.09M589.419 249.09L524.076 249.09M589.419 249.09L654.763 249.09M517.591 265.564L524.076 249.09M517.591 265.564L510.663 283.165M517.591 265.564L450.086 265.564M524.076 249.09L458.732 249.09M654.763 249.09L720.107 249.09M654.763 249.09L656.79 233.638M458.732 249.09L450.086 265.564M656.79 233.638L720.107 233.638M510.663 283.165L503.244 302.013M510.663 283.165L440.849 283.165M450.086 265.564L440.849 283.165M440.849 283.165L430.956 302.013M575.532 302.013L570.222 322.246M575.532 302.013L503.244 302.013M575.532 302.013L647.819 302.013M503.244 302.013L495.28 322.246M503.244 302.013L430.956 302.013M430.956 302.013L420.338 322.246M570.222 322.246L495.28 322.246M570.222 322.246L645.165 322.246M486.709 344.021L495.28 322.246M486.709 344.021L477.459 367.523M486.709 344.021L408.91 344.021M495.28 322.246L420.338 322.246M645.165 322.246L720.107 322.246M645.165 322.246L647.819 302.013M420.338 322.246L408.91 344.021M647.819 302.013L720.107 302.013M477.459 367.523L467.444 392.964M477.459 367.523L396.575 367.523M408.91 344.021L396.575 367.523M396.575 367.523L383.224 392.964M551.665 392.964L544.414 420.595M551.665 392.964L467.444 392.964M551.665 392.964L635.886 392.964M467.444 392.964L456.568 420.595M467.444 392.964L383.224 392.964M383.224 392.964L368.722 420.595M544.414 420.595L456.568 420.595M544.414 420.595L632.261 420.595M444.713 450.712L456.568 420.595M444.713 450.712L431.742 483.667M444.713 450.712L352.916 450.712M456.568 420.595L368.722 420.595M632.261 420.595L720.107 420.595M632.261 420.595L635.886 392.964M368.722 420.595L352.916 450.712M635.886 392.964L720.107 392.964M431.742 483.667L417.488 519.879M431.742 483.667L335.62 483.667M352.916 450.712L335.62 483.667M335.62 483.667L316.615 519.879M518.361 519.879L507.871 559.858M518.361 519.879L417.488 519.879M518.361 519.879L619.234 519.879M417.488 519.879L401.752 559.858M417.488 519.879L316.615 519.879M316.615 519.879L295.634 559.858M401.752 559.858L507.871 559.858M401.752 559.858L295.634 559.858M507.871 559.858L613.988 559.858M613.988 559.858L720.107 559.858M613.988 559.858L619.234 519.879M619.234 519.879L720.107 519.879M792.691 27.6694L792.853 28.2857L793.015 28.9043L793.178 29.5261L793.342 30.1511L793.672 31.4084L793.838 32.0415L794.005 32.6777M792.691 27.6694L756.399 27.6694M792.691 27.6694L828.983 27.6694M755.765 22.8361L755.152 18.1688M755.765 22.8361L756.399 27.6694M755.765 22.8361L720.107 22.8361M755.152 18.1688L755.077 17.5967L755.002 17.027L754.928 16.4598L754.56 13.6596M755.152 18.1688L720.107 18.1688M789.014 13.6596L788.87 13.1059L788.295 10.9171L787.87 9.29959M789.014 13.6596L754.56 13.6596M789.014 13.6596L823.468 13.6596M756.399 27.6694L756.48 28.2857L756.561 28.9043L756.643 29.5261L757.056 32.6777M756.399 27.6694L720.107 27.6695M720.107 22.8361L720.107 18.1688M720.107 22.8361L720.107 27.6695M720.107 18.1688L720.107 13.6596M754.56 13.6596L720.107 13.6596M754.56 13.6596L754.344 12.0075L754.272 11.4611L753.988 9.29959M720.107 27.6695L720.107 32.6777M685.653 13.6596L685.869 12.0075L685.941 11.4611L686.012 10.9171L686.084 10.3756L686.154 9.83638L686.225 9.2996M685.653 13.6596L720.107 13.6596M720.107 13.6596L720.107 9.2996M794.005 32.6777L757.056 32.6777M794.005 32.6777L830.954 32.6777M757.737 37.8706L757.825 38.5325L757.911 39.1985L758.444 43.2584M757.737 37.8706L757.056 32.6777M757.737 37.8706L720.107 37.8706M757.056 32.6777L720.107 32.6777M830.954 32.6777L867.903 32.6777M830.954 32.6777L830.455 31.4084L830.207 30.7786L829.96 30.1511L829.714 29.5261L829.47 28.9043L829.225 28.2857L828.983 27.6694M720.107 32.6777L720.107 37.8706M828.983 27.6694L865.275 27.6694M758.444 43.2584L759.178 48.8524M758.444 43.2584L720.107 43.2584M720.107 37.8706L720.107 43.2584M720.107 43.2584L720.107 48.8524M798.25 48.8524L799.775 54.6654M798.25 48.8524L759.178 48.8524M798.25 48.8524L837.321 48.8524M759.178 48.8524L759.941 54.6654M759.178 48.8524L720.107 48.8524M720.107 48.8524L720.107 54.6654M799.775 54.6654L759.941 54.6654M799.775 54.6654L839.609 54.6654M760.734 60.7095L759.941 54.6654M760.734 60.7095L761.559 66.9992M760.734 60.7095L720.107 60.7095M759.941 54.6654L720.107 54.6654M839.609 54.6654L879.443 54.6654M839.609 54.6654L837.321 48.8524M720.107 54.6654L720.107 60.7095M837.321 48.8524L876.392 48.8524M761.559 66.9992L761.877 69.4239L762.2 71.8863L762.419 73.5496M761.559 66.9992L720.107 66.9992M720.107 60.7095L720.107 66.9992M720.107 66.9992L720.107 73.5496M804.73 73.5496L805.617 76.9275L805.841 77.7836L806.522 80.3776M804.73 73.5496L762.419 73.5496M804.73 73.5496L847.042 73.5496M762.419 73.5496L762.639 75.2297L763.087 78.6437L763.314 80.3776M762.419 73.5496L720.107 73.5496M720.107 73.5496L720.107 80.3776M806.522 80.3776L763.314 80.3776M806.522 80.3776L849.73 80.3776M764.249 87.5009L764.13 86.5934L763.314 80.3776M764.249 87.5009L765.225 94.9387M764.249 87.5009L720.107 87.5009M763.314 80.3776L720.107 80.3776M849.73 80.3776L892.937 80.3776M849.73 80.3776L847.042 73.5496M720.107 80.3776L720.107 87.5009M847.042 73.5496L889.354 73.5496M765.225 94.9387L766.245 102.713M765.225 94.9387L720.107 94.9387M720.107 87.5009L720.107 94.9387M720.107 94.9387L720.107 102.714M812.383 102.713L814.518 110.848M812.383 102.713L766.245 102.713M812.383 102.713L858.522 102.713M766.245 102.713L767.312 110.848M766.245 102.713L720.107 102.714M720.107 102.714L720.107 110.848M814.518 110.848L767.312 110.848M814.518 110.848L861.723 110.848M768.43 119.367L767.312 110.848M768.43 119.367L769.602 128.3M768.43 119.367L720.107 119.367M767.312 110.848L720.107 110.848M861.723 110.848L908.929 110.848M861.723 110.848L858.522 102.713M720.107 110.848L720.107 119.367M858.522 102.713L904.66 102.713M769.602 128.3L770.833 137.677M769.602 128.3L720.107 128.3M720.107 119.367L720.107 128.3M720.107 128.3L720.107 137.677M821.558 137.677L824.144 147.531M821.558 137.677L770.833 137.677M821.558 137.677L872.284 137.677M770.833 137.677L772.125 147.531M770.833 137.677L720.107 137.677M720.107 137.677L720.107 147.531M824.144 147.531L772.125 147.531M824.144 147.531L876.163 147.531M773.486 157.902L772.125 147.531M773.486 157.902L774.92 168.829M773.486 157.902L720.107 157.902M772.125 147.531L720.107 147.531M876.163 147.531L928.182 147.531M876.163 147.531L872.284 137.677M720.107 147.531L720.107 157.902M872.284 137.677L923.009 137.677M774.92 168.829L776.433 180.36M774.92 168.829L720.107 168.829M720.107 157.902L720.107 168.829M720.107 168.829L720.107 180.36M832.758 180.36L835.956 192.545M832.758 180.36L776.433 180.36M832.758 180.36L889.085 180.36M776.433 180.36L778.031 192.545M776.433 180.36L720.107 180.36M720.107 180.36L720.107 192.545M835.956 192.545L778.031 192.545M835.956 192.545L893.881 192.545M779.723 205.443L778.031 192.545M779.723 205.443L781.518 219.116M779.723 205.443L720.107 205.443M778.031 192.545L720.107 192.545M893.881 192.545L951.806 192.545M893.881 192.545L889.085 180.36M720.107 192.545L720.107 205.443M889.085 180.36L945.411 180.36M781.518 219.116L783.423 233.638M781.518 219.116L720.107 219.116M720.107 205.443L720.107 219.116M720.107 219.116L720.107 233.638M846.739 233.638L850.794 249.09M846.739 233.638L783.423 233.638M846.739 233.638L910.056 233.638M783.423 233.638L785.45 249.09M783.423 233.638L720.107 233.638M720.107 233.638L720.107 249.09M850.794 249.09L785.45 249.09M850.794 249.09L916.138 249.09M787.612 265.564L785.45 249.09M787.612 265.564L789.921 283.165M787.612 265.564L720.107 265.564M785.45 249.09L720.107 249.09M916.138 249.09L981.481 249.09M916.138 249.09L910.056 233.638M720.107 249.09L720.107 265.564M910.056 233.638L973.372 233.638M789.921 283.165L792.394 302.013M789.921 283.165L720.107 283.165M720.107 265.564L720.107 283.165M720.107 283.165L720.107 302.013M864.682 302.013L869.991 322.246M864.682 302.013L792.394 302.013M864.682 302.013L936.969 302.013M792.394 302.013L795.049 322.246M792.394 302.013L720.107 302.013M720.107 302.013L720.107 322.246M869.991 322.246L795.049 322.246M869.991 322.246L944.933 322.246M797.906 344.021L795.049 322.246M797.906 344.021L800.989 367.523M797.906 344.021L720.107 344.021M795.049 322.246L720.107 322.246M944.933 322.246L1019.88 322.246M944.933 322.246L936.969 302.013M720.107 322.246L720.107 344.021M936.969 302.013L1009.26 302.013M800.989 367.523L804.328 392.964M800.989 367.523L720.107 367.523M720.107 344.021L720.107 367.523M720.107 367.523L720.107 392.964M888.548 392.964L895.799 420.595M888.548 392.964L804.328 392.964M888.548 392.964L972.769 392.964M804.328 392.964L807.953 420.595M804.328 392.964L720.107 392.964M720.107 392.964L720.107 420.595M895.799 420.595L807.953 420.595M895.799 420.595L983.645 420.595M811.904 450.712L807.953 420.595M811.904 450.712L816.228 483.667M811.904 450.712L720.107 450.712M807.953 420.595L720.107 420.595M983.645 420.595L1071.49 420.595M983.645 420.595L972.769 392.964M720.107 420.595L720.107 450.712M972.769 392.964L1056.99 392.964M816.228 483.667L820.98 519.879M816.228 483.667L720.107 483.667M720.107 450.712L720.107 483.667M720.107 483.667L720.107 519.879M921.852 519.879L932.343 559.858M921.852 519.879L820.98 519.879M921.852 519.879L1022.72 519.879M820.98 519.879L826.225 559.858M820.98 519.879L720.107 519.879M720.107 519.879L720.107 559.858M826.225 559.858L932.343 559.858M826.225 559.858L720.107 559.858M932.343 559.858L1038.46 559.858M1038.46 559.858L1144.58 559.858M1038.46 559.858L1022.72 519.879M1022.72 519.879L1123.6 519.879M937.859 27.6694L939.813 30.1511L941.802 32.6777M937.859 27.6694L901.567 27.6694M937.859 27.6694L974.151 27.6694M898.397 22.8361L895.335 18.1688M898.397 22.8361L901.567 27.6694M898.397 22.8361L862.739 22.8361M895.335 18.1688L860.289 18.1688M895.335 18.1688L893.107 14.7724L892.377 13.6596M926.83 13.6596L892.377 13.6596M926.83 13.6596L925.53 12.0075L923.398 9.29958M926.83 13.6596L961.284 13.6596M901.567 27.6694L904.853 32.6777M901.567 27.6694L865.275 27.6694M862.739 22.8361L860.289 18.1688M862.739 22.8361L865.275 27.6694M860.289 18.1688L859.095 15.8949L858.214 14.2148L857.923 13.6596M892.377 13.6596L857.923 13.6596M892.377 13.6596L890.223 10.3755L889.517 9.29958M865.275 27.6694L867.238 31.4084L867.903 32.6777M823.468 13.6596L823.251 13.1059L822.819 12.0075L822.176 10.3755L821.752 9.29959M823.468 13.6596L857.923 13.6596M857.923 13.6596L857.633 13.1059L857.055 12.0075L855.635 9.29958M941.802 32.6777L904.853 32.6777M941.802 32.6777L978.752 32.6777M908.26 37.8706L907.826 37.211L907.396 36.5539L905.693 33.9575L904.853 32.6777M908.26 37.8706L910.898 41.892L911.794 43.2584M908.26 37.8706L870.629 37.8706M904.853 32.6777L867.903 32.6777M978.752 32.6777L1015.7 32.6777M978.752 32.6777L975.286 28.9043L974.151 27.6694M867.903 32.6777L870.629 37.8706M974.151 27.6694L1010.44 27.6694M911.794 43.2584L912.245 43.946L912.699 44.6368L914.071 46.7301L914.534 47.4338L915.464 48.8524M911.794 43.2584L873.457 43.2584M870.629 37.8706L870.977 38.5325L873.457 43.2584M873.457 43.2584L873.817 43.946L874.181 44.6368L874.545 45.3316L876.392 48.8524M954.535 48.8523L959.112 54.6654M954.535 48.8523L915.464 48.8524M954.535 48.8523L993.607 48.8523M915.464 48.8524L919.277 54.6654M915.464 48.8524L876.392 48.8524M876.392 48.8524L879.443 54.6654M959.112 54.6654L919.277 54.6654M959.112 54.6654L998.946 54.6654M923.242 60.7095L919.277 54.6654M923.242 60.7095L927.369 66.9992M923.242 60.7095L882.615 60.7095M919.277 54.6654L879.443 54.6654M998.946 54.6654L1038.78 54.6654M998.946 54.6654L993.607 48.8523M879.443 54.6654L882.615 60.7095M993.607 48.8523L1032.68 48.8523M927.369 66.9992L931.666 73.5496M927.369 66.9992L885.916 66.9992M882.615 60.7095L883.429 62.2581L885.916 66.9992M885.916 66.9992L887.189 69.4239L888.482 71.8863L889.354 73.5496M973.978 73.5496L976.638 76.9275L979.353 80.3776M973.978 73.5496L931.666 73.5496M973.978 73.5496L1016.29 73.5496M931.666 73.5496L936.146 80.3776M931.666 73.5496L889.354 73.5496M889.354 73.5496L892.937 80.3776M979.353 80.3776L936.146 80.3776M979.353 80.3776L1022.56 80.3776M940.818 87.5009L936.146 80.3776M940.818 87.5009L945.698 94.9387M940.818 87.5009L896.676 87.5009M936.146 80.3776L892.937 80.3776M1022.56 80.3776L1065.77 80.3776M1022.56 80.3776L1016.29 73.5496M892.937 80.3776L896.676 87.5009M1016.29 73.5496L1058.6 73.5496M945.698 94.9387L946.952 96.8499L950.798 102.713M945.698 94.9387L900.58 94.9387M896.676 87.5009L900.58 94.9387M900.58 94.9387L901.08 95.8919L902.597 98.7828L904.66 102.713M996.936 102.713L1003.34 110.848M996.936 102.713L950.798 102.713M996.936 102.713L1043.07 102.713M950.798 102.713L956.135 110.848M950.798 102.713L904.66 102.713M904.66 102.713L908.929 110.848M1003.34 110.848L956.135 110.848M1003.34 110.848L1050.55 110.848M961.724 119.367L958.2 113.996L956.135 110.848M961.724 119.367L967.584 128.3M961.724 119.367L913.4 119.367M956.135 110.848L908.929 110.848M1050.55 110.848L1097.75 110.848M1050.55 110.848L1043.07 102.713M908.929 110.848L913.4 119.367M1043.07 102.713L1089.21 102.713M967.584 128.3L973.735 137.677M967.584 128.3L918.088 128.3M913.4 119.367L918.088 128.3M918.088 128.3L923.009 137.677M1024.46 137.677L1032.22 147.531M1024.46 137.677L973.735 137.677M1024.46 137.677L1075.19 137.677M973.735 137.677L980.2 147.531M973.735 137.677L923.009 137.677M923.009 137.677L928.182 147.531M1032.22 147.531L980.2 147.531M1032.22 147.531L1084.24 147.531M987.003 157.902L980.2 147.531M987.003 157.902L994.172 168.829M987.003 157.902L933.624 157.902M980.2 147.531L928.182 147.531M1084.24 147.531L1136.26 147.531M1084.24 147.531L1075.19 137.677M928.182 147.531L933.624 157.902M1075.19 137.677L1125.91 137.677M994.172 168.829L1001.74 180.36M994.172 168.829L939.359 168.829M933.624 157.902L939.359 168.829M939.359 168.829L945.411 180.36M1058.06 180.36L1067.66 192.545M1058.06 180.36L1001.74 180.36M1058.06 180.36L1114.39 180.36M1001.74 180.36L1009.73 192.545M1001.74 180.36L945.411 180.36M945.411 180.36L951.806 192.545M1067.66 192.545L1009.73 192.545M1067.66 192.545L1125.58 192.545M1018.19 205.443L1009.73 192.545M1018.19 205.443L1027.16 219.116M1018.19 205.443L958.574 205.443M1009.73 192.545L951.806 192.545M1125.58 192.545L1183.5 192.545M1125.58 192.545L1114.39 180.36M951.806 192.545L958.574 205.443M1114.39 180.36L1170.71 180.36M1027.16 219.116L1036.69 233.638M1027.16 219.116L965.75 219.116M958.574 205.443L965.75 219.116M965.75 219.116L973.372 233.638M1100 233.638L1112.17 249.09M1100 233.638L1036.69 233.638M1100 233.638L1163.32 233.638M1036.69 233.638L1046.83 249.09M1036.69 233.638L973.372 233.638M973.372 233.638L981.481 249.09M1112.17 249.09L1046.83 249.09M1112.17 249.09L1177.51 249.09M1057.63 265.564L1046.83 249.09M1057.63 265.564L1069.18 283.165M1057.63 265.564L990.127 265.564M1046.83 249.09L981.481 249.09M1177.51 249.09L1242.86 249.09M1177.51 249.09L1163.32 233.638M981.481 249.09L990.127 265.564M1163.32 233.638L1226.64 233.638M1069.18 283.165L1081.54 302.013M1069.18 283.165L999.365 283.165M990.127 265.564L999.365 283.165M999.365 283.165L1009.26 302.013M1153.83 302.013L1169.76 322.246M1153.83 302.013L1081.54 302.013M1153.83 302.013L1226.12 302.013M1081.54 302.013L1094.82 322.246M1081.54 302.013L1009.26 302.013M1009.26 302.013L1019.88 322.246M1169.76 322.246L1094.82 322.246M1169.76 322.246L1244.7 322.246M1109.1 344.021L1094.82 322.246M1109.1 344.021L1124.52 367.523M1109.1 344.021L1031.3 344.021M1094.82 322.246L1019.88 322.246M1244.7 322.246L1319.64 322.246M1244.7 322.246L1226.12 302.013M1019.88 322.246L1031.3 344.021M1226.12 302.013L1298.41 302.013M1124.52 367.523L1141.21 392.964M1124.52 367.523L1043.64 367.523M1031.3 344.021L1043.64 367.523M1043.64 367.523L1056.99 392.964M1225.43 392.964L1247.18 420.595M1225.43 392.964L1141.21 392.964M1225.43 392.964L1309.65 392.964M1141.21 392.964L1159.34 420.595M1141.21 392.964L1056.99 392.964M1056.99 392.964L1071.49 420.595M1247.18 420.595L1159.34 420.595M1247.18 420.595L1335.03 420.595M1179.1 450.712L1159.34 420.595M1179.1 450.712L1200.71 483.667M1179.1 450.712L1087.3 450.712M1159.34 420.595L1071.49 420.595M1335.03 420.595L1422.88 420.595M1335.03 420.595L1309.65 392.964M1071.49 420.595L1087.3 450.712M1309.65 392.964L1393.87 392.964M1200.71 483.667L1224.47 519.879M1200.71 483.667L1104.59 483.667M1087.3 450.712L1104.59 483.667M1104.59 483.667L1123.6 519.879M1325.34 519.879L1356.82 559.858M1325.34 519.879L1224.47 519.879M1325.34 519.879L1426.22 519.879M1224.47 519.879L1250.7 559.858M1224.47 519.879L1123.6 519.879M1123.6 519.879L1144.58 559.858M1250.7 559.858L1356.82 559.858M1250.7 559.858L1144.58 559.858M1356.82 559.858L1443.61 559.857M1426.22 519.879L1443.61 538.819M1426.22 519.879L1443.61 519.879M1083.03 27.6694L1089.6 32.6777M1083.03 27.6694L1046.74 27.6694M1083.03 27.6694L1119.32 27.6694M1041.03 22.8361L1035.52 18.1688M1041.03 22.8361L1046.74 27.6694M1041.03 22.8361L1005.37 22.8361M1035.52 18.1688L1000.47 18.1688M1035.52 18.1688L1030.19 13.6595M1064.65 13.6595L1030.19 13.6595M1064.65 13.6595L1062.48 12.0075L1058.93 9.29957M1064.65 13.6595L1099.1 13.6595M1046.74 27.6694L1052.65 32.6777M1046.74 27.6694L1010.44 27.6694M1005.37 22.8361L1000.47 18.1688M1005.37 22.8361L1010.44 27.6694M1000.47 18.1688L996.906 14.7724L995.738 13.6595M1030.19 13.6595L1029.54 13.1059L1025.04 9.29957M1030.19 13.6595L995.738 13.6595M1010.44 27.6694L1015.7 32.6777M961.284 13.6596L957.28 9.29957M961.284 13.6596L995.738 13.6595M995.738 13.6595L994.004 12.0075L991.162 9.29957M1089.6 32.6777L1052.65 32.6777M1089.6 32.6777L1126.55 32.6777M1058.78 37.8706L1052.65 32.6777M1058.78 37.8706L1065.14 43.2583M1058.78 37.8706L1021.15 37.8706M1052.65 32.6777L1015.7 32.6777M1126.55 32.6777L1163.5 32.6777M1126.55 32.6777L1119.32 27.6694M1015.7 32.6777L1021.15 37.8706M1119.32 27.6694L1155.61 27.6694M1065.14 43.2583L1066.77 44.6368L1071.75 48.8523M1065.14 43.2583L1026.81 43.2583M1021.15 37.8706L1026.81 43.2583M1026.81 43.2583L1032.68 48.8523M1110.82 48.8523L1111.76 49.5672L1118.45 54.6654M1110.82 48.8523L1071.75 48.8523M1110.82 48.8523L1149.89 48.8523M1071.75 48.8523L1078.61 54.6654M1071.75 48.8523L1032.68 48.8523M1032.68 48.8523L1033.43 49.5672L1038.78 54.6654M1118.45 54.6654L1078.61 54.6654M1118.45 54.6654L1158.28 54.6654M1085.75 60.7095L1078.61 54.6654M1085.75 60.7095L1093.18 66.9991M1085.75 60.7095L1045.12 60.7095M1078.61 54.6654L1038.78 54.6654M1158.28 54.6654L1198.12 54.6654M1158.28 54.6654L1149.89 48.8523M1038.78 54.6654L1045.12 60.7095M1149.89 48.8523L1188.96 48.8523M1093.18 66.9991L1100.91 73.5496M1093.18 66.9991L1051.73 66.9992M1045.12 60.7095L1051.73 66.9992M1051.73 66.9992L1058.6 73.5496M1143.23 73.5496L1152.18 80.3776M1143.23 73.5496L1100.91 73.5496M1143.23 73.5496L1185.54 73.5496M1100.91 73.5496L1108.98 80.3776M1100.91 73.5496L1058.6 73.5496M1058.6 73.5496L1065.77 80.3776M1152.18 80.3776L1108.98 80.3776M1152.18 80.3776L1195.39 80.3776M1117.39 87.5009L1108.98 80.3776M1117.39 87.5009L1126.17 94.9387M1117.39 87.5009L1073.25 87.5009M1108.98 80.3776L1065.77 80.3776M1195.39 80.3776L1238.6 80.3776M1195.39 80.3776L1185.54 73.5496M1065.77 80.3776L1073.25 87.5009M1185.54 73.5496L1227.85 73.5495M1126.17 94.9387L1135.35 102.713M1126.17 94.9387L1081.05 94.9387M1073.25 87.5009L1081.05 94.9387M1081.05 94.9387L1089.21 102.713M1181.49 102.713L1192.16 110.848M1181.49 102.713L1135.35 102.713M1181.49 102.713L1227.63 102.713M1135.35 102.713L1144.96 110.848M1135.35 102.713L1089.21 102.713M1089.21 102.713L1097.75 110.848M1192.16 110.848L1144.96 110.848M1192.16 110.848L1239.37 110.848M1155.02 119.367L1144.96 110.848M1155.02 119.367L1165.57 128.3M1155.02 119.367L1106.69 119.367M1144.96 110.848L1097.75 110.848M1239.37 110.848L1286.57 110.848M1239.37 110.848L1227.63 102.713M1097.75 110.848L1106.69 119.367M1227.63 102.713L1273.77 102.713M1165.57 128.3L1176.64 137.677M1165.57 128.3L1116.07 128.3M1106.69 119.367L1116.07 128.3M1116.07 128.3L1125.91 137.677M1227.36 137.677L1240.29 147.531M1227.36 137.677L1176.64 137.677M1227.36 137.677L1278.09 137.677M1176.64 137.677L1188.28 147.531M1176.64 137.677L1125.91 137.677M1125.91 137.677L1136.26 147.531M1240.29 147.531L1188.28 147.531M1240.29 147.531L1292.31 147.531M1200.52 157.902L1188.28 147.531M1200.52 157.902L1213.42 168.829M1200.52 157.902L1147.14 157.902M1188.28 147.531L1136.26 147.531M1292.31 147.531L1344.33 147.531M1292.31 147.531L1278.09 137.677M1136.26 147.531L1147.14 157.902M1278.09 137.677L1328.82 137.677M1213.42 168.829L1227.04 180.36M1213.42 168.829L1158.61 168.829M1147.14 157.902L1158.61 168.829M1158.61 168.829L1170.71 180.36M1283.37 180.36L1299.35 192.545M1283.37 180.36L1227.04 180.36M1283.37 180.36L1339.69 180.36M1227.04 180.36L1241.43 192.545M1227.04 180.36L1170.71 180.36M1170.71 180.36L1183.5 192.545M1299.35 192.545L1241.43 192.545M1299.35 192.545L1357.28 192.545M1256.66 205.443L1241.43 192.545M1256.66 205.443L1272.81 219.116M1256.66 205.443L1197.04 205.443M1241.43 192.545L1183.5 192.545M1357.28 192.545L1415.2 192.545M1357.28 192.545L1339.69 180.36M1183.5 192.545L1197.04 205.443M1339.69 180.36L1396.02 180.36M1272.81 219.116L1289.95 233.638M1272.81 219.116L1211.39 219.116M1197.04 205.443L1211.39 219.116M1211.39 219.116L1226.64 233.638M1353.27 233.638L1373.54 249.09M1353.27 233.638L1289.95 233.638M1353.27 233.638L1416.59 233.638M1289.95 233.638L1308.2 249.09M1289.95 233.638L1226.64 233.638M1226.64 233.638L1242.86 249.09M1373.54 249.09L1308.2 249.09M1373.54 249.09L1438.89 249.09M1327.65 265.564L1308.2 249.09M1327.65 265.564L1348.44 283.165M1327.65 265.564L1260.15 265.564M1308.2 249.09L1242.86 249.09M1438.89 249.09L1416.59 233.638M1438.89 249.09L1443.61 249.09M1438.89 249.09L1443.61 252.362M1242.86 249.09L1260.15 265.564M1416.59 233.638L1443.61 233.638M1348.44 283.165L1370.69 302.013M1348.44 283.165L1278.62 283.165M1260.15 265.564L1278.62 283.165M1278.62 283.165L1298.41 302.013M1442.98 302.013L1370.69 302.013M1442.98 302.013L1443.61 302.013M1442.98 302.013L1443.61 302.492M1370.69 302.013L1394.59 322.246M1370.69 302.013L1298.41 302.013M1298.41 302.013L1319.64 322.246M1420.3 344.021L1394.59 322.246M1420.3 344.021L1342.5 344.021M1420.3 344.021L1443.61 344.021M1420.3 344.021L1443.61 363.762M1394.59 322.246L1319.64 322.246M1394.59 322.246L1443.61 322.246M1319.64 322.246L1342.5 344.021M1342.5 344.021L1367.17 367.523M1367.17 367.523L1393.87 392.964M1367.17 367.523L1443.61 367.523M1393.87 392.964L1422.88 420.595M1393.87 392.964L1443.61 392.964M1422.88 420.595L1443.61 420.595M1422.88 420.595L1443.61 440.349M1228.2 27.6694L1237.4 32.6777M1228.2 27.6694L1191.9 27.6694M1228.2 27.6694L1264.49 27.6694M1183.66 22.836L1175.7 18.1688M1183.66 22.836L1191.9 27.6694M1183.66 22.836L1148 22.8361M1175.7 18.1688L1140.65 18.1688M1175.7 18.1688L1168.01 13.6595M1202.46 13.6595L1168.01 13.6595M1202.46 13.6595L1194.45 9.29955M1202.46 13.6595L1236.92 13.6595M1191.9 27.6694L1200.45 32.6777M1191.9 27.6694L1155.61 27.6694M1148 22.8361L1140.65 18.1688M1148 22.8361L1155.61 27.6694M1140.65 18.1688L1133.55 13.6595M1168.01 13.6595L1167.07 13.1059L1160.57 9.29956M1168.01 13.6595L1133.55 13.6595M1155.61 27.6694L1163.5 32.6777M1099.1 13.6595L1092.81 9.29956M1099.1 13.6595L1133.55 13.6595M1133.55 13.6595L1132.68 13.1059L1126.69 9.29956M1237.4 32.6777L1200.45 32.6777M1237.4 32.6777L1274.35 32.6777M1209.3 37.8705L1200.45 32.6777M1209.3 37.8705L1218.49 43.2583M1209.3 37.8705L1171.67 37.8705M1200.45 32.6777L1163.5 32.6777M1274.35 32.6777L1311.29 32.6777M1274.35 32.6777L1264.49 27.6694M1163.5 32.6777L1171.67 37.8705M1264.49 27.6694L1300.78 27.6694M1218.49 43.2583L1228.04 48.8523M1218.49 43.2583L1180.16 43.2583M1171.67 37.8705L1172.72 38.5325L1180.16 43.2583M1180.16 43.2583L1188.96 48.8523M1267.11 48.8523L1277.78 54.6654M1267.11 48.8523L1228.04 48.8523M1267.11 48.8523L1306.18 48.8523M1228.04 48.8523L1237.95 54.6654M1228.04 48.8523L1188.96 48.8523M1188.96 48.8523L1198.12 54.6654M1277.78 54.6654L1237.95 54.6654M1277.78 54.6654L1317.62 54.6654M1248.26 60.7095L1237.95 54.6654M1248.26 60.7095L1258.99 66.9991M1248.26 60.7095L1207.63 60.7095M1237.95 54.6654L1198.12 54.6654M1317.62 54.6654L1357.45 54.6654M1317.62 54.6654L1306.18 48.8523M1198.12 54.6654L1207.63 60.7095M1306.18 48.8523L1345.25 48.8523M1258.99 66.9991L1270.16 73.5495M1258.99 66.9991L1217.54 66.9991M1207.63 60.7095L1217.54 66.9991M1217.54 66.9991L1227.85 73.5495M1312.47 73.5495L1325.02 80.3776M1312.47 73.5495L1270.16 73.5495M1312.47 73.5495L1354.79 73.5495M1270.16 73.5495L1281.81 80.3776M1270.16 73.5495L1227.85 73.5495M1227.85 73.5495L1238.6 80.3776M1325.02 80.3776L1281.81 80.3776M1325.02 80.3776L1368.22 80.3776M1293.96 87.5009L1281.81 80.3776M1293.96 87.5009L1306.64 94.9387M1293.96 87.5009L1249.81 87.5009M1281.81 80.3776L1238.6 80.3776M1368.22 80.3776L1411.43 80.3776M1368.22 80.3776L1354.79 73.5495M1238.6 80.3776L1249.81 87.5009M1354.79 73.5495L1397.1 73.5495M1306.64 94.9387L1319.91 102.713M1306.64 94.9387L1261.53 94.9387M1249.81 87.5009L1261.53 94.9387M1261.53 94.9387L1273.77 102.713M1366.04 102.713L1380.99 110.848M1366.04 102.713L1319.91 102.713M1366.04 102.713L1412.18 102.713M1319.91 102.713L1333.78 110.848M1319.91 102.713L1273.77 102.713M1273.77 102.713L1286.57 110.848M1380.99 110.848L1333.78 110.848M1348.31 119.367L1333.78 110.848M1348.31 119.367L1363.55 128.3M1348.31 119.367L1299.99 119.367M1333.78 110.848L1286.57 110.848M1286.57 110.848L1299.99 119.367M1412.18 102.713L1443.61 102.713M1363.55 128.3L1379.54 137.677M1363.55 128.3L1314.05 128.3M1299.99 119.367L1314.05 128.3M1314.05 128.3L1328.82 137.677M1430.27 137.677L1379.54 137.677M1430.27 137.677L1443.61 137.677M1430.27 137.677L1443.61 144.941M1379.54 137.677L1396.35 147.531M1379.54 137.677L1328.82 137.677M1328.82 137.677L1344.33 147.531M1414.04 157.902L1396.35 147.531M1414.04 157.902L1432.68 168.829M1414.04 157.902L1360.66 157.902M1414.04 157.902L1443.61 157.902M1396.35 147.531L1344.33 147.531M1396.35 147.531L1443.61 147.531M1344.33 147.531L1360.66 157.902M1443.76 145.021L1443.61 144.941M1432.68 168.829L1377.86 168.829M1432.68 168.829L1443.61 168.829M1432.68 168.829L1443.61 175.239M1360.66 157.902L1377.86 168.829M1377.86 168.829L1396.02 180.36M1396.02 180.36L1415.2 192.545M1396.02 180.36L1443.61 180.36M1435.51 205.443L1415.2 192.545M1435.51 205.443L1443.61 205.443M1435.51 205.443L1443.61 210.587M1415.2 192.545L1443.61 192.545M1373.36 27.6694L1385.19 32.6777M1373.36 27.6694L1337.07 27.6694M1373.36 27.6694L1409.66 27.6694M1326.29 22.836L1315.88 18.1687M1326.29 22.836L1337.07 27.6694M1326.29 22.836L1290.63 22.836M1315.88 18.1687L1280.84 18.1687M1315.88 18.1687L1305.82 13.6595M1340.28 13.6595L1305.82 13.6595M1340.28 13.6595L1329.98 9.29954M1340.28 13.6595L1374.73 13.6595M1337.07 27.6694L1348.24 32.6777M1337.07 27.6694L1300.78 27.6694M1290.63 22.836L1280.84 18.1687M1290.63 22.836L1300.78 27.6694M1280.84 18.1687L1271.37 13.6595M1305.82 13.6595L1271.37 13.6595M1305.82 13.6595L1296.1 9.29954M1300.78 27.6694L1311.29 32.6777M1236.92 13.6595L1228.34 9.29955M1236.92 13.6595L1271.37 13.6595M1271.37 13.6595L1262.22 9.29955M1385.19 32.6777L1348.24 32.6777M1385.19 32.6777L1422.14 32.6777M1359.83 37.8705L1348.24 32.6777M1359.83 37.8705L1371.84 43.2583M1359.83 37.8705L1322.2 37.8705M1348.24 32.6777L1311.29 32.6777M1422.14 32.6777L1409.66 27.6694M1422.14 32.6777L1443.61 32.6777M1311.29 32.6777L1322.2 37.8705M1409.66 27.6694L1443.61 27.6694M1371.84 43.2583L1384.32 48.8523M1371.84 43.2583L1333.51 43.2583M1322.2 37.8705L1333.51 43.2583M1333.51 43.2583L1345.25 48.8523M1423.39 48.8523L1437.12 54.6653M1423.39 48.8523L1384.32 48.8523M1423.39 48.8523L1443.61 48.8523M1384.32 48.8523L1397.29 54.6653M1384.32 48.8523L1345.25 48.8523M1345.25 48.8523L1357.45 54.6654M1410.77 60.7095L1397.29 54.6653M1410.77 60.7095L1424.8 66.9991M1410.77 60.7095L1370.14 60.7095M1410.77 60.7095L1443.61 60.7095M1397.29 54.6653L1437.12 54.6653M1397.29 54.6653L1357.45 54.6654M1437.12 54.6653L1443.61 57.4126M1437.12 54.6653L1443.61 54.6653M1357.45 54.6654L1370.14 60.7095M1424.8 66.9991L1439.41 73.5495M1424.8 66.9991L1383.35 66.9991M1424.8 66.9991L1443.61 66.9991M1370.14 60.7095L1383.35 66.9991M1383.35 66.9991L1397.1 73.5495M1439.41 73.5495L1397.1 73.5495M1439.41 73.5495L1443.61 75.4329M1439.41 73.5495L1443.61 73.5495M1397.1 73.5495L1411.43 80.3776M1426.38 87.5008L1411.43 80.3776M1426.38 87.5008L1442 94.9386M1426.38 87.5008L1443.61 87.5008M1411.43 80.3776L1443.61 80.3776M1443.84 80.3776L1443.61 80.3776M1442 94.9386L1443.61 94.9386M1442 94.9386L1443.61 95.7062M1444 95.8918L1443.61 95.7062M1433.27 22.836L1421.02 18.1687M1433.27 22.836L1443.61 22.836M1433.27 22.836L1443.61 26.7776M1421.02 18.1687L1409.19 13.6595M1421.02 18.1687L1443.61 18.1687M1374.73 13.6595L1363.86 9.29954M1374.73 13.6595L1409.19 13.6595M1409.19 13.6595L1397.75 9.29954M1409.19 13.6595L1443.61 13.6595M245.76 9.29964L211.878 9.29964M245.76 9.29964L279.641 9.29963M220.178 5.08246L218.128 6.12392L211.878 9.29964M220.178 5.08246L186.849 5.08247M211.878 9.29964L177.996 9.29964M186.849 5.08247L184.663 6.12392L183.563 6.64706L177.996 9.29964M177.996 9.29964L144.114 9.29965M144.114 9.29965L110.231 9.29965M279.641 9.29963L313.523 9.29963M110.231 9.29965L76.3496 9.29965M76.3496 9.29965L86.8638 5.08248M76.3496 9.29965L42.4678 9.29965M86.8638 5.08248L53.5351 5.08248M381.288 9.29962L347.405 9.29963M381.288 9.29962L415.169 9.29962M353.492 5.08245L351.989 6.12391L351.233 6.64705L347.405 9.29963M353.492 5.08245L320.164 5.08245M347.405 9.29963L313.523 9.29963M320.164 5.08245L313.523 9.29963M415.169 9.29962L449.051 9.29962M516.815 9.29961L482.933 9.29962M516.815 9.29961L550.697 9.29961M486.807 5.08244L486.329 5.60156L485.85 6.1239L485.369 6.64704L482.933 9.29962M486.807 5.08244L453.478 5.08244M482.933 9.29962L449.051 9.29962M453.478 5.08244L449.051 9.29962M550.697 9.29961L584.579 9.29961M652.343 9.2996L618.461 9.2996M652.343 9.2996L686.225 9.2996M620.121 5.08243L618.461 9.2996M620.121 5.08243L586.792 5.08243M618.461 9.2996L584.579 9.29961M586.792 5.08243L586.519 5.60156L586.246 6.12389L585.971 6.64703L584.579 9.29961M686.225 9.2996L720.107 9.2996M787.87 9.29959L753.988 9.29959M787.87 9.29959L821.752 9.29959M753.435 5.08242L753.988 9.29959M753.435 5.08242L720.107 5.08242M753.988 9.29959L720.107 9.2996M720.107 5.08242L720.107 9.2996M821.752 9.29959L855.635 9.29958M923.398 9.29958L889.517 9.29958M923.398 9.29958L957.28 9.29957M886.75 5.08241L887.433 6.12386L888.816 8.23165L889.517 9.29958M886.75 5.08241L853.421 5.08241M889.517 9.29958L855.635 9.29958M853.421 5.08241L853.694 5.60153L853.968 6.12387L854.243 6.64701L855.635 9.29958M957.28 9.29957L991.162 9.29957M1058.93 9.29957L1025.04 9.29957M1058.93 9.29957L1092.81 9.29956M1020.06 5.08239L1021.29 6.12385L1021.91 6.64699L1025.04 9.29957M1020.06 5.08239L986.735 5.0824M1025.04 9.29957L991.162 9.29957M986.735 5.0824L987.281 5.60152L991.162 9.29957M1092.81 9.29956L1126.69 9.29956M1194.45 9.29955L1160.57 9.29956M1194.45 9.29955L1228.34 9.29955M1153.38 5.08238L1155.15 6.12384L1156.05 6.64698L1160.57 9.29956M1153.38 5.08238L1120.05 5.08238M1160.57 9.29956L1126.69 9.29956M1120.05 5.08238L1120.87 5.60151L1126.69 9.29956M1228.34 9.29955L1262.22 9.29955M1329.98 9.29954L1296.1 9.29954M1329.98 9.29954L1363.86 9.29954M1286.69 5.08237L1296.1 9.29954M1286.69 5.08237L1253.36 5.08237M1296.1 9.29954L1262.22 9.29955M1253.36 5.08237L1255.55 6.12383L1256.65 6.64697L1262.22 9.29955M1363.86 9.29954L1397.75 9.29954M1420.01 5.08236L1431.63 9.29953M1420.01 5.08236L1386.68 5.08236M1420.01 5.08236L1443.61 5.08236M1431.63 9.29953L1397.75 9.29954M1431.63 9.29953L1443.61 13.6488M1431.63 9.29953L1443.61 9.29953M1386.68 5.08236L1389.41 6.12382L1397.75 9.29954M53.5351 5.08248L50.8024 6.12394L42.4678 9.29965M42.4678 9.29965L8.58599 9.29966M8.58599 9.29966L-3.39706 13.649M8.58599 9.29966L-3.39706 9.29966M-3.39704 210.587L-3.39704 205.443M-3.39704 210.587L-3.39704 219.116M-3.39704 205.443L-3.39704 192.545M-3.39704 219.116L-3.39704 221.664L-3.39704 233.638M-3.39704 233.638L-3.39704 249.09M-3.39705 110.848L-3.39705 102.714M-3.39705 110.848L-3.39705 118.683M-3.39706 5.08248L-3.39706 9.29966M-3.39706 9.29966L-3.39706 13.649M-3.39706 13.649L-3.42641 13.6596L-3.39706 13.6596M-3.39706 13.649L-3.39706 13.6596M-3.39706 13.6596L-3.39706 18.1689M-3.39706 18.1689L-3.39706 22.8362M-3.39706 22.8362L-3.39706 26.7777M-3.39706 26.7777L-3.39706 27.6695M-3.39706 27.6695L-3.39706 32.6778M-3.39706 32.6778L-3.39706 37.8706M-3.39706 37.8706L-3.39706 41.2888M-3.39706 41.2888L-3.39706 43.2584M-3.39706 43.2584L-3.39705 48.8524M-3.39705 48.8524L-3.39705 54.6655M-3.39705 54.6655L-3.39705 57.4127M-3.39705 57.4127L-3.39705 60.7096M-3.39705 60.7096L-3.39705 66.9992M-3.39705 66.9992L-3.39705 73.5497M-3.39705 73.5497L-3.39705 75.433M-3.39705 75.433L-3.39705 80.3777M-3.39705 80.3777L-3.39705 87.501M-3.39705 87.501L-3.39705 94.9388M-3.39705 94.9388L-3.39705 95.7064M-3.39705 95.7064L-3.39705 102.714M-3.39705 119.367L-3.39705 128.3M-3.39705 119.367L-3.39705 118.683M-3.39705 128.3L-3.39705 137.677M-3.39705 137.677L-3.39705 144.941M-3.39705 144.941L-3.39705 147.531M-3.39705 147.531L-3.39705 157.902M-3.39705 157.902L-3.39704 168.829M-3.39704 168.829L-3.39704 175.239M-3.39704 175.239L-3.39704 180.36M-3.39704 180.36L-3.39704 192.545M-3.39704 249.09L-3.39704 252.362M-3.39704 252.362L-3.39704 265.564M-3.39704 265.564L-3.39703 283.165M-3.39703 283.165L-3.39703 302.013M-3.39703 302.013L-3.39703 302.492M-3.39703 302.492L-3.39703 322.246M-3.39703 322.246L-3.39703 344.021M-3.39703 344.021L-3.39703 363.762M-3.39703 363.762L-3.39703 367.523M-3.39703 367.523L-3.39702 392.964M-3.39702 392.964L-3.39702 420.595M-3.39702 420.595L-3.39702 440.349M-3.39702 440.349L-3.39702 450.712M-3.39702 450.712L-3.39702 483.667M-3.39702 483.667L-3.39701 519.879M-3.39701 519.879L-3.39701 538.819M-3.39701 538.819L-3.39701 559.857M-3.39701 559.857L-3.39701 560L1443.61 560L1443.61 559.857M1443.61 119.367L1443.61 128.3M1443.61 119.367L1443.61 118.682M1443.61 118.682L1443.61 110.848M1443.61 110.848L1443.61 102.713M1443.61 102.713L1443.61 95.7062M1443.61 95.7062L1443.61 94.9386M1443.61 94.9386L1443.61 87.5008M1443.61 87.5008L1443.61 80.3776M1443.61 80.3776L1443.61 75.4329M1443.61 75.4329L1443.61 73.5495M1443.61 73.5495L1443.61 66.9991M1443.61 66.9991L1443.61 60.7095M1443.61 60.7095L1443.61 57.4126M1443.61 57.4126L1443.61 54.6653M1443.61 54.6653L1443.61 48.8523M1443.61 48.8523L1443.61 43.2583M1443.61 43.2583L1443.61 41.2886M1443.61 41.2886L1443.61 37.8705M1443.61 37.8705L1443.61 32.6777M1443.61 32.6777L1443.61 27.6694M1443.61 27.6694L1443.61 26.7776M1443.61 26.7776L1443.61 22.836M1443.61 22.836L1443.61 18.1687M1443.61 18.1687L1443.61 13.6595M1443.61 13.6595L1443.64 13.6595L1443.61 13.6488M1443.61 13.6595L1443.61 13.6488M1443.61 13.6488L1443.61 9.29953M1443.61 9.29953L1443.61 5.08236M1443.61 559.857L1443.61 538.819M1443.61 538.819L1443.61 519.879M1443.61 519.879L1443.61 483.667M1443.61 483.667L1443.61 450.712M1443.61 450.712L1443.61 440.349M1443.61 440.349L1443.61 420.595M1443.61 420.595L1443.61 392.964M1443.61 392.964L1443.61 367.523M1443.61 367.523L1443.61 363.762M1443.61 363.762L1443.61 344.021M1443.61 344.021L1443.61 322.246M1443.61 322.246L1443.61 302.492M1443.61 302.492L1443.61 302.013M1443.61 302.013L1443.61 283.165M1443.61 283.165L1443.61 265.564M1443.61 265.564L1443.61 252.362M1443.61 252.362L1443.61 249.09M1443.61 249.09L1443.61 233.638M1443.61 233.638L1443.61 219.116M1443.61 219.116L1443.61 210.587M1443.61 210.587L1443.61 205.443M1443.61 205.443L1443.61 192.545M1443.61 192.545L1443.61 180.36M1443.61 180.36L1443.61 175.239M1443.61 175.239L1443.61 168.829M1443.61 168.829L1443.61 157.902M1443.61 157.902L1443.61 147.531M1443.61 147.531L1443.61 144.941M1443.61 144.941L1443.61 137.677M1443.61 137.677L1443.61 128.3" stroke="url(#paint0_radial_5608_248)" stroke-opacity="0.1" stroke-width="1.8895" stroke-miterlimit="10" stroke-linecap="round" stroke-linejoin="round"/>
<defs>
<radialGradient id="paint0_radial_5608_248" cx="0" cy="0" r="1" gradientUnits="userSpaceOnUse" gradientTransform="translate(720.107 539.397) rotate(-90) scale(875.041 2266.32)">
<stop stop-color="#525252"/>
<stop offset="0.489074" stop-color="#CED2DF" stop-opacity="0"/>
</radialGradient>
</defs>
</svg>
