<svg width="139" height="139" viewBox="0 0 139 139" fill="none" xmlns="http://www.w3.org/2000/svg">
<path d="M8.05169 37.5492L13.643 66.8011C14.4248 66.3443 15.2373 65.943 16.0755 65.6001C15.737 63.1169 15.8593 61.738 16.3854 60.9554C16.309 60.8256 16.2555 60.6832 16.2284 60.5349C16.1623 60.1863 16.2367 59.8255 16.4362 59.532C16.6363 59.2386 16.9442 59.0364 17.2924 58.9701C17.6413 58.9038 18.002 58.9786 18.2953 59.1782C18.5893 59.3778 18.7915 59.6859 18.8575 60.0345C18.8645 60.0748 18.8714 60.1172 18.8763 60.1569C19.9119 60.6218 20.5909 62.2078 21.2747 64.1107L21.2887 64.2497C25.5038 63.7474 29.769 64.6096 33.4581 66.71C33.7424 61.6845 31.9875 55.0875 33.5359 52.8795C33.4567 52.7498 33.4025 52.6064 33.3761 52.4569C33.3393 52.2654 33.3448 52.0682 33.3928 51.8791C33.44 51.6899 33.5283 51.5135 33.6513 51.3621C33.7743 51.2107 33.9286 51.0879 34.1038 51.0025C34.2796 50.9171 34.4714 50.871 34.666 50.8676C34.8613 50.864 35.0545 50.9032 35.2324 50.9823C35.4111 51.0614 35.5695 51.1785 35.6981 51.3254C35.826 51.4723 35.9205 51.6455 35.9754 51.8328C36.0296 52.0201 36.0421 52.217 36.0122 52.4097C39.522 54.5148 40.0947 67.6378 44.6643 66.9004C49.2645 66.1554 42.4465 47.4668 45.8604 43.2454C45.7554 43.0947 45.6845 42.923 45.6519 42.7422C45.6192 42.5696 45.6199 42.3922 45.656 42.2202C45.6915 42.0481 45.7603 41.8847 45.859 41.7393C45.9577 41.594 46.0842 41.4694 46.2308 41.373C46.3782 41.2764 46.5422 41.2097 46.7145 41.1768C46.8876 41.1437 47.0648 41.1451 47.2372 41.1806C47.4088 41.2162 47.5722 41.2853 47.7181 41.384C47.8634 41.4827 47.9878 41.6091 48.0844 41.7559C48.181 41.9027 48.2477 42.0671 48.2804 42.2398C48.304 42.3619 48.3103 42.4869 48.2991 42.6109C53.3622 45.1713 53.6416 72.5153 60.9384 71.2915C68.1039 70.0905 60.1704 48.4538 63.6802 44.1614C63.6545 44.0937 63.635 44.024 63.6211 43.9529C63.5884 43.7802 63.5891 43.6026 63.6253 43.4303C63.6607 43.2581 63.7302 43.0945 63.8289 42.949C63.9276 42.8035 64.0541 42.6789 64.2014 42.5823C64.3481 42.4857 64.5128 42.419 64.6851 42.3861C64.8582 42.353 65.0361 42.3544 65.2078 42.39C65.3801 42.4257 65.5442 42.4949 65.6894 42.5937C65.8347 42.6925 65.9598 42.8191 66.0564 42.9661C66.153 43.1131 66.2197 43.2777 66.2524 43.4504C66.2642 43.514 66.2711 43.5783 66.2739 43.643C71.2376 45.8239 73.987 63.6902 76.8838 63.3052L69.7086 25.7627L8.05169 37.5492ZM53.358 32.1887C53.3045 31.9089 53.3351 31.6195 53.4463 31.3572C53.5568 31.0949 53.7431 30.8714 53.9815 30.7149C54.2191 30.5584 54.4985 30.476 54.7835 30.4781C55.0677 30.4803 55.3457 30.5668 55.5813 30.7268C55.8169 30.8869 55.9997 31.1131 56.1068 31.377C56.2138 31.641 56.2402 31.9307 56.1825 32.2097C56.1248 32.4886 55.9858 32.7442 55.7829 32.9441C55.58 33.1439 55.3228 33.2792 55.0427 33.3326C54.6674 33.403 54.2803 33.3221 53.9648 33.1079C53.6492 32.8935 53.431 32.5631 53.358 32.1887ZM59.3837 31.035C59.3302 30.7552 59.3608 30.4658 59.472 30.2035C59.5825 29.9412 59.7687 29.7177 60.0071 29.5612C60.2448 29.4047 60.5242 29.3223 60.8091 29.3244C61.0934 29.3266 61.3714 29.4131 61.607 29.5731C61.8426 29.7332 62.0254 29.9594 62.1324 30.2233C62.2394 30.4873 62.2659 30.7771 62.2082 31.056C62.1505 31.3349 62.0115 31.5905 61.8085 31.7904C61.6056 31.9902 61.3485 32.1255 61.0684 32.1789C60.6931 32.2506 60.3053 32.1703 59.989 31.9558C59.6735 31.7413 59.4553 31.4101 59.3837 31.035ZM65.4079 29.8847C65.3544 29.6051 65.3857 29.316 65.4969 29.0539C65.6074 28.7919 65.7944 28.5686 66.0321 28.4124C66.2698 28.2561 66.5491 28.174 66.8334 28.1763C67.1183 28.1786 67.3956 28.2652 67.6313 28.4252C67.8662 28.5852 68.049 28.8115 68.156 29.0753C68.263 29.3391 68.2887 29.6286 68.231 29.9074C68.1734 30.1861 68.0344 30.4414 67.8321 30.6412C67.6292 30.8409 67.3713 30.976 67.0919 31.0294C66.7166 31.1003 66.3288 31.0196 66.0133 30.805C65.6978 30.5904 65.4802 30.2596 65.4079 29.8847Z" fill="white"/>
<path d="M9.59119 69.9253C5.86808 73.6484 3.77613 78.699 3.77613 83.9643C3.77613 89.2296 5.86808 94.2802 9.59119 98.0033C13.3143 101.726 18.3649 103.818 23.6302 103.818C28.8955 103.818 33.9461 101.726 37.6692 98.0033L23.6302 83.9643L9.59119 69.9253Z" fill="white"/>
<path d="M9.59119 69.9251L23.6302 83.9627L37.6692 69.9237C34.8968 67.1544 31.3676 65.2665 27.5257 64.4969C23.683 63.7274 19.6993 64.1108 16.0742 65.5987C15.236 65.9417 14.4235 66.343 13.6417 66.7997C12.162 67.662 10.8005 68.7126 9.59119 69.9251Z" fill="black"/>
<path d="M16.3819 60.9555C15.8558 61.7381 15.7335 63.117 16.0719 65.6002C17.7399 64.9144 19.4934 64.4598 21.2844 64.2491L21.2705 64.1101C20.5866 62.2072 19.9076 60.6212 18.8721 60.1562C18.9013 60.4604 18.8255 60.7653 18.6573 61.0205C18.4891 61.2756 18.2389 61.4656 17.9484 61.5588C17.6572 61.6521 17.3431 61.6431 17.0581 61.5332C16.7732 61.4233 16.5341 61.2192 16.3812 60.9548L16.3819 60.9555Z" fill="white"/>
<path d="M17.2889 58.9704C16.94 59.0367 16.6322 59.2389 16.4327 59.5323C16.2332 59.8256 16.1589 60.1862 16.2249 60.5349C16.252 60.6832 16.3055 60.8255 16.382 60.9553C16.7121 60.4966 17.2062 60.1822 17.7615 60.0769C18.1299 59.973 18.5233 60.0012 18.8735 60.1568C18.8687 60.1172 18.8617 60.0748 18.8541 60.0345C18.8214 59.8616 18.7554 59.697 18.6588 59.5499C18.5622 59.4028 18.4378 59.2763 18.2925 59.1774C18.1473 59.0786 17.9832 59.0094 17.8116 58.9738C17.6392 58.9383 17.4613 58.9371 17.2889 58.9704Z" fill="black"/>
<path d="M16.3819 60.9557C16.5348 61.2201 16.7739 61.4241 17.0588 61.534C17.3438 61.6439 17.6579 61.6529 17.9491 61.5596C18.2396 61.4664 18.4898 61.2764 18.658 61.0213C18.8262 60.7662 18.902 60.4612 18.8728 60.1571C18.5225 60.0015 18.1291 59.9733 17.7608 60.0772C17.2055 60.1827 16.712 60.4971 16.3819 60.9557Z" fill="black"/>
<path d="M23.63 83.9628L37.669 98.0018C39.5135 96.1587 40.9765 93.9701 41.9752 91.5613C42.9732 89.1524 43.4875 86.5705 43.4875 83.9628C43.4875 81.3552 42.9732 78.7733 41.9752 76.3644C40.9765 73.9555 39.5135 71.767 37.669 69.9238L23.63 83.9628Z" fill="#1359FF"/>
<path d="M34.4367 50.8935C34.2636 50.9262 34.0996 50.9926 33.9523 51.089C33.8056 51.1855 33.6784 51.3099 33.5797 51.4553C33.481 51.6007 33.4115 51.7641 33.3761 51.9364C33.3407 52.1085 33.3393 52.286 33.3726 52.4587C33.399 52.6082 33.4532 52.7515 33.5325 52.8812C33.7723 52.5229 34.142 52.272 34.5639 52.1813C34.8078 52.1213 35.0615 52.1107 35.3096 52.1502C35.557 52.1898 35.7947 52.2786 36.0081 52.4114C36.0414 52.1998 36.0227 51.9833 35.9546 51.7802C35.8864 51.5771 35.7704 51.3934 35.6161 51.2446C35.4625 51.0958 35.2748 50.9862 35.0691 50.9251C34.8641 50.864 34.6473 50.8532 34.4367 50.8935Z" fill="black"/>
<path d="M33.5325 52.8808C31.9841 55.0867 33.741 61.6837 33.4547 66.7113C36.022 68.1756 38.2307 70.1939 39.9196 72.6195C41.6084 75.0443 42.7357 77.816 43.2188 80.7315L55.5828 78.3685L78.9119 73.9094L77.1167 64.5144L76.8839 63.3072C73.9871 63.6922 71.2384 45.8259 66.2677 43.6456C66.2816 43.9646 66.1809 44.278 65.9835 44.5293C65.7868 44.7804 65.506 44.9529 65.1933 45.0156C64.8798 45.0782 64.5546 45.027 64.2766 44.8709C63.9979 44.715 63.7838 44.4645 63.674 44.1648C60.1642 48.4571 68.0977 70.0939 60.9322 71.2948C53.6347 72.5187 53.3567 45.1746 48.2929 42.6143C48.2679 42.8879 48.1588 43.1472 47.9809 43.3567C47.8037 43.5663 47.5653 43.7159 47.2991 43.7853C47.0336 43.8547 46.7528 43.8404 46.495 43.7444C46.2378 43.6483 46.0161 43.4754 45.8604 43.2488C42.4466 47.4702 49.2659 66.1588 44.6643 66.9038C40.0947 67.6412 39.5214 54.5182 36.0116 52.4131C35.9699 52.6864 35.8448 52.9401 35.6523 53.1391C35.4605 53.3382 35.2117 53.4727 34.9399 53.5243C34.6682 53.5759 34.3874 53.5418 34.1358 53.4269C33.8842 53.312 33.675 53.122 33.536 52.8829L33.5325 52.8808Z" fill="white"/>
<path d="M34.5638 52.181C34.142 52.2716 33.7722 52.5226 33.5325 52.8808C33.6715 53.1199 33.8807 53.31 34.1322 53.4249C34.3838 53.5398 34.6646 53.5738 34.9364 53.5222C35.2081 53.4707 35.4569 53.3361 35.6487 53.1371C35.8413 52.938 35.9664 52.6844 36.0081 52.411C35.7947 52.2782 35.557 52.1894 35.3089 52.1499C35.0615 52.1104 34.8078 52.1209 34.5638 52.181Z" fill="black"/>
<path d="M46.7097 41.1771C46.3608 41.2441 46.0529 41.4466 45.8535 41.7403C45.654 42.0339 45.5789 42.3947 45.645 42.7436C45.679 42.9246 45.7513 43.0962 45.8569 43.2468C46.185 42.8291 46.6548 42.5464 47.1774 42.4524C47.5576 42.3774 47.9517 42.4338 48.2957 42.6122C48.3068 42.4882 48.3005 42.3633 48.2769 42.2411C48.2443 42.0682 48.1775 41.9035 48.0809 41.7563C47.9843 41.6092 47.8599 41.4826 47.714 41.3837C47.5687 41.2849 47.4047 41.2157 47.2323 41.1803C47.06 41.1448 46.8827 41.1437 46.7097 41.1771Z" fill="black"/>
<path d="M45.8568 43.2471C46.0125 43.4736 46.2342 43.6467 46.4913 43.7427C46.7492 43.8387 47.03 43.853 47.2955 43.7836C47.5616 43.7142 47.8 43.5646 47.9772 43.3551C48.1552 43.1455 48.2643 42.8863 48.2893 42.6126C47.9453 42.4341 47.5512 42.3777 47.171 42.4527C46.6505 42.5482 46.1835 42.8308 45.8568 43.2471Z" fill="black"/>
<path d="M54.502 30.5013C54.222 30.5545 53.9641 30.6897 53.7605 30.8896C53.5568 31.0896 53.4178 31.3454 53.3595 31.6247C53.3018 31.9039 53.3282 32.1941 53.4352 32.4584C53.5423 32.7228 53.725 32.9494 53.9613 33.1097C54.1969 33.2699 54.4749 33.3567 54.7599 33.3588C55.0455 33.3609 55.3249 33.2785 55.5633 33.1218C55.8017 32.965 55.988 32.7412 56.0992 32.4785C56.2097 32.2157 56.2402 31.9261 56.1867 31.646C56.1138 31.2714 55.8962 30.9408 55.5807 30.7263C55.2645 30.5119 54.8773 30.431 54.502 30.5013Z" fill="white"/>
<path d="M60.5284 29.3502C60.2483 29.4035 59.9912 29.5386 59.7875 29.7384C59.5846 29.9383 59.4456 30.1938 59.3879 30.4728C59.3302 30.7517 59.3566 31.0415 59.4637 31.3055C59.57 31.5695 59.7535 31.7959 59.9891 31.956C60.2247 32.116 60.502 32.2026 60.7869 32.2048C61.0719 32.2069 61.3513 32.1246 61.589 31.968C61.8274 31.8116 62.0136 31.588 62.1241 31.3257C62.2353 31.0633 62.2659 30.7739 62.2124 30.4942C62.1408 30.1192 61.9233 29.7881 61.607 29.5736C61.2915 29.3591 60.9037 29.2787 60.5284 29.3502Z" fill="white"/>
<path d="M65.2009 91.5225L60.9183 114.224L64.3196 114.865L68.6001 92.1639L65.2009 91.5225Z" fill="#1359FF"/>
<path d="M64.6795 42.3864C64.3306 42.4534 64.0227 42.6561 63.8233 42.9499C63.6238 43.2437 63.5487 43.6047 63.6148 43.9537C63.6287 44.0248 63.6481 44.0945 63.6738 44.1622C63.9769 43.7793 64.4147 43.5263 64.8977 43.4546C65.3627 43.3824 65.8395 43.4478 66.2676 43.643C66.2648 43.5784 66.2578 43.5141 66.246 43.4505C66.1793 43.1017 65.9764 42.7938 65.6831 42.5943C65.3891 42.3948 65.0284 42.3201 64.6795 42.3864Z" fill="black"/>
<path d="M64.8979 43.4554C64.4149 43.527 63.9771 43.7801 63.674 44.1629C63.7838 44.4625 63.9979 44.713 64.2766 44.869C64.5546 45.025 64.8799 45.0763 65.1933 45.0136C65.5061 44.951 65.7868 44.7785 65.9835 44.5272C66.1809 44.2761 66.2817 43.9627 66.2678 43.6437C65.8397 43.4485 65.3629 43.3831 64.8979 43.4554Z" fill="black"/>
<path d="M67.5222 79.2158L70.9226 79.8573L68.5994 92.1699L65.1995 91.5284L67.5222 79.2158Z" fill="white"/>
<path d="M66.5518 28.1995C66.2718 28.2528 66.0146 28.3879 65.811 28.5877C65.608 28.7875 65.469 29.0431 65.4113 29.322C65.3537 29.6009 65.3801 29.8907 65.4871 30.1548C65.5934 30.4187 65.7769 30.6451 66.0125 30.8052C66.2481 30.9653 66.5254 31.0519 66.8104 31.054C67.0953 31.0562 67.3747 30.9738 67.6124 30.8173C67.8508 30.6608 68.0371 30.4373 68.1476 30.1749C68.2588 29.9126 68.2893 29.6232 68.2358 29.3434C68.1635 28.9688 67.946 28.6379 67.6305 28.4235C67.3142 28.2091 66.9264 28.1285 66.5518 28.1995Z" fill="white"/>
<path d="M72.3379 106.516L70.5413 116.038V116.04L73.9405 116.679L75.7378 107.157L72.3379 106.516Z" fill="#1359FF"/>
<path d="M77.1425 81.0293L80.543 81.6708L75.734 107.161L72.3336 106.519L77.1425 81.0293Z" fill="white"/>
<path d="M83.3939 100.723L80.1635 117.854L83.5635 118.495L86.7959 101.364L83.3967 100.723H83.3939Z" fill="#1359FF"/>
<path d="M86.7674 82.8398L83.3939 100.723H83.3967L86.7959 101.364L90.1694 83.4813L86.7674 82.8398Z" fill="white"/>
<path d="M87.8649 27.7907C86.8338 31.6983 87.1271 35.8374 88.6989 39.5605C91.4051 45.8513 92.1208 52.8198 90.7498 59.5293L90.6769 59.8823C90.4924 60.756 90.6488 61.6671 91.1138 62.4293C91.5789 63.1915 92.3176 63.7472 93.1789 63.9828L93.755 64.133L93.762 64.1072L100.678 37.7118C101.18 40.4084 102.703 40.3945 103.993 39.4452C103.151 37.5423 103.323 34.4648 105.074 34.9228C106.941 35.4093 105.665 38.2143 103.993 39.4452C104.648 40.9304 105.922 41.7004 107.538 39.5091L100.623 65.908L100.616 65.9316L101.062 66.0491C101.341 66.1184 101.628 66.1539 101.915 66.1547C102.66 66.153 103.385 65.9142 103.984 65.4729C104.584 65.0315 105.028 64.4105 105.251 63.7C107.341 57.0611 111.415 51.2219 116.924 46.9678C119.231 45.1762 121.079 42.8603 122.313 40.2122C123.547 37.564 124.133 34.6598 124.02 31.7403C123.908 28.8208 123.102 25.9701 121.668 23.4244C120.234 20.8788 118.214 18.7115 115.776 17.1022C113.337 15.493 110.551 14.488 107.646 14.1707C104.742 13.8535 101.804 14.233 99.0752 15.2779C96.3468 16.3227 93.9067 18.0028 91.9571 20.1789C90.0076 22.3549 88.6047 24.9643 87.8649 27.7907Z" fill="white"/>
<path d="M89.6385 68.5512C89.5789 68.7749 89.5642 69.0081 89.5952 69.2375C89.6263 69.4669 89.7024 69.6876 89.8192 69.8877C89.936 70.0872 90.0912 70.2623 90.2758 70.402C90.4605 70.541 90.6709 70.6432 90.895 70.7009L99.6326 72.9888C99.8564 73.0472 100.09 73.0611 100.319 73.0298C100.548 72.9978 100.769 72.9214 100.968 72.8046C101.168 72.6879 101.343 72.5322 101.482 72.348C101.622 72.1638 101.724 71.9533 101.782 71.7295C101.821 71.5842 101.841 71.4341 101.841 71.2833C101.84 70.8941 101.711 70.516 101.473 70.2074C101.235 69.8995 100.901 69.6785 100.525 69.5798L91.7881 67.2919C91.4061 67.1922 91.0018 67.2227 90.6393 67.3788C90.3942 67.4852 90.1767 67.6461 90.0032 67.8492C89.8298 68.0524 89.705 68.2926 89.6385 68.5512Z" fill="#1359FF"/>
<path d="M90.5065 115.848L93.907 116.489L93.1857 120.314L89.7852 119.673L90.5065 115.848Z" fill="#1359FF"/>
<path d="M90.5051 70.6279C90.4292 70.9205 90.3907 71.2208 90.3904 71.5231C90.3915 72.3015 90.6502 73.0576 91.1262 73.6741C91.6022 74.2899 92.2687 74.7312 93.0217 74.9286L95.9699 75.6993C96.4175 75.8168 96.8839 75.8453 97.3425 75.7827C97.8011 75.7195 98.2428 75.5673 98.6423 75.3338C99.0419 75.0996 99.3914 74.7896 99.6709 74.4205C99.9504 74.0515 100.154 73.631 100.271 73.1834L90.5051 70.6279Z" fill="#1359FF"/>
<path d="M96.3905 84.6558L90.508 115.845L93.9072 116.487L99.7925 85.2972L96.3905 84.6558Z" fill="white"/>
<path d="M90.5357 65.1136C90.4985 65.2596 90.4796 65.4097 90.4794 65.5604C90.4793 65.9502 90.6083 66.329 90.8464 66.6376C91.0844 66.9461 91.4181 67.1671 91.7951 67.266L100.532 69.5539C100.798 69.6241 101.077 69.6311 101.346 69.5727C101.615 69.515 101.867 69.3941 102.08 69.2203C102.285 69.0545 102.45 68.8452 102.564 68.6075C102.678 68.3698 102.738 68.1098 102.739 67.8463C102.738 67.457 102.609 67.0787 102.371 66.7706C102.133 66.4625 101.799 66.2418 101.423 66.1429L101.061 66.049L100.615 65.9316L93.755 64.1364L93.1788 63.9863L92.686 63.857C92.2343 63.7391 91.7542 63.8051 91.3511 64.0407C90.948 64.2762 90.6548 64.6621 90.5357 65.1136Z" fill="#1359FF"/>
<path d="M93.7639 64.1108L93.7569 64.1365L100.617 65.9317L100.624 65.9081L107.538 39.5092C105.922 41.7005 104.648 40.9305 103.994 39.4452C102.704 40.3946 101.181 40.4085 100.678 37.7119L93.7639 64.1108Z" fill="white"/>
<path d="M105.074 34.9228C103.323 34.4648 103.151 37.5423 103.993 39.4452C105.665 38.2143 106.941 35.4114 105.074 34.9228Z" fill="white"/>
<path d="M108.431 95.6856C108.008 97.9284 108.494 100.248 109.78 102.133C111.067 104.018 113.05 105.315 115.293 105.739L115.739 103.368C114.585 103.151 113.515 102.609 112.657 101.806C111.798 101.004 111.186 99.9745 110.89 98.8368C110.595 97.6997 110.629 96.5016 110.989 95.3833C111.349 94.2644 112.019 93.2712 112.922 92.5192L111.302 90.7358C109.805 92.0077 108.792 93.7549 108.431 95.6856Z" fill="#1359FF"/>
<path d="M111.302 90.7357L112.922 92.5191C113.948 91.6622 115.223 91.1604 116.558 91.0881C117.893 91.0158 119.215 91.3772 120.327 92.1188C121.439 92.8597 122.281 93.9411 122.728 95.2004C123.175 96.4605 123.203 97.8303 122.807 99.107L122.845 99.1188L125.184 99.5609C125.248 99.335 125.3 99.107 125.344 98.8749C125.675 97.1249 125.454 95.3151 124.713 93.6951C123.971 92.0757 122.745 90.726 121.204 89.8329C119.663 88.9392 117.883 88.5465 116.109 88.7077C114.335 88.8697 112.655 89.5772 111.3 90.7343L111.302 90.7357Z" fill="white"/>
<path d="M113.428 120.17L112.706 123.993L119.15 125.21L119.872 121.385L113.428 120.17Z" fill="black"/>
<path d="M114.501 114.471L113.78 118.293L120.227 119.51L120.948 115.686L114.501 114.471Z" fill="black"/>
<path d="M114.795 75.5684C114.732 75.9034 114.77 76.2495 114.904 76.5623C115.038 76.8757 115.262 77.1426 115.547 77.3288C115.833 77.5144 116.167 77.6124 116.507 77.6082C116.848 77.6048 117.18 77.5005 117.461 77.308C117.743 77.1162 117.961 76.8451 118.088 76.5289C118.215 76.2127 118.246 75.8659 118.176 75.5323C118.107 75.1994 117.94 74.8936 117.697 74.6552C117.453 74.4161 117.145 74.2549 116.81 74.1916C116.588 74.1492 116.359 74.152 116.137 74.1986C115.915 74.2444 115.704 74.3341 115.517 74.462C115.33 74.5898 115.17 74.7539 115.046 74.9436C114.922 75.1333 114.837 75.3453 114.795 75.5684Z" fill="white"/>
<path d="M115.577 108.771L114.856 112.593L121.303 113.81L122.023 109.986L115.577 108.771Z" fill="black"/>
<path d="M115.739 103.368L115.293 105.739C117.416 106.139 119.612 105.726 121.445 104.582C123.278 103.438 124.613 101.646 125.186 99.5622L122.846 99.1202L122.808 99.1084C122.358 100.562 121.389 101.8 120.086 102.586C118.782 103.372 117.235 103.65 115.739 103.368Z" fill="black"/>
<path d="M122.012 76.9287C121.949 77.2637 121.987 77.6098 122.12 77.9233C122.254 78.2367 122.477 78.5036 122.762 78.6906C123.048 78.8768 123.382 78.9748 123.722 78.9713C124.063 78.9686 124.395 78.8643 124.677 78.6725C124.959 78.48 125.177 78.2089 125.304 77.8934C125.432 77.5772 125.463 77.2304 125.393 76.8968C125.324 76.5632 125.157 76.2574 124.914 76.0183C124.671 75.7799 124.363 75.6187 124.028 75.5547C123.805 75.5123 123.577 75.5144 123.355 75.561C123.133 75.6068 122.923 75.6965 122.735 75.8244C122.548 75.9516 122.388 76.1149 122.264 76.3046C122.14 76.4944 122.054 76.7063 122.012 76.9287Z" fill="white"/>
<path d="M129.229 78.2919C129.166 78.6269 129.205 78.973 129.338 79.2857C129.472 79.5992 129.696 79.866 129.982 80.0523C130.267 80.2379 130.601 80.3359 130.942 80.3317C131.282 80.3282 131.614 80.224 131.896 80.0315C132.177 79.8396 132.395 79.5686 132.522 79.2524C132.649 78.9361 132.68 78.5893 132.611 78.2557C132.541 77.9228 132.374 77.617 132.131 77.3786C131.888 77.1396 131.579 76.9783 131.245 76.9151C131.022 76.8727 130.793 76.8748 130.571 76.9213C130.349 76.9679 130.138 77.0575 129.951 77.1854C129.764 77.3133 129.604 77.4766 129.48 77.6664C129.356 77.8568 129.271 78.0688 129.229 78.2919Z" fill="white"/>
<path d="M93.1808 63.9863C92.3196 63.7507 91.5808 63.195 91.1158 62.4328C90.6507 61.6706 90.4944 60.7595 90.6788 59.8858L90.7518 59.5328C92.1227 52.8232 91.407 45.8548 88.7008 39.564C87.3726 36.401 86.9559 32.9294 87.4979 29.5418C88.04 26.1543 89.5191 22.986 91.768 20.3954C94.0169 17.8048 96.9458 15.895 100.224 14.8823C103.501 13.8695 106.997 13.7942 110.315 14.6647C113.634 15.5352 116.642 17.3169 119.001 19.8082C121.359 22.2995 122.973 25.4011 123.661 28.7621C124.348 32.1231 124.082 35.6095 122.891 38.8268C121.7 42.0442 119.633 44.8642 116.923 46.9679C111.416 51.2224 107.344 57.0616 105.254 63.7C105.031 64.4105 104.588 65.0315 103.988 65.4729C103.388 65.9143 102.663 66.1531 101.918 66.1547C101.631 66.1539 101.345 66.1184 101.066 66.0491" stroke="black" stroke-width="0.676" stroke-linecap="round" stroke-linejoin="round"/>
<path d="M102.082 69.2218C102.287 69.056 102.452 68.8466 102.566 68.6089C102.68 68.3713 102.74 68.1113 102.74 67.8478C102.74 67.4584 102.611 67.0802 102.373 66.7721C102.135 66.464 101.801 66.2433 101.425 66.1443L101.063 66.0505L100.617 65.9331L93.7569 64.1379L93.1808 63.9878L92.688 63.8585C92.464 63.7995 92.2306 63.7852 92.0011 63.8164C91.7716 63.8476 91.5505 63.9237 91.3504 64.0404C91.1503 64.1571 90.9752 64.312 90.8351 64.4964C90.6949 64.6808 90.5924 64.891 90.5335 65.115C90.4963 65.2611 90.4774 65.4112 90.4772 65.5619C90.4771 65.9517 90.6061 66.3305 90.8442 66.639C91.0822 66.9476 91.4158 67.1686 91.7928 67.2675L100.532 69.554C100.798 69.6242 101.077 69.6312 101.346 69.5728C101.615 69.5151 101.867 69.3942 102.08 69.2204" stroke="black" stroke-width="0.676" stroke-linecap="round" stroke-linejoin="round"/>
<path d="M100.678 37.7119L93.7639 64.1108" stroke="black" stroke-width="0.676" stroke-linecap="round" stroke-linejoin="round"/>
<path d="M103.993 39.4452C102.703 40.3946 101.18 40.4085 100.678 37.7119" stroke="black" stroke-width="0.676" stroke-linecap="round" stroke-linejoin="round"/>
<path d="M103.993 39.4452C103.151 37.5423 103.323 34.4648 105.074 34.9228C106.941 35.4114 105.665 38.2143 103.993 39.4452Z" stroke="black" stroke-width="0.676" stroke-linecap="round" stroke-linejoin="round"/>
<path d="M100.624 65.9081L107.538 39.5093C105.922 41.7006 104.648 40.9305 103.994 39.4453" stroke="black" stroke-width="0.676" stroke-linecap="round" stroke-linejoin="round"/>
<path d="M90.6393 67.3788C90.3032 67.525 90.0211 67.7724 89.8322 68.0864C89.6432 68.4004 89.5568 68.7654 89.5849 69.1309C89.613 69.4962 89.7543 69.8439 89.9891 70.1254C90.2239 70.4069 90.5406 70.6077 90.895 70.7009L99.6326 72.9888C99.8564 73.0472 100.09 73.0611 100.319 73.0298C100.548 72.9979 100.769 72.9214 100.968 72.8046C101.168 72.6879 101.343 72.5322 101.482 72.348C101.622 72.1638 101.724 71.9533 101.782 71.7295C101.821 71.5842 101.841 71.4341 101.841 71.2833C101.84 70.8941 101.711 70.516 101.473 70.2074C101.235 69.8995 100.901 69.6785 100.525 69.5798L91.7881 67.2919C91.4061 67.1922 91.0018 67.2227 90.6393 67.3788Z" stroke="black" stroke-width="0.676" stroke-linecap="round" stroke-linejoin="round"/>
<path d="M93.0217 74.9293L95.9699 75.7C96.4175 75.8175 96.8839 75.846 97.3425 75.7834C97.8011 75.7202 98.2428 75.568 98.6423 75.3345C99.0419 75.1003 99.3914 74.7903 99.6709 74.4212C99.9504 74.0522 100.154 73.6317 100.271 73.1841L90.5051 70.6279C90.4292 70.9205 90.3907 71.2208 90.3904 71.5231C90.3913 72.3015 90.65 73.0583 91.1259 73.6741C91.602 74.2906 92.2685 74.7319 93.0217 74.9293Z" stroke="black" stroke-width="0.676" stroke-linecap="round" stroke-linejoin="round"/>
<path d="M13.643 66.8034C9.24155 69.3724 6.01049 73.5504 4.63022 78.4557C3.24995 83.3617 3.82819 88.6111 6.24401 93.0987C8.65913 97.5856 12.7235 100.96 17.5781 102.508C22.4333 104.057 27.7001 103.661 32.2683 101.401C36.8358 99.1424 40.3484 95.1976 42.0636 90.3986C43.7796 85.6003 43.5648 80.3225 41.4645 75.6792C39.3642 71.0366 35.5431 67.39 30.8067 65.5097C26.0703 63.6293 20.7883 63.6618 16.0755 65.6003C15.2373 65.9432 14.4249 66.3445 13.643 66.8013" stroke="black" stroke-width="0.676" stroke-linecap="round" stroke-linejoin="round"/>
<path d="M90.74 67.0828L90.6955 67.0738L77.1166 64.5127" stroke="black" stroke-width="0.676" stroke-linecap="round" stroke-linejoin="round"/>
<path d="M55.5827 78.3669L47.969 118.737L124.951 133.261L135.828 75.5876L102.082 69.2207H102.08" stroke="black" stroke-width="0.676" stroke-linecap="round" stroke-linejoin="round"/>
<path d="M126.149 82.6611L80.3637 74.0229" stroke="black" stroke-width="0.676" stroke-linecap="round" stroke-linejoin="round"/>
<path d="M129.229 78.2919C129.166 78.6269 129.205 78.973 129.338 79.2857C129.472 79.5992 129.696 79.866 129.982 80.0523C130.267 80.2379 130.601 80.3359 130.942 80.3317C131.282 80.3282 131.614 80.224 131.896 80.0315C132.177 79.8396 132.395 79.5686 132.522 79.2524C132.649 78.9361 132.68 78.5893 132.611 78.2557C132.541 77.9228 132.374 77.617 132.131 77.3786C131.888 77.1396 131.579 76.9783 131.245 76.9151C131.022 76.8727 130.793 76.8748 130.571 76.9213C130.349 76.9679 130.138 77.0575 129.951 77.1854C129.764 77.3133 129.604 77.4766 129.48 77.6664C129.356 77.8568 129.271 78.0688 129.229 78.2919Z" stroke="black" stroke-width="0.676" stroke-linecap="round" stroke-linejoin="round"/>
<path d="M122.012 76.9287C121.949 77.2637 121.987 77.6098 122.12 77.9233C122.254 78.2367 122.477 78.5036 122.762 78.6906C123.048 78.8768 123.382 78.9748 123.722 78.9713C124.063 78.9686 124.395 78.8643 124.677 78.6725C124.959 78.48 125.177 78.2089 125.304 77.8934C125.432 77.5772 125.463 77.2304 125.393 76.8968C125.324 76.5632 125.157 76.2574 124.914 76.0183C124.671 75.7799 124.363 75.6187 124.028 75.5547C123.805 75.5123 123.577 75.5144 123.355 75.561C123.133 75.6068 122.923 75.6965 122.735 75.8244C122.548 75.9516 122.388 76.1149 122.264 76.3046C122.14 76.4944 122.054 76.7063 122.012 76.9287Z" stroke="black" stroke-width="0.676" stroke-linecap="round" stroke-linejoin="round"/>
<path d="M114.795 75.5684C114.732 75.9034 114.77 76.2495 114.904 76.5623C115.038 76.8757 115.262 77.1426 115.547 77.3288C115.833 77.5144 116.167 77.6124 116.507 77.6082C116.848 77.6048 117.18 77.5005 117.461 77.308C117.743 77.1162 117.961 76.8451 118.088 76.5289C118.215 76.2127 118.246 75.8659 118.176 75.5323C118.107 75.1994 117.94 74.8936 117.697 74.6552C117.453 74.4161 117.145 74.2549 116.81 74.1916C116.588 74.1492 116.359 74.152 116.137 74.1986C115.915 74.2444 115.704 74.3341 115.517 74.462C115.33 74.5898 115.17 74.7539 115.046 74.9436C114.922 75.1333 114.837 75.3453 114.795 75.5684Z" stroke="black" stroke-width="0.676" stroke-linecap="round" stroke-linejoin="round"/>
<path d="M43.2187 80.7295L55.5828 78.3666L78.9119 73.9074L77.1167 64.5124L76.8839 63.3052L69.7094 25.7627L8.05175 37.5492L13.643 66.8011V66.8031" stroke="black" stroke-width="0.676" stroke-linecap="round" stroke-linejoin="round"/>
<path d="M64.1389 33.6753L15.083 43.0515" stroke="black" stroke-width="0.676" stroke-linecap="round" stroke-linejoin="round"/>
<path d="M65.408 29.8848C65.4615 30.1644 65.5963 30.4219 65.7965 30.6247C65.9959 30.8275 66.2517 30.9665 66.5304 31.0242C66.8091 31.0818 67.0989 31.0555 67.3623 30.9486C67.6264 30.8417 67.8523 30.6589 68.0121 30.4234C68.172 30.188 68.2589 29.9104 68.2609 29.6257C68.263 29.3411 68.181 29.0621 68.0246 28.8242C67.8683 28.5863 67.6452 28.4001 67.3832 28.2891C67.1205 28.1782 66.8313 28.1474 66.5519 28.2008C66.3664 28.2363 66.1892 28.3079 66.0314 28.4117C65.8736 28.5155 65.7374 28.6494 65.6311 28.8058C65.5247 28.9622 65.4504 29.1379 65.4121 29.3231C65.3739 29.5082 65.3725 29.6991 65.408 29.8848Z" stroke="black" stroke-width="0.676" stroke-linecap="round" stroke-linejoin="round"/>
<path d="M59.3836 31.0353C59.4371 31.3151 59.572 31.5727 59.7721 31.7757C59.9716 31.9786 60.2274 32.1177 60.5061 32.1754C60.7854 32.2331 61.0753 32.2068 61.3387 32.0999C61.6028 31.9929 61.8293 31.8101 61.9892 31.5745C62.149 31.339 62.2359 31.0612 62.238 30.7765C62.2401 30.4916 62.1581 30.2126 62.0017 29.9746C61.8453 29.7365 61.6215 29.5502 61.3595 29.4391C61.0975 29.3281 60.8084 29.2974 60.5283 29.3507C60.342 29.3859 60.1655 29.4574 60.007 29.5612C59.8486 29.6649 59.7124 29.7989 59.606 29.9555C59.4997 30.112 59.4253 30.2879 59.3871 30.4732C59.3489 30.6585 59.3482 30.8496 59.3836 31.0353Z" stroke="black" stroke-width="0.676" stroke-linecap="round" stroke-linejoin="round"/>
<path d="M53.358 32.1886C53.4122 32.468 53.5477 32.7253 53.7479 32.9279C53.948 33.1303 54.2031 33.269 54.4825 33.3262C54.7612 33.3835 55.051 33.3568 55.3144 33.2496C55.5778 33.1423 55.8044 32.9593 55.9635 32.7237C56.1234 32.488 56.2102 32.2103 56.2116 31.9257C56.2137 31.641 56.1317 31.3621 55.9753 31.1243C55.8183 30.8864 55.5952 30.7002 55.3332 30.5893C55.0704 30.4785 54.7813 30.4477 54.5019 30.5011C54.1266 30.5735 53.7951 30.7918 53.5811 31.1082C53.3663 31.4246 53.2864 31.8131 53.358 32.1886Z" stroke="black" stroke-width="0.676" stroke-linecap="round" stroke-linejoin="round"/>
<path d="M16.3818 60.9556C15.8557 61.7381 15.7334 63.117 16.0719 65.6003" stroke="black" stroke-width="0.676" stroke-linecap="round" stroke-linejoin="round"/>
<path d="M21.2712 64.1111C20.5874 62.2082 19.9083 60.6222 18.8728 60.1572" stroke="black" stroke-width="0.676" stroke-linecap="round" stroke-linejoin="round"/>
<path d="M33.5325 52.8809C31.984 55.0868 33.741 61.6837 33.4546 66.7114" stroke="black" stroke-width="0.676" stroke-linecap="round" stroke-linejoin="round"/>
<path d="M45.857 43.2471C42.4431 47.4685 49.2625 66.157 44.6609 66.9021C40.0913 67.6395 39.5179 54.5165 36.0081 52.4113" stroke="black" stroke-width="0.676" stroke-linecap="round" stroke-linejoin="round"/>
<path d="M63.6738 44.1628C60.1641 48.4552 68.0975 70.0919 60.932 71.2929C53.6345 72.5168 53.3565 45.1727 48.2928 42.6123" stroke="black" stroke-width="0.676" stroke-linecap="round" stroke-linejoin="round"/>
<path d="M76.8838 63.3051C73.987 63.6901 71.2383 45.8238 66.2677 43.6436" stroke="black" stroke-width="0.676" stroke-linecap="round" stroke-linejoin="round"/>
<path d="M111.302 90.7358C110.278 91.6101 109.473 92.7117 108.952 93.9537C108.431 95.1949 108.209 96.5412 108.303 97.8846C108.398 99.2273 108.806 100.53 109.495 101.686C110.184 102.843 111.135 103.821 112.271 104.544C113.407 105.266 114.697 105.712 116.037 105.845C117.376 105.978 118.729 105.795 119.985 105.311C121.241 104.826 122.366 104.053 123.269 103.055C124.172 102.057 124.829 100.861 125.186 99.5623C125.25 99.3364 125.301 99.1085 125.345 98.8764C125.676 97.1263 125.456 95.3166 124.714 93.6965C123.973 92.0772 122.747 90.7275 121.206 89.8344C119.664 88.9406 117.884 88.548 116.11 88.7092C114.336 88.8711 112.656 89.5786 111.302 90.7358Z" stroke="black" stroke-width="0.676" stroke-linecap="round" stroke-linejoin="round"/>
<path d="M112.922 92.5188C111.84 93.4202 111.097 94.6629 110.816 96.0432C110.534 97.4227 110.731 98.8579 111.374 100.111C112.017 101.364 113.068 102.361 114.353 102.937C115.638 103.512 117.082 103.634 118.445 103.28C119.808 102.926 121.01 102.118 121.853 100.99C122.696 99.8615 123.129 98.4798 123.082 97.0725C123.034 95.6644 122.509 94.3154 121.592 93.2465C120.675 92.1769 119.421 91.4527 118.037 91.1914C117.139 91.0197 116.215 91.0496 115.33 91.2789C114.445 91.5083 113.623 91.9322 112.922 92.5188Z" stroke="black" stroke-width="0.676" stroke-linecap="round" stroke-linejoin="round"/>
<path d="M115.739 103.368L115.293 105.739" stroke="black" stroke-width="0.676" stroke-linecap="round" stroke-linejoin="round"/>
<path d="M112.922 92.5192L111.302 90.7358" stroke="black" stroke-width="0.676" stroke-linecap="round" stroke-linejoin="round"/>
<path d="M122.846 99.1201L125.186 99.5621L125.214 99.567" stroke="black" stroke-width="0.676" stroke-linecap="round" stroke-linejoin="round"/>
<path d="M60.9182 114.224L53.8257 112.885L60.2885 78.6226" stroke="black" stroke-width="0.676" stroke-linecap="round" stroke-linejoin="round"/>
<path d="M70.5413 116.038L64.3196 114.865" stroke="black" stroke-width="0.676" stroke-linecap="round" stroke-linejoin="round"/>
<path d="M73.9404 116.679L70.5412 116.04" stroke="black" stroke-width="0.676" stroke-linecap="round" stroke-linejoin="round"/>
<path d="M80.1636 117.854L73.9405 116.681" stroke="black" stroke-width="0.676" stroke-linecap="round" stroke-linejoin="round"/>
<path d="M89.7864 119.67L83.5633 118.495" stroke="black" stroke-width="0.676" stroke-linecap="round" stroke-linejoin="round"/>
<path d="M99.6228 121.526L93.1857 120.312" stroke="black" stroke-width="0.676" stroke-linecap="round" stroke-linejoin="round"/>
<path d="M114.856 112.593L121.303 113.81L122.023 109.986L115.577 108.771L114.856 112.593Z" stroke="black" stroke-width="0.676" stroke-linecap="round" stroke-linejoin="round"/>
<path d="M113.78 118.293L120.227 119.51L120.948 115.686L114.501 114.471L113.78 118.293Z" stroke="black" stroke-width="0.676" stroke-linecap="round" stroke-linejoin="round"/>
<path d="M112.706 123.993L119.15 125.21L119.872 121.385L113.428 120.17L112.706 123.993Z" stroke="black" stroke-width="0.676" stroke-linecap="round" stroke-linejoin="round"/>
<path d="M89.7866 119.67L93.1858 120.311L93.9072 116.487L99.7925 85.2972L96.3905 84.6558L90.508 115.845L89.7866 119.67Z" stroke="black" stroke-width="0.676" stroke-linecap="round" stroke-linejoin="round"/>
<path d="M80.1635 117.854L83.5635 118.495L86.7959 101.364L90.1694 83.4813L86.7674 82.8398L83.3939 100.723L80.1635 117.854Z" stroke="black" stroke-width="0.676" stroke-linecap="round" stroke-linejoin="round"/>
<path d="M70.5412 116.04L73.9404 116.681V116.679L75.7377 107.157L80.5464 81.6674L77.1471 81.0259L72.3377 106.516L70.5412 116.038V116.04Z" stroke="black" stroke-width="0.676" stroke-linecap="round" stroke-linejoin="round"/>
<path d="M60.9182 114.224L64.3195 114.866L68.6 92.1641L70.9241 79.8514L67.5241 79.21L65.2007 91.5226L60.9182 114.224Z" stroke="black" stroke-width="0.676" stroke-linecap="round" stroke-linejoin="round"/>
<path d="M93.9072 116.487L90.508 115.845" stroke="black" stroke-width="0.676" stroke-linecap="round" stroke-linejoin="round"/>
<path d="M86.7959 101.364L83.3967 100.723" stroke="black" stroke-width="0.676" stroke-linecap="round" stroke-linejoin="round"/>
<path d="M75.7378 107.157L72.3379 106.516" stroke="black" stroke-width="0.676" stroke-linecap="round" stroke-linejoin="round"/>
<path d="M68.6001 92.1639L65.2009 91.5225" stroke="black" stroke-width="0.676" stroke-linecap="round" stroke-linejoin="round"/>
<path d="M9.59247 69.9253L23.6301 83.9629L37.667 97.9998" stroke="black" stroke-width="0.676" stroke-linecap="round" stroke-linejoin="round"/>
<path d="M37.667 69.9253L23.6301 83.9629" stroke="black" stroke-width="0.676" stroke-linecap="round" stroke-linejoin="round"/>
<path d="M111.461 11.5994L113.16 5.30273" stroke="black" stroke-width="0.676" stroke-linecap="round" stroke-linejoin="round"/>
<path d="M104.101 11.5996L103.415 5.9541" stroke="black" stroke-width="0.676" stroke-linecap="round" stroke-linejoin="round"/>
<path d="M117.96 15.9311L121.699 11.5991" stroke="black" stroke-width="0.676" stroke-linecap="round" stroke-linejoin="round"/>
</svg>
