<svg width="507" height="496" viewBox="0 0 507 496" fill="none" xmlns="http://www.w3.org/2000/svg">
<path d="M47 147C47 91.7715 91.7715 47 147 47C202.228 47 247 91.7715 247 147V247H147C91.7715 247 47 202.228 47 147Z" fill="#F88585"/>
<path d="M47 347C47 291.772 91.7715 247 147 247C202.228 247 247 291.772 247 347V447H147C91.7715 447 47 402.228 47 347Z" fill="#FACC15"/>
<path d="M247 247H447V447C336.543 447 247 357.457 247 247Z" fill="#4F46E5"/>
<path d="M247 47H347C402.228 47 447 91.7715 447 147V247H347C291.772 247 247 202.228 247 147V47Z" fill="#A78BFA"/>
<path fill-rule="evenodd" clip-rule="evenodd" d="M447.75 424.9C448.798 424.9 449.802 425.316 450.543 426.057C451.284 426.798 451.7 427.802 451.7 428.85V432.8H455.65C456.698 432.8 457.702 433.216 458.443 433.957C459.184 434.698 459.6 435.702 459.6 436.75C459.6 437.798 459.184 438.802 458.443 439.543C457.702 440.284 456.698 440.7 455.65 440.7H451.7V444.65C451.7 445.698 451.284 446.702 450.543 447.443C449.802 448.184 448.798 448.6 447.75 448.6C446.702 448.6 445.698 448.184 444.957 447.443C444.216 446.702 443.8 445.698 443.8 444.65V440.7H439.85C438.802 440.7 437.798 440.284 437.057 439.543C436.316 438.802 435.9 437.798 435.9 436.75C435.9 435.702 436.316 434.698 437.057 433.957C437.798 433.216 438.802 432.8 439.85 432.8H443.8V428.85C443.8 427.802 444.216 426.798 444.957 426.057C445.698 425.316 446.702 424.9 447.75 424.9ZM447.75 464.4C448.798 464.4 449.802 464.816 450.543 465.557C451.284 466.298 451.7 467.302 451.7 468.35V472.3H455.65C456.698 472.3 457.702 472.716 458.443 473.457C459.184 474.198 459.6 475.202 459.6 476.25C459.6 477.298 459.184 478.302 458.443 479.043C457.702 479.784 456.698 480.2 455.65 480.2H451.7V484.15C451.7 485.198 451.284 486.202 450.543 486.943C449.802 487.684 448.798 488.1 447.75 488.1C446.702 488.1 445.698 487.684 444.957 486.943C444.216 486.202 443.8 485.198 443.8 484.15V480.2H439.85C438.802 480.2 437.798 479.784 437.057 479.043C436.316 478.302 435.9 477.298 435.9 476.25C435.9 475.202 436.316 474.198 437.057 473.457C437.798 472.716 438.802 472.3 439.85 472.3H443.8V468.35C443.8 467.302 444.216 466.298 444.957 465.557C445.698 464.816 446.702 464.4 447.75 464.4ZM475.4 424.9C476.272 424.9 477.119 425.188 477.81 425.719C478.501 426.251 478.997 426.996 479.22 427.839L483.877 445.44L497.125 453.079C497.725 453.426 498.224 453.925 498.571 454.525C498.917 455.125 499.1 455.807 499.1 456.5C499.1 457.193 498.917 457.874 498.571 458.475C498.224 459.075 497.725 459.574 497.125 459.921L483.877 467.564L479.216 485.161C478.992 486.003 478.497 486.747 477.806 487.278C477.116 487.809 476.269 488.097 475.398 488.097C474.527 488.097 473.68 487.809 472.99 487.278C472.3 486.747 471.804 486.003 471.58 485.161L466.923 467.56L453.675 459.921C453.075 459.574 452.576 459.075 452.229 458.475C451.883 457.874 451.7 457.193 451.7 456.5C451.7 455.807 451.883 455.125 452.229 454.525C452.576 453.925 453.075 453.426 453.675 453.079L466.923 445.436L471.584 427.839C471.807 426.997 472.302 426.252 472.992 425.72C473.683 425.189 474.529 424.9 475.4 424.9Z" fill="#FACC15"/>
<path fill-rule="evenodd" clip-rule="evenodd" d="M11.55 11.5498C10.5289 11.5498 9.54961 11.9554 8.82759 12.6774C8.10557 13.3995 7.69995 14.3787 7.69995 15.3998C7.69995 16.4209 8.10557 17.4001 8.82759 18.1222C9.54961 18.8442 10.5289 19.2498 11.55 19.2498V50.0498C11.55 52.092 12.3612 54.0505 13.8052 55.4945C15.2493 56.9386 17.2078 57.7498 19.25 57.7498H29.2061L24.228 62.7279C23.8603 63.083 23.567 63.5078 23.3652 63.9775C23.1634 64.4473 23.0572 64.9525 23.0528 65.4637C23.0483 65.9749 23.1458 66.4818 23.3393 66.955C23.5329 67.4281 23.8188 67.858 24.1803 68.2195C24.5418 68.581 24.9716 68.8668 25.4448 69.0604C25.9179 69.254 26.4249 69.3514 26.9361 69.347C27.4473 69.3425 27.9525 69.2363 28.4222 69.0345C28.8919 68.8328 29.3168 68.5395 29.6719 68.1718L38.5 59.3437L47.328 68.1718C48.0541 68.8731 49.0266 69.2611 50.0361 69.2523C51.0456 69.2436 52.0112 68.8387 52.725 68.1249C53.4388 67.411 53.8437 66.4454 53.8525 65.4359C53.8613 64.4265 53.4732 63.454 52.7719 62.7279L47.7938 57.7498H57.75C59.7921 57.7498 61.7506 56.9386 63.1947 55.4945C64.6387 54.0505 65.45 52.092 65.45 50.0498V19.2498C66.471 19.2498 67.4503 18.8442 68.1723 18.1222C68.8943 17.4001 69.3 16.4209 69.3 15.3998C69.3 14.3787 68.8943 13.3995 68.1723 12.6774C67.4503 11.9554 66.471 11.5498 65.45 11.5498H11.55ZM56.6219 29.6718C57.3232 28.9456 57.7113 27.9731 57.7025 26.9637C57.6937 25.9542 57.2888 24.9886 56.575 24.2748C55.8612 23.5609 54.8956 23.156 53.8861 23.1473C52.8766 23.1385 51.9041 23.5265 51.178 24.2279L38.5 36.9059L33.5219 31.9279C32.7999 31.2061 31.8208 30.8006 30.8 30.8006C29.7791 30.8006 28.8 31.2061 28.078 31.9279L20.378 39.6279C20.0103 39.983 19.717 40.4078 19.5152 40.8775C19.3134 41.3473 19.2072 41.8525 19.2028 42.3637C19.1983 42.8749 19.2958 43.3818 19.4893 43.855C19.6829 44.3281 19.9688 44.758 20.3303 45.1195C20.6918 45.481 21.1216 45.7668 21.5948 45.9604C22.0679 46.154 22.5749 46.2514 23.0861 46.247C23.5973 46.2425 24.1025 46.1363 24.5722 45.9345C25.0419 45.7328 25.4668 45.4395 25.8219 45.0718L30.8 40.0937L35.778 45.0718C36.5 45.7935 37.4791 46.199 38.5 46.199C39.5208 46.199 40.4999 45.7935 41.2219 45.0718L56.6219 29.6718Z" fill="#FACC15"/>
</svg>
