<svg width="137" height="137" viewBox="0 0 137 137" fill="none" xmlns="http://www.w3.org/2000/svg">
<path d="M103.24 133.747H76.7378C78.5044 130.563 80.3888 126.491 81.0389 123.651C81.4554 122.064 81.23 120.377 80.4114 118.956L83.533 114.096C84.9955 113.542 81.1643 111.095 81.1643 111.095L86.4662 99.9293C87.6081 98.9977 88.6856 97.9908 89.6925 96.9153C90.296 96.2899 90.7241 95.5165 90.9324 94.6726C91.0372 94.2767 91.0659 93.865 91.0173 93.4581L91.0426 93.4526C91.0426 93.4526 104.484 93.9623 109.731 99.4375C118.229 108.305 115.469 133.744 115.469 133.744H103.24V133.747Z" fill="#2070FF"/>
<path d="M114.694 36.1816L91.4036 52.5312L97.0891 21.25L114.694 36.1816ZM95.1101 46.7375L110.425 35.983L98.8454 26.1669L95.1101 46.7375Z" fill="#313553"/>
<path d="M65.1304 86.9417C65.8606 86.2567 67.2539 85.6998 69.0199 86.7362C70.9269 87.8575 71.6318 90.5797 73.7799 90.7153C75.9281 90.851 79.0866 89.0843 82.2403 86.9417C83.5802 86.0334 85.2591 84.8065 86.8751 83.6674C87.508 83.2386 88.0923 82.7413 88.6163 82.1843C89.113 81.5631 89.5644 80.9075 89.9685 80.2225C90.7364 79.1382 91.931 79.0381 92.2722 79.8382C92.3585 80.1684 92.3729 80.5136 92.3153 80.85C92.2578 81.187 92.1297 81.5076 91.9386 81.7905C91.3289 82.9474 90.6042 84.0407 89.7754 85.0524L89.8808 85.1401C90.2137 85.56 90.4316 86.0594 90.5124 86.5896C90.5932 87.1191 90.535 87.6609 90.3425 88.161L90.4151 88.1863C90.7282 88.7651 90.8803 89.4179 90.8549 90.0755C90.8296 90.7331 90.6282 91.3716 90.272 91.9251C90.6487 92.3628 90.9056 92.8916 91.0173 93.4581C91.0659 93.865 91.0371 94.2766 90.9323 94.6726C90.7241 95.5165 90.296 96.2899 89.6925 96.9153C88.6855 97.9907 87.608 98.9977 86.4661 99.9293L81.1642 111.095L80.0449 113.453L79.9894 113.599C75.5212 111.883 69.0294 107.092 69.0294 107.092L70.9536 103.91L73.2895 100.051C71.8366 98.7689 71.3852 98.5832 70.7378 97.3235C70.0795 96.0289 69.6151 94.6438 69.3603 93.2135C69.0089 91.5928 67.8321 90.4085 66.1189 89.4577C65.6247 89.2159 65.1908 88.8672 64.8489 88.4363C64.6974 88.2397 64.6257 87.9938 64.648 87.7465C64.6704 87.4993 64.7852 87.2698 64.9694 87.104C65.0201 87.0472 65.0749 86.9951 65.1304 86.9417Z" fill="white"/>
<path d="M89.3241 34.4508L88.0342 35.8386L86.767 34.6618L85.5024 33.485L86.7923 32.0972L89.3241 34.4508Z" fill="#313553"/>
<path d="M86.6238 78.7822C86.8772 78.8576 88.5863 79.3816 88.5562 80.1598C88.526 81.0003 87.9438 81.0003 87.9438 81.0003C88.0595 81.1058 88.1486 81.2366 88.2041 81.3825C88.2603 81.5284 88.2808 81.6853 88.2651 81.8408L88.6165 82.1833C88.0924 82.7402 87.5081 83.2375 86.8752 83.6663C85.2593 84.8054 83.5803 86.0323 82.2405 86.9406C79.0895 89.0833 75.9303 90.8526 73.78 90.7143C71.6298 90.5759 70.927 87.8564 69.02 86.7351C67.2513 85.6959 65.8608 86.2556 65.1305 86.9406C64.5613 87.2392 64.0667 86.7652 63.8058 86.1186C63.6814 85.8062 63.6159 85.474 63.6126 85.1377C63.6126 85.1377 62.5851 83.2005 61.0582 80.9475C60.6244 80.2516 60.0705 79.6378 59.4224 79.1357C59.4149 79.1309 59.4074 79.1234 59.3998 79.1186C59.1698 78.9186 58.8816 78.7987 58.5778 78.7761C56.349 75.6086 55.3314 71.7459 55.7104 67.8914C55.7104 67.8661 55.7104 67.851 55.7104 67.851C55.7863 66.9314 55.9366 66.0194 56.1598 65.124C55.6652 67.6935 59.045 69.0731 59.828 69.8211C60.6458 70.6013 59.554 72.1747 59.828 74.4852C59.9306 75.7771 60.3241 77.0293 60.9789 78.1479C61.6337 79.2658 62.5328 80.2221 63.6092 80.9441C66.0937 82.5196 68.4117 81.5435 71.0489 81.5791C70.5393 79.4207 71.2394 77.3129 73.9794 75.9409C75.9919 74.8305 78.2325 74.1975 80.5287 74.0914C81.402 74.0482 82.2645 74.2975 82.9803 74.8003C83.6954 75.3031 84.2229 76.0299 84.4777 76.8663C84.4777 76.8663 85.0873 74.4955 84.9195 73.8105C84.5229 72.1775 83.9489 70.5924 83.207 69.084C84.401 70.541 85.347 72.1836 86.0073 73.9475C86.0073 73.9475 87.204 74.8209 87.204 75.599C87.206 75.8087 87.1259 76.0107 86.9807 76.1621C86.8355 76.3135 86.6361 76.4012 86.4265 76.4067C86.4265 76.4067 87.6595 77.1191 87.528 78.0575C87.5294 78.1692 87.5054 78.2801 87.4581 78.3808C87.4102 78.4822 87.3403 78.5713 87.2533 78.6411C87.1656 78.7117 87.0642 78.761 86.9546 78.7857C86.8457 78.8103 86.7327 78.8103 86.6238 78.785V78.7822ZM82.6946 81.2133C84.1653 81.0578 84.1729 79.1583 83.3947 77.2821C81.5959 73.7365 78.3161 75.6456 75.7343 76.617C73.1526 77.5883 71.6545 78.6946 72.8916 81.5702C73.3711 82.6662 75.0466 84.528 76.7755 83.8053C78.5045 83.0827 77.8674 81.4017 79.3785 80.8701C81.1342 80.2502 81.3548 81.3592 82.6946 81.216V81.2133Z" fill="#313553"/>
<path d="M86.7668 34.6617L88.0341 35.8385L77.0364 47.6712L76.946 46.369L75.7691 46.4944L75.739 45.2477L74.5046 45.3176L85.5023 33.4849L86.7668 34.6617Z" fill="white"/>
<path d="M74.4594 67.2756C75.1567 67.7373 75.4253 66.5906 76.3363 65.5343C77.109 64.599 78.1577 63.9316 79.3318 63.6273C78.7783 63.4825 78.1988 63.4671 77.6385 63.5825C77.0775 63.6978 76.5514 63.9407 76.1 64.2924C74.5546 65.5014 73.7648 66.8166 74.4594 67.2756ZM63.4309 70.6506C65.6613 68.1846 64.9742 67.5592 67.8492 66.9194C69.2116 66.6159 70.0973 67.4208 70.0199 66.5879C69.9425 65.7549 68.4115 65.3309 66.6148 66.1241C64.8468 66.9064 63.4693 70.5376 63.4309 70.6506ZM84.9241 73.8146C85.092 74.4996 84.4823 76.8704 84.4823 76.8704C84.2275 76.034 83.7001 75.3065 82.9849 74.8044C82.2691 74.3016 81.4067 74.0523 80.5333 74.0955C78.2372 74.2016 75.9965 74.8346 73.984 75.945C71.244 77.315 70.5439 79.4248 71.0536 81.5832C68.4163 81.5476 66.0983 82.5237 63.6138 80.9482C62.5375 80.2262 61.6383 79.2699 60.9835 78.152C60.3287 77.0334 59.9353 75.7812 59.8326 74.4893C59.5586 72.1788 60.6505 70.6054 59.8326 69.8252C59.0496 69.0771 55.6698 67.6976 56.1644 65.1281C56.3381 64.4031 56.5765 63.6952 56.8768 63.0128C59.4613 57.2767 66.3915 55.7087 70.0247 55.7114C73.2915 55.7114 78.2022 58.7124 80.0887 61.5449C81.158 63.1457 80.6607 63.5896 81.1525 65.1V65.1055C81.2758 65.478 81.4258 65.8411 81.6019 66.1919C81.8225 66.6413 82.4849 67.6167 83.2048 69.0874C83.9487 70.5958 84.5248 72.1809 84.9228 73.8146H84.9241ZM78.8119 68.0305C79.2462 67.9483 79.5092 67.688 79.3989 67.0975C79.2887 66.507 78.8468 66.1036 78.4125 66.1844C78.1783 66.2719 77.9865 66.4463 77.8769 66.6714C77.768 66.8965 77.7495 67.155 77.8255 67.3934C77.8385 67.5048 77.8755 67.612 77.9351 67.7073C77.994 67.8025 78.0735 67.8835 78.1673 67.9444C78.2618 68.0053 78.368 68.0446 78.4797 68.0595C78.5906 68.0744 78.7037 68.0644 78.8105 68.0305H78.8119ZM68.4362 72.048C68.9054 71.9576 69.1897 71.6712 69.0712 71.0369C68.9527 70.4026 68.4739 69.9601 68.0026 70.0505C67.7488 70.1451 67.5412 70.3334 67.4229 70.5773C67.3046 70.8205 67.2848 71.1006 67.3676 71.3582C67.3814 71.4788 67.4217 71.5952 67.4858 71.6986C67.5499 71.8014 67.636 71.8898 67.7381 71.9555C67.8402 72.0213 67.9556 72.0637 68.076 72.0802C68.1965 72.0959 68.3191 72.085 68.4348 72.048H68.4362Z" fill="white"/>
<path d="M83.5331 114.096L80.4115 118.956C81.2301 120.377 81.4555 122.064 81.039 123.651C80.3889 126.491 78.5045 130.563 76.7379 133.747H51.1223C53.0266 130.952 60.6698 117.17 62.4933 115.054C64.1592 113.12 65.5971 112.768 65.5971 112.768L69.0323 107.09C69.0323 107.09 75.5234 111.885 79.9923 113.598C80.7472 113.914 81.5459 114.116 82.3611 114.195C82.7542 114.237 83.1522 114.203 83.5331 114.096Z" fill="#2070FF"/>
<path d="M64.8599 72.698C66.1031 72.6412 67.342 72.5124 68.5705 72.3137C69.6569 72.0658 69.7247 70.5471 69.7247 70.5471C69.7247 70.5471 69.3459 69.4511 67.8026 69.9128C66.6087 70.269 64.8599 72.698 64.8599 72.698Z" fill="white"/>
<path d="M75.1445 68.683C76.3899 68.657 77.6311 68.5282 78.8552 68.2987C80.4012 67.8549 79.8895 66.0958 79.8895 66.0958C79.8895 66.0958 79.671 65.604 78.09 65.8978C77.2721 66.0485 75.1445 68.683 75.1445 68.683Z" fill="white"/>
<path d="M83.3947 77.2847C84.1729 79.1609 84.1653 81.0604 82.6946 81.2159C81.3548 81.3591 81.1342 80.2501 79.3751 80.8734C77.8681 81.405 78.5045 83.0887 76.7721 83.8086C75.0398 84.5286 73.3649 82.6722 72.8882 81.5735C71.6511 78.6965 73.1464 77.5909 75.7309 76.6203C78.3154 75.6496 81.5959 73.7391 83.3947 77.2847Z" fill="white"/>
<path d="M76.1035 64.2923C76.5549 63.9406 77.081 63.6977 77.642 63.5823C78.2023 63.467 78.7818 63.4823 79.3353 63.6271C78.1612 63.9315 77.1125 64.5989 76.3398 65.5342C75.4288 66.5932 75.1603 67.7371 74.4629 67.2754C73.7656 66.8137 74.5547 65.5013 76.1035 64.2923Z" fill="#313553"/>
<path d="M73.506 48.0578C74.0883 47.9126 74.6657 48.2941 74.3766 48.8682L72.9792 49.4984L73.504 48.0599L73.506 48.0578Z" fill="#313553"/>
<path d="M63.2637 95.5178L64.9145 94.9561L63.2637 86.2642C63.3795 86.2368 63.4945 86.2018 63.6124 86.1642L63.8055 86.1162C64.0665 86.7663 64.559 87.2403 65.1303 86.9382C65.0728 86.991 65.02 87.0437 64.97 87.0992C64.7858 87.265 64.671 87.4944 64.6487 87.7417C64.6263 87.989 64.698 88.2349 64.8495 88.4315C65.1912 88.8624 65.6252 89.2117 66.1195 89.4528C67.832 90.4036 69.0095 91.588 69.361 93.2087C69.6158 94.639 70.0795 96.024 70.7385 97.3187C71.3858 98.5784 71.8345 98.764 73.2901 100.046L70.9543 103.905C63.2637 101.133 62.0369 94.9527 62.0369 94.9527C62.275 94.9 62.524 94.926 62.7456 95.0281C62.9672 95.1301 63.1492 95.3021 63.2637 95.5178Z" fill="white"/>
<path d="M70.9543 103.908L69.0302 107.09L65.5949 112.768C65.5949 112.768 64.1564 113.12 62.4912 115.054C60.6698 117.169 53.0265 130.952 51.1202 133.747H35.072C35.072 133.747 34.1061 118.702 37.9675 109.491C41.8288 100.28 62.0404 94.9561 62.0404 94.9561C62.0404 94.9561 63.2639 101.136 70.9543 103.908Z" fill="#2070FF"/>
<path d="M70.0187 66.5874C70.0961 67.4204 69.2104 66.6155 67.8479 66.9189C64.9709 67.5587 65.66 68.1835 63.4297 70.6501C63.4694 70.5371 64.847 66.9059 66.6136 66.1237C68.4103 65.3304 69.9434 65.7544 70.0187 66.5874Z" fill="#313553"/>
<path d="M63.8056 86.1162L63.6124 86.1641C63.4946 86.2018 63.3795 86.2367 63.2638 86.2641C58.1729 87.5793 56.6193 80.7841 57.3447 79.497C58.0249 78.2825 59.2188 79.0004 59.3997 79.1162C59.4072 79.121 59.4148 79.1285 59.4223 79.1333C60.0704 79.6354 60.6243 80.2492 61.0581 80.9451C62.5863 83.1981 63.6124 85.1353 63.6124 85.1353C63.6157 85.4716 63.6812 85.8038 63.8056 86.1162Z" fill="white"/>
<path d="M50.1311 55.2488C50.8209 56.3935 47.3712 59.7431 42.4255 62.729C37.4798 65.7149 32.9082 67.2076 32.219 66.0609C31.5299 64.9143 34.9769 61.5673 39.9219 58.5835C44.8669 55.5996 49.4386 54.1049 50.1311 55.2488Z" fill="#2070FF"/>
<path d="M41.0526 40.2095L50.1309 55.2486C49.4384 54.1046 44.8695 55.5973 39.9244 58.5832C34.9794 61.5691 31.5257 64.9167 32.2182 66.0607L23.1399 51.0262C23.8324 52.1702 28.4021 50.677 33.3464 47.691C38.2907 44.7051 41.7431 41.3582 41.0526 40.2095Z" fill="#2070FF"/>
<path d="M41.0528 40.2097C41.7433 41.3564 38.2957 44.7033 33.3472 47.6892C28.3988 50.6751 23.8326 52.1684 23.1407 51.0245C22.4489 49.8805 25.9013 46.5302 30.8463 43.5443C35.7913 40.5583 40.363 39.0678 41.0528 40.2097Z" fill="#2070FF"/>
<path d="M73.2903 80.0142L74.0856 80.0642C74.5322 79.4401 75.0528 78.8729 75.6364 78.3756C76.0543 78.0907 76.5317 77.903 77.0318 77.8276" stroke="#313553" stroke-width="0.733" stroke-linecap="round" stroke-linejoin="round"/>
<path d="M77.7715 77.5353C78.4894 77.3113 79.2251 77.1455 79.9696 77.0407C80.5224 77.14 81.0663 77.2811 81.5979 77.4626L81.9774 76.8701" stroke="#313553" stroke-width="0.733" stroke-linecap="round" stroke-linejoin="round"/>
<path d="M76.4165 80.6872C77.1947 80.6742 77.9673 80.5536 78.7126 80.3283C79.4326 80.033 80.1251 79.6768 80.7827 79.2617" stroke="#313553" stroke-width="0.733" stroke-linecap="round" stroke-linejoin="round"/>
<path d="M73.5415 74.095C73.5545 73.8854 73.6333 73.6854 73.7669 73.5231C73.858 73.4052 73.9902 73.3265 74.1368 73.3011C74.2834 73.2758 74.4347 73.3059 74.5601 73.3861C75.0341 73.6196 75.565 73.7142 76.0904 73.6601C76.7028 73.5916 77.0864 72.9874 77.3234 72.6264C77.3782 72.5476 77.4549 72.4873 77.5446 72.4538C77.6344 72.4202 77.7323 72.4147 77.8248 72.438C77.918 72.4613 78.0015 72.5127 78.0639 72.5853C78.1269 72.6572 78.1666 72.7469 78.1769 72.8422" stroke="#313553" stroke-width="0.733" stroke-linecap="round" stroke-linejoin="round"/>
<path d="M72.3093 73.0312C71.9579 73.7991 72.1867 75.0582 73.1251 74.9308" stroke="#313553" stroke-width="0.733" stroke-linecap="round" stroke-linejoin="round"/>
<path d="M78.3367 71.127C78.3367 71.127 80.1252 72.223 78.9765 73.3121" stroke="#313553" stroke-width="0.733" stroke-linecap="round" stroke-linejoin="round"/>
<path d="M63.4309 70.6501C63.4706 70.5371 64.8482 66.9059 66.6148 66.1237C68.4115 65.3304 69.9446 65.7544 70.0199 66.5874C70.0953 67.4204 69.2116 66.6155 67.8492 66.9189C64.9728 67.5587 65.6599 68.1835 63.4309 70.6501Z" stroke="#313553" stroke-width="0.733" stroke-linecap="round" stroke-linejoin="round"/>
<path d="M74.4596 67.2754C75.1569 67.7371 75.4254 66.5904 76.3365 65.5342C77.1092 64.5989 78.1579 63.9315 79.332 63.6271C78.7785 63.4823 78.199 63.467 77.6387 63.5823C77.0776 63.6977 76.5516 63.9406 76.1002 64.2923C74.5548 65.5013 73.765 66.8165 74.4596 67.2754Z" stroke="#313553" stroke-width="0.733" stroke-linecap="round" stroke-linejoin="round"/>
<path d="M64.8599 72.4339C64.8599 72.4339 66.1066 70.5097 67.1683 70.0926C67.8795 69.8432 68.639 69.7644 69.3863 69.8617" stroke="#313553" stroke-width="0.733" stroke-linecap="round" stroke-linejoin="round"/>
<path d="M68.3095 71.0941C68.2439 70.7208 68.0623 70.3776 67.7903 70.1132C67.5067 69.8495 67.2533 70.168 66.9197 70.2337C66.2525 70.3591 65.7655 70.6927 65.9209 71.5435C65.9538 71.8257 66.0921 72.0853 66.308 72.2696C66.5239 72.4545 66.8016 72.5504 67.0854 72.5395C67.1923 72.5388 67.2989 72.5285 67.404 72.5093C67.5645 72.4929 67.7193 72.4401 67.8568 72.3552C67.9942 72.2703 68.1107 72.1559 68.1977 72.0195C68.2847 71.8839 68.34 71.7298 68.3593 71.5695C68.3787 71.4092 68.3617 71.2469 68.3095 71.0941Z" fill="#313553"/>
<path d="M75.4355 68.6075C75.4355 68.6075 76.4315 66.6826 77.4953 66.2689C78.2064 66.0181 78.9667 65.9389 79.7141 66.0381" stroke="#313553" stroke-width="0.733" stroke-linecap="round" stroke-linejoin="round"/>
<path d="M78.4365 67.3253C78.4228 67.1756 78.3783 67.0303 78.305 66.8989C78.2317 66.7675 78.1324 66.6527 78.0125 66.562C77.8927 66.4714 77.755 66.4068 77.6084 66.3724C77.4618 66.338 77.3097 66.3345 77.1625 66.3623C77.0145 66.39 76.8741 66.4484 76.7501 66.5335C76.6261 66.6187 76.5213 66.7288 76.4425 66.8568C76.3637 66.9847 76.3124 67.1278 76.2918 67.2768C76.2713 67.4258 76.2822 67.5774 76.324 67.7219C76.3439 67.8632 76.3918 67.999 76.4658 68.1212C76.5391 68.2432 76.6371 68.3491 76.7528 68.4323C76.9295 68.5494 77.1378 68.6097 77.3501 68.6049C77.4447 68.6042 77.5385 68.5953 77.631 68.5775C77.7728 68.5618 77.9091 68.5145 78.0303 68.4396C78.1516 68.3644 78.2543 68.2632 78.3317 68.1432C78.4091 68.0232 78.4585 67.8876 78.4763 67.7461C78.4948 67.6046 78.4811 67.4608 78.4365 67.3253Z" fill="#313553"/>
<path d="M74.4595 67.2754C74.5684 67.6619 74.7554 68.0219 75.0095 68.3331C75.263 68.644 75.5781 68.9002 75.935 69.0845" stroke="#313553" stroke-width="0.733" stroke-linecap="round" stroke-linejoin="round"/>
<path d="M59.3998 79.1176C59.2189 79.0019 58.025 78.284 57.3448 79.4985C56.6221 80.7836 58.1729 87.5815 63.2638 86.2656C63.3796 86.2382 63.4947 86.2033 63.6125 86.1656" stroke="#313553" stroke-width="0.733" stroke-linecap="round" stroke-linejoin="round"/>
<path d="M59.869 80.9453C58.9333 80.9453 58.5895 82.4708 59.5265 83.8511C59.8006 84.2422 60.1901 84.5381 60.6405 84.6964C61.0909 84.8553 61.5797 84.8697 62.0384 84.7368" stroke="#313553" stroke-width="0.733" stroke-linecap="round" stroke-linejoin="round"/>
<path d="M65.1833 86.9145C65.1664 86.9247 65.1488 86.9336 65.1306 86.9418C64.5614 87.2405 64.0668 86.7665 63.8058 86.1198C63.6815 85.8075 63.616 85.4753 63.6126 85.1389C63.6126 85.1389 62.5851 83.2017 61.0583 80.9488C60.6245 80.2528 60.0706 79.6391 59.4225 79.137C59.415 79.1322 59.4074 79.1246 59.3999 79.1191C59.1693 78.9212 58.8811 78.8027 58.5779 78.7808" stroke="#313553" stroke-width="0.733" stroke-linecap="round" stroke-linejoin="round"/>
<path d="M55.7109 67.8926C55.3332 71.7464 56.3509 75.6077 58.579 78.7752" stroke="#313553" stroke-width="0.733" stroke-linecap="round" stroke-linejoin="round"/>
<path d="M81.1513 65.0972C80.6595 63.5902 81.1568 63.1429 80.0875 61.542C78.201 58.7096 73.2903 55.7085 70.0235 55.7085C66.393 55.7085 59.4601 57.2738 56.8756 63.01C56.5753 63.6923 56.3369 64.4003 56.1632 65.1253C55.9401 66.0206 55.7898 66.9326 55.7139 67.8522" stroke="#313553" stroke-width="0.733" stroke-linecap="round" stroke-linejoin="round"/>
<path d="M83.2063 69.0844C82.4864 67.6137 81.824 66.6383 81.6034 66.1889C81.4274 65.8381 81.2774 65.475 81.1541 65.1025" stroke="#313553" stroke-width="0.733" stroke-linecap="round" stroke-linejoin="round"/>
<path d="M56.2509 64.7783C56.2139 64.8918 56.1846 65.0076 56.1632 65.1249C55.6686 67.6944 59.0484 69.074 59.8314 69.822C60.6493 70.6022 59.5574 72.1756 59.8314 74.4861C59.9341 75.778 60.3276 77.0302 60.9824 78.1488C61.6371 79.2668 62.5363 80.223 63.6126 80.945C66.0971 82.5205 68.4151 81.5444 71.0524 81.58C70.5427 79.4216 71.2428 77.3138 73.9828 75.9418C75.9953 74.8314 78.236 74.1984 80.5321 74.0923C81.4055 74.0491 82.2679 74.2984 82.9837 74.8012C83.6988 75.304 84.2263 76.0308 84.4811 76.8672C84.4811 76.8672 85.0907 74.4964 84.9229 73.8114C84.5263 72.1784 83.9523 70.5933 83.2104 69.0849" stroke="#313553" stroke-width="0.733" stroke-linecap="round" stroke-linejoin="round"/>
<path d="M86.6237 78.7849C86.7326 78.8102 86.8457 78.8109 86.9553 78.7862C87.0642 78.7616 87.1662 78.7129 87.2532 78.6431C87.3409 78.5732 87.4115 78.4841 87.4587 78.3828C87.5067 78.2821 87.5313 78.1711 87.53 78.0594C87.6574 77.121 86.4285 76.4086 86.4285 76.4086C86.6381 76.4031 86.8374 76.3154 86.9827 76.164C87.1279 76.0127 87.2087 75.8106 87.206 75.601C87.206 74.8228 86.0093 73.9494 86.0093 73.9494C85.3489 72.1856 84.4029 70.5429 83.209 69.0859" stroke="#313553" stroke-width="0.733" stroke-linecap="round" stroke-linejoin="round"/>
<path d="M86.6142 78.7821C86.6066 78.7815 86.5991 78.7794 86.5916 78.7773" stroke="#313553" stroke-width="0.733" stroke-linecap="round" stroke-linejoin="round"/>
<path d="M86.614 78.7822C86.614 78.7822 86.6191 78.7822 86.6241 78.7822" stroke="#313553" stroke-width="0.733" stroke-linecap="round" stroke-linejoin="round"/>
<path d="M88.265 81.8432C88.2808 81.6877 88.2602 81.5308 88.2041 81.3849C88.1486 81.239 88.0595 81.1082 87.9438 81.0027C87.9438 81.0027 88.526 81.0027 88.5562 80.1622C88.5863 79.384 86.8772 78.8607 86.6238 78.7847" stroke="#313553" stroke-width="0.733" stroke-linecap="round" stroke-linejoin="round"/>
<path d="M85.836 88.4146C86.586 87.7824 87.4067 87.1816 88.5308 86.3021C88.9876 85.9308 89.4048 85.513 89.7754 85.0554C90.6042 84.0436 91.329 82.9504 91.9386 81.7934C92.1297 81.5105 92.2578 81.1899 92.3154 80.8529C92.3729 80.5166 92.3585 80.1713 92.2722 79.8412C91.9297 79.0411 90.7365 79.1411 89.9686 80.2254C89.5644 80.9104 89.1123 81.566 88.6164 82.1873C88.0924 82.7442 87.508 83.2415 86.8751 83.6703C85.2592 84.8095 83.5803 86.0363 82.2404 86.9446C79.0894 89.0873 75.9302 90.8566 73.78 90.7183C71.6297 90.5799 70.9269 87.8604 69.0199 86.7391C67.2505 85.7 65.8607 86.2596 65.1305 86.9446C65.0729 86.9974 65.0202 87.0501 64.9702 87.1056C64.7859 87.2714 64.6711 87.5008 64.6488 87.7481C64.6264 87.9954 64.6982 88.2413 64.8496 88.4379C65.1912 88.8688 65.6249 89.2174 66.1189 89.4592C67.8314 90.41 69.0096 91.5944 69.361 93.2151C69.6159 94.6454 70.0803 96.0304 70.7386 97.3251C71.3859 98.5848 71.8346 98.7704 73.2902 100.053" stroke="#313553" stroke-width="0.733" stroke-linecap="round" stroke-linejoin="round"/>
<path d="M90.4151 88.189C90.7282 88.7678 90.8795 89.4206 90.8549 90.0782C90.8295 90.7358 90.6281 91.3742 90.2719 91.9277C89.9596 92.4812 89.5808 92.9942 89.1431 93.4552" stroke="#313553" stroke-width="0.733" stroke-linecap="round" stroke-linejoin="round"/>
<path d="M90.272 91.9272C90.6488 92.365 90.9057 92.8938 91.0173 93.4603C91.066 93.8672 91.0372 94.2789 90.9324 94.6748C90.7241 95.5187 90.296 96.2921 89.6925 96.9175C88.6856 97.9929 87.6081 98.9999 86.4662 99.9315C85.9257 100.37 85.3572 100.773 84.7646 101.138" stroke="#313553" stroke-width="0.733" stroke-linecap="round" stroke-linejoin="round"/>
<path d="M86.4661 99.9292L81.1642 111.095L80.0449 113.453" stroke="#313553" stroke-width="0.733" stroke-linecap="round" stroke-linejoin="round"/>
<path d="M73.2901 100.05L70.9542 103.908L69.0301 107.09L65.5949 112.768C65.5949 112.768 64.1564 113.12 62.4911 115.054C60.6697 117.169 53.0265 130.952 51.1201 133.747" stroke="#313553" stroke-width="0.733" stroke-linecap="round" stroke-linejoin="round"/>
<path d="M69.0303 107.09C69.0303 107.09 75.5213 111.885 79.9903 113.598C80.7451 113.914 81.5439 114.116 82.359 114.195C82.7536 114.237 83.1522 114.203 83.5338 114.094C84.9963 113.54 81.165 111.093 81.165 111.093" stroke="#313553" stroke-width="0.733" stroke-linecap="round" stroke-linejoin="round"/>
<path d="M83.533 114.096L80.4114 118.956C81.23 120.377 81.4554 122.064 81.0389 123.651C80.3888 126.491 78.5044 130.563 76.7378 133.747" stroke="#313553" stroke-width="0.733" stroke-linecap="round" stroke-linejoin="round"/>
<path d="M35.072 133.747C35.072 133.747 34.1061 118.702 37.9675 109.491C41.8288 100.28 62.0404 94.9561 62.0404 94.9561C62.0404 94.9561 63.2673 101.136 70.9578 103.908" stroke="#313553" stroke-width="0.733" stroke-linecap="round" stroke-linejoin="round"/>
<path d="M63.2639 86.2642L64.9148 94.9561L65.1833 96.3686" stroke="#313553" stroke-width="0.733" stroke-linecap="round" stroke-linejoin="round"/>
<path d="M62.4036 95.8116L63.2639 95.5178L64.9148 94.9561H64.9175" stroke="#313553" stroke-width="0.733" stroke-linecap="round" stroke-linejoin="round"/>
<path d="M91.0427 93.4556C91.0427 93.4556 104.484 93.9652 109.731 99.4404C118.229 108.308 115.469 133.747 115.469 133.747" stroke="#313553" stroke-width="0.733" stroke-linecap="round" stroke-linejoin="round"/>
<path d="M104.141 129.961C103.646 132.106 103.24 133.747 103.24 133.747" stroke="#313553" stroke-width="0.733" stroke-linecap="round" stroke-linejoin="round"/>
<path d="M105.887 120.76C105.822 122.411 104.883 126.749 104.143 129.958" stroke="#313553" stroke-width="0.733" stroke-linecap="round" stroke-linejoin="round"/>
<path d="M72.8914 81.5725C73.3709 82.6685 75.0465 84.5304 76.7754 83.8077C78.5043 83.085 77.8673 81.404 79.3784 80.8725C81.1375 80.2498 81.358 81.3588 82.6979 81.215C84.1686 81.0595 84.1761 79.16 83.398 77.2837C81.5992 73.7382 78.3194 75.6473 75.7376 76.6186C73.1559 77.5899 71.6543 78.6969 72.8914 81.5725Z" stroke="#313553" stroke-width="0.733" stroke-linecap="round" stroke-linejoin="round"/>
<path d="M109.926 54.5186L109.934 54.5261C110.089 54.7645 113.775 60.4582 108.541 63.79C103.194 67.1952 99.2324 59.6677 99.2324 59.6677C99.2324 59.6677 98.4598 66.1752 92.3646 66.6547C91.2844 66.7152 90.2069 66.5045 89.2287 66.0417C88.2512 65.5789 87.4046 64.8788 86.7668 64.0051C85.9996 63.0567 85.3865 61.9933 84.9502 60.8541" stroke="#313553" stroke-width="0.733" stroke-linecap="round" stroke-linejoin="round"/>
<path d="M93.2969 14.1164C93.3654 13.9959 95.6752 10.0167 100.265 10.9476C105.32 11.9751 104.598 17.2859 104.598 17.2859C104.598 17.2859 115.272 9.55777 122.804 19.8602C130.894 30.925 120.428 38.8744 120.428 38.8744C120.428 38.8744 130.171 45.3428 123.833 53.2642C117.62 61.03 110.226 54.7712 109.937 54.526" stroke="#313553" stroke-width="0.733" stroke-linecap="round" stroke-linejoin="round"/>
<path d="M36.2152 23.1532C36.1577 23.0162 34.276 18.4561 37.6407 16.2531C41.3041 13.8556 44.8791 18.1602 44.8791 18.1602C44.8791 18.1602 46.3697 6.59194 57.9469 4.01771C69.524 1.44348 75.1869 11.5424 75.1869 11.5424C75.1869 11.5424 79.5332 4.14443 87.4121 6.42137C93.2681 8.11261 93.2935 14.0166 93.2935 14.1146" stroke="#313553" stroke-width="0.733" stroke-linecap="round" stroke-linejoin="round"/>
<path d="M51.7593 69.8949C51.7593 69.8949 51.3983 73.2897 46.9143 74.5419C42.4303 75.7941 40.1369 71.7615 40.1369 71.7615C40.1369 71.7615 29.2276 80.5384 18.8423 74.9392C9.91742 70.1243 9.66876 58.5218 16.8524 50.2244C16.8524 50.2244 10.025 49.4969 11.1538 43.2895C12.3683 36.6176 20.3274 37.4903 20.3274 37.4903C20.3274 37.4903 15.033 30.2457 21.2007 23.6389C27.3055 17.0999 36.0372 23.0265 36.2132 23.1471" stroke="#313553" stroke-width="0.733" stroke-linecap="round" stroke-linejoin="round"/>
<path d="M51.8044 83.3994C52.8134 83.3994 53.6313 82.5815 53.6313 81.5725C53.6313 80.5635 52.8134 79.7456 51.8044 79.7456C50.7954 79.7456 49.9775 80.5635 49.9775 81.5725C49.9775 82.5815 50.7954 83.3994 51.8044 83.3994Z" stroke="#313553" stroke-width="0.733" stroke-linecap="round" stroke-linejoin="round"/>
<path d="M44.6113 85.4461C46.047 85.4461 47.2109 84.0576 47.2109 82.3451C47.2109 80.6326 46.047 79.2441 44.6113 79.2441C43.1755 79.2441 42.0117 80.6326 42.0117 82.3451C42.0117 84.0576 43.1755 85.4461 44.6113 85.4461Z" stroke="#313553" stroke-width="0.733" stroke-linecap="round" stroke-linejoin="round"/>
<path d="M38.9175 81.2741C38.3051 82.8448 36.3234 84.1717 34.7527 83.562C33.182 82.9524 32.6169 80.6316 33.2293 79.0609C33.8417 77.4902 35.8241 76.1626 37.3948 76.775C38.9655 77.3874 39.5299 79.7034 38.9175 81.2741Z" stroke="#313553" stroke-width="0.733" stroke-linecap="round" stroke-linejoin="round"/>
<path d="M41.0528 40.2097C41.7433 41.3564 38.2957 44.7033 33.3472 47.6892C28.3988 50.6751 23.8326 52.1684 23.1407 51.0245C22.4489 49.8805 25.9013 46.5302 30.8463 43.5443C35.7913 40.5583 40.363 39.0678 41.0528 40.2097Z" stroke="#313553" stroke-width="0.733" stroke-linecap="round" stroke-linejoin="round" stroke-dasharray="4.4 4.4"/>
<path d="M50.1311 55.2488C50.8209 56.3935 47.3712 59.7431 42.4255 62.729C37.4798 65.7149 32.9082 67.2076 32.219 66.0609C31.5299 64.9143 34.9769 61.5673 39.9219 58.5835C44.8669 55.5996 49.4386 54.1049 50.1311 55.2488Z" stroke="#313553" stroke-width="0.733" stroke-linecap="round" stroke-linejoin="round" stroke-dasharray="4.4 4.4"/>
<path d="M23.1399 51.0264L32.2182 66.0608" stroke="#313553" stroke-width="0.733" stroke-linecap="round" stroke-linejoin="round" stroke-dasharray="4.4 4.4"/>
<path d="M41.0527 40.2119L50.131 55.249" stroke="#313553" stroke-width="0.733" stroke-linecap="round" stroke-linejoin="round" stroke-dasharray="4.4 4.4"/>
<path d="M19.7356 45.3828L25.2005 42.0859" stroke="#313553" stroke-width="0.733" stroke-linecap="round" stroke-linejoin="round"/>
<path d="M32.1833 37.8682L37.6483 34.5713" stroke="#313553" stroke-width="0.733" stroke-linecap="round" stroke-linejoin="round"/>
<path d="M28.5248 41.3535C28.6634 41.4189 28.816 41.4487 28.9689 41.4404C29.1219 41.4319 29.2703 41.3856 29.4009 41.3056C29.507 41.2425 29.5995 41.1592 29.6733 41.0603C29.747 40.9613 29.8005 40.8489 29.8305 40.7292C29.8605 40.6095 29.8666 40.4851 29.8483 40.3631C29.8301 40.2411 29.7878 40.1239 29.724 40.0182C29.6602 39.9127 29.5762 39.8207 29.4767 39.7477C29.3773 39.6747 29.2644 39.6222 29.1445 39.593C29.0246 39.5639 28.9002 39.5587 28.7782 39.5778C28.6564 39.597 28.5395 39.6402 28.4344 39.7047L28.407 39.6595C28.6138 39.5288 28.761 39.3223 28.8173 39.0842C28.8736 38.8462 28.8343 38.5956 28.708 38.3861C28.5816 38.1767 28.3782 38.0251 28.1414 37.9638C27.9045 37.9026 27.6532 37.9367 27.4411 38.0587C27.3092 38.1369 27.1988 38.2468 27.1198 38.3783C27.0409 38.5098 26.996 38.6589 26.989 38.8122" stroke="#313553" stroke-width="0.733" stroke-linecap="round" stroke-linejoin="round"/>
<path d="M78.9737 29.2216C79.4292 32.1399 78.7285 35.1208 77.0187 37.5297C75.3096 39.9386 72.7279 41.5851 69.8228 42.1188C69.7248 42.1338 69.6269 42.1517 69.5289 42.1667C66.5638 42.6222 63.5391 41.8832 61.1181 40.1119C58.697 38.3405 57.0773 35.6813 56.614 32.7174C56.1507 29.7535 56.8817 26.7268 58.6467 24.3011C60.4117 21.8754 63.0666 20.2486 66.0293 19.7775C66.1272 19.7624 66.2224 19.7474 66.3204 19.7371C69.2494 19.3564 72.2121 20.1349 74.5753 21.9066C76.9393 23.6783 78.5175 26.3032 78.9737 29.2216Z" stroke="#313553" stroke-width="0.733" stroke-linecap="round" stroke-linejoin="round"/>
<path d="M66.0264 17.8555L66.3202 19.7372L68.0711 30.928L69.8226 42.1189L70.1165 43.9985" stroke="#313553" stroke-width="0.733" stroke-linecap="round" stroke-linejoin="round" stroke-dasharray="4.4 4.4"/>
<path d="M55.0012 32.9707L56.5843 32.722L68.071 30.928L78.9736 29.2217L81.1416 28.8833" stroke="#313553" stroke-width="0.733" stroke-linecap="round" stroke-linejoin="round" stroke-dasharray="4.4 4.4"/>
<path d="M45.9558 29.4204C43.9988 34.436 46.0332 44.0232 53.7463 45.0268C61.4594 46.0303 60.6443 49.1772 63.1993 51.1794C65.7544 53.1817 68.8163 52.3261 71.1508 50.4643" stroke="#313553" stroke-width="0.733" stroke-linecap="round" stroke-linejoin="round"/>
<path d="M88.0341 35.8385L77.0364 47.6712L76.946 46.369L75.7691 46.4944L75.739 45.2477L74.5046 45.3176L85.5023 33.4849" stroke="#313553" stroke-width="0.733" stroke-linecap="round" stroke-linejoin="round"/>
<path d="M73.504 48.0577L72.9792 49.4983L74.3766 48.8681L77.0365 47.6714" stroke="#313553" stroke-width="0.733" stroke-linecap="round" stroke-linejoin="round"/>
<path d="M74.5046 45.3179L73.5059 48.0579" stroke="#313553" stroke-width="0.733" stroke-linecap="round" stroke-linejoin="round"/>
<path d="M73.5039 48.0578C74.0862 47.9126 74.6636 48.2941 74.3745 48.8682" stroke="#313553" stroke-width="0.733" stroke-linecap="round" stroke-linejoin="round"/>
<path d="M86.767 34.6616L77.1167 45.0442" stroke="#313553" stroke-width="0.733" stroke-linecap="round" stroke-linejoin="round"/>
<path d="M89.3241 34.4508L88.0342 35.8386L86.767 34.6618L85.5024 33.485L86.7923 32.0972" stroke="#313553" stroke-width="0.733" stroke-linecap="round" stroke-linejoin="round"/>
<path d="M89.324 34.4509L89.8988 33.831C90.0536 33.6646 90.1735 33.4694 90.2529 33.2565C90.3317 33.0436 90.368 32.8172 90.3598 32.5903C90.3516 32.3633 90.2981 32.1402 90.2036 31.9338C90.1091 31.7273 89.9748 31.5415 89.8083 31.3869C89.6419 31.2324 89.4467 31.1122 89.2336 31.0331C89.0206 30.954 88.7946 30.9176 88.5678 30.926C88.3404 30.9344 88.1178 30.9874 87.9109 31.082C87.7047 31.1766 87.5191 31.311 87.3643 31.4774L86.7896 32.0973L89.324 34.4509Z" stroke="#313553" stroke-width="0.733" stroke-linecap="round" stroke-linejoin="round"/>
<path d="M89.8809 85.1455C90.2138 85.5654 90.4316 86.0648 90.5124 86.595C90.5933 87.1245 90.535 87.6663 90.3426 88.1664C89.9685 89.1678 89.3589 90.0645 88.5657 90.781" stroke="#313553" stroke-width="0.733" stroke-linecap="round" stroke-linejoin="round"/>
<path d="M64.8496 88.4338C64.8496 88.4338 65.6449 87.3926 66.4553 87.8111C67.2656 88.2297 67.63 88.4338 67.63 88.4338" stroke="#313553" stroke-width="0.733" stroke-linecap="round" stroke-linejoin="round"/>
<path d="M62.0369 94.9563C62.2747 94.9029 62.5234 94.9289 62.7449 95.0303C62.9665 95.1317 63.1487 95.3029 63.2637 95.518" stroke="#313553" stroke-width="0.733" stroke-linecap="round" stroke-linejoin="round"/>
<path d="M90.9597 81.246C90.9597 81.246 91.0248 79.6884 92.2722 79.8411" stroke="#313553" stroke-width="0.733" stroke-linecap="round" stroke-linejoin="round"/>
<path d="M49.74 67.1123C49.74 67.1123 49.7948 69.5208 51.7669 69.8571C52.0928 69.9092 52.4248 69.9092 52.7506 69.8571C55.4152 69.4831 55.6837 68.1384 55.7111 67.8898C55.7111 67.8644 55.7111 67.8494 55.7111 67.8494" stroke="#313553" stroke-width="0.733" stroke-linecap="round" stroke-linejoin="round"/>
<path d="M81.1514 65.0971V65.1025C81.4452 65.6388 81.9062 66.0645 82.4645 66.3149C83.0221 66.5652 83.6468 66.6266 84.2428 66.4897C86.0923 66.1711 86.7643 64.0059 86.7643 64.0059" stroke="#313553" stroke-width="0.733" stroke-linecap="round" stroke-linejoin="round"/>
<path d="M114.694 36.1816L97.0844 21.25L91.4016 52.5312L114.694 36.1816Z" stroke="#313553" stroke-width="0.733" stroke-linecap="round" stroke-linejoin="round"/>
<path d="M110.425 35.9868L95.1101 46.7379L98.8461 26.168L110.425 35.9868Z" stroke="#313553" stroke-width="0.733" stroke-linecap="round" stroke-linejoin="round"/>
<path d="M93.6594 54.539L116.952 38.1895" stroke="#313553" stroke-width="0.733" stroke-linecap="round" stroke-linejoin="round" stroke-dasharray="4.4 4.4"/>
<path d="M107.771 126.563C106.63 127.767 105.417 128.9 104.141 129.958" stroke="#313553" stroke-width="0.733" stroke-linecap="round" stroke-linejoin="round"/>
</svg>
