<svg width="20" height="20" viewBox="0 0 20 20" fill="none" xmlns="http://www.w3.org/2000/svg">
                    <path d="M18.3307 10.1699V11.4375C18.3307 14.6882 18.3307 16.3136 17.3544 17.3234C16.3781 18.3334 14.8067 18.3334 11.6641 18.3334H8.33073C5.18803 18.3334 3.61669 18.3334 2.64037 17.3234C1.66406 16.3136 1.66406 14.6882 1.66406 11.4375V10.1699C1.66406 8.26293 1.66406 7.30942 2.09673 6.51897C2.5294 5.72853 3.31985 5.23795 4.90075 4.2568L6.56742 3.22241C8.23855 2.18526 9.07415 1.66669 9.9974 1.66669C10.9206 1.66669 11.7562 2.18526 13.4274 3.22241L15.0941 4.25679C16.675 5.23795 17.4654 5.72853 17.8981 6.51897" stroke="#6B7280" stroke-opacity="0.8" stroke-width="1.5" stroke-linecap="round"/>
                    <path d="M12.5 15H7.5" stroke="#6B7280" stroke-opacity="0.8" stroke-width="1.5" stroke-linecap="round"/>
                </svg>