<svg class="mt-1" width="16" height="14" viewBox="0 0 18 14" fill="none" xmlns="http://www.w3.org/2000/svg">
                    <path fill-rule="evenodd" clip-rule="evenodd" d="M16.5625 11.0417C16.5625 11.1537 16.541 11.2597 16.5101 11.3608L11.5938 6.07292L16.5625 2.20833V11.0417ZM1.96321 12.116L6.9452 6.80718L8.83333 8.23433L10.6398 6.79835L15.7035 12.116C15.6245 12.1342 2.04216 12.1342 1.96321 12.116ZM1.10417 11.0417V2.20833L6.07292 6.07292L1.15662 11.3608C1.1257 11.2597 1.10417 11.1537 1.10417 11.0417ZM16.0104 1.10417L8.83333 6.625L1.65625 1.10417H16.0104ZM15.4583 0H2.20833C0.988781 0 0 0.988781 0 2.20833V11.0417C0 12.2612 0.988781 13.25 2.20833 13.25H15.4583C16.6779 13.25 17.6667 12.2612 17.6667 11.0417V2.20833C17.6667 0.988781 16.6779 0 15.4583 0Z" fill="white"/>
                </svg> 